<?xml version="1.0" encoding="UTF-8" standalone="no"?>
<svg
   xmlns:dc="http://purl.org/dc/elements/1.1/"
   xmlns:cc="http://creativecommons.org/ns#"
   xmlns:rdf="http://www.w3.org/1999/02/22-rdf-syntax-ns#"
   xmlns:svg="http://www.w3.org/2000/svg"
   xmlns="http://www.w3.org/2000/svg"
   xmlns:sodipodi="http://sodipodi.sourceforge.net/DTD/sodipodi-0.dtd"
   xmlns:inkscape="http://www.inkscape.org/namespaces/inkscape"
   version="1.0"
   inkscape:output_extension="org.inkscape.output.svg.inkscape"
   sodipodi:docname="Ic-package-P2PAK_P2PAKA.svg"
   inkscape:version="1.0beta2 (2b71d25, 2019-12-03)"
   sodipodi:version="0.32"
   id="svg3650"
   height="258.14972"
   width="289.18774">
  <defs
     id="defs3652" />
  <sodipodi:namedview
     inkscape:window-maximized="0"
     lock-margins="true"
     fit-margin-bottom="20"
     fit-margin-right="20"
     fit-margin-left="20"
     fit-margin-top="20"
     showgrid="false"
     inkscape:document-rotation="0"
     height="75px"
     width="75px"
     inkscape:window-y="23"
     inkscape:window-x="1440"
     inkscape:window-height="1035"
     inkscape:window-width="1920"
     inkscape:current-layer="layer1"
     inkscape:document-units="px"
     inkscape:cy="155.95859"
     inkscape:cx="45.922232"
     inkscape:zoom="0.98994949"
     inkscape:pageshadow="2"
     inkscape:pageopacity="0.0"
     objecttolerance="10"
     guidetolerance="10"
     gridtolerance="10000"
     borderopacity="1.0"
     bordercolor="#666666"
     pagecolor="#ffffff"
     id="base" />
  <metadata
     id="metadata3655">
    <rdf:RDF>
      <cc:Work
         rdf:about="">
        <dc:format>image/svg+xml</dc:format>
        <dc:type
           rdf:resource="http://purl.org/dc/dcmitype/StillImage" />
        <dc:title></dc:title>
      </cc:Work>
    </rdf:RDF>
  </metadata>
  <g
     transform="translate(107.28517,93.101443)"
     id="layer1"
     inkscape:groupmode="layer"
     inkscape:label="Layer 1">
    <g
       transform="matrix(4,0,0,4,1023.0526,22151.141)"
       id="g3617">
      <path
         inkscape:connector-curvature="0"
         style="fill:none;fill-rule:evenodd;stroke:#000000;stroke-width:1px;stroke-linecap:butt;stroke-linejoin:miter;stroke-opacity:1"
         d="m -268.15467,-5542.5589 19.69797,24.7488 3.283,-2.2729 c -0.16586,-5.6375 2.05983,-8.8834 10.6066,-5.8083 l 12.62691,-7.0711 -21.71828,-22.4759 -10.10153,5.5558 c 0.38332,6.6483 -3.33153,8.0807 -10.35406,5.3034 z"
         id="path3555"
         sodipodi:nodetypes="ccccccccc" />
      <path
         inkscape:connector-curvature="0"
         style="fill:none;fill-rule:evenodd;stroke:#000000;stroke-width:1px;stroke-linecap:butt;stroke-linejoin:miter;stroke-opacity:1"
         d="m -248.4567,-5518.0627 1.01016,12.627 29.04188,-17.1726 v -8.5863 l -3.53553,-2.0203"
         id="path3557" />
      <path
         inkscape:connector-curvature="0"
         style="fill:none;fill-rule:evenodd;stroke:#000000;stroke-width:1px;stroke-linecap:butt;stroke-linejoin:miter;stroke-opacity:1"
         d="m -218.45212,-5531.2722 -20.53572,-21.4286 -4.46428,-2.5893 -0.0893,0.3572 v 0"
         id="path3559" />
      <path
         inkscape:connector-curvature="0"
         style="fill:none;fill-rule:evenodd;stroke:#000000;stroke-width:1px;stroke-linecap:butt;stroke-linejoin:miter;stroke-opacity:1"
         d="m -218.18427,-5523.1473 2.23215,-1.4285 0.0893,-3.6607 -2.41071,1.6072"
         id="path3561"
         sodipodi:nodetypes="cccc" />
      <path
         inkscape:connector-curvature="0"
         style="fill:none;fill-rule:evenodd;stroke:#000000;stroke-width:1px;stroke-linecap:butt;stroke-linejoin:miter;stroke-opacity:1"
         d="m -215.77355,-5528.3258 -1.25,-5.1786 -13.21429,-13.3928 -4.10714,-1.3393"
         id="path3563" />
      <path
         inkscape:connector-curvature="0"
         style="fill:none;fill-rule:evenodd;stroke:#000000;stroke-width:1px;stroke-linecap:butt;stroke-linejoin:miter;stroke-opacity:1"
         d="m -245.05926,-5520.2901 0.71428,9.1965 9.01786,-5.7143 0.71428,-0.7143 0.53572,-0.089 -0.35714,-8.0357"
         id="path3565" />
      <path
         inkscape:connector-curvature="0"
         style="fill:none;fill-rule:evenodd;stroke:#000000;stroke-width:1px;stroke-linecap:butt;stroke-linejoin:miter;stroke-opacity:1"
         d="m -244.25569,-5511.2722 c 2.50446,-9.7353 10.09604,-6.5567 10.17857,-6.5179"
         id="path3567"
         sodipodi:nodetypes="cc" />
      <ellipse
         ry="2.8125"
         rx="3.0803571"
         cy="-769.91461"
         cx="-164.15178"
         style="fill:none;fill-opacity:1;fill-rule:nonzero;stroke:#000000;stroke-width:1;stroke-miterlimit:4;stroke-dasharray:none;stroke-opacity:1"
         id="path3569"
         transform="translate(-88.094974,-4763.0094)" />
      <path
         inkscape:connector-curvature="0"
         style="fill:none;fill-rule:evenodd;stroke:#000000;stroke-width:1px;stroke-linecap:butt;stroke-linejoin:miter;stroke-opacity:1"
         d="m -254.88069,-5534.2186 c 4.17939,-1.0217 4.71176,0.7456 4.91071,2.7678"
         id="path3571"
         sodipodi:nodetypes="cc" />
      <path
         inkscape:connector-curvature="0"
         style="fill:none;fill-rule:evenodd;stroke:#000000;stroke-width:1px;stroke-linecap:butt;stroke-linejoin:miter;stroke-opacity:1"
         d="m -268.09498,-5542.5222 -0.39413,8.2602"
         id="path3573"
         sodipodi:nodetypes="cc" />
      <path
         inkscape:connector-curvature="0"
         style="fill:none;fill-rule:evenodd;stroke:#000000;stroke-width:1px;stroke-linecap:butt;stroke-linejoin:miter;stroke-opacity:1"
         d="m -247.64855,-5505.6472 -5.32465,-5.9541"
         id="path3575"
         sodipodi:nodetypes="cc" />
      <g
         id="g3577"
         transform="translate(-63.726172,-18.729544)">
        <path
           inkscape:connector-curvature="0"
           sodipodi:nodetypes="ccccccccccccc"
           id="path3579"
           d="m -186.48114,-5496.7901 -1.97767,-2.137 -4.35211,1.7573 -0.99267,2.1179 -0.0814,4.6528 -0.76945,1.3267 -4.56414,2.1857 1.95046,1.8031 4.6699,-2.2249 0.63814,-1.0589 v -3.971 l 1.13448,-2.3872 z"
           style="fill:none;fill-rule:evenodd;stroke:#000000;stroke-width:0.767235px;stroke-linecap:butt;stroke-linejoin:miter;stroke-opacity:1" />
        <path
           inkscape:connector-curvature="0"
           sodipodi:nodetypes="ccccccccc"
           id="path3581"
           d="m -199.58362,-5486.9529 -0.008,1.8069 1.9975,1.8951 6.42248,-2.9632 0.87162,-1.6272 -0.10028,-3.5705 0.85086,-1.5222 3.12693,-1.7222 0.12103,-2.0483"
           style="fill:none;fill-rule:evenodd;stroke:#000000;stroke-width:0.767235px;stroke-linecap:butt;stroke-linejoin:miter;stroke-opacity:1" />
        <path
           inkscape:connector-curvature="0"
           sodipodi:nodetypes="cc"
           id="path3583"
           d="m -197.44909,-5485.4908 -0.15041,2.3566"
           style="fill:none;fill-rule:evenodd;stroke:#000000;stroke-width:0.767235px;stroke-linecap:butt;stroke-linejoin:miter;stroke-opacity:1" />
      </g>
      <path
         inkscape:connector-curvature="0"
         style="fill:none;fill-rule:evenodd;stroke:#000000;stroke-width:0.767235px;stroke-linecap:butt;stroke-linejoin:miter;stroke-opacity:1"
         d="m -260.17528,-5528.1431 -1.97767,-2.137 -4.35211,1.7573 -0.99267,2.1179 -0.0814,4.6528 -0.76945,1.3267 -4.56415,2.1857 1.95046,1.8031 4.66991,-2.2249 0.63813,-1.0589 v -3.971 l 1.13448,-2.3872 z"
         id="path3585"
         sodipodi:nodetypes="ccccccccccccc" />
      <path
         inkscape:connector-curvature="0"
         style="fill:none;fill-rule:evenodd;stroke:#000000;stroke-width:0.767235px;stroke-linecap:butt;stroke-linejoin:miter;stroke-opacity:1"
         d="m -273.27775,-5518.3059 -0.008,1.8069 1.9975,1.8951 6.42248,-2.9632 0.87161,-1.6272 -0.10028,-3.5705 1.10341,-2.1535 2.81125,-1.2803 0.18417,-1.8589"
         id="path3587"
         sodipodi:nodetypes="ccccccccc" />
      <path
         inkscape:connector-curvature="0"
         style="fill:none;fill-rule:evenodd;stroke:#000000;stroke-width:0.767235px;stroke-linecap:butt;stroke-linejoin:miter;stroke-opacity:1"
         d="m -271.14323,-5516.8438 -0.15041,2.3566"
         id="path3589"
         sodipodi:nodetypes="cc" />
      <g
         id="g3591"
         transform="translate(-67.506949,-23.524274)">
        <path
           inkscape:connector-curvature="0"
           sodipodi:nodetypes="ccccccccccccc"
           id="path3593"
           d="m -186.48114,-5496.7901 -1.97767,-2.137 -4.35211,1.7573 -0.99267,2.1179 -0.0814,4.6528 -0.76945,1.3267 -4.56414,2.1857 1.95046,1.8031 4.6699,-2.2249 0.63814,-1.0589 v -3.971 l 1.13448,-2.3872 z"
           style="fill:none;fill-rule:evenodd;stroke:#000000;stroke-width:0.767235px;stroke-linecap:butt;stroke-linejoin:miter;stroke-opacity:1" />
        <path
           inkscape:connector-curvature="0"
           sodipodi:nodetypes="ccccccccc"
           id="path3595"
           d="m -199.58362,-5486.9529 -0.008,1.8069 1.9975,1.8951 6.42248,-2.9632 0.87162,-1.6272 -0.10028,-3.5705 0.85086,-1.5222 3.12693,-1.7222 0.12103,-2.0483"
           style="fill:none;fill-rule:evenodd;stroke:#000000;stroke-width:0.767235px;stroke-linecap:butt;stroke-linejoin:miter;stroke-opacity:1" />
        <path
           inkscape:connector-curvature="0"
           sodipodi:nodetypes="cc"
           id="path3597"
           d="m -197.44909,-5485.4908 -0.15041,2.3566"
           style="fill:none;fill-rule:evenodd;stroke:#000000;stroke-width:0.767235px;stroke-linecap:butt;stroke-linejoin:miter;stroke-opacity:1" />
      </g>
      <g
         id="g3599"
         transform="translate(-77.608474,-36.024913)">
        <path
           inkscape:connector-curvature="0"
           sodipodi:nodetypes="ccccccccccccc"
           id="path3601"
           d="m -186.48114,-5496.7901 -1.97767,-2.137 -4.35211,1.7573 -0.99267,2.1179 -0.0814,4.6528 -0.76945,1.3267 -4.56414,2.1857 1.95046,1.8031 4.6699,-2.2249 0.63814,-1.0589 v -3.971 l 1.13448,-2.3872 z"
           style="fill:none;fill-rule:evenodd;stroke:#000000;stroke-width:0.767235px;stroke-linecap:butt;stroke-linejoin:miter;stroke-opacity:1" />
        <path
           inkscape:connector-curvature="0"
           sodipodi:nodetypes="ccccccccc"
           id="path3603"
           d="m -199.58362,-5486.9529 -0.008,1.8069 1.9975,1.8951 6.42248,-2.9632 0.87162,-1.6272 -0.10028,-3.5705 0.85086,-1.5222 3.12693,-1.7222 0.12103,-2.0483"
           style="fill:none;fill-rule:evenodd;stroke:#000000;stroke-width:0.767235px;stroke-linecap:butt;stroke-linejoin:miter;stroke-opacity:1" />
        <path
           inkscape:connector-curvature="0"
           sodipodi:nodetypes="cc"
           id="path3605"
           d="m -197.44909,-5485.4908 -0.15041,2.3566"
           style="fill:none;fill-rule:evenodd;stroke:#000000;stroke-width:0.767235px;stroke-linecap:butt;stroke-linejoin:miter;stroke-opacity:1" />
      </g>
      <g
         id="g3607"
         transform="matrix(0.974102,0,0,0.7878458,-81.689617,-1198.0103)">
        <path
           inkscape:connector-curvature="0"
           id="path3609"
           d="m -182.20963,-5494.0406 2.08177,2.9479 -3.3411,1.5444 -2.08176,-2.7075 z"
           style="fill:none;fill-rule:evenodd;stroke:#000000;stroke-width:1px;stroke-linecap:butt;stroke-linejoin:miter;stroke-opacity:1"
           sodipodi:nodetypes="ccccc" />
        <path
           inkscape:connector-curvature="0"
           sodipodi:nodetypes="ccccc"
           id="path3611"
           d="m -185.86639,-5492.2729 -0.0615,2.1297 2.00687,2.7026 3.91769,-1.9281 0.12963,-1.6439"
           style="fill:none;fill-rule:evenodd;stroke:#000000;stroke-width:1px;stroke-linecap:butt;stroke-linejoin:miter;stroke-opacity:1" />
        <path
           inkscape:connector-curvature="0"
           id="path3613"
           d="m -183.53545,-5489.7547 -0.25757,2.1538"
           style="fill:none;fill-rule:evenodd;stroke:#000000;stroke-width:1px;stroke-linecap:butt;stroke-linejoin:miter;stroke-opacity:1"
           sodipodi:nodetypes="cc" />
      </g>
      <path
         inkscape:connector-curvature="0"
         style="fill:none;fill-rule:evenodd;stroke:#000000;stroke-width:1px;stroke-linecap:butt;stroke-linejoin:miter;stroke-opacity:1"
         d="m -260.83219,-5519.7951 -2.96732,-3.0936"
         id="path3615"
         sodipodi:nodetypes="cc" />
    </g>
  </g>
</svg>
