<?xml version="1.0" encoding="UTF-8" standalone="no"?>
<svg
   xmlns:dc="http://purl.org/dc/elements/1.1/"
   xmlns:cc="http://creativecommons.org/ns#"
   xmlns:rdf="http://www.w3.org/1999/02/22-rdf-syntax-ns#"
   xmlns:svg="http://www.w3.org/2000/svg"
   xmlns="http://www.w3.org/2000/svg"
   xmlns:sodipodi="http://sodipodi.sourceforge.net/DTD/sodipodi-0.dtd"
   xmlns:inkscape="http://www.inkscape.org/namespaces/inkscape"
   version="1.0"
   inkscape:output_extension="org.inkscape.output.svg.inkscape"
   sodipodi:docname="Ic-package-MLP-28L.svg"
   inkscape:version="1.0beta2 (2b71d25, 2019-12-03)"
   sodipodi:version="0.32"
   id="svg7523"
   height="226.02934"
   width="228.40176">
  <defs
     id="defs7525" />
  <sodipodi:namedview
     inkscape:window-maximized="0"
     fit-margin-bottom="20"
     fit-margin-right="20"
     fit-margin-left="20"
     lock-margins="true"
     fit-margin-top="20"
     showgrid="false"
     inkscape:document-rotation="0"
     width="100px"
     height="100px"
     inkscape:window-y="23"
     inkscape:window-x="1440"
     inkscape:window-height="1035"
     inkscape:window-width="1920"
     inkscape:current-layer="layer1"
     inkscape:document-units="px"
     inkscape:cy="240.97109"
     inkscape:cx="-22.526297"
     inkscape:zoom="0.98994949"
     inkscape:pageshadow="2"
     inkscape:pageopacity="0.0"
     objecttolerance="10"
     guidetolerance="10"
     gridtolerance="10000"
     borderopacity="1.0"
     bordercolor="#666666"
     pagecolor="#ffffff"
     id="base" />
  <metadata
     id="metadata7528">
    <rdf:RDF>
      <cc:Work
         rdf:about="">
        <dc:format>image/svg+xml</dc:format>
        <dc:type
           rdf:resource="http://purl.org/dc/dcmitype/StillImage" />
        <dc:title></dc:title>
      </cc:Work>
    </rdf:RDF>
  </metadata>
  <g
     transform="translate(63.83664,63.828227)"
     id="layer1"
     inkscape:groupmode="layer"
     inkscape:label="Layer 1">
    <g
       transform="matrix(2,0,0,2,1876.9012,-2463.451)"
       id="g7488">
      <path
         inkscape:connector-curvature="0"
         style="fill:none;fill-rule:evenodd;stroke:#000000;stroke-width:1px;stroke-linecap:butt;stroke-linejoin:miter;stroke-opacity:1"
         d="m -959.7453,1282.8454 74.49875,11.6167 16.41498,-74.2462 -71.97337,-9.849 z"
         id="path7422" />
      <path
         inkscape:connector-curvature="0"
         style="fill:none;fill-rule:evenodd;stroke:#000000;stroke-width:1px;stroke-linecap:butt;stroke-linejoin:miter;stroke-opacity:1"
         d="m -959.7453,1282.3403 2.1692,8.6243 74.64284,11.25 -2.32143,-7.8572"
         id="path7424"
         sodipodi:nodetypes="cccc" />
      <path
         inkscape:connector-curvature="0"
         style="fill:none;fill-rule:evenodd;stroke:#000000;stroke-width:1px;stroke-linecap:butt;stroke-linejoin:miter;stroke-opacity:1"
         d="m -882.75469,1302.2146 16.07143,-75.1786 -1.96429,-6.7857"
         id="path7426"
         sodipodi:nodetypes="ccc" />
      <path
         inkscape:connector-curvature="0"
         style="fill:none;fill-rule:evenodd;stroke:#000000;stroke-width:1px;stroke-linecap:butt;stroke-linejoin:miter;stroke-opacity:1"
         d="m -928.51362,1212.0806 -1.65178,5.4018 c -0.0231,2.5518 3.41601,3.222 4.55356,0.625 l 1.74108,-5.4018"
         id="path7428"
         sodipodi:nodetypes="cccc" />
      <path
         inkscape:connector-curvature="0"
         style="fill:none;fill-rule:evenodd;stroke:#000000;stroke-width:1px;stroke-linecap:butt;stroke-linejoin:miter;stroke-opacity:1"
         d="m -921.30375,1213.0644 -1.65178,5.4018 c -0.0231,2.5518 3.41601,3.222 4.55356,0.625 l 1.74108,-5.4018"
         id="path7430"
         sodipodi:nodetypes="cccc" />
      <path
         inkscape:connector-curvature="0"
         style="fill:none;fill-rule:evenodd;stroke:#000000;stroke-width:1px;stroke-linecap:butt;stroke-linejoin:miter;stroke-opacity:1"
         d="m -914.20553,1214.3144 -1.65178,5.4018 c -0.0231,2.5518 3.41601,3.222 4.55356,0.625 l 1.74108,-5.4018"
         id="path7432"
         sodipodi:nodetypes="cccc" />
      <path
         inkscape:connector-curvature="0"
         style="fill:none;fill-rule:evenodd;stroke:#000000;stroke-width:1px;stroke-linecap:butt;stroke-linejoin:miter;stroke-opacity:1"
         d="m -907.01803,1215.0734 -1.65178,5.4018 c -0.0231,2.5518 3.41601,3.222 4.55356,0.625 l 1.74108,-5.4018"
         id="path7434"
         sodipodi:nodetypes="cccc" />
      <path
         inkscape:connector-curvature="0"
         style="fill:none;fill-rule:evenodd;stroke:#000000;stroke-width:1px;stroke-linecap:butt;stroke-linejoin:miter;stroke-opacity:1"
         d="m -899.6966,1216.1448 -1.65178,5.4018 c -0.0231,2.5518 3.41601,3.222 4.55356,0.625 l 1.74108,-5.4018"
         id="path7436"
         sodipodi:nodetypes="cccc" />
      <path
         inkscape:connector-curvature="0"
         style="fill:none;fill-rule:evenodd;stroke:#000000;stroke-width:1px;stroke-linecap:butt;stroke-linejoin:miter;stroke-opacity:1"
         d="m -892.41982,1217.2609 -1.65178,5.4018 c -0.0231,2.5518 3.41601,3.222 4.55356,0.625 l 1.74108,-5.4018"
         id="path7438"
         sodipodi:nodetypes="cccc" />
      <path
         inkscape:connector-curvature="0"
         style="fill:none;fill-rule:evenodd;stroke:#000000;stroke-width:1px;stroke-linecap:butt;stroke-linejoin:miter;stroke-opacity:1"
         d="m -885.217,1218.2277 -1.65178,5.4018 c -0.0231,2.5518 3.41601,3.222 4.55356,0.625 l 1.74108,-5.4018"
         id="path7440"
         sodipodi:nodetypes="cccc" />
      <path
         inkscape:connector-curvature="0"
         style="fill:none;fill-rule:evenodd;stroke:#000000;stroke-width:1px;stroke-linecap:butt;stroke-linejoin:miter;stroke-opacity:1"
         d="m -871.40925,1232.0221 -5.75608,-0.8839 c -2.60404,0.4065 -3.07792,3.0028 -1.26269,4.4194 l 5.81921,0.947 c 1.43557,3.3269 1.86392,-2.6543 1.19956,-4.4825 z"
         id="path7442"
         sodipodi:nodetypes="ccccc" />
      <path
         inkscape:connector-curvature="0"
         style="fill:none;fill-rule:evenodd;stroke:#000000;stroke-width:1px;stroke-linecap:butt;stroke-linejoin:miter;stroke-opacity:1"
         d="m -873.31744,1239.5635 -5.75608,-0.8839 c -2.60404,0.4065 -3.07792,3.0028 -1.26269,4.4194 l 5.81921,0.947 c 1.43557,3.3269 1.86392,-2.6543 1.19956,-4.4825 z"
         id="path7444"
         sodipodi:nodetypes="ccccc" />
      <path
         inkscape:connector-curvature="0"
         style="fill:none;fill-rule:evenodd;stroke:#000000;stroke-width:1px;stroke-linecap:butt;stroke-linejoin:miter;stroke-opacity:1"
         d="m -874.92458,1246.7064 -5.75608,-0.8839 c -2.60404,0.4065 -3.07792,3.0028 -1.26269,4.4194 l 5.81921,0.947 c 1.43557,3.3269 1.86392,-2.6543 1.19956,-4.4825 z"
         id="path7446"
         sodipodi:nodetypes="ccccc" />
      <path
         inkscape:connector-curvature="0"
         style="fill:none;fill-rule:evenodd;stroke:#000000;stroke-width:1px;stroke-linecap:butt;stroke-linejoin:miter;stroke-opacity:1"
         d="m -876.53172,1254.3849 -5.75608,-0.8839 c -2.60404,0.4065 -3.07792,3.0028 -1.26269,4.4194 l 5.81921,0.947 c 1.43557,3.3269 1.86392,-2.6543 1.19956,-4.4825 z"
         id="path7448"
         sodipodi:nodetypes="ccccc" />
      <path
         inkscape:connector-curvature="0"
         style="fill:none;fill-rule:evenodd;stroke:#000000;stroke-width:1px;stroke-linecap:butt;stroke-linejoin:miter;stroke-opacity:1"
         d="m -878.31744,1261.5278 -5.75608,-0.8839 c -2.60404,0.4065 -3.07792,3.0028 -1.26269,4.4194 l 5.81921,0.947 c 1.43557,3.3269 1.86392,-2.6543 1.19956,-4.4825 z"
         id="path7450"
         sodipodi:nodetypes="ccccc" />
      <path
         inkscape:connector-curvature="0"
         style="fill:none;fill-rule:evenodd;stroke:#000000;stroke-width:1px;stroke-linecap:butt;stroke-linejoin:miter;stroke-opacity:1"
         d="m -879.74601,1269.385 -5.75608,-0.8839 c -2.60404,0.4065 -3.07792,3.0028 -1.26269,4.4194 l 5.81921,0.947 c 1.43557,3.3269 1.86392,-2.6543 1.19956,-4.4825 z"
         id="path7452"
         sodipodi:nodetypes="ccccc" />
      <path
         inkscape:connector-curvature="0"
         style="fill:none;fill-rule:evenodd;stroke:#000000;stroke-width:1px;stroke-linecap:butt;stroke-linejoin:miter;stroke-opacity:1"
         d="m -881.35315,1276.885 -5.75608,-0.8839 c -2.60404,0.4065 -3.07792,3.0028 -1.26269,4.4194 l 5.81921,0.947 c 1.43557,3.3269 1.86392,-2.6543 1.19956,-4.4825 z"
         id="path7454"
         sodipodi:nodetypes="ccccc" />
      <path
         inkscape:connector-curvature="0"
         style="fill:none;fill-rule:evenodd;stroke:#000000;stroke-width:1px;stroke-linecap:butt;stroke-linejoin:miter;stroke-opacity:1"
         d="m -905.25732,1291.7684 1.37364,-6.0239 c -0.46057,-3.029 -3.15303,-3.4021 -4.79822,-1.0102 l -1.51523,6.1872 c 1.16736,4.2941 5.43804,3.0031 4.93981,0.8469 z"
         id="path7456"
         sodipodi:nodetypes="ccccc" />
      <path
         inkscape:connector-curvature="0"
         style="fill:none;fill-rule:evenodd;stroke:#000000;stroke-width:1px;stroke-linecap:butt;stroke-linejoin:miter;stroke-opacity:1"
         d="m -897.40018,1292.7451 1.37364,-6.0239 c -0.46057,-3.029 -3.15303,-3.4021 -4.79822,-1.0102 l -1.51523,6.1872 c 1.16736,4.2941 5.43804,3.0031 4.93981,0.8469 z"
         id="path7458"
         sodipodi:nodetypes="ccccc" />
      <path
         inkscape:connector-curvature="0"
         style="fill:none;fill-rule:evenodd;stroke:#000000;stroke-width:1px;stroke-linecap:butt;stroke-linejoin:miter;stroke-opacity:1"
         d="m -912.66804,1290.5129 1.37364,-6.0239 c -0.46057,-3.029 -3.15303,-3.4021 -4.79822,-1.0102 l -1.51523,6.1872 c 1.16736,4.2941 5.43804,3.0031 4.93981,0.8469 z"
         id="path7460"
         sodipodi:nodetypes="ccccc" />
      <path
         inkscape:connector-curvature="0"
         style="fill:none;fill-rule:evenodd;stroke:#000000;stroke-width:1px;stroke-linecap:butt;stroke-linejoin:miter;stroke-opacity:1"
         d="m -920.16803,1289.0843 1.37364,-6.0239 c -0.46057,-3.029 -3.15303,-3.4021 -4.79822,-1.0102 l -1.51523,6.1872 c 1.16736,4.2941 5.43804,3.0031 4.93981,0.8469 z"
         id="path7462"
         sodipodi:nodetypes="ccccc" />
      <path
         inkscape:connector-curvature="0"
         style="fill:none;fill-rule:evenodd;stroke:#000000;stroke-width:1px;stroke-linecap:butt;stroke-linejoin:miter;stroke-opacity:1"
         d="m -927.48946,1288.0129 1.37364,-6.0239 c -0.46057,-3.029 -3.15303,-3.4021 -4.79822,-1.0102 l -1.51523,6.1872 c 1.16736,4.2941 5.43804,3.0031 4.93981,0.8469 z"
         id="path7464"
         sodipodi:nodetypes="ccccc" />
      <path
         inkscape:connector-curvature="0"
         style="fill:none;fill-rule:evenodd;stroke:#000000;stroke-width:1px;stroke-linecap:butt;stroke-linejoin:miter;stroke-opacity:1"
         d="m -934.90018,1286.8522 1.37364,-6.0239 c -0.46057,-3.029 -3.15303,-3.4021 -4.79822,-1.0102 l -1.51523,6.1872 c 1.16736,4.2941 5.43804,3.0031 4.93981,0.8469 z"
         id="path7466"
         sodipodi:nodetypes="ccccc" />
      <path
         inkscape:connector-curvature="0"
         style="fill:none;fill-rule:evenodd;stroke:#000000;stroke-width:1px;stroke-linecap:butt;stroke-linejoin:miter;stroke-opacity:1"
         d="m -942.3109,1285.6915 1.37364,-6.0239 c -0.46057,-3.029 -3.15303,-3.4021 -4.79822,-1.0102 l -1.51523,6.1872 c 1.16736,4.2941 5.43804,3.0031 4.93981,0.8469 z"
         id="path7468"
         sodipodi:nodetypes="ccccc" />
      <path
         inkscape:connector-curvature="0"
         style="fill:none;fill-rule:evenodd;stroke:#000000;stroke-width:1px;stroke-linecap:butt;stroke-linejoin:miter;stroke-opacity:1"
         d="m -956.7725,1270.786 5.89281,0.625 c 2.80223,0.9204 4.21798,-3.8871 1.25,-4.7321 l -5.62501,-0.625"
         id="path7470"
         sodipodi:nodetypes="cccc" />
      <path
         inkscape:connector-curvature="0"
         style="fill:none;fill-rule:evenodd;stroke:#000000;stroke-width:1px;stroke-linecap:butt;stroke-linejoin:miter;stroke-opacity:1"
         d="m -955.0083,1263.6742 5.89288,0.625 c 2.80223,0.9204 4.21798,-3.8871 1.25,-4.7321 l -5.62498,-0.625"
         id="path7472"
         sodipodi:nodetypes="cccc" />
      <path
         inkscape:connector-curvature="0"
         style="fill:none;fill-rule:evenodd;stroke:#000000;stroke-width:1px;stroke-linecap:butt;stroke-linejoin:miter;stroke-opacity:1"
         d="m -952.9547,1256.442 5.89285,0.625 c 2.80223,0.9204 4.21798,-3.8871 1.25,-4.7321 l -5.625,-0.625"
         id="path7474"
         sodipodi:nodetypes="cccc" />
      <path
         inkscape:connector-curvature="0"
         style="fill:none;fill-rule:evenodd;stroke:#000000;stroke-width:1px;stroke-linecap:butt;stroke-linejoin:miter;stroke-opacity:1"
         d="m -950.99043,1248.8528 5.89286,0.625 c 2.80223,0.9204 4.21798,-3.8871 1.25,-4.7321 l -5.625,-0.625"
         id="path7476"
         sodipodi:nodetypes="cccc" />
      <path
         inkscape:connector-curvature="0"
         style="fill:none;fill-rule:evenodd;stroke:#000000;stroke-width:1px;stroke-linecap:butt;stroke-linejoin:miter;stroke-opacity:1"
         d="m -945.27615,1226.9777 5.89286,0.625 c 2.80223,0.9204 4.21798,-3.8871 1.25,-4.7321 l -5.625,-0.625"
         id="path7478"
         sodipodi:nodetypes="cccc" />
      <path
         inkscape:connector-curvature="0"
         style="fill:none;fill-rule:evenodd;stroke:#000000;stroke-width:1px;stroke-linecap:butt;stroke-linejoin:miter;stroke-opacity:1"
         d="m -947.24043,1234.2099 5.89286,0.625 c 2.80223,0.9204 4.21798,-3.8871 1.25,-4.7321 l -5.625,-0.625"
         id="path7480"
         sodipodi:nodetypes="cccc" />
      <path
         inkscape:connector-curvature="0"
         style="fill:none;fill-rule:evenodd;stroke:#000000;stroke-width:1px;stroke-linecap:butt;stroke-linejoin:miter;stroke-opacity:1"
         d="m -949.20472,1241.442 5.89286,0.625 c 2.80223,0.9204 4.21798,-3.8871 1.25,-4.7321 l -5.625,-0.625"
         id="path7482"
         sodipodi:nodetypes="cccc" />
      <path
         inkscape:connector-curvature="0"
         style="fill:none;fill-rule:evenodd;stroke:#000000;stroke-width:1px;stroke-linecap:butt;stroke-linejoin:round;stroke-opacity:1"
         d="m -942.75469,1271.5003 11.96428,-46.25 45.71429,6.0714 -10.71429,47.3215 z"
         id="path7484" />
      <path
         inkscape:connector-curvature="0"
         style="fill:none;fill-rule:evenodd;stroke:#000000;stroke-width:1px;stroke-linecap:butt;stroke-linejoin:miter;stroke-opacity:1"
         d="m -938.5321,1213.1448 -1.64149,5.6821 6.31345,0.7577 1.64149,-5.5559 z"
         id="path7486"
         sodipodi:nodetypes="ccccc" />
    </g>
  </g>
</svg>
