<?xml version="1.0" encoding="UTF-8" standalone="no"?>
<svg
   xmlns:dc="http://purl.org/dc/elements/1.1/"
   xmlns:cc="http://creativecommons.org/ns#"
   xmlns:rdf="http://www.w3.org/1999/02/22-rdf-syntax-ns#"
   xmlns:svg="http://www.w3.org/2000/svg"
   xmlns="http://www.w3.org/2000/svg"
   xmlns:sodipodi="http://sodipodi.sourceforge.net/DTD/sodipodi-0.dtd"
   xmlns:inkscape="http://www.inkscape.org/namespaces/inkscape"
   width="297.5787"
   height="266.55103"
   id="svg3392"
   sodipodi:version="0.32"
   inkscape:version="1.0beta2 (2b71d25, 2019-12-03)"
   sodipodi:docname="Ic-package-DPAK.svg"
   inkscape:output_extension="org.inkscape.output.svg.inkscape"
   version="1.0">
  <defs
     id="defs3394" />
  <sodipodi:namedview
     lock-margins="true"
     id="base"
     pagecolor="#ffffff"
     bordercolor="#666666"
     borderopacity="1.0"
     gridtolerance="10000"
     guidetolerance="10"
     objecttolerance="10"
     inkscape:pageopacity="0.0"
     inkscape:pageshadow="2"
     inkscape:zoom="1.4"
     inkscape:cx="114.38435"
     inkscape:cy="186.57659"
     inkscape:document-units="px"
     inkscape:current-layer="layer1"
     inkscape:window-width="1920"
     inkscape:window-height="1035"
     inkscape:window-x="1440"
     inkscape:window-y="23"
     width="75px"
     height="75px"
     inkscape:document-rotation="0"
     showgrid="false"
     inkscape:window-maximized="0"
     fit-margin-top="20"
     fit-margin-left="20"
     fit-margin-right="20"
     fit-margin-bottom="20" />
  <metadata
     id="metadata3397">
    <rdf:RDF>
      <cc:Work
         rdf:about="">
        <dc:format>image/svg+xml</dc:format>
        <dc:type
           rdf:resource="http://purl.org/dc/dcmitype/StillImage" />
        <dc:title></dc:title>
      </cc:Work>
    </rdf:RDF>
  </metadata>
  <g
     inkscape:label="Layer 1"
     inkscape:groupmode="layer"
     id="layer1"
     transform="translate(109.51851,96.638843)">
    <g
       id="g3370"
       transform="matrix(4,0,0,4,260.0446,22152.948)">
      <path
         sodipodi:nodetypes="ccccccccc"
         id="path3330"
         d="m -75.863261,-5543.895 19.69797,24.7488 3.283,-2.2729 c -0.16586,-5.6375 2.05983,-8.8834 10.6066,-5.8083 l 12.62691,-7.0711 -21.71828,-22.4759 -10.10153,5.5558 c 0.38332,6.6483 -3.33153,8.0807 -10.35406,5.3034 z"
         style="fill:none;fill-rule:evenodd;stroke:#000000;stroke-width:1px;stroke-linecap:butt;stroke-linejoin:miter;stroke-opacity:1"
         inkscape:connector-curvature="0" />
      <path
         id="path3332"
         d="m -56.165291,-5519.3988 1.01016,12.627 29.04188,-17.1726 v -8.5863 l -3.53553,-2.0203"
         style="fill:none;fill-rule:evenodd;stroke:#000000;stroke-width:1px;stroke-linecap:butt;stroke-linejoin:miter;stroke-opacity:1"
         inkscape:connector-curvature="0" />
      <path
         id="path3334"
         d="m -26.160711,-5532.6083 -20.53572,-21.4286 -4.46428,-2.5893 -0.08929,0.3572 v 0"
         style="fill:none;fill-rule:evenodd;stroke:#000000;stroke-width:1px;stroke-linecap:butt;stroke-linejoin:miter;stroke-opacity:1"
         inkscape:connector-curvature="0" />
      <path
         sodipodi:nodetypes="cccc"
         id="path3336"
         d="m -25.892861,-5524.4834 2.23215,-1.4285 0.08928,-3.6607 -2.41071,1.6072"
         style="fill:none;fill-rule:evenodd;stroke:#000000;stroke-width:1px;stroke-linecap:butt;stroke-linejoin:miter;stroke-opacity:1"
         inkscape:connector-curvature="0" />
      <path
         id="path3338"
         d="m -23.482141,-5529.6619 -1.25,-5.1786 -13.21429,-13.3928 -4.10714,-1.3393"
         style="fill:none;fill-rule:evenodd;stroke:#000000;stroke-width:1px;stroke-linecap:butt;stroke-linejoin:miter;stroke-opacity:1"
         inkscape:connector-curvature="0" />
      <path
         id="path3340"
         d="m -52.767851,-5521.6262 0.71428,9.1965 9.01786,-5.7143 0.71428,-0.7143 0.53572,-0.089 -0.35714,-8.0357"
         style="fill:none;fill-rule:evenodd;stroke:#000000;stroke-width:1px;stroke-linecap:butt;stroke-linejoin:miter;stroke-opacity:1"
         inkscape:connector-curvature="0" />
      <path
         sodipodi:nodetypes="cc"
         id="path3342"
         d="m -51.964281,-5512.6083 c 2.50446,-9.7353 10.09604,-6.5567 10.17857,-6.5179"
         style="fill:none;fill-rule:evenodd;stroke:#000000;stroke-width:1px;stroke-linecap:butt;stroke-linejoin:miter;stroke-opacity:1"
         inkscape:connector-curvature="0" />
      <path
         inkscape:connector-curvature="0"
         d=""
         transform="translate(104.19643,-4764.3455)"
         id="path3344"
         style="fill:none;fill-opacity:1;fill-rule:nonzero;stroke:#000000;stroke-width:1;stroke-miterlimit:4;stroke-dasharray:none;stroke-opacity:1"
         cx="-164.15178"
         cy="-769.91461"
         rx="3.0803571"
         ry="2.8125" />
      <path
         sodipodi:nodetypes="cc"
         id="path3346"
         d="m -62.589281,-5535.5547 c 4.17939,-1.0217 4.71176,0.7456 4.91071,2.7678"
         style="fill:none;fill-rule:evenodd;stroke:#000000;stroke-width:1px;stroke-linecap:butt;stroke-linejoin:miter;stroke-opacity:1"
         inkscape:connector-curvature="0" />
      <path
         id="path3348"
         d="m -75.803571,-5543.8583 -0.26786,9.0178"
         style="fill:none;fill-rule:evenodd;stroke:#000000;stroke-width:1px;stroke-linecap:butt;stroke-linejoin:miter;stroke-opacity:1"
         inkscape:connector-curvature="0" />
      <path
         id="path3350"
         d="m -55.357141,-5506.9833 -5.89286,-6.9643"
         style="fill:none;fill-rule:evenodd;stroke:#000000;stroke-width:1px;stroke-linecap:butt;stroke-linejoin:miter;stroke-opacity:1"
         inkscape:connector-curvature="0" />
      <path
         id="path3352"
         d="m -69.285711,-5531.4476 -3.57143,-4.5536 -5.53571,2.5893 -1.25,2.8572 0.17857,6.5178 -1.25,1.4286 -5.80357,2.7678 2.58928,2.9465 5.80357,-3.2143 0.80357,-1.4286 v -5.3571 l 1.42858,-2.5893 z"
         style="fill:none;fill-rule:evenodd;stroke:#000000;stroke-width:1px;stroke-linecap:butt;stroke-linejoin:miter;stroke-opacity:1"
         inkscape:connector-curvature="0" />
      <path
         id="path3354"
         d="m -86.696431,-5519.9297 -0.17857,2.6785 2.76786,2.3215 7.58929,-4.0179 1.16071,-2.3214 v -4.375 l 1.07143,-2.0536 4.82143,-1.25 0.08928,-2.3214"
         style="fill:none;fill-rule:evenodd;stroke:#000000;stroke-width:1px;stroke-linecap:butt;stroke-linejoin:miter;stroke-opacity:1"
         inkscape:connector-curvature="0" />
      <path
         id="path3356"
         d="m -84.107141,-5517.3405 v 2.3215"
         style="fill:none;fill-rule:evenodd;stroke:#000000;stroke-width:1px;stroke-linecap:butt;stroke-linejoin:miter;stroke-opacity:1"
         inkscape:connector-curvature="0" />
      <path
         id="path3358"
         d="m -58.883921,-5517.8762 -3.57143,-4.5535 -5.53571,2.5892 -1.25,2.8572 0.17857,6.5178 -1.25,1.4286 -5.80357,2.7679 2.58928,2.9464 5.80357,-3.2143 0.80357,-1.4286 v -5.3571 l 1.42858,-2.5893 z"
         style="fill:none;fill-rule:evenodd;stroke:#000000;stroke-width:1px;stroke-linecap:butt;stroke-linejoin:miter;stroke-opacity:1"
         inkscape:connector-curvature="0" />
      <path
         id="path3360"
         d="m -76.294641,-5506.3583 -0.17857,2.6786 2.76786,2.3214 7.58929,-4.0179 1.16071,-2.3214 v -4.375 l 1.07143,-2.0536 4.82143,-1.25 0.08928,-2.3214"
         style="fill:none;fill-rule:evenodd;stroke:#000000;stroke-width:1px;stroke-linecap:butt;stroke-linejoin:miter;stroke-opacity:1"
         inkscape:connector-curvature="0" />
      <path
         id="path3362"
         d="m -73.705351,-5503.769 v 2.3214"
         style="fill:none;fill-rule:evenodd;stroke:#000000;stroke-width:1px;stroke-linecap:butt;stroke-linejoin:miter;stroke-opacity:1"
         inkscape:connector-curvature="0" />
      <path
         id="path3364"
         d="m -64.084811,-5524.6914 -3.57143,-4.5535 -5.53571,2.5892 -1.25,2.8572 0.17857,6.5178 -1.25,1.4286 -5.80357,2.7679 2.58928,2.9464 5.80357,-3.2143 0.80357,-1.4286 v -5.3571 l 1.42858,-2.5893 z"
         style="fill:none;fill-rule:evenodd;stroke:#000000;stroke-width:1px;stroke-linecap:butt;stroke-linejoin:miter;stroke-opacity:1"
         inkscape:connector-curvature="0" />
      <path
         id="path3366"
         d="m -81.495531,-5513.1735 -0.17857,2.6786 2.76786,2.3214 7.58929,-4.0179 1.16071,-2.3214 v -4.375 l 1.07143,-2.0536 4.82143,-1.25 0.08928,-2.3214"
         style="fill:none;fill-rule:evenodd;stroke:#000000;stroke-width:1px;stroke-linecap:butt;stroke-linejoin:miter;stroke-opacity:1"
         inkscape:connector-curvature="0" />
      <path
         id="path3368"
         d="m -78.906241,-5510.5842 v 2.3214"
         style="fill:none;fill-rule:evenodd;stroke:#000000;stroke-width:1px;stroke-linecap:butt;stroke-linejoin:miter;stroke-opacity:1"
         inkscape:connector-curvature="0" />
    </g>
  </g>
</svg>
