<?xml version="1.0" encoding="UTF-8"?>
<svg width="1253px" height="794px" viewBox="0 0 1253 794" version="1.1" xmlns="http://www.w3.org/2000/svg" xmlns:xlink="http://www.w3.org/1999/xlink">
    <!-- Generator: Sketch 61.2 (89653) - https://sketch.com -->
    <title>plcc</title>
    <desc>Created with Sketch.</desc>
    <g id="plcc" stroke="none" stroke-width="1" fill="none" fill-rule="evenodd" stroke-linecap="round" stroke-linejoin="round">
        <g id="freestyle-svg" transform="translate(12.000000, 13.000000)" stroke="#000000" stroke-width="4">
            <polyline id="Path" points="340.644762 401.013009 338.510343 398.378514 336.278219 396.460232 335.907541 396.142363 332.86053 394.358873 329.403557 393.074318 325.60411 392.289704 321.53975 392 318.615626 392.133787 317.287029 392.195148 315.732801 392.434556 312.924514 392.868106 308.527753 394.010826 304.175311 395.616269 299.942736 397.676385 295.904564 400.174075 292.117205 403.054013 288.632028 406.254838 285.50242 409.71016 282.779752 413.358618 280.517409 417.134827 279.604817 419.143641 278.766763 420.975415 278.562286 421.638313 277.581199 424.818014 277.154113 427.598367 277.154113 427.598367 277 428.600259 277.01108 432.263806 277.590264 435.753329 278.71237 439.013503 280.353223 441.987997 282.486635 444.621486 282.750541 444.847817 285.089437 446.857637 288.136448 448.641127 291.593421 449.925682 295.392868 450.70929 299.458236 451 303.709949 450.804852 308.073471 450.1329 312.470233 448.99018 316.823682 447.384737 317.942766 446.840537 317.942766 446.839531 317.942766 446.839531 321.05525 445.325627 325.094428 442.828943 326.405902 441.83208 328.882795 439.949005 332.367972 436.749186 335.498587 433.29487 338.221255 429.647418 340.483598 425.871209 342.234244 422.029615 343.418801 418.186009 344 414.403765 343.987913 410.739212 343.408729 407.248683 342.543478 404.734898 342.285615 403.987503 340.644762 401.013009"></polyline>
            <polyline id="Path" points="282.484846 445 281.568472 442.327551 281.001003 438.863192 281 435.227418 281.589527 431.475364 281.986555 430.206302 281.986555 430.206302 282.781615 427.66517 284.536159 423.855979 286.802028 420.112946 288.790178 417.475582 289.526084 416.499226 292.655189 413.076968 296.137208 409.908322 299.921009 407.058445 303.953453 404.588485 308.177394 402.553575 312.519641 400.968751 314.29524 400.513653 316.905 399.844037 321.255268 399.184445 325.494247 399 329.544739 399.296716 333.329542 400.08161 336.771457 401.363704 339.80331 403.138988 342 405.026542"></polyline>
            <polyline id="Path" points="84.4615 420 84.5055 429.782017 84.5215 433.439879 84.5245 434.776236 84.5385 442"></polyline>
            <polyline id="Path" points="86 229 95.061869 233.296706 104.123738 237.592406 113.185607 241.888107 122.247476 246.183807 131.309345 250.479507 140.370212 254.776213 149.432081 259.071914 151.760185 260.175258 160.822054 264.470958 169.883923 268.766658 179.065054 273.119688 188.126923 277.415388 197.188792 281.711089 199.691279 282.897913 206.401993 286.079205 206.401993 286.079205 215.463862 290.374906 221 293"></polyline>
            <polyline id="Path" points="623 483 632.219934 479.126177 641.438869 475.252354 641.974807 475.027132 641.974807 475.027132 651.194741 471.153309 660.414675 467.279485 669.633609 463.405662 678.853544 459.531839 688.073478 455.658016 697.293412 451.783192 706.512346 447.909369 715.73228 444.035546 724.952215 440.161723 734.171149 436.2879 743.391083 432.414077 752.611017 428.540254 761.830952 424.66543 771.049886 420.791607 780.26982 416.917783 789.489754 413.04396 798.709689 409.170137 807.928623 405.296314 817.148557 401.422491 826.368491 397.547667 835.588426 393.673844 844.80736 389.800021 854.027294 385.926198 862.88727 382.203524 872.106204 378.329701 881.326138 374.455878 890.546073 370.582055 892.29587 369.846329 898.193189 367.368884 900.011978 366.604129 900.011978 366.604129 909.231913 362.730306 918.450847 358.856483 927.670781 354.98266 936.890715 351.108837 946.11065 347.234013 955.329584 343.36019 964.549518 339.486366 973.769452 335.612543 982.989387 331.73872 987.264892 329.941947 996.484827 326.068124 1005.70476 322.194301 1010.87616 320.021156 1020.0961 316.147333 1025.39448 313.920135 1025.39448 313.920135 1034.61442 310.046312 1043.83435 306.172489 1053.05329 302.298666 1056.14493 301.000385 1063.10113 298.0775 1069.51838 295.380839 1074.91376 293.113601 1084.13369 289.238777 1093.35363 285.364954 1102.57356 281.491131 1106.11215 280.004664 1115.33209 276.130841 1124.55102 272.256017 1133.77096 268.382194 1142.99089 264.508371 1152.20983 260.634548 1161.42976 256.760725 1168 254"></polyline>
            <polyline id="Path" points="1174.21051 492 1183.42839 488.127213 1192.64528 484.253426 1201.86316 480.38064 1211.08104 476.507853 1212.6895 475.832367 1214.09602 465.924238 1215.50355 456.01711 1216.91007 446.108981 1218.3166 436.200852 1219.72312 426.293724 1221.12965 416.385595 1222.53617 406.478466 1223.9427 396.570337 1225.34922 386.663209 1226 382.080912 1221.8594 372.972358 1217.7178 363.863804 1213.5772 354.756251 1209.4366 345.647698 1205.296 336.539144 1201.1554 327.43059 1197.0148 318.322037 1192.8742 309.214484 1188.7336 300.10593 1184.592 290.997376 1180.4514 281.888822 1176.3108 272.780269 1172.1702 263.672716 1167.62073 253.664515 1158.58179 249.390439 1149.54285 245.116364 1140.5039 240.841288 1131.46496 236.567213 1122.42601 232.293138 1113.38707 228.019062 1104.34812 223.744987 1095.30918 219.469911 1086.27023 215.195836 1077.23229 210.921761 1068.19334 206.647686 1059.1544 202.37361 1050.11546 198.098534 1041.07651 193.824459 1032.03757 189.550384 1022.99862 185.276309 1013.95968 181.001233 1004.92073 176.727157 995.881789 172.453082 986.842845 168.179007 977.8039 163.904932 968.764956 159.629856 959.726011 155.35578 950.687067 151.081705 941.648122 146.80763 932.609178 142.533555 923.570233 138.258479 914.532289 133.984403 905.493344 129.710328 896.4544 125.436253 887.415455 121.161177 878.376511 116.887102 869.337566 112.613026 860.298622 108.338951 851.259677 104.064876 842.220733 99.7898 833.181788 95.5157247 824.142844 91.2416495 815.103899 86.9675742 806.064955 82.693499 797.02601 78.418423 787.987066 74.1443478 778.948121 69.8702725 769.909177 65.5961973 760.870232 61.322122 751.832288 57.047046 742.793343 52.7729708 733.754399 48.4988955 724.715454 44.2248203 715.67651 39.9497443 706.637565 35.6756691 697.598621 31.4015938 688.559676 27.1275186 679.520732 22.8534433 670.481787 18.5783674 661.442843 14.3042921 652.403898 10.0302169 643.364954 5.75614161 631.193068 0 621.975184 3.87278652 612.7573 7.74557303 603.540416 11.6183596 594.322532 15.4921468 585.104648 19.3649333 575.886764 23.2377198 566.66988 27.1105063 557.451996 30.9832929 548.234112 34.8560794 539.017228 38.7288659 529.799344 42.6026531 520.58146 46.4754396 511.363576 50.3482262 502.146691 54.2210127 492.928807 58.0937992 483.710923 61.9665857 474.493039 65.8393722 465.276155 69.7121587 456.058271 73.585946 446.840387 77.4587325 437.622503 81.331519 428.405619 85.2043055 419.187735 89.0770921 409.969851 92.9498786 400.751967 96.8226651 391.535082 100.696452 382.317198 104.569239 373.099314 108.442025 363.88143 112.314812 354.664546 116.187598 345.446662 120.060385 336.228778 123.933171 327.010894 127.806959 317.79401 131.679745 308.576126 135.552532 299.358242 139.425318 290.141358 143.298105 280.923474 147.170891 271.70559 151.043678 262.487706 154.916464 253.270821 158.790252 244.052937 162.663038 234.835053 166.535825 225.617169 170.408611 216.400285 174.281398 207.182401 178.154184 197.964517 182.026971 188.746633 185.900758 179.529749 189.773544 170.311865 193.646331 161.093981 197.519117 151.876097 201.391904 142.659212 205.26469 133.441328 209.137477 124.223444 213.010263 115.00556 216.884051 105.788676 220.756837 96.5707921 224.629624 86.3142592 228.938724 81.9037501 237.919186 77.4922414 246.899647 73.0817323 255.880109 68.6712233 264.86057 64.2607142 273.841032 59.8502051 282.821494 55.4386964 291.801955 51.0281873 300.782417 50.0625138 302.748831 50.0005347 302.875923 45.589026 311.856384 41.1785169 320.836846 39.2771596 324.708632 34.8666506 333.689093 30.4561415 342.669555 26.0446328 351.650016 22 359.884942 22.0499831 369.892142 22.0999662 379.899342 22.1499493 389.906543 22.1999324 399.913743 22.2469165 409.479626"></polyline>
            <polyline id="Path" points="643 715 643.44456 704.976032 643.890164 694.952065 644.335768 684.9291 644.781372 674.905132 645.231151 664.790868 645.676755 654.7669 646.024263 646.952198 646.024263 646.952198 646.469867 636.929234 646.915471 626.905266 647 625"></polyline>
            <polyline id="Path" points="496.486 584 496.487 588.739476 496.487 588.739476 496.491 598.757391 496.495 608.775306 496.498 618.793221 496.5 622.56697 496.5 622.56697 496.504 632.584885 496.506 638.755921 496.507 648.773836 496.508 658.791752 496.509 668.809667 496.51 678.827582 496.51 682.570275 496.511 692.588191 496.512 702.606106 496.513 712.624021 496.514 721"></polyline>
            <polyline id="Path" points="448 697.70063 456.723935 701.880799 465.763759 706.212145 474.803583 710.54349 480.123713 713.09319 489.163537 717.424535 496.04212 720.720984 496.625915 721 506.614406 720.604304 511.294761 720.418632 521.283252 720.022936 531.285737 719.627241 541.274228 719.231545 551.263718 718.835849 561.252209 718.440154 571.240699 718.044458 581.230189 717.648762 591.21868 717.253067 601.20817 716.856357 611.196661 716.460661 621.185151 716.064965 631.174641 715.66927 634.403507 715.54143 643.163429 715.194435 651.632453 711.586503 660.849215 707.659985 664.415962 706.141122 673.633723 702.21359 679.860535 699.561414 689.078297 695.634896 698.296058 691.708378 706.121309 688.374389 707 688"></polyline>
            <polyline id="Path" points="647 626 656.326824 622.054315 665.653647 618.108629 673 615"></polyline>
            <line x1="1091" y1="438.228" x2="1090" y2="438.772" id="Path"></line>
            <line x1="741" y1="584.228" x2="740" y2="584.772" id="Path"></line>
            <line x1="951" y1="496.228" x2="950" y2="496.772" id="Path"></line>
            <polyline id="Path" points="881 526.228 881 526.228 880 526.772"></polyline>
            <polyline id="Path" points="496 584 503.82696 577.775445 511.65392 571.55089 519.48088 565.326335 527.30784 559.101779 535.1348 552.877224 538.049094 550.55956 538.049094 550.55956 545.876054 544.335005 553.703014 538.11045 561.529974 531.885895 569.356934 525.660344 577.183894 519.435789 585.011857 513.211234 587.188799 511.479703 587.188799 511.479703 595.016762 505.255148 602.843722 499.030593 610.670682 492.806038 618.497642 486.580488 623 483"></polyline>
            <polyline id="Path" points="647 626 645.352072 616.127305 643.703143 606.253609 642.706581 600.284748 641.058653 590.411052 639.409724 580.538357 637.761795 570.665663 636.112866 560.791967 634.464938 550.919272 632.816009 541.046577 631.383202 532.462148 629.735273 522.589453 628.086344 512.715757 626.438416 502.843062 624.789487 492.969366 623.131553 483.036613 614.084456 478.761414 605.037359 474.486216 595.990262 470.211018 586.943165 465.934819 577.896068 461.659621 568.848971 457.384423 559.801874 453.109224 550.754777 448.834026 541.70768 444.557827 532.660583 440.282629 523.613486 436.007431 514.56739 431.732233 505.520293 427.457034 496.473196 423.180835 487.426099 418.905637 478.379002 414.630439 469.331905 410.355241 460.284808 406.080043 451.237711 401.803843 442.190614 397.528645 433.143517 393.253447 424.096421 388.978249 415.049324 384.70205 406.002227 380.426852 396.95513 376.151653 387.908033 371.876455 385.005397 370.504108 375.9583 366.228909 366.911203 361.953711 357.864107 357.678513 353.390586 355.564437 345.990417 352.067003 336.944321 347.791805 327.897224 343.516606 318.850127 339.240407 317.676466 338.685863 308.629369 334.410665 299.582272 330.135466 290.535175 325.860268 281.488078 321.58507 272.440981 317.308871 263.393884 313.033673 257.243419 310.126818 248.196322 305.85162 239.149225 301.576422 234.549634 299.402287 225.502537 295.127089 221 293"></polyline>
            <polyline id="Path-Copy" points="22 360 31.0353283 364.269636 40.0696574 368.540272 46.9985412 371.81446 56.0328702 376.084096 65.0681986 380.353733 74.1035269 384.623369 83.137856 388.893006 92.1731844 393.162642 93.0055697 393.555425 102.039899 397.825061 111.075227 402.094698 120.110555 406.364334 129.144885 410.63397 133.556627 412.718816 142.591955 416.988453 151.626284 421.258089 153.388983 422.091628 162.423312 426.361264 171.45864 430.630901 180.493969 434.900537 181.865956 435.549178 190.901284 439.818815 199.935613 444.088451 208.970941 448.358087 211.461103 449.535436 220.496431 453.805072 229.531759 458.074709 238.566088 462.344345 247.601417 466.613982 256.635746 470.883618 265.671074 475.153254 274.705403 479.422891 283.740732 483.692527 292.77606 487.962164 301.810389 492.2318 310.845717 496.501437 319.880046 500.771073 328.915375 505.04071 337.949704 509.310346 346.985032 513.579983 356.02036 517.849619 365.05469 522.119255 374.090018 526.388892 383.124347 530.658528 392.159675 534.928165 401.194004 539.197801 410.229333 543.467438 419.263662 547.737074 428.29899 552.006711 437.334319 556.276347 446.368648 560.545983 455.403976 564.81562 464.438305 569.085256 473.473633 573.354893 482.507962 577.624529 491.543291 581.894166 496 584"></polyline>
            <polyline id="Path" points="811 555 811 554.998982 810.87037 554.191021 810.87037 554.188986 810.87037 554.188986 810.87037 554.188986 809.266667 544.166802 807.937963 535.859248 807.937963 535.859248 807 530 807 530"></polyline>
            <polyline id="Path" points="881 526 880.87037 525.190036 880.869444 525.188001 879.266667 515.166226 877.937037 506.859009 877.937037 506.859009 877 501 877 501"></polyline>
            <polyline id="Path" points="741 585 741 585 740.872804 584.195917 740.872804 584.193897 740.872804 584.193897 739.301938 574.243873 738 566"></polyline>
            <line x1="851.5" y1="512.5" x2="808" y2="530.128" id="Path"></line>
            <line x1="922.5" y1="483.5" x2="879" y2="501.128" id="Path-Copy-2"></line>
            <polyline id="Path" points="671 614 668.984875 601.408591 668.177429 596.36001 668.177429 596.358732 667 589 667 589"></polyline>
            <polyline id="Path" points="1016 443 1041.48962 434.157258 1060.34492 427.615457 1065 426"></polyline>
            <polyline id="Path" points="951 497 951 497 950.87025 496.18997 950.869323 496.187935 949.265987 486.165344 947.937905 477.859486 947.937905 477.859486 947 472"></polyline>
            <polyline id="Path" points="439 588 439.519605 588.240914 448.518124 592.410575 457.516643 596.581211 464.120202 599.640914 473.118721 603.810575 480 607"></polyline>
            <polyline id="Path-Copy-3" points="372 556 372.519605 556.240914 381.518124 560.410575 390.516643 564.581211 397.120202 567.640914 406.118721 571.810575 413 575"></polyline>
            <polyline id="Path-Copy-4" points="306 525 306.519605 525.240914 315.518124 529.410575 324.516643 533.581211 331.120202 536.640914 340.118721 540.810575 347 544"></polyline>
            <polyline id="Path-Copy-5" points="240 494 240.519605 494.240914 249.518124 498.410575 258.516643 502.581211 265.120202 505.640914 274.118721 509.810575 281 513"></polyline>
            <polyline id="Path-Copy-6" points="174 463 174.519605 463.240914 183.518124 467.410575 192.516643 471.581211 199.120202 474.640914 208.118721 478.810575 215 482"></polyline>
            <polyline id="Path-Copy-7" points="108 432 108.519605 432.240914 117.518124 436.410575 126.516643 440.581211 133.120202 443.640914 142.118721 447.810575 149 451"></polyline>
            <polyline id="Path-Copy-8" points="43 401 43.5196047 401.240914 52.5181238 405.410575 61.5166428 409.581211 68.120202 412.640914 77.118721 416.810575 84 420"></polyline>
            <polyline id="Path" points="634 715.262108 634.176186 715.56259 639.372671 722.925886 645.012624 729.559441 650.99594 735.324495 657.217507 740.081288 663.047661 743.441491 672.098215 747.70813 677.753184 750.37453 680.402981 751.428711 683.352094 752.265268 686.246149 752.777384 689.092153 753 691.880096 752.947091 694.59396 752.624648 697.214727 752.030672 699.723375 751.150191 708.954118 747.286857 718.183861 743.422524 727.414604 739.559189 727.991213 739.317606 730.376731 738.117676 732.35582 736.748039 740.046938 730.358064 741.336299 729.28791 743.104166 727.544917 744.890051 725.280823 746.473722 722.76117 747.42873 720.893393 747.878205 720.011914 749.108503 717.059008 750.157611 713.923418 751.016517 710.62411 751.671208 707.16408 752.094655 703.524359 752.243813 700.145189 752.243813 699.665017 752.244814 696.433593 752.246816 686.450816 752.248818 677.338537 753.175797 673.921432 754.772482 668.042575 757.388243 658.4062 760 648.785798 759.994995 638.803021 759.99099 628.820244 759.988988 624.265103 759.970969 623.990577 759.711696 620.033404 759.312274 617.685455 759.312274 617.685455 759.217174 617.12043 758.85379 614.979124 757.553417 610.283226 757.553417 610.282227 757.447305 609.898889 755.52828 604.917483 753.141761 600.156697 750.348813 595.734326 747.216506 591.760183 743.821923 588.331099 740.786719 585.952203 740.250153 585.531928 739.475335 585.077712 739.472332 585.075716 737.099828 583.686113 728.049274 579.419474 718.998721 575.153833 710.189422 571.000998 710.18742 571"></polyline>
            <polyline id="Path" points="724 689 723.998019 698.985987 723.996038 708.102195 723.996038 711.813987 723.848459 715.195242 723.428501 718.835135 722.781726 722.296278 721.931905 725.597645 720.892906 728.733245 719.676613 731.688099 718.286988 734.437241 716.719079 736.957705 714.953077 739.222526 713.202922 740.96608 705.592175 747.35811 704.317445 748.428608 702.359292 749.798686 700 751"></polyline>
            <polyline id="Path" points="716.375949 667 719.631582 676.394019 721.518392 681.837533 724 689 715.095754 684.748903 714.888953 684.650364 707 680.883002"></polyline>
            <polyline id="Path" points="666 589 675.084606 593.278443 684.169212 597.555885 693.013666 601.720209 696.174839 603.572133 699.761053 606.379047 703.167404 609.817618 706.3125 613.802757 709.115957 618.236361 709.63545 619.270435 709.63545 619.270435 711.511455 623.010318 713.437701 628.006507 714.849477 633.100797 714.980105 633.869595 714.980105 633.870596 715.214228 635.249028 715.709606 638.16906 715.988947 642.412467 715.992966 652.422862 715.99799 662.433258 716 667 706.914389 662.72456 698.652733 658.836523"></polyline>
            <polyline id="Path" points="673 614 681.958161 618.285299 690.915331 622.571602 693.097663 623.615328 694.211118 624.2516 695.137346 624.98823 695.365189 625.222065 695.365189 625.222065 696.016025 625.891455 696.828332 626.937188 697.551483 628.101344 698.169629 629.353816 698.66791 630.665499 698.97302 631.787505 698.97302 631.788508 699.031467 632.003275 699.254356 633.334026 699.331624 634.843415 699.330633 641.892581 699.329643 651.145616 699.329643 651.147624 699.328652 658.097436 699.328652 658.098439 699.328652 658.599227 702.603636 668.071043 705.87862 677.542859 706.999009 680.781421 706.999009 687.954029 706.999009 689.577826 707 699.613656 707 703.117164 706.929666 704.92562 706.713711 706.777231 706.347183 708.741243 705.835033 710.733355 705.193112 712.68131 704.441233 714.516863 704.209428 714.978511 703.607132 716.178796 702.72251 717.610909 701.829963 718.76804 700.89482 719.689329 693.2839 726.11226 692.644951 726.651184 691.610745 727.392832 690.412097 728"></polyline>
            <polyline id="Path" points="651 712 651.960795 713.139459 655.759568 716.832807 659.603757 719.801691 663.553917 722.062345 672.68046 726.394927 677.258365 728.567306 678.677354 729.147689 680.183138 729.573844 681.831224 729.866065 683.555003 730 685.291903 729.966516 686.983386 729.7646 688.570918 729.403382 690 728.900113"></polyline>
            <polyline id="Path" points="704 716 695.081741 711.600592 692.269757 710.214125 688.409321 707.91914 684.651461 704.9062 680.938972 701.156763 680 700"></polyline>
            <polyline id="Path" points="747 721.193777 747.358088 721.363214 750.02162 722.421938 752.983894 723.262101 755.892857 723.776425 758.752533 724 761.553868 723.946863 764.28077 723.62303 766.91312 723.026494 769.433819 722.142218 778.708905 718.262232 787.983991 714.381244 797.259077 710.501257 797.838456 710.258633 800.235433 709.053531 802.224029 707.677991 809.952094 701.260474 811.246643 700.185707 813.024007 698.435202 814.817466 696.16135 816.409751 693.630837 817.368341 691.755009 817.82098 690.86973 819.056183 687.904097 820.111336 684.754992 820.974369 681.441464 821.631199 677.96652 822.057686 674.311112 822.20756 670.917378 822.20756 670.435136 822.20756 667.189784 822.210577 657.163979 822.211583 648.012425 823.144021 644.580593 824.74737 638.676397 827.375697 628.998488 830 619.335618 829.995977 609.309814 829.991953 599.28401 829.989941 594.710238 829.971836 594.434528 829.710311 590.460299 829.309976 588.10223 829.309976 588.10223 829.213413 587.53477 828.848284 585.384235 827.542671 580.668097 827.542671 580.668097 827.436049 580.282103 825.507805 575.278224 823.109821 570.496918 820.30245 566.05649 817.155097 562.065217 813.745213 558.621353 810.695429 556.232204 810.155279 555.810118 806.98982 553.956347 797.89579 549.671318 788.80176 545.387292 779.490462 541"></polyline>
            <polyline id="Path" points="794 660 793.998019 669.985987 793.996038 679.102195 793.995048 682.813987 793.847474 686.195242 793.428524 689.835135 792.780786 693.296278 791.931 696.597645 790.892044 699.733245 789.675801 702.688099 788.286233 705.437241 786.718389 707.957705 784.95246 710.222526 783.202377 711.96608 775.592935 718.35811 774.318257 719.428608 772.360185 720.798686 770 722"></polyline>
            <polyline id="Path" points="786.375405 638 789.63085 647.394019 791.517551 652.837533 794 660 785.09627 655.748903 784.889481 655.650364 777 651.883002"></polyline>
            <polyline id="Path" points="736 560 736.00201 560.001001 745.086798 564.279444 754.171587 568.556886 763.013204 572.720209 766.175446 574.572133 769.761732 577.379047 773.16815 580.817618 776.312305 584.801756 779.116823 589.236361 779.635322 590.270435 779.635322 590.270435 781.51237 594.010318 783.438654 599.006507 784.849454 604.100797 784.980084 604.869595 784.980084 604.870596 785.214213 606.249028 785.710605 609.16906 785.989952 613.412467 785.993971 623.422862 785.99799 633.433258 786 638 776.914206 633.72456 768.652384 629.836523"></polyline>
            <polyline id="Path" points="741 585 742.601559 585.752702 751.663697 590.009707 760.726837 594.267709 762.934744 595.304544 764.061247 595.936615 764.997327 596.668381 765.22784 596.900672 765.22784 596.900672 765.887305 597.565642 766.708129 598.604471 767.440757 599.76094 768.066147 601.005142 768.569265 602.308165 768.877951 603.421765 768.877951 603.421765 768.938085 603.637108 769.162584 604.958075 769.241759 606.458495 769.240757 613.461119 769.239755 622.653059 769.239755 622.655053 769.237751 630.057456 772.552116 639.466733 775.865479 648.87601 776.997996 652.093189 776.998998 659.218438 776.998998 660.831514 777 670.801081 777 674.281457 776.928842 676.077973 776.710356 677.917358 776.33853 679.868402 775.821381 681.847361 775.170935 683.782454 774.411247 685.605887 774.176726 686.06349 773.56637 687.256848 772.672383 688.679505 771.768374 689.828996 770.822272 690.744202 763.12216 697.124725 762.476726 697.66009 761.429399 698.395844 760.217706 699"></polyline>
            <polyline id="Path" points="752 699.904982 753.379632 700 755.16455 699.969557 756.900751 699.785978 758.531226 699.457565 760 699"></polyline>
            <polyline id="Path" points="774 686 764.832585 681.669005 761.943374 680.303778 757.974511 678.043952 754.113106 675.07717 753 674"></polyline>
            <polyline id="Path" points="817 691.205821 817.35909 691.373531 820.021583 692.428711 822.984827 693.265268 825.892749 693.777384 828.75239 694 831.553692 693.947091 834.28056 693.624648 836.913884 693.030672 839.434553 692.150191 848.709527 688.286857 857.983494 684.422524 867.258468 680.559189 867.837839 680.317606 870.234788 679.117676 872.22336 677.747041 879.952337 671.358064 881.24687 670.28791 883.023207 668.544917 884.81765 666.280823 886.40891 663.76117 887.368494 661.893393 887.820122 661.011914 889.056316 658.059008 890.11045 654.923418 890.973472 651.623112 891.6313 648.16408 892.057782 644.524359 892.206648 641.145189 892.206648 640.665017 892.207654 637.433593 892.209666 627.450816 892.211678 618.338537 893.143098 614.921432 894.747434 609.042575 897.375729 599.4062 900 589.7848 899.995977 579.802023 899.990947 569.819246 899.988936 565.265103 899.97083 564.990577 899.710314 561.033404 899.309985 558.685455 899.309985 558.685455 899.213423 558.12043 898.848298 555.979124 897.5427 551.282227 897.541694 551.282227 897.435074 550.898889 895.506853 545.916485 893.108899 541.155698 890.302568 536.734326 887.155253 532.760183 883.744404 529.331099 880.694657 526.952203 880.155519 526.531928 879.376989 526.077712 879.376989 526.077712 876.990099 524.685115 867.896179 520.419474 858.802259 516.153833 849.948738 512 849.948738 512"></polyline>
            <polyline id="Path" points="864 631 863.998019 640.985987 863.996038 650.102195 863.996038 653.813987 863.848459 657.195242 863.428501 660.835135 862.781726 664.296278 861.931905 667.596647 860.892906 670.733245 859.676613 673.688099 858.286988 676.437241 856.719079 678.957705 854.953077 681.222526 853.202922 682.96608 845.593166 689.35811 844.318435 690.428608 842.359292 691.798686 840 693"></polyline>
            <polyline id="Path" points="856.375949 609 859.631582 618.394019 861.518392 623.837533 864 631 855.095754 626.748903 854.888953 626.649369 847 622.883002"></polyline>
            <polyline id="Path" points="806 531 815.084606 535.278443 824.169212 539.555885 833.013666 543.720209 836.175844 545.572133 839.761053 548.378046 843.168408 551.817618 846.3125 555.801756 849.115957 560.236361 849.63545 561.270435 849.63545 561.270435 851.511455 565.010318 853.437701 570.006507 854.849477 575.100797 854.980105 575.868594 854.980105 575.868594 855.214228 577.249028 855.710611 580.16906 855.988947 584.412467 855.992966 594.422862 855.99799 604.433258 856 609 846.914389 604.72456 838.652733 600.836523"></polyline>
            <polyline id="Path" points="811 555 812.601559 555.752702 821.664699 560.009707 830.726837 564.267709 832.934744 565.304544 834.061247 565.936615 834.99833 566.668381 835.228842 566.900672 835.228842 566.900672 835.888307 567.565642 836.709131 568.604471 837.441759 569.76094 838.066147 571.005142 838.570267 572.308165 838.878953 573.421765 838.878953 573.421765 838.938085 573.637108 839.163586 574.958075 839.241759 576.458495 839.240757 583.461119 839.239755 592.653059 839.239755 592.655053 839.238753 600.057456 842.552116 609.466733 845.865479 618.87601 846.998998 622.093189 846.998998 629.218438 846.998998 630.831514 847 640.801081 847 644.281457 846.928842 646.077973 846.710356 647.917358 846.339532 649.868402 845.821381 651.847361 845.171938 653.782454 844.411247 655.605887 844.176726 656.06349 843.567372 657.256848 842.672383 658.679505 841.769376 659.828996 840.823274 660.744202 833.123163 667.124725 832.476726 667.66009 831.430401 668.395844 830.218708 669"></polyline>
            <polyline id="Path" points="822 670.904982 823.379632 671 825.163514 670.969557 826.900751 670.785978 828.531226 670.457565 830 670"></polyline>
            <polyline id="Path" points="844 657 834.833156 652.669005 831.942792 651.303778 827.974751 649.043952 824.112146 646.07717 823 645"></polyline>
            <polyline id="Path" points="887 662.207552 887.358088 662.375158 890.02162 663.429684 892.9849 664.265723 895.892857 664.777522 898.752533 665 901.553868 664.947124 904.28077 664.62488 906.91312 664.031273 909.433819 663.151337 918.708905 659.289398 927.983991 655.428456 937.259077 651.567515 937.838456 651.326081 940.235433 650.126895 942.224029 648.757108 949.952094 642.372089 951.246643 641.302598 953.024007 639.560685 954.817466 637.297993 956.409751 634.779901 957.368341 632.91328 957.82098 632.032347 959.056183 629.081271 960.111336 625.947623 960.974369 622.649361 961.631199 619.192472 962.057686 615.555006 962.20756 612.177929 962.20756 611.698055 962.208566 608.468631 962.210577 598.492038 962.212589 589.385403 963.144021 585.970416 964.74737 580.0952 967.375697 570.464794 970 560.849353 969.995977 550.87276 969.991953 540.896167 969.989941 536.344845 969.971836 536.070488 969.710311 532.115767 969.309976 529.769272 969.213413 529.204597 968.848284 527.064618 967.542671 522.37063 967.436049 521.987529 965.507805 517.008212 963.109821 512.250374 960.30245 507.831741 957.155097 503.860059 953.745213 500.433099 950.695429 498.055677 950.155279 497.635662 949.377745 497.181727 949.373721 497.179732 946.98982 495.789993 937.89579 491.526994 928.80176 487.263996 919.708735 483"></polyline>
            <polyline id="Path" points="934 601 933.998019 610.985987 933.996038 620.102195 933.995048 623.813987 933.847474 627.195242 933.428524 630.835135 932.780786 634.296278 931.931 637.596647 930.893034 640.733245 929.675801 643.6871 928.286233 646.437241 926.719379 648.957705 924.95246 651.222526 923.203367 652.96608 915.592935 659.35811 914.318257 660.428608 912.360185 661.798686 910 663"></polyline>
            <polyline id="Path" points="926.375405 579 929.63085 588.394019 931.517551 593.837533 934 601 925.09627 596.748903 924.889481 596.649369 917 592.883002"></polyline>
            <polyline id="Path" points="876 501 885.084789 505.278443 894.168573 509.555885 903.013204 513.720209 906.175446 515.572133 909.761732 518.378046 913.16815 521.816617 916.312305 525.801756 919.116823 530.236361 919.635322 531.270435 919.635322 531.270435 921.51237 535.010318 923.438654 540.006507 924.849454 545.100797 925.214213 547.249028 925.710605 550.16906 925.989952 554.412467 925.993971 564.422862 925.99799 574.433258 926 579 916.914206 574.72456 908.653389 570.836523"></polyline>
            <polyline id="Path" points="908.772589 544 908.833503 544.216293 909.060914 545.54309 909.141117 547.05013 909.140102 554.083655 909.139086 563.316157 909.139086 563.31816 909.138071 570.753228 912.494416 580.204026 915.850761 589.654824 916.99797 592.8862 916.998985 600.042891 916.998985 601.663085 917 611.676645 917 615.172379 916.927919 616.976823 916.706599 618.824325 916.329949 620.783978 915.806091 622.77167 915.147208 624.715302 914.377665 626.546782 914.140102 627.006405 913.521827 628.204026 912.616244 629.633963 911.700508 630.788526 910.742132 631.707771 902.942132 638.116449 902.288325 638.654178 901.227411 639.393178 900 640"></polyline>
            <polyline id="Path" points="881 526 882.608571 526.735469 891.710383 530.89501 900.813201 535.055525 903.030774 536.068622 904.162209 536.686221 905.102387 537.401234 905.333909 537.628207 905.333909 537.628207 905.996261 538.277952 906.820679 539.292997 907.556514 540.42299 908.184642 541.638705 908.689963 542.911895 909 544"></polyline>
            <polyline id="Path" points="892 640.904982 893.379632 641 895.16455 640.969557 896.900751 640.785978 898.532262 640.457565 900 640"></polyline>
            <polyline id="Path" points="914 627 904.832585 622.669005 901.943374 621.303778 897.974511 619.043952 894.113106 616.07717 893 615"></polyline>
            <polyline id="Path" points="957 633.207552 957.35909 633.375158 960.021583 634.429684 962.984827 635.265723 965.893755 635.777522 968.75239 636 971.554698 635.947124 974.281566 635.62488 976.913884 635.031273 979.434553 634.151337 988.709527 630.289398 997.983494 626.428456 1007.25847 622.567515 1007.83885 622.326081 1010.23479 621.126895 1012.22336 619.757108 1019.95234 613.372089 1021.24687 612.302598 1023.02421 610.560685 1024.81765 608.297993 1026.40891 605.779901 1027.36849 603.91328 1027.82012 603.032347 1029.05632 600.081271 1030.11045 596.947623 1030.97347 593.649361 1031.6313 590.192472 1032.05778 586.555006 1032.20665 583.177929 1032.20665 582.698055 1032.20765 579.468631 1032.20967 569.492038 1032.21168 560.385403 1033.1431 556.970416 1034.74743 551.0952 1037.37573 541.464794 1040 531.849353 1039.99598 521.87276 1039.99095 511.896167 1039.98894 507.344845 1039.97083 507.070488 1039.71031 503.115767 1039.30998 500.769272 1039.21342 500.203599 1038.8483 498.064618 1037.5427 493.37063 1037.43608 492.987529 1035.50685 488.008212 1033.1089 483.250374 1030.30257 478.830743 1027.15525 474.860059 1023.7444 471.432102 1020.69466 469.055677 1020.15552 468.635662 1016.9901 466.789993 1007.89618 462.526994 998.802259 458.263996 989.708339 454"></polyline>
            <polyline id="Path" points="1004 572 1003.99802 581.985987 1003.99604 591.102195 1003.99604 594.813987 1003.84846 598.195242 1003.4285 601.835135 1002.78173 605.296278 1001.93191 608.596647 1000.89291 611.733245 999.676613 614.6871 998.286988 617.437241 996.719079 619.957705 994.953077 622.222526 993.202922 623.96608 985.593166 630.35811 984.318435 631.428608 982.360282 632.798686 980 634"></polyline>
            <polyline id="Path" points="996.375949 550 999.631582 559.394019 1001.51839 564.837533 1004 572 995.096739 567.748903 994.888953 567.649369 987 563.883002"></polyline>
            <polyline id="Path" points="946 472 955.084606 476.277442 964.169212 480.555885 973.013666 484.720209 976.175844 486.571132 979.761053 489.378046 983.168408 492.816617 986.3125 496.801756 989.115957 501.236361 989.63545 502.270435 989.63545 502.270435 991.511455 506.010318 993.437701 511.006507 994.849477 516.100797 995.214228 518.249028 995.709606 521.16906 995.988947 525.412467 995.993971 535.422862 995.99799 545.433258 996 550 986.914389 545.72456 978.652733 541.836523"></polyline>
            <polyline id="Path" points="951 497 952.602561 497.752702 961.664699 502.009707 970.726837 506.267709 972.934744 507.304544 974.062249 507.936615 974.99833 508.668381 975.228842 508.900672 975.228842 508.900672 975.888307 509.565642 976.709131 510.604471 977.441759 511.76094 978.067149 513.005142 978.570267 514.308165 978.878953 515.421765 978.878953 515.421765 978.938085 515.637108 979.163586 516.958075 979.241759 518.458495 979.240757 525.461119 979.239755 534.653059 979.239755 534.655053 979.238753 542.057456 982.552116 551.466733 985.865479 560.87601 986.998998 564.093189 986.998998 571.218438 986.998998 572.831514 987 582.801081 987 586.281457 986.928842 588.077973 986.710356 589.917358 986.339532 591.868402 985.821381 593.847361 985.171938 595.782454 984.411247 597.605887 984.176726 598.06349 983.567372 599.255851 982.672383 600.679505 981.769376 601.828996 980.823274 602.743205 973.123163 609.124725 972.476726 609.66009 971.430401 610.395844 970.218708 611"></polyline>
            <polyline id="Path" points="962 611.904982 963.379632 612 965.163514 611.969557 966.900751 611.785978 968.531226 611.457565 970 611"></polyline>
            <polyline id="Path" points="984 598 974.833156 593.669005 971.942792 592.303778 967.974751 590.043952 964.11316 587.07717 963 586"></polyline>
            <polyline id="Path" points="1027 603.205309 1027.35809 603.37305 1030.02162 604.428423 1032.9849 605.265133 1035.89286 605.777343 1038.75253 606 1041.55387 605.947082 1044.28077 605.624579 1046.91312 605.030495 1049.43382 604.148854 1058.7089 600.284812 1067.98399 596.42077 1077.25908 592.556728 1077.83846 592.315101 1080.23543 591.114951 1082.22403 589.744065 1089.95209 583.353918 1091.24664 582.283568 1093.02401 580.540256 1094.81747 578.275748 1096.40975 575.755634 1097.36834 573.887514 1097.82098 573.005874 1099.05618 570.051429 1100.11134 566.916263 1100.97437 563.615353 1101.6312 560.155687 1102.05769 556.5153 1102.20756 553.135512 1102.20756 552.655252 1102.20857 549.423236 1102.21058 539.438631 1102.21259 530.323685 1103.14402 526.906954 1104.74737 521.02702 1107.3757 511.388881 1110 501.765719 1109.99799 495.982636 1109.99396 485.998031 1109.98994 477.241533 1109.84208 475.006978 1109.71031 473.009059 1109.4518 471.492397 1108.84929 467.953853 1107.43605 462.872688 1105.5078 457.889372 1104.02214 454.940918 1103.10982 453.127714 1100.30245 448.704534 1097.1551 444.729663 1093.74521 441.299951 1092.48084 440.31447 1090.69543 438.921618 1090.15528 438.501266 1089.37774 438.046967 1089.37774 438.046967 1086.98982 436.654114 1077.89579 432.387693 1075.58029 431.301368 1066.41484 427"></polyline>
            <polyline id="Path" points="1074 543 1073.99802 552.986148 1073.99604 562.102503 1073.99505 565.814354 1073.84846 569.195664 1073.42852 572.835615 1072.78079 576.296814 1071.931 579.597236 1070.89303 582.733885 1069.6758 585.687788 1068.28623 588.437973 1066.71938 590.958477 1064.95246 593.223335 1063.20337 594.966917 1055.59293 601.35905 1054.31826 602.429565 1052.36018 603.799665 1050 605"></polyline>
            <polyline id="Path" points="1066.37541 521 1069.63085 530.394019 1071.51755 535.837533 1074 543 1065.09627 538.748903 1064.88948 538.649369 1057 534.883002"></polyline>
            <polyline id="Path" points="1016 443 1025.08479 447.277442 1034.16857 451.555885 1043.0132 455.720209 1046.17545 457.571132 1049.76173 460.378046 1051.4348 462.0668 1053.16815 463.816617 1053.26462 463.938744 1056.31231 467.801756 1059.11682 472.236361 1059.63532 473.270435 1059.63532 473.270435 1061.28126 476.550841 1061.51237 477.010318 1063.43865 482.006507 1064.84945 487.100797 1065.21421 489.247026 1065.71061 492.16906 1065.98995 496.412467 1065.99397 506.422862 1065.99799 516.433258 1066 521 1056.91421 516.72456 1048.65339 512.836523"></polyline>
            <polyline id="Path" points="1021 467 1022.60156 467.752702 1031.6637 472.009707 1040.72684 476.267709 1042.93474 477.304544 1044.06125 477.936615 1044.99733 478.668381 1045.22784 478.900672 1045.22784 478.900672 1045.88731 479.564645 1046.70813 480.604471 1047.44076 481.76094 1048.06615 483.005142 1048.56927 484.308165 1048.87795 485.421765 1048.87795 485.421765 1048.93808 485.637108 1049.16258 486.958075 1049.24176 488.458495 1049.24076 495.460122 1049.23976 504.652062 1049.23976 504.655053 1049.23875 512.057456 1052.55212 521.466733 1055.86548 530.87601 1056.998 534.093189 1056.999 541.218438 1056.999 542.831514 1057 552.801081 1057 556.281457 1056.92884 558.077973 1056.71036 559.917358 1056.33853 561.867405 1055.82138 563.847361 1055.17194 565.782454 1054.41125 567.605887 1054.17673 568.06349 1053.56637 569.255851 1052.67238 570.679505 1051.76837 571.828996 1050.82327 572.743205 1043.12216 579.124725 1042.47673 579.659093 1041.4294 580.395844 1040.21771 581"></polyline>
            <polyline id="Path" points="1032 582.904982 1033.37963 583 1035.16455 582.969557 1036.90075 582.785978 1038.53226 582.456642 1040 582"></polyline>
            <polyline id="Path" points="1054 569 1044.83259 564.669005 1041.94337 563.303778 1037.97451 561.043952 1034.11311 558.07717 1033 557"></polyline>
            <polyline id="Path" points="1097 574.203458 1097.35909 574.371311 1100.02158 575.427383 1102.98483 576.264646 1105.89376 576.777196 1108.75239 577 1111.5547 576.947047 1114.28157 576.62433 1116.91388 576.029853 1119.43455 575.147628 1128.70953 571.281028 1137.98349 567.414427 1147.25847 563.547826 1147.83885 563.306039 1150.23479 562.105094 1152.22336 560.7333 1159.95234 554.338922 1161.24687 553.267863 1163.02421 551.523397 1164.81765 549.257389 1166.40891 546.735606 1167.82113 543.984025 1169.05632 541.027624 1170.11045 537.890382 1170.97448 534.587286 1171.6313 531.12433 1172.05778 527.482532 1172.20665 524.100505 1172.20866 514.109289 1172.21168 504.118072 1172.21168 501.273573 1174.74743 491.970751 1177.37573 482.32623 1180 472.696695 1179.99598 462.705479 1179.99497 460.123748 1179.98994 450.132532 1179.98894 448.156269 1179.71031 443.920993 1179.04947 440.040404 1178.8483 438.86244 1177.43608 433.77791 1175.50685 428.791293 1173.1089 424.026482 1170.30257 419.600373 1169.02312 417.983794 1167.15525 415.62287 1163.7444 412.190887 1160.69466 409.810979 1160.15552 409.38935 1159.01488 408.723935 1156.9901 407.541974 1147.89618 403.272727 1142.70698 400.83587 1133.61306 396.566623 1129.86726 395"></polyline>
            <polyline id="Path" points="1144 513 1143.99802 522.986148 1143.99604 532.972296 1143.99604 535.814354 1143.84846 539.195664 1143.4285 542.835615 1142.78173 546.296814 1141.93191 549.597236 1140.89291 552.733885 1139.67661 555.687788 1138.28699 558.437973 1136.71908 560.958477 1134.95308 563.223335 1133.20292 564.966917 1125.59317 571.35905 1124.31844 572.429565 1122.35929 573.799665 1120 575"></polyline>
            <polyline id="Path" points="1136.37595 491 1139.63158 500.394019 1141.51839 505.837533 1144 513 1135.09674 508.748903 1134.88895 508.649369 1127 504.883002"></polyline>
            <polyline id="Path" points="1086 413 1095.08461 417.277442 1104.16921 421.555885 1105.05446 421.972317 1113.01367 425.720209 1116.17584 427.571132 1119.76105 430.378046 1123.16841 433.816617 1126.3125 437.801756 1126.56371 438.199168 1129.11596 442.236361 1131.51145 447.010318 1133.43871 452.005506 1134.84948 457.100797 1135.71061 462.16906 1135.98895 466.412467 1135.99397 476.422862 1135.99799 486.433258 1135.99799 487.876757 1136 491 1132.48312 489.345282 1123.39751 485.069842 1118.65273 482.836523"></polyline>
            <polyline id="Path" points="1091 438 1092.60256 438.752702 1094.04076 439.427642 1103.1029 443.685644 1112.16503 447.942649 1112.93474 448.304544 1114.06225 448.936615 1114.99833 449.668381 1115.53452 450.209728 1115.88831 450.564645 1116.70913 451.604471 1117.44176 452.76094 1118.06715 454.005142 1118.57027 455.308165 1118.93808 456.637108 1119.16359 457.958075 1119.24176 459.458495 1119.24076 469.428062 1119.24076 470.654318 1119.24076 472.237486 1119.23875 482.207052 1119.23875 483.057456 1122.55212 492.466733 1122.97906 493.679032 1126.29243 503.088309 1126.999 505.093189 1126.999 512.218438 1127 522.188005 1127 527.281457 1126.92884 529.077973 1126.71036 530.917358 1126.33953 532.867405 1125.82138 534.847361 1125.17194 536.782454 1124.41125 538.605887 1124.17673 539.06349 1123.56737 540.255851 1122.67238 541.679505 1121.76938 542.828996 1120.82327 543.743205 1113.12316 550.124725 1112.47673 550.659093 1111.4304 551.395844 1110.21871 552"></polyline>
            <polyline id="Path" points="1102 552.904982 1103.37963 553 1105.16351 552.969557 1106.90075 552.785978 1108.53123 552.456642 1110 552"></polyline>
            <polyline id="Path" points="1124 539 1114.83316 534.669005 1111.94279 533.303778 1107.97475 531.043952 1104.11316 528.07717 1103 527"></polyline>
            <polyline id="Path" points="50 303 48.8203726 303.48724 45.9747891 305.284816 43.5441654 307.808239 41.5896747 310.995352 40.1571971 314.767955 39.2844564 319.031808 39.0010196 323.018957 39 325"></polyline>
            <line x1="49" y1="303.6795" x2="50" y2="303.3205" id="Path"></line>
            <polyline id="Path" points="79 578.896047 76.8607455 579.418972 73.8066586 579.853741 70.8043358 580 67.8637319 579.870771 65.0007743 579.475071 62.2363677 578.806889 59.5894259 577.855205 57.0738856 576.58596 54.9853998 575.157432 47.2536224 568.84827 45.5125539 567.427757 43.6460569 565.630577 41.7636323 563.310472 40.091251 560.738923 38.6099989 557.941974 37.3129079 554.944671 36.2059507 551.770055 35.299082 548.435155 34.6092246 544.945981 34.1612653 541.2825 34.0049773 537.886491 34.0029864 527.868768 34 517.851044 34 515"></polyline>
            <polyline id="Path" points="43.5576875 400 43.5576875 400 34.2793888 403.878662 26.5246633 407.121231 24.6961743 407.885544 24.4224544 407.99974 22.5496872 408.984431 21.0623417 409.766775 17.2524026 412.479434 13.6326585 415.828185 10.2926723 419.730888 7.3129497 424.092379 4.768965 428.804472 2.72109756 433.751969 1.2216762 438.81166 0.307934857 443.860331 0.0110695537 448.099612 0.00704426144 458.116816 0.00201264613 468.133019 0 472.702868 2.47253577 482.413546 4.94406521 492.124225 7.34414572 501.552418 7.34716468 511.569622 7.34917733 521.586827 7.35018365 524.438725 7.50817637 527.833556 7.96102175 531.496848 8.65840364 534.986842 9.57415762 538.321569 10.6941952 541.49502 12.0054341 544.492167 13.5028429 547.288971 15.1924593 549.860387 17.0964225 552.180372 18.9822719 553.977458 26.7993895 560.286294 28.5594485 561.706734 30.669708 563.135187 33.2136927 564.404367 42.3128658 568.682715 51.412039 572.961063 60 577"></polyline>
            <polyline id="Path" points="41 493 41.0049678 482.941578 41.008942 472.883157 41.0109291 468.295511 41.3040274 464.038787 42.2071674 458.969342 43.6875621 453.888834 45.7084498 448.920979 48.220153 444.189498 51.1620647 439.810061 54.4606622 435.8913 58.0334804 432.52877 58.0940872 432.484513 61.7950738 429.804949 65.1125488 428.03165 74.2721181 424.136023 83.432681 420.241402 84 420"></polyline>
            <polyline id="Path" points="52.5907157 507.207015 47.7344317 509.242701 38.3741069 513.167072 34 515 37.2087612 505.382198 37.5264905 504.430251 40.7352516 494.812449 41.4082692 492.792985 50.7685941 488.869627 60 485"></polyline>
            <polyline id="Path" points="118 556 123.607238 550.225588 127 546"></polyline>
            <polyline id="Path" points="69.7662924 554 68.4831269 553.363382 67.3749839 552.598044 59.6059814 546.313688 58.5388437 545.450562 57.5377145 544.509605 56.5815912 543.334157 55.634469 541.886301 55.5914634 541.806474 54.7403536 540.210938 53.9352497 538.365944 53.2471609 536.411188 52.6990902 534.416519 52.3060395 532.453781 52.0750097 530.606791 52 528.806699 52 518.828364 52.0010001 510.856672 52.0010001 506.598916 55.1624081 497.132469 58.323816 487.666022 59.3009421 484.741372 59.2989418 474.763037 59.2979417 464.784702 59.2969415 461.121655 59.3809524 459.621911 59.6189831 458.305769 60.0090334 456.985635 60.5411021 455.695436 61.2031875 454.467103 61.9782875 453.329573 62.8483998 452.310785 63.7905214 451.43768 64.7816492 450.730216 65.9738031 450.128523 67.8380436 449.348217 77.0602336 445.486601 83 443"></polyline>
            <polyline id="Path" points="73 535 70.9820916 535.994489 61.9834692 539.634677 56.9260131 541.681048 56 542"></polyline>
            <polyline id="Path" points="70 554.0275 71.3856792 554.5615 72.9234788 554.9605 73 554.9725"></polyline>
            <polyline id="Path" points="145 609.897032 142.860745 610.418963 139.806659 610.854741 136.804336 611 133.863732 610.871771 131.000774 610.475063 128.236368 609.806871 125.589426 608.855172 123.073886 607.585907 120.9854 606.157358 113.253622 599.848098 111.512554 598.428565 109.646057 596.630356 107.763632 594.310215 106.092246 591.739628 104.609999 588.942636 103.312908 585.945287 102.205951 582.770621 101.299082 579.43567 100.609225 575.945441 100.162261 572.282905 100.06371 570.16212 100.004977 568.886844 100.002986 558.868966 100 548.851088 100 546"></polyline>
            <polyline id="Path" points="109.549637 432 100.271338 435.878749 96.3275582 437.527619 90.4224544 439.996916 87.0623417 441.76399 86.7342804 441.997397 86.7342804 441.997397 83.9155695 444.003888 83.2524026 444.475709 79.6336649 447.824536 76.2926723 451.727328 73.313956 456.089919 72.9778441 456.711 70.768965 460.802119 68.7221039 465.748727 67.2226825 470.809533 66.3079349 475.857317 66.0110696 480.096694 66.0070443 490.114125 66.0020126 500.131557 66 504.701509 68.4725358 514.411405 69.8461667 519.808797 72.3187025 529.519695 73.345152 533.551711 73.345152 535.134466 73.3471647 545.151897 73.3491773 555.169329 73.3501837 555.775383 73.3501837 556.437535 73.4095567 557.712754 73.5081764 559.833445 73.9610218 563.496819 74.6584036 566.985891 75.5741576 570.320694 76.6941952 573.495218 78.0054341 576.492433 79.2613253 578.836512 79.5028429 579.2893 81.1924593 581.859773 83.0964225 584.180812 84.9832783 585.977939 92.7993895 592.286917 94.5594485 593.706387 96.6707143 595.135875 99.2136927 596.404082 108.312866 600.683528 117.412039 604.961973 126 609"></polyline>
            <polyline id="Path" points="107 524 107.004969 513.941163 107.008944 503.882325 107.010931 499.293484 107.304084 495.03759 107.812877 492.18088 108.207391 489.967936 109.688059 484.886211 110.696702 482.406708 111.70932 479.919157 113.906473 475.781957 113.906473 475.781957 114.222482 475.18748 117.163944 470.806857 120.463151 466.887934 124.03663 463.525264 127.798918 460.802337 131.117007 459.027958 140.279263 455.133176 149.440526 451.237389 150 451 150 451"></polyline>
            <polyline id="Path" points="118.590716 538.207015 113.754734 540.233577 104.395424 544.156934 100 546 103.208761 536.382198 103.531566 535.414031 106.740327 525.795215 107.408269 523.792985 116.768594 519.869627 126 516"></polyline>
            <polyline id="Path" points="184 588 189.600783 582.23296 193 578"></polyline>
            <polyline id="Path" points="135.945134 586 134.649051 585.362216 133.529753 584.595475 125.682546 578.299605 124.604666 577.434898 123.593459 576.492217 122.627711 575.315615 121.671055 573.864106 121.628626 573.784133 120.767939 572.186674 119.954731 570.337299 119.260725 568.379962 118.706127 566.380638 118.30912 564.415303 118.075765 562.564929 118 560.761539 118 557.019805 118.00101 547.023188 118.00101 542.75963 118.00101 538.513067 121.194242 529.029276 124.387474 519.544485 125.374436 516.615476 125.374436 515.841738 125.372415 506.306964 125.371405 496.310346 125.370395 492.952482 125.432017 491.863851 125.455251 491.449991 125.695678 490.130437 126.022982 489.030809 126.089655 488.808884 126.62809 487.516322 127.29583 486.284738 128.079742 485.145124 128.722227 484.398376 128.957603 484.125469 129.909209 483.250765 130.910313 482.542005 132.115478 481.938209 134.392461 480.992529 140.684976 478.380413 150 474.511722 149.788869 453"></polyline>
            <polyline id="Path" points="139 566 136.981976 566.993682 127.983813 570.6353 122.92509 572.681006 122 573"></polyline>
            <polyline id="Path" points="136 586.0275 137.385679 586.5625 138.924401 586.9615 139 586.9725"></polyline>
            <polyline id="Path" points="211 640.896047 208.860745 641.418972 205.807654 641.853741 202.805331 642 199.863732 641.870771 197.000774 641.475071 194.236368 640.806889 191.590421 639.855205 189.073886 638.58596 186.986395 637.157432 179.253622 630.84827 177.512554 629.427757 175.647052 627.630577 173.763632 625.310472 172.092246 622.738923 170.609999 619.941974 169.312908 616.944671 168.205951 613.770055 167.299082 610.435155 166.609225 606.945981 166.162261 603.2825 166.06371 601.161748 166.004977 599.887493 166.002986 589.86977 166.000995 579.852046 166 577"></polyline>
            <polyline id="Path" points="175.531799 463 170.334228 465.172867 161.057091 469.05177 156.422045 470.99022 153.061988 472.756363 152.988528 472.809458 152.733933 472.99078 152.733933 472.99078 149.25312 475.469191 148.137126 476.501027 145.633436 478.818151 142.2925 482.721097 141.503556 483.876152 141.503556 483.876152 139.313833 487.082859 138.237086 489.075405 138.237086 489.075405 136.768885 491.795246 135.057158 495.933611 135.056152 495.934612 134.722058 496.743051 133.222662 501.803056 132.538374 505.579778 132.30793 506.852042 132.011069 511.091587 132.007044 521.109415 132.002013 531.127243 132 535.696375 132.635986 538.195823 135.10848 547.906104 135.841071 550.784226 138.312559 560.495509 139.345029 564.547721 139.345029 566.131539 139.347041 576.149368 139.35006 586.167196 139.35006 586.772273 139.35006 587.435453 139.409432 588.709721 139.50805 590.830495 139.960888 594.494015 140.658258 597.984226 141.575003 601.319161 142.694016 604.492809 144.005233 607.490143 145.261103 609.835317 145.503623 610.287121 147.193211 612.858698 149.096136 615.178827 150.98296 616.976025 158.799946 623.285253 160.55897 624.705781 162.6702 626.134324 165.213136 627.403583 174.312156 631.682197 183.411177 635.960812 192 640"></polyline>
            <polyline id="Path" points="173 555 173.004972 544.939361 173.00895 534.878721 173.010939 530.289057 173.304309 526.031395 173.814473 523.172161 174.208284 520.960832 175.690048 515.879203 176.021208 515.066304 176.021208 515.066304 177.712806 510.91126 179.911584 506.773319 179.911584 506.773319 180.227827 506.177729 183.171466 501.797326 186.473115 497.877701 190.050232 494.514429 193.815306 491.791014 197.134855 490.016318 206.303892 486.119832 215.47293 482.224352 216 482"></polyline>
            <polyline id="Path" points="183.591731 569.206752 178.776051 571.225271 169.415726 575.148761 165 577 168.208761 567.381873 168.537657 566.397452 171.746418 556.779325 172.408269 554.793248 181.768594 550.868744 191 547"></polyline>
            <polyline id="Path" points="250 619 255.5937 613.240879 259 609"></polyline>
            <polyline id="Path" points="201.750258 617 200.46825 616.362939 199.361108 615.597067 191.599117 609.308335 190.532942 608.444608 189.532717 607.502996 188.577456 606.326729 187.631189 604.877864 187.589221 604.797982 186.73788 603.201335 185.933503 601.355056 185.247035 599.398938 184.698459 597.40288 184.305763 595.438774 184.074942 593.590498 184 591.789153 184 588.051661 184.000999 578.066376 184.000999 573.789678 184.001998 569.565903 187.160553 560.092863 190.319108 550.619823 191.294353 547.694135 191.294353 546.921274 191.292354 537.394314 191.291355 527.409029 191.290356 524.056969 191.351309 522.967574 191.374291 522.557179 191.612107 521.239121 191.936855 520.139741 192.001805 519.918068 192.534393 518.626971 193.195881 517.397782 193.970281 516.25946 194.838609 515.239962 195.77988 514.36625 196.770113 513.658293 197.962191 513.05618 200.214447 512.111572 209.428314 508.248266 215 505.967627 215 484"></polyline>
            <polyline id="Path" points="205 597 202.981976 597.994489 193.983813 601.634677 188.92509 603.681048 188 604"></polyline>
            <polyline id="Path" points="202 617.0275 203.385679 617.5615 204.924401 617.9605 205 617.9725"></polyline>
            <polyline id="Path" points="277 671.896047 274.860745 672.41797 271.807654 672.853741 268.805331 673 265.863732 672.870771 263.000774 672.47407 260.236368 671.806889 257.590421 670.854204 255.073886 669.584958 252.986395 668.156431 245.253622 661.84827 243.512554 660.427757 241.647052 658.629575 239.763632 656.309471 238.092246 653.738923 236.609999 650.941974 235.312908 647.944671 234.205951 644.770055 233.300077 641.435155 232.609225 637.945981 232.162261 634.2825 232.06371 632.161748 232.004977 630.886491 232.002986 620.868768 232.000995 610.851044 232 608"></polyline>
            <polyline id="Path" points="241.499597 494 232.221454 497.879211 222.943311 501.758421 222.422045 501.976827 219.062995 503.744112 218.733933 503.977546 218.733933 503.977546 217.181202 505.083602 217.180196 505.083602 215.25312 506.456153 211.633436 509.805378 208.2925 513.708634 207.503556 514.863781 207.503556 514.863781 205.313833 518.071744 204.237086 520.064447 204.237086 520.064447 202.768885 522.784503 201.057158 526.922194 200.722058 527.731699 199.222662 532.793107 198.53938 536.567122 198.30793 537.841491 198.011069 542.081372 198.007044 552.099994 198.003019 562.118616 198 566.689111 198.636992 569.187756 201.10848 578.899808 201.836039 581.757119 204.307527 591.46817 205.345029 595.542743 205.345029 597.125686 205.347041 607.144308 205.35006 617.16293 205.35006 617.769057 205.35006 618.431288 205.409432 619.706658 205.509057 621.8276 205.960888 625.491411 206.658258 628.980897 207.575003 632.316096 208.694016 635.490997 210.005233 638.488569 211.261103 640.832927 211.503623 641.285768 213.193211 643.857549 215.097142 646.177862 216.98296 647.975202 224.799946 654.284931 226.55897 655.70457 228.6702 657.134227 231.213136 658.402584 240.312156 662.68254 249.411177 666.961493 258 671"></polyline>
            <polyline id="Path" points="239 586 239.003981 575.937419 239.007962 565.874838 239.010948 561.284289 239.303546 557.026811 239.8141 554.165013 240.208212 551.95527 241.691108 546.871654 242.02252 546.058597 242.023515 546.056585 243.71541 541.902751 245.915868 537.764012 245.915868 537.764012 246.232352 537.169313 249.178239 532.787059 252.48241 528.866678 256.06226 525.502757 259.830209 522.778816 263.152294 521.003777 272.328334 517.107546 281.504374 513.210308 282 513"></polyline>
            <polyline id="Path" points="249.591731 600.207015 244.797369 602.216342 235.437044 606.1397 231 608 234.208761 598.382198 234.542732 597.38159 237.751493 587.763788 238.409284 585.792985 247.768594 581.869627 257 578"></polyline>
            <polyline id="Path" points="316 650 321.586884 644.248212 325 640"></polyline>
            <polyline id="Path" points="267.718275 648 266.438578 647.363643 265.33343 646.598618 257.585425 640.316839 256.522169 639.454066 255.522748 638.513495 254.569208 637.339526 253.624646 635.891266 253.582754 635.812469 252.732947 634.217587 251.930019 632.372352 251.244788 630.419395 250.698198 628.424546 250.30621 626.463609 250.075804 624.617376 250 622.818022 250 619.084662 250.000997 609.110416 250.000997 604.819496 250.001995 600.619341 253.154858 591.156774 256.307722 581.69321 257.28121 578.770756 257.28121 577.998749 257.280212 568.480327 257.278218 558.506081 257.278218 555.160719 257.338063 554.072529 257.338063 554.069537 257.361004 553.66159 257.598391 552.345987 257.922555 551.247823 257.987387 551.026395 258.519015 549.736725 259.179311 548.507898 259.952317 547.370834 260.81908 546.35346 261.758655 545.480714 262.747104 544.77354 263.937033 544.171096 266.185232 543.228529 275.382497 539.368496 281 536.940765 281 514"></polyline>
            <polyline id="Path" points="271 628 268.981976 628.994489 259.983813 632.634677 254.92509 634.680108 254 635"></polyline>
            <polyline id="Path" points="268 648.0275 269.385679 648.5625 270.924401 648.9615 271 648.9725"></polyline>
            <polyline id="Path" points="343 702.896047 340.860745 703.418972 337.807654 703.854743 334.805331 704 331.863732 703.870771 329.000774 703.475071 326.237363 702.806889 323.590421 701.855205 321.073886 700.58596 318.986395 699.157432 311.253622 692.84827 309.512554 691.427757 307.647052 689.630577 305.763632 687.310472 304.092246 684.738923 302.610994 681.941974 301.313903 678.944671 300.205951 675.771056 299.300077 672.436156 298.61022 668.945981 298.162261 665.2825 298.064705 663.161748 298.004977 661.887493 298.002986 651.86977 298.000995 641.852046 298 639"></polyline>
            <polyline id="Path" points="306.467118 525 297.18882 528.879496 287.910521 532.759994 287.421448 532.964389 284.062342 534.731804 283.746356 534.956237 283.733274 534.965255 282.151334 536.091431 282.149322 536.093435 280.252403 537.444044 276.632659 540.793516 273.291666 544.697059 272.502709 545.853293 272.501702 545.854295 270.31295 549.059488 269.23719 551.052338 269.23719 551.05334 267.767959 553.773596 266.057209 557.909588 266.056203 557.911592 265.721098 558.721156 264.221676 563.781935 263.538383 567.555225 263.306929 568.831692 263.01107 573.071885 263.006038 583.091244 263.002013 593.110604 263 597.681435 263.635996 600.180264 266.107526 609.892029 266.830066 612.728509 269.301595 622.441276 270.344146 626.537191 270.344146 628.120249 270.347165 638.139609 270.349177 648.158968 270.349177 648.764137 270.349177 649.427419 270.40855 650.701882 270.508176 652.82298 270.960015 656.48706 271.657397 659.977805 272.574158 663.313249 273.693189 666.487382 275.004428 669.485175 276.260319 671.830707 276.502843 672.28258 278.192459 674.854549 280.096423 677.175033 281.982272 678.972506 289.799389 685.282699 291.559449 686.703444 293.669708 688.132205 296.213693 689.401657 305.312866 693.680926 314.412039 697.960194 323 702"></polyline>
            <polyline id="Path" points="305 618 305.003984 607.935616 305.008964 597.871231 305.010956 593.279859 305.303771 589.020611 305.814703 586.1583 306.209107 583.948162 307.693102 578.864641 309.718905 573.894848 311.920994 569.755367 311.920994 569.755367 312.237713 569.159555 315.186779 564.777522 318.492403 560.856438 322.074906 557.491914 325.845648 554.767485 329.170195 552.992128 338.353037 549.094192 347.535878 545.197262 348 545"></polyline>
            <polyline id="Path" points="315.591731 631.206752 310.818686 633.208036 301.458361 637.131526 297 639 300.208761 629.381873 300.547808 628.366023 303.756569 618.746882 304.409284 616.793248 313.768594 612.868744 323 609"></polyline>
            <polyline id="Path" points="382 681 387.579835 675.256089 391 671"></polyline>
            <polyline id="Path" points="333.96839 679 332.670628 678.361986 331.54988 677.594969 323.693514 671.296828 322.614237 670.431808 321.600708 669.488787 320.633708 668.311761 319.675812 666.859728 319.633329 666.779726 318.772538 665.180691 317.958275 663.331649 317.262359 661.372605 316.708054 659.373561 316.310532 657.406517 316.076874 655.555475 316 653.752435 316.001012 650.008351 316.001012 640.008127 316.002023 635.68903 316.002023 631.494936 319.199393 622.007724 322.396763 612.520512 323.383993 609.590446 323.383993 608.816429 323.382981 599.272215 323.380958 589.271991 323.380958 585.917916 323.441649 584.826892 323.464913 584.415882 323.705652 583.095853 324.034391 581.994828 324.100139 581.772823 324.639272 580.479794 325.308889 579.248767 326.092806 578.108741 326.971804 577.087718 327.924643 576.212699 328.927045 575.503683 330.133772 574.900669 332.413706 573.954648 341.740802 570.085562 347.494247 568.000515 348 545"></polyline>
            <polyline id="Path" points="337 660 334.981116 660.994489 325.983469 664.634677 320.926013 666.681048 320 667"></polyline>
            <polyline id="Path" points="334 679.0275 335.385679 679.5615 336.924401 679.9605 337 679.9725"></polyline>
            <polyline id="Path" points="409 733.896047 406.860745 734.41797 403.807654 734.853741 400.805331 735 397.863732 734.870771 395.000774 734.47407 392.237363 733.806889 389.590421 732.854204 387.073886 731.58596 384.986395 730.156431 377.253622 723.84827 375.512554 722.427757 373.647052 720.630577 371.763632 718.309471 370.092246 715.738923 368.610994 712.941974 367.313903 709.944671 366.205951 706.770055 365.300077 703.435155 364.61022 699.945981 364.162261 696.2825 364.064705 694.161748 364.005973 692.886491 364.002986 682.868768 364.000995 672.851044 364 670"></polyline>
            <polyline id="Path" points="372.434916 556 363.156617 559.879803 353.878319 563.760609 353.421448 563.950992 350.062342 565.718547 349.739312 565.94901 349.73428 565.952016 348.120138 567.101328 348.118126 567.103332 346.252403 568.431002 342.632659 571.78074 339.292672 575.685594 338.503715 576.840917 338.503715 576.840917 336.31295 580.048368 335.23719 582.041377 335.23719 582.041377 333.767959 584.761849 332.057209 588.89917 332.056203 588.900172 332.056203 588.900172 332.056203 588.900172 332.056203 588.900172 331.721098 589.709801 330.221676 594.771982 329.538383 598.54457 329.307935 599.822139 329.01107 604.061666 329.006038 614.08182 329.002013 624.101973 329 628.673168 329.635996 631.172194 332.107526 640.885731 332.825034 643.701394 335.296563 653.414931 336.344146 657.53121 336.345152 659.114394 336.347165 669.134547 336.349177 679.154701 336.349177 679.76092 336.349177 680.423252 336.40855 681.698818 336.508176 683.820084 336.961022 687.484455 337.658404 690.974474 338.574158 694.310183 339.694195 697.48557 341.005434 700.4836 342.260319 702.828316 342.502843 703.281227 344.192459 705.8534 346.096423 708.174068 347.982272 709.971683 355.799389 716.282376 357.559449 717.703234 359.669708 719.132108 362.213693 720.401661 371.312866 724.681269 380.412039 728.960876 389 733"></polyline>
            <polyline id="Path" points="371 649 371.003987 638.933673 371.00897 628.867345 371.010964 624.275087 371.304993 620.016023 371.815308 617.15316 372.210004 614.942594 373.6951 609.858092 374.027004 609.044733 374.028001 609.04272 375.722405 604.886333 377.926128 600.746053 377.926128 600.746053 378.243081 600.151133 381.194335 595.768254 384.502411 591.845406 388.087571 588.480233 391.86111 585.755278 395.188123 583.979578 404.377776 580.081896 413.567428 576.184214 414 576"></polyline>
            <polyline id="Path" points="381.591731 663.207015 376.840003 665.199108 367.479678 669.122466 363 671 366.208761 661.382198 366.553898 660.349148 369.76266 650.731346 370.409284 648.792985 379.769609 644.869627 389 641"></polyline>
            <polyline id="Path" points="448 712 453.574473 706.263384 457 702"></polyline>
            <polyline id="Path" points="399.654655 710 398.380546 709.360315 397.279367 708.591289 389.559182 702.277657 388.49875 701.410372 387.503911 700.463879 386.552802 699.28377 385.612625 697.827935 385.56989 697.748726 384.724128 696.145503 383.924083 694.290616 383.240318 692.327445 382.695691 690.322162 382.30511 688.350969 382.075532 686.49508 382 684.686315 382.000994 680.933429 382.000994 670.907016 382.001988 666.557558 382.001988 662.371531 385.14353 652.859473 388.285073 643.346413 389.255065 640.408674 389.255065 639.632629 389.254072 630.064423 389.252084 620.038011 389.252084 616.675152 389.311715 615.58127 389.334573 615.168182 389.571108 613.845698 389.894107 612.74179 389.958707 612.519204 390.488427 611.222788 391.146352 609.987534 391.916581 608.844523 392.780232 607.821829 393.716434 606.944518 394.702328 606.233645 395.88699 605.62805 398.127116 604.680554 407.291357 600.800332 413 598.058108 413 576"></polyline>
            <polyline id="Path" points="403 691 400.981116 691.994489 391.983469 695.634677 386.926013 697.681048 386 698"></polyline>
            <polyline id="Path" points="400 710.0275 401.385679 710.5625 402.924401 710.9615 403 710.9725"></polyline>
            <polyline id="Path" points="531 719.113046 529.474451 722.069276 524.517421 729.921168 518.990318 737.168991 512.991498 743.672497 506.62735 749.295446 500.010282 753.901595 493.808726 757.114279 484.555068 760.994143 478.167836 763.672883 475.349585 764.658627 472.213177 765.418972 469.133978 765.854743 466.106967 766 463.14118 765.870771 460.255685 765.475071 457.468547 764.806889 454.799841 763.855205 452.263616 762.58596 450.157957 761.157432 442.3616 754.84827 440.607218 753.427757 438.725374 751.630577 436.826467 749.310472 435.141338 746.738923 433.647906 743.941974 432.340149 740.944671 431.223086 737.771056 430.309764 734.436156 429.614234 730.945981 429.162591 727.2825 429.064234 725.161748 429.005018 723.887493 429.002007 713.86977 429 703.852046 429 701"></polyline>
            <polyline id="Path" points="438.402714 587 438.402714 587 429.124415 590.880089 419.846116 594.76118 419.421448 594.93855 416.062342 596.706235 415.73428 596.939722 415.73428 596.939722 414.08693 598.112166 414.08693 598.112166 412.252403 599.41889 408.632659 602.768874 405.292672 606.673013 404.503715 607.828422 404.503715 607.828422 402.31295 611.036109 401.23719 613.030266 401.23719 613.030266 399.767959 615.750938 398.056203 619.888564 398.056203 619.889566 398.056203 619.889566 398.056203 619.889566 397.721098 620.699254 396.221676 625.760806 395.538383 629.534674 395.307935 630.811335 395.01107 635.052177 395.006038 645.073068 395.002013 655.093959 395 659.665489 395.635996 662.164699 398.108532 671.877949 398.818996 674.673778 401.291532 684.387027 402.344146 688.525655 402.345152 690.108956 402.347165 700.129847 402.349177 710.150738 402.349177 710.756 402.349177 711.419383 402.409557 712.69404 402.508176 714.815463 402.961022 718.480103 403.658404 721.971381 404.574158 725.307336 405.694195 728.482956 407.005434 731.480204 408.260319 733.826095 408.502843 734.278037 410.192459 736.8504 412.096423 739.171238 413.982272 740.968986 421.799389 747.280143 423.559449 748.701106 425.669708 750.130085 428.213693 751.399732 437.312866 755.679654 446.412039 759.960579 455 764"></polyline>
            <polyline id="Path" points="437 680 437.00399 669.931451 437.008978 659.862902 437.010973 655.26963 437.305262 651.00862 437.817024 648.145125 438.211071 645.934072 439.698473 640.848448 440.029672 640.034909 440.03067 640.032895 441.727566 635.876598 443.932234 631.735404 443.932234 631.735404 444.249466 631.139346 447.203322 626.7555 450.514314 622.832793 454.102635 619.466877 457.879501 616.741321 461.210445 614.965229 470.407201 611.06568 479.604955 607.167138 480 607"></polyline>
            <polyline id="Path" points="447.590716 694.206752 442.85929 696.190801 433.49998 700.114292 429 702 432.208761 692.381873 432.557959 691.333581 435.76672 681.715454 436.408269 679.793248 445.768594 675.869758 455 672"></polyline>
            <polyline id="Path" points="465.627934 741 464.354762 740.363416 463.255249 739.598118 455.546749 733.314093 454.487921 732.451012 453.494589 731.510104 452.544919 730.335716 451.606165 728.886938 451.563494 728.807116 450.719013 727.211664 449.920179 725.366766 449.237448 723.412113 448.693646 721.417549 448.303656 719.454914 448.074426 717.608021 448 715.809022 448 712.073329 448 702.095519 448.000992 697.749185 448.000992 693.601409 451.13778 684.13546 454.274568 674.669511 455.244085 671.746013 455.243092 670.97373 455.2421 661.450908 455.240115 651.473097 455.240115 648.126539 455.300648 647.038958 455.300648 647.035965 455.32248 646.627872 455.558657 645.310801 455.881167 644.212244 455.946662 643.990737 456.474587 642.700606 457.131516 641.472338 457.90058 640.334867 458.763916 639.317131 459.697708 638.443074 460.68211 637.735648 461.86498 637.133986 464.101715 636.190085 480 630.447855 480 607"></polyline>
            <polyline id="Path" points="465 740.754119 466.516705 741.282975 468.202046 741.678131 469.997454 741.920771 471.841331 742 473.671072 741.914828 475.420029 741.673179 477.018527 741.29684 478.525135 740.768975 487.836414 736.937247 493.071168 734.7832 497.263819 732.681642 501.345392 729.886828 505.377486 726.382912 509.248013 722.258035 511 720"></polyline>
            <polyline id="Path" points="480 713 478.979996 714.095011 474.922333 717.641765 470.816921 720.471547 466.598739 722.599398 457.229743 726.479067 451.964127 728.660065 451 729"></polyline>
            <line x1="216.7555" y1="505.6205" x2="216.2445" y2="505.3795" id="Path"></line>
            <line x1="282.76" y1="536.623" x2="282.24" y2="536.377" id="Path"></line>
            <line x1="282.239" y1="536.3765" x2="282.761" y2="536.6235" id="Path"></line>
            <line x1="216.245" y1="505.3795" x2="216.755" y2="505.6205" id="Path"></line>
            <line x1="348.7655" y1="567.6255" x2="348.2345" y2="567.3745" id="Path"></line>
            <line x1="348.234" y1="567.374" x2="348.766" y2="567.626" id="Path"></line>
            <line x1="414.771" y1="598.628" x2="414.229" y2="598.372" id="Path"></line>
            <line x1="414.229" y1="598.372" x2="414.771" y2="598.628" id="Path"></line>
            <polyline id="Path" points="382 667 390.96196 670.982579 400 675"></polyline>
            <polyline id="Path" points="316 636 324.947585 639.976778 334 644"></polyline>
            <polyline id="Path" points="250 605 258.935274 608.971467 268 613"></polyline>
            <polyline id="Path" points="184 574 192.921427 577.965192 202 582"></polyline>
            <polyline id="Path" points="118 542 126.908614 545.959401 136 550"></polyline>
            <polyline id="Path" points="52 511 61.2828058 515.125634 70 519"></polyline>
            <line x1="706.0605" y1="689" x2="706.9395" y2="690" id="Path"></line>
            <line x1="710.5005" y1="571.5005" x2="710.4995" y2="571.4995" id="Path"></line>
            <line x1="776.0605" y1="660" x2="776.9395" y2="661" id="Path"></line>
            <polyline id="Path" points="737 559 746.279206 555.204022 747.941634 554.524277 755.440673 551.456106 755.44168 551.456106 764.720886 547.660128 773.999085 543.863168 781 541"></polyline>
            <polyline id="Path" points="667 590 667 590 682.46499 583.321013 697.733753 576.728296 697.73543 576.728296 700.752621 575.425627 700.755975 575.423901 700.755975 575.423901 711 571"></polyline>
            <line x1="740" y1="584.772" x2="741" y2="584.228" id="Path"></line>
            <line x1="846.0605" y1="630" x2="846.9395" y2="631" id="Path"></line>
            <polyline id="Path" points="880 526.772 881 526.228 881 526.228"></polyline>
            <line x1="916.0605" y1="601" x2="916.9395" y2="602" id="Path"></line>
            <line x1="986.0605" y1="571" x2="986.9395" y2="572" id="Path"></line>
            <polyline id="Path" points="972 461 981.056974 456.974516 990 453"></polyline>
            <polyline id="Path" points="947 472 956.075787 468.006941 965.151575 464.013882 972 461"></polyline>
            <line x1="950" y1="496.772" x2="951" y2="496.228" id="Path"></line>
            <polyline id="Path" points="1020 467 1018.96824 460.810827 1018.72967 459.377528 1017.56778 452.410419 1017.56778 452.410419 1016 443"></polyline>
            <line x1="1056.0605" y1="542" x2="1056.9395" y2="543" id="Path"></line>
            <polyline id="Path" points="1090 438.772 1091 438.228 1091 438.228"></polyline>
            <polyline id="Path" points="1089 437 1088.67753 434.408521 1088.67753 434.408521 1087.4326 424.459024 1086 413"></polyline>
            <polyline id="Path" points="1086 413 1092.86808 410.190933 1102.14729 406.39418 1111.56033 402.543483 1111.56033 402.543483 1116.32925 400.592633 1125.60745 396.796861 1130 395"></polyline>
            <polyline id="Path" points="1105 521 1114.2479 517.217009 1123.49581 513.43304 1127 512"></polyline>
            <polyline id="Path" points="1035 551 1044.2469 547.217009 1053.4948 543.43304 1056.11844 542.360704 1057 542"></polyline>
            <polyline id="Path" points="965 580 974.247903 576.217009 983.495806 572.434018 986.118435 571.360704 987 571"></polyline>
            <polyline id="Path" points="895 609 904.2469 605.217009 913.494803 601.434018 916.118435 600.360704 917 600"></polyline>
            <polyline id="Path" points="825 639 834.247903 635.217009 843.495806 631.434018 846.118435 630.360704 847 630"></polyline>
            <polyline id="Path" points="755 668 764.2469 664.217009 773.494803 660.434018 776.118435 659.360704 777 659"></polyline>
            <polyline id="Path" points="1161 410 1170.25212 406.075051 1179.50424 402.150101 1188.14631 398.483773 1197.39743 394.558824 1206.64955 390.633874 1215.90167 386.708925 1225.15279 382.782961 1227 382"></polyline>
            <line x1="1090" y1="438.8325" x2="1092" y2="438.1675" id="Path"></line>
            <line x1="1021" y1="468.8325" x2="1023" y2="468.1675" id="Path"></line>
            <line x1="951" y1="497.8325" x2="953" y2="497.1675" id="Path"></line>
            <line x1="881" y1="526.8325" x2="883" y2="526.1675" id="Path"></line>
            <line x1="811" y1="556.8325" x2="813" y2="556.1675" id="Path"></line>
            <line x1="741" y1="585.8325" x2="743" y2="585.1675" id="Path"></line>
        </g>
    </g>
</svg>