<?xml version="1.0" encoding="UTF-8" standalone="no"?>
<svg
   xmlns:dc="http://purl.org/dc/elements/1.1/"
   xmlns:cc="http://creativecommons.org/ns#"
   xmlns:rdf="http://www.w3.org/1999/02/22-rdf-syntax-ns#"
   xmlns:svg="http://www.w3.org/2000/svg"
   xmlns="http://www.w3.org/2000/svg"
   xmlns:sodipodi="http://sodipodi.sourceforge.net/DTD/sodipodi-0.dtd"
   xmlns:inkscape="http://www.inkscape.org/namespaces/inkscape"
   sodipodi:docname="so8.svg"
   inkscape:version="1.0beta2 (2b71d25, 2019-12-03)"
   id="svg9197"
   version="1.1"
   viewBox="0 0 135.61124 122.51278"
   height="122.51278mm"
   width="135.61124mm">
  <defs
     id="defs9191">
    <clipPath
       clipPathUnits="userSpaceOnUse"
       id="clipPath8718">
      <path
         d="M 0,841.98 H 595.2 V 0 H 0 Z"
         id="path8716"
         inkscape:connector-curvature="0" />
    </clipPath>
  </defs>
  <sodipodi:namedview
     inkscape:window-maximized="0"
     inkscape:window-y="102"
     inkscape:window-x="1620"
     inkscape:window-height="811"
     inkscape:window-width="1440"
     fit-margin-bottom="20"
     fit-margin-right="20"
     fit-margin-left="20"
     lock-margins="true"
     fit-margin-top="20"
     showgrid="false"
     inkscape:document-rotation="0"
     inkscape:current-layer="g8800"
     inkscape:document-units="mm"
     inkscape:cy="222.73563"
     inkscape:cx="355.4157"
     inkscape:zoom="1.1133094"
     inkscape:pageshadow="2"
     inkscape:pageopacity="0.0"
     borderopacity="1.0"
     bordercolor="#666666"
     pagecolor="#ffffff"
     id="base" />
  <metadata
     id="metadata9194">
    <rdf:RDF>
      <cc:Work
         rdf:about="">
        <dc:format>image/svg+xml</dc:format>
        <dc:type
           rdf:resource="http://purl.org/dc/dcmitype/StillImage" />
        <dc:title></dc:title>
      </cc:Work>
    </rdf:RDF>
  </metadata>
  <g
     transform="translate(-59.919815,2.6700611)"
     id="layer1"
     inkscape:groupmode="layer"
     inkscape:label="Calque 1">
    <g
       transform="matrix(2.7211222,0,0,-2.7211222,-354.87581,1752.9643)"
       id="g8714"
       clip-path="url(#clipPath8718)">
      <g
         id="g8720"
         transform="translate(160.779,630.159)">
        <path
           d="M 0,0 0.234,-0.035 C 2.611,-0.67 0.601,-3.323 3.243,-5.179 l 1.543,0.682 v 0.824 l -0.02,0.054 C 4.57,-3.239 3.487,-3.077 3.332,-2.402 L 3.28,-2.043 3.173,-1.702 C 2.639,-0.474 1.464,0.225 0.358,0.879 L 0.017,1.093 H 0 V 1.075 L -0.017,0.968 V 0.592 L 0,0"
           style="fill:#ffffff;fill-opacity:1;fill-rule:evenodd;stroke:none"
           id="path8722"
           inkscape:connector-curvature="0" />
      </g>
      <g
         id="g8724"
         transform="translate(160.779,630.159)">
        <path
           d="m 0,0 c 0,0 1.471,-0.107 1.56,-1.63 0.18,-2.85 1.683,-3.549 1.683,-3.549 l 1.543,0.682 v 0.824 c 0,0.323 -1.381,0.644 -1.454,1.271 C 3.136,-0.431 0.717,0.592 0.017,1.093 -0.052,1.182 0,0 0,0"
           style="fill:none;stroke:#111715;stroke-width:0.182;stroke-linecap:butt;stroke-linejoin:miter;stroke-miterlimit:2.613;stroke-dasharray:none;stroke-opacity:1"
           id="path8726"
           inkscape:connector-curvature="0" />
        <g
           id="g8728"
           transform="translate(3.136,-4.228)">
          <path
             d="M 0,0 V -0.913"
             style="fill:none;stroke:#111715;stroke-width:0.182;stroke-linecap:butt;stroke-linejoin:miter;stroke-miterlimit:2.613;stroke-dasharray:none;stroke-opacity:1"
             id="path8730"
             inkscape:connector-curvature="0" />
        </g>
      </g>
      <g
         id="g8732"
         transform="translate(160.868,631.306)">
        <path
           d="M 0,0 0.217,-0.055 C 2.447,-0.963 0.586,-3.4 3.011,-5.251 l 0.073,-0.053 1.558,0.697 -0.145,0.11 -0.124,0.142 C 3.612,-3.382 3.744,-2.39 3.442,-1.361 L 3.352,-1.112 3.225,-0.861 3.101,-0.664 2.957,-0.465 2.815,-0.306 2.526,-0.017 2.223,0.231 1.65,0.627 1.613,0.645 1.344,0.555 0.789,0.358 0,0"
           style="fill:#ffffff;fill-opacity:1;fill-rule:evenodd;stroke:none"
           id="path8734"
           inkscape:connector-curvature="0" />
      </g>
      <g
         id="g8736"
         transform="translate(160.868,631.306)">
        <path
           d="M 0,0 C 0,0 1.381,-0.269 1.471,-1.809 1.65,-4.641 3.084,-5.304 3.084,-5.304 l 1.558,0.697 c 0,0 -0.789,0.486 -1.003,2.295 C 3.442,-0.358 2.347,0.124 1.65,0.627 1.56,0.717 0,0 0,0"
           style="fill:none;stroke:#111715;stroke-width:0.182;stroke-linecap:butt;stroke-linejoin:miter;stroke-miterlimit:2.613;stroke-dasharray:none;stroke-opacity:1"
           id="path8738"
           inkscape:connector-curvature="0" />
      </g>
      <g
         id="g8740"
         transform="translate(166.281,632.185)">
        <path
           d="m 0,0 0.231,-0.037 c 2.335,-0.64 0.426,-3.216 2.94,-5.125 l 0.054,-0.035 1.576,0.68 v 0.806 L 4.783,-3.639 4.729,-3.566 4.569,-3.442 4.084,-3.173 3.833,-3.011 3.601,-2.832 3.512,-2.743 3.422,-2.636 3.367,-2.529 3.35,-2.419 3.278,-2.061 3.171,-1.722 3.026,-1.416 2.847,-1.112 2.616,-0.844 2.382,-0.592 2.13,-0.341 1.862,-0.127 1.324,0.269 0.806,0.59 0.358,0.859 0.017,1.075 H 0 L -0.02,1.055 V 0.573 L 0,0"
           style="fill:#ffffff;fill-opacity:1;fill-rule:evenodd;stroke:none"
           id="path8742"
           inkscape:connector-curvature="0" />
      </g>
      <g
         id="g8744"
         transform="translate(166.281,632.185)">
        <path
           d="M 0,0 C 0,0 1.468,-0.127 1.558,-1.65 1.755,-4.5 3.225,-5.197 3.225,-5.197 l 1.576,0.68 v 0.806 c 0,0.359 -1.379,0.665 -1.451,1.292 C 3.136,-0.468 0.734,0.573 0.017,1.075 -0.072,1.165 0,0 0,0"
           style="fill:none;stroke:#111715;stroke-width:0.182;stroke-linecap:butt;stroke-linejoin:miter;stroke-miterlimit:2.613;stroke-dasharray:none;stroke-opacity:1"
           id="path8746"
           inkscape:connector-curvature="0" />
        <g
           id="g8748"
           transform="translate(3.136,-4.231)">
          <path
             d="M 0,0 V -0.931"
             style="fill:none;stroke:#111715;stroke-width:0.182;stroke-linecap:butt;stroke-linejoin:miter;stroke-miterlimit:2.613;stroke-dasharray:none;stroke-opacity:1"
             id="path8750"
             inkscape:connector-curvature="0" />
        </g>
      </g>
      <g
         id="g8752"
         transform="translate(166.371,633.312)">
        <path
           d="m 0,0 0.286,-0.124 c 2.61,-1.202 1.196,-2.832 2.671,-5.018 l 0.124,-0.162 1.558,0.7 -0.124,0.107 -0.145,0.144 C 3.623,-3.355 3.777,-2.402 3.439,-1.361 L 3.35,-1.11 3.243,-0.879 3.116,-0.662 2.974,-0.466 2.83,-0.304 2.526,0 2.24,0.234 1.665,0.645 H 1.558 L 1.361,0.575 0.806,0.358 0,0"
           style="fill:#ffffff;fill-opacity:1;fill-rule:evenodd;stroke:none"
           id="path8754"
           inkscape:connector-curvature="0" />
      </g>
      <g
         id="g8756"
         transform="translate(166.371,633.312)">
        <path
           d="M 0,0 C 0,0 1.772,-0.734 1.916,-1.775 2.31,-4.604 3.081,-5.304 3.081,-5.304 l 1.558,0.7 c 0,0 -0.786,0.483 -0.986,2.292 C 3.439,-0.358 2.347,0.127 1.665,0.645 1.558,0.734 0,0 0,0"
           style="fill:none;stroke:#111715;stroke-width:0.182;stroke-linecap:butt;stroke-linejoin:miter;stroke-miterlimit:2.613;stroke-dasharray:none;stroke-opacity:1"
           id="path8758"
           inkscape:connector-curvature="0" />
      </g>
      <g
         id="g8760"
         transform="translate(171.799,633.815)">
        <path
           d="m 0,0 0.234,-0.037 c 2.372,-0.639 0.372,-3.192 2.919,-5.107 l 0.072,-0.053 1.561,0.7 v 0.823 l -0.02,0.053 c -0.378,0.488 -1.098,0.513 -1.414,1.095 l -0.02,0.124 -0.069,0.359 C 2.944,-0.809 1.825,-0.005 0.789,0.61 L 0.341,0.859 0,1.093 -0.017,1.058 -0.035,0.968 V 0.572 L 0,0"
           style="fill:#ffffff;fill-opacity:1;fill-rule:evenodd;stroke:none"
           id="path8762"
           inkscape:connector-curvature="0" />
      </g>
      <g
         id="g8764"
         transform="translate(171.799,633.815)">
        <path
           d="m 0,0 c 0,0 1.471,-0.09 1.56,-1.63 0.16,-2.85 1.665,-3.567 1.665,-3.567 l 1.561,0.7 v 0.823 c 0,0.341 -1.381,0.645 -1.454,1.272 C 3.118,-0.448 0.717,0.572 0,1.093 -0.09,1.182 0,0 0,0"
           style="fill:none;stroke:#111715;stroke-width:0.182;stroke-linecap:butt;stroke-linejoin:miter;stroke-miterlimit:2.613;stroke-dasharray:none;stroke-opacity:1"
           id="path8766"
           inkscape:connector-curvature="0" />
        <g
           id="g8768"
           transform="translate(3.118,-4.228)">
          <path
             d="M 0,0 V -0.916"
             style="fill:none;stroke:#111715;stroke-width:0.182;stroke-linecap:butt;stroke-linejoin:miter;stroke-miterlimit:2.613;stroke-dasharray:none;stroke-opacity:1"
             id="path8770"
             inkscape:connector-curvature="0" />
        </g>
      </g>
      <g
         id="g8772"
         transform="translate(171.889,634.962)">
        <path
           d="m 0,0 0.306,-0.144 0.321,-0.18 c 0.52,-0.296 1.264,-0.765 1.272,-1.45 L 1.882,-2.277 1.899,-2.743 c 0.046,-0.788 0.312,-1.883 0.968,-2.401 l 0.144,-0.125 0.053,-0.037 1.56,0.682 -0.144,0.107 C 2.912,-2.57 4.552,-1.107 1.63,0.627 L 1.613,0.645 1.541,0.627 1.344,0.572 0.789,0.339 0,0"
           style="fill:#ffffff;fill-opacity:1;fill-rule:evenodd;stroke:none"
           id="path8774"
           inkscape:connector-curvature="0" />
      </g>
      <g
         id="g8776"
         transform="translate(171.889,634.962)">
        <path
           d="M 0,0 C 0,0 1.971,-0.806 1.899,-1.774 1.72,-4.624 3.064,-5.306 3.064,-5.306 l 1.56,0.682 c 0,0 -0.789,0.503 -0.985,2.312 C 3.422,-0.358 2.347,0.124 1.63,0.627 1.56,0.717 0,0 0,0"
           style="fill:none;stroke:#111715;stroke-width:0.182;stroke-linecap:butt;stroke-linejoin:miter;stroke-miterlimit:2.613;stroke-dasharray:none;stroke-opacity:1"
           id="path8778"
           inkscape:connector-curvature="0" />
      </g>
      <g
         id="g8780"
         transform="translate(177.282,635.821)">
        <path
           d="M 0,0 0.234,-0.035 C 2.563,-0.608 0.65,-3.288 3.173,-5.142 l 0.072,-0.055 1.558,0.7 v 0.824 L 4.786,-3.619 C 4.402,-3.12 3.53,-3.069 3.335,-2.402 L 3.28,-2.043 3.173,-1.72 C 2.664,-0.5 1.441,0.259 0.341,0.879 L 0.02,1.093 H 0 V 1.058 L -0.017,0.951 V 0.575 L 0,0"
           style="fill:#ffffff;fill-opacity:1;fill-rule:evenodd;stroke:none"
           id="path8782"
           inkscape:connector-curvature="0" />
      </g>
      <g
         id="g8784"
         transform="translate(177.282,635.821)">
        <path
           d="m 0,0 c 0,0 1.471,-0.09 1.56,-1.63 0.162,-2.85 1.685,-3.567 1.685,-3.567 l 1.558,0.7 v 0.824 c 0,0.341 -1.378,0.644 -1.468,1.271 C 3.136,-0.448 0.717,0.592 0.02,1.093 -0.052,1.182 0,0 0,0"
           style="fill:none;stroke:#111715;stroke-width:0.182;stroke-linecap:butt;stroke-linejoin:miter;stroke-miterlimit:2.613;stroke-dasharray:none;stroke-opacity:1"
           id="path8786"
           inkscape:connector-curvature="0" />
        <g
           id="g8788"
           transform="translate(3.136,-4.228)">
          <path
             d="M 0,0 V -0.913"
             style="fill:none;stroke:#111715;stroke-width:0.182;stroke-linecap:butt;stroke-linejoin:miter;stroke-miterlimit:2.613;stroke-dasharray:none;stroke-opacity:1"
             id="path8790"
             inkscape:connector-curvature="0" />
        </g>
      </g>
      <g
         id="g8792"
         transform="translate(177.371,636.968)">
        <path
           d="M 0,0 0.289,-0.144 0.61,-0.341 C 1.086,-0.648 1.853,-1.137 1.919,-1.774 V -2.295 L 1.954,-2.743 C 2.024,-3.609 2.25,-4.511 2.887,-5.142 L 3.011,-5.251 3.066,-5.286 4.624,-4.624 4.5,-4.515 C 2.934,-2.609 4.555,-1.097 1.633,0.627 L 1.613,0.645 1.543,0.627 1.344,0.572 0.789,0.358 0,0"
           style="fill:#ffffff;fill-opacity:1;fill-rule:evenodd;stroke:none"
           id="path8794"
           inkscape:connector-curvature="0" />
      </g>
      <g
         id="g8796"
         transform="translate(177.371,636.968)">
        <path
           d="m 0,0 c 0,0 1.919,-0.913 1.919,-1.774 -0.055,-2.85 1.147,-3.512 1.147,-3.512 l 1.558,0.662 c 0,0 -0.789,0.503 -0.968,2.312 C 3.442,-0.358 2.349,0.124 1.633,0.627 1.56,0.717 0,0 0,0"
           style="fill:none;stroke:#111715;stroke-width:0.182;stroke-linecap:butt;stroke-linejoin:miter;stroke-miterlimit:2.613;stroke-dasharray:none;stroke-opacity:1"
           id="path8798"
           inkscape:connector-curvature="0" />
      </g>
      <g
         id="g8800"
         transform="translate(161.981,630.858)">
        <path
           d="m 0,0 18.76,6.737 0.162,0.055 0.197,0.035 0.214,0.054 h 0.269 l 0.288,-0.037 0.142,-0.052 0.145,-0.055 0.124,-0.09 0.144,-0.107 0.7,-0.664 1.378,-1.379 3.853,-3.925 5.393,-5.482 -23.188,-10.018 -7.436,8.495 -2.723,3.17 -0.234,1.596 c 0.192,0.48 0.7,1.209 1.202,1.381 L 0,0"
           style="fill:#231f20;fill-opacity:1;fill-rule:evenodd;stroke:none"
           id="path8802"
           inkscape:connector-curvature="0" />
      </g>
      <g
         id="g8804"
         transform="translate(161.981,630.858)">
        <path
           d="m 0,0 18.76,6.737 c 0,0 0.986,0.448 1.685,-0.197 0.717,-0.627 11.324,-11.45 11.324,-11.45 l -23.188,-10.018 -7.436,8.495 -2.723,3.17 -0.234,1.596 c 0,0 0.413,1.04 1.202,1.381 C 0.179,0.09 0,0 0,0"
           style="fill:none;stroke:#ffffff;stroke-width:0.182;stroke-linecap:butt;stroke-linejoin:miter;stroke-miterlimit:2.613;stroke-dasharray:none;stroke-opacity:1"
           id="path8806"
           inkscape:connector-curvature="0" />
      </g>
      <g
         id="g8808"
         transform="translate(160.779,625.966)">
        <path
           d="m 0,0 4.139,-5.124 3.136,-3.853 1.237,-1.523 0.806,-0.951 c 0.496,-0.502 0.779,-0.712 1.471,-0.824 h 0.214 l 0.196,0.018 0.18,0.037 0.161,0.052 0.287,0.09 0.179,0.109 0.055,0.035 17.65,7.581 0.752,0.269 2.15,0.824 0.465,0.214 0.306,0.196 0.214,0.162 0.09,0.144 0.037,0.108 v 0.089 l -0.054,0.055 -0.018,0.286 -0.037,0.286 -0.07,0.376 C 33.333,-0.583 33.299,-0.4 32.792,0.179 L 32.72,0.234 32.63,0.269 32.399,0.306 H 32.165 L 31.914,0.269 31.485,0.162 C 24.721,-2.739 17.822,-5.331 11.075,-8.278 L 10.858,-8.35 10.662,-8.405 C 10.299,-8.506 9.68,-8.466 9.39,-8.205 L 5.09,-2.957 1.988,0.844 0.269,2.957 0.037,3.225 C -0.225,3.381 -0.235,3.472 -0.52,3.332 L -0.572,3.243 -0.61,3.153 -0.679,2.456 -0.734,1.809 -0.769,1.182 V 1.075 L -0.752,0.968 -0.662,0.772 -0.52,0.555 -0.376,0.396 -0.124,0.107 0,0"
           style="fill:#231f20;fill-opacity:1;fill-rule:evenodd;stroke:none"
           id="path8810"
           inkscape:connector-curvature="0" />
      </g>
      <g
         id="g8812"
         transform="translate(160.779,625.966)">
        <path
           d="m 0,0 c 0,0 7.922,-9.856 9.318,-11.451 1.344,-1.523 2.743,-0.483 2.743,-0.483 l 17.65,7.581 c 0,0 1.003,0.359 2.902,1.093 1.471,0.609 1.058,0.968 1.058,0.968 0,0 -0.055,1.665 -0.879,2.471 C 32.434,0.52 31.306,0.09 31.306,0.09 L 15.035,-6.593 c 0,0 -2.437,-0.985 -3.729,-1.578 C 10.017,-8.78 9.39,-8.205 9.39,-8.205 c 0,0 -8.439,10.283 -9.121,11.162 -0.68,0.861 -0.879,0.196 -0.879,0.196 0,0 -0.142,-1.199 -0.159,-1.971 C -0.789,0.645 0,0 0,0"
           style="fill:none;stroke:#ffffff;stroke-width:0.182;stroke-linecap:butt;stroke-linejoin:miter;stroke-miterlimit:2.613;stroke-dasharray:none;stroke-opacity:1"
           id="path8814"
           inkscape:connector-curvature="0" />
      </g>
      <g
         id="g8816"
         transform="translate(188.822,620.876)">
        <path
           d="M 0,0 5.197,2.115 5.341,2.15 5.465,2.17 C 5.899,2.166 6.013,2.1 6.003,1.667 L 5.913,1.165 5.861,0.826 C 5.598,0.032 5.387,-0.277 4.624,-0.679 l -1.809,-0.772 -1.148,-0.52 -17.219,-7.437 -0.844,-0.375 c -1.007,-0.33 -1.248,-0.697 -2.006,0.179 l -0.376,0.43 -9.176,11.434 c -0.349,0.33 -1.074,1.326 -0.986,1.844 l 0.073,0.682 0.017,0.537 0.037,0.466 h -0.02 l 0.02,-0.055 0.142,-0.179 c 2.909,-3.333 5.548,-6.892 8.387,-10.284 l 1.255,-1.488 0.162,-0.144 c 0.552,-0.541 0.758,-1.03 1.63,-0.966 l 0.269,0.052 L 0,0"
           style="fill:#231f20;fill-opacity:1;fill-rule:evenodd;stroke:none"
           id="path8818"
           inkscape:connector-curvature="0" />
      </g>
      <g
         id="g8820"
         transform="translate(188.822,620.876)">
        <path
           d="m 0,0 5.197,2.115 c 0,0 0.896,0.304 0.806,-0.448 C 5.913,0.916 5.771,0.575 5.771,0.575 c 0,0 -0.268,-0.896 -1.147,-1.254 C 3.728,-1.038 1.667,-1.971 1.667,-1.971 l -17.219,-7.437 c 0,0 -1.613,-0.734 -1.971,-0.734 -0.468,0 -0.7,0.324 -1.255,0.968 L -27.954,2.26 c 0,0 -1.075,1.11 -0.986,1.844 0.107,0.986 0.127,1.685 0.127,1.685 0,0 -0.161,0.055 0.483,-0.61 1.434,-1.575 6.128,-7.688 9.301,-11.396 0.465,-0.341 0.769,-1.058 1.506,-1.11 0.214,0 0.358,0 0.555,0.052 L 0,0"
           style="fill:none;stroke:#ffffff;stroke-width:0.182;stroke-linecap:butt;stroke-linejoin:miter;stroke-miterlimit:2.613;stroke-dasharray:none;stroke-opacity:1"
           id="path8822"
           inkscape:connector-curvature="0" />
      </g>
      <g
         id="g8824"
         transform="translate(171.675,617.222)">
        <path
           d="M 0,0 0.465,-2.887"
           style="fill:none;stroke:#111715;stroke-width:0.182;stroke-linecap:butt;stroke-linejoin:miter;stroke-miterlimit:2.613;stroke-dasharray:none;stroke-opacity:1"
           id="path8826"
           inkscape:connector-curvature="0" />
      </g>
      <g
         id="g8828"
         transform="translate(171.692,620.197)">
        <path
           d="m 0,0 0.197,-0.017 0.179,-0.038 c 0.846,-0.412 0.7,-1.647 -0.179,-1.809 L 0,-1.881 -0.179,-1.864 c -0.89,0.178 -1.081,1.338 -0.197,1.809 L -0.179,-0.017 0,0"
           style="fill:#c7d0d6;fill-opacity:1;fill-rule:evenodd;stroke:none"
           id="path8830"
           inkscape:connector-curvature="0" />
      </g>
      <g
         id="g8832"
         transform="translate(171.692,620.197)">
        <path
           d="M 0,0 C 0.52,0 0.951,-0.413 0.951,-0.933 0.951,-1.451 0.52,-1.881 0,-1.881 c -0.52,0 -0.951,0.43 -0.951,0.948 C -0.951,-0.413 -0.52,0 0,0 Z"
           style="fill:#231f20;fill-opacity:1;fill-rule:evenodd;stroke:#ffffff;stroke-width:0.182;stroke-linecap:butt;stroke-linejoin:miter;stroke-miterlimit:2.613;stroke-dasharray:none;stroke-opacity:1"
           id="path8834"
           inkscape:connector-curvature="0" />
      </g>
      <g
         id="g8836"
         transform="translate(173.68,613.26)">
        <path
           d="M 0,0 0.09,-0.107 C 1.142,-1.808 0.077,-4.084 2.312,-5.645 l 1.541,0.7 v 0.806 L 3.835,-4.067 3.8,-3.995 3.639,-3.87 3.173,-3.601 2.904,-3.44 2.67,-3.278 2.563,-3.188 2.491,-3.081 2.437,-2.974 2.402,-2.847 2.367,-2.489 C 2.064,-1.19 1.329,0.005 0.306,0.861 L 0.017,1.095 H 0 L -0.017,1.058 V 0.575 L 0,0"
           style="fill:#ffffff;fill-opacity:1;fill-rule:evenodd;stroke:none"
           id="path8838"
           inkscape:connector-curvature="0" />
      </g>
      <g
         id="g8840"
         transform="translate(173.68,613.26)">
        <path
           d="m 0,0 c 0,0 0.555,-0.555 0.645,-2.096 0.161,-2.832 1.667,-3.549 1.667,-3.549 l 1.541,0.7 v 0.806 c 0,0.341 -1.362,0.665 -1.451,1.292 C 2.205,-0.896 0.734,0.575 0.017,1.095 -0.072,1.185 0,0 0,0"
           style="fill:none;stroke:#111715;stroke-width:0.182;stroke-linecap:butt;stroke-linejoin:miter;stroke-miterlimit:2.613;stroke-dasharray:none;stroke-opacity:1"
           id="path8842"
           inkscape:connector-curvature="0" />
      </g>
      <g
         id="g8844"
         transform="translate(173.77,614.408)">
        <path
           d="M 0,0 0.144,-0.142 C 1.592,-1.611 0.456,-3.915 2.115,-5.717 L 2.15,-5.752 3.691,-5.07 3.566,-4.963 3.442,-4.821 C 2.688,-3.854 2.74,-2.616 2.563,-1.468 L 2.474,-0.968 2.367,-0.52 2.24,-0.142 2.078,0.162 1.899,0.431 1.775,0.538 1.65,0.627 1.613,0.645 1.56,0.627 1.361,0.575 0.789,0.341 0,0"
           style="fill:#ffffff;fill-opacity:1;fill-rule:evenodd;stroke:none"
           id="path8846"
           inkscape:connector-curvature="0" />
      </g>
      <g
         id="g8848"
         transform="translate(173.77,614.408)">
        <path
           d="M 0,0 C 0,0 0.896,-0.699 0.986,-2.24 1.165,-5.07 2.15,-5.752 2.15,-5.752 l 1.541,0.682 c 0,0 -0.769,0.501 -0.966,2.31 C 2.509,-0.806 2.347,0.127 1.65,0.627 1.56,0.717 0,0 0,0"
           style="fill:none;stroke:#111715;stroke-width:0.182;stroke-linecap:butt;stroke-linejoin:miter;stroke-miterlimit:2.613;stroke-dasharray:none;stroke-opacity:1"
           id="path8850"
           inkscape:connector-curvature="0" />
      </g>
      <g
         id="g8852"
         transform="translate(189.862,620.052)">
        <path
           d="m 0,0 0.09,-0.107 c 0.978,-1.607 0.055,-3.979 2.15,-5.5 l 0.052,-0.038 1.578,0.682 v 0.824 L 3.853,-4.067 C 3.456,-3.621 2.717,-3.538 2.437,-2.974 L 2.419,-2.867 2.364,-2.491 C 2.089,-1.248 1.539,-0.398 0.662,0.52 L 0.321,0.844 0.017,1.093 0,1.058 -0.017,0.951 -0.037,0.575 0,0"
           style="fill:#ffffff;fill-opacity:1;fill-rule:evenodd;stroke:none"
           id="path8854"
           inkscape:connector-curvature="0" />
      </g>
      <g
         id="g8856"
         transform="translate(189.862,620.052)">
        <path
           d="m 0,0 c 0,0 0.538,-0.555 0.627,-2.113 0.197,-2.832 1.665,-3.532 1.665,-3.532 l 1.578,0.682 v 0.824 c 0,0.341 -1.379,0.645 -1.451,1.272 C 2.203,-0.913 0.734,0.575 0.017,1.093 -0.072,1.182 0,0 0,0"
           style="fill:none;stroke:#111715;stroke-width:0.182;stroke-linecap:butt;stroke-linejoin:miter;stroke-miterlimit:2.613;stroke-dasharray:none;stroke-opacity:1"
           id="path8858"
           inkscape:connector-curvature="0" />
      </g>
      <g
         id="g8860"
         transform="translate(189.952,621.165)">
        <path
           d="M 0,0 0.142,-0.127 C 1.598,-1.693 0.455,-3.874 2.095,-5.699 L 2.15,-5.754 3.691,-5.072 3.547,-4.965 3.422,-4.803 C 2.698,-3.861 2.74,-2.581 2.544,-1.471 L 2.454,-0.968 2.347,-0.52 2.222,-0.144 2.061,0.159 1.882,0.428 1.774,0.538 1.647,0.645 H 1.54 L 1.344,0.59 0.789,0.358 0,0"
           style="fill:#ffffff;fill-opacity:1;fill-rule:evenodd;stroke:none"
           id="path8862"
           inkscape:connector-curvature="0" />
      </g>
      <g
         id="g8864"
         transform="translate(189.952,621.165)">
        <path
           d="M 0,0 C 0,0 0.896,-0.699 0.968,-2.222 1.165,-5.072 2.15,-5.754 2.15,-5.754 l 1.541,0.682 c 0,0 -0.772,0.503 -0.968,2.312 C 2.491,-0.806 2.347,0.124 1.647,0.645 1.558,0.734 0,0 0,0"
           style="fill:none;stroke:#111715;stroke-width:0.182;stroke-linecap:butt;stroke-linejoin:miter;stroke-miterlimit:2.613;stroke-dasharray:none;stroke-opacity:1"
           id="path8866"
           inkscape:connector-curvature="0" />
      </g>
      <g
         id="g8868"
         transform="translate(179.039,615.5)">
        <path
           d="m 0,0 0.072,-0.124 0.09,-0.145 c 0.514,-0.84 0.404,-1.88 0.59,-2.812 l 0.109,-0.393 0.107,-0.379 c 0.3,-0.726 0.62,-1.331 1.289,-1.772 l 0.055,-0.019 1.558,0.699 v 0.806 L 3.853,-4.084 C 3.689,-3.785 2.416,-3.406 2.419,-2.847 L 2.347,-2.509 2.275,-2.15 C 1.957,-1.005 1.197,0.095 0.304,0.861 L 0.017,1.095 H 0 V 1.058 L -0.017,0.968 -0.035,0.575 0,0"
           style="fill:#ffffff;fill-opacity:1;fill-rule:evenodd;stroke:none"
           id="path8870"
           inkscape:connector-curvature="0" />
      </g>
      <g
         id="g8872"
         transform="translate(179.039,615.5)">
        <path
           d="m 0,0 c 0,0 0.538,-0.555 0.627,-2.096 0.197,-2.849 1.685,-3.548 1.685,-3.548 l 1.558,0.699 v 0.806 c 0,0.341 -1.379,0.645 -1.451,1.292 C 2.205,-0.896 0.717,0.575 0.017,1.095 -0.055,1.185 0,0 0,0"
           style="fill:none;stroke:#111715;stroke-width:0.182;stroke-linecap:butt;stroke-linejoin:miter;stroke-miterlimit:2.613;stroke-dasharray:none;stroke-opacity:1"
           id="path8874"
           inkscape:connector-curvature="0" />
      </g>
      <g
         id="g8876"
         transform="translate(179.128,616.648)">
        <path
           d="M 0,0 0.144,-0.142 C 1.589,-1.705 0.504,-3.9 2.096,-5.734 L 2.15,-5.769 3.708,-5.07 3.584,-4.963 3.439,-4.821 c -0.742,0.976 -0.696,2.16 -0.876,3.315 L 2.474,-0.986 2.364,-0.538 2.24,-0.162 2.078,0.144 1.882,0.413 1.775,0.52 1.648,0.627 H 1.541 L 1.344,0.555 0.789,0.341 0,0"
           style="fill:#ffffff;fill-opacity:1;fill-rule:evenodd;stroke:none"
           id="path8878"
           inkscape:connector-curvature="0" />
      </g>
      <g
         id="g8880"
         transform="translate(179.128,616.648)">
        <path
           d="M 0,0 C 0,0 0.913,-0.699 0.986,-2.24 1.165,-5.07 2.15,-5.769 2.15,-5.769 l 1.558,0.699 c 0,0 -0.786,0.483 -0.985,2.292 C 2.509,-0.824 2.347,0.127 1.648,0.627 1.558,0.717 0,0 0,0"
           style="fill:none;stroke:#111715;stroke-width:0.182;stroke-linecap:butt;stroke-linejoin:miter;stroke-miterlimit:2.613;stroke-dasharray:none;stroke-opacity:1"
           id="path8882"
           inkscape:connector-curvature="0" />
      </g>
      <g
         id="g8884"
         transform="translate(184.576,617.939)">
        <path
           d="m 0,0 0.09,-0.127 c 0.955,-1.516 0.084,-4.07 2.15,-5.483 l 0.052,-0.034 1.578,0.679 v 0.824 L 3.853,-4.086 C 3.687,-3.79 2.414,-3.404 2.419,-2.85 L 2.364,-2.491 2.275,-2.15 C 1.979,-0.972 1.203,0.034 0.321,0.841 L 0.017,1.075 H 0 V 1.055 L -0.017,0.948 -0.037,0.573 0,0"
           style="fill:#ffffff;fill-opacity:1;fill-rule:evenodd;stroke:none"
           id="path8886"
           inkscape:connector-curvature="0" />
      </g>
      <g
         id="g8888"
         transform="translate(184.576,617.939)">
        <path
           d="m 0,0 c 0,0 0.538,-0.575 0.627,-2.098 0.179,-2.85 1.665,-3.546 1.665,-3.546 l 1.578,0.679 v 0.824 c 0,0.323 -1.379,0.647 -1.451,1.291 C 2.203,-0.896 0.717,0.573 0.017,1.075 -0.072,1.165 0,0 0,0"
           style="fill:none;stroke:#111715;stroke-width:0.182;stroke-linecap:butt;stroke-linejoin:miter;stroke-miterlimit:2.613;stroke-dasharray:none;stroke-opacity:1"
           id="path8890"
           inkscape:connector-curvature="0" />
        <g
           id="g8892"
           transform="translate(2.203,-4.696)">
          <path
             d="M 0,0 V -0.913"
             style="fill:none;stroke:#111715;stroke-width:0.182;stroke-linecap:butt;stroke-linejoin:miter;stroke-miterlimit:2.613;stroke-dasharray:none;stroke-opacity:1"
             id="path8894"
             inkscape:connector-curvature="0" />
        </g>
      </g>
      <g
         id="g8896"
         transform="translate(184.666,619.084)">
        <path
           d="M 0,0 0.142,-0.142 C 1.608,-1.68 0.472,-3.968 2.113,-5.714 L 2.15,-5.769 3.708,-5.07 3.584,-4.963 3.439,-4.818 c -0.715,0.946 -0.721,2.214 -0.878,3.332 l -0.09,0.5 L 2.364,-0.538 2.24,-0.159 2.078,0.144 1.882,0.413 1.775,0.52 1.648,0.627 H 1.558 L 1.344,0.557 0.789,0.341 0,0"
           style="fill:#ffffff;fill-opacity:1;fill-rule:evenodd;stroke:none"
           id="path8898"
           inkscape:connector-curvature="0" />
      </g>
      <g
         id="g8900"
         transform="translate(184.666,619.084)">
        <path
           d="M 0,0 C 0,0 0.896,-0.697 0.986,-2.24 1.147,-5.07 2.15,-5.769 2.15,-5.769 l 1.558,0.699 c 0,0 -0.789,0.483 -0.985,2.293 C 2.509,-0.824 2.347,0.11 1.648,0.627 1.558,0.717 0,0 0,0"
           style="fill:none;stroke:#111715;stroke-width:0.182;stroke-linecap:butt;stroke-linejoin:miter;stroke-miterlimit:2.613;stroke-dasharray:none;stroke-opacity:1"
           id="path8902"
           inkscape:connector-curvature="0" />
        <g
           id="g8904"
           transform="translate(-8.78,-10.5)">
          <path
             d="M 0,0 V -0.931"
             style="fill:none;stroke:#111715;stroke-width:0.182;stroke-linecap:butt;stroke-linejoin:miter;stroke-miterlimit:2.613;stroke-dasharray:none;stroke-opacity:1"
             id="path8906"
             inkscape:connector-curvature="0" />
          <g
             id="g8908"
             transform="translate(5.376,2.257)">
            <path
               d="M 0,0 V -0.913"
               style="fill:none;stroke:#111715;stroke-width:0.182;stroke-linecap:butt;stroke-linejoin:miter;stroke-miterlimit:2.613;stroke-dasharray:none;stroke-opacity:1"
               id="path8910"
               inkscape:connector-curvature="0" />
            <g
               id="g8912"
               transform="translate(10.804,4.517)">
              <path
                 d="M 0,0 V -0.913"
                 style="fill:none;stroke:#111715;stroke-width:0.182;stroke-linecap:butt;stroke-linejoin:miter;stroke-miterlimit:2.613;stroke-dasharray:none;stroke-opacity:1"
                 id="path8914"
                 inkscape:connector-curvature="0" />
            </g>
          </g>
        </g>
      </g>
    </g>
  </g>
</svg>
