<?xml version="1.0" encoding="utf-8"?>
<!-- Generator: Adobe Illustrator 12.0.0, SVG Export Plug-In . SVG Version: 6.00 Build 51448)  -->
<!DOCTYPE svg PUBLIC "-//W3C//DTD SVG 1.1//EN" "http://www.w3.org/Graphics/SVG/1.1/DTD/svg11.dtd" [
	<!ENTITY ns_svg "http://www.w3.org/2000/svg">
	<!ENTITY ns_xlink "http://www.w3.org/1999/xlink">
]>
<svg  version="1.1"
	 id="svg3530" xmlns:rdf="http://www.w3.org/1999/02/22-rdf-syntax-ns#" xmlns:inkscape="http://www.inkscape.org/namespaces/inkscape" xmlns:dc="http://purl.org/dc/elements/1.1/" xmlns:sodipodi="http://sodipodi.sourceforge.net/DTD/sodipodi-0.dtd" xmlns:cc="http://creativecommons.org/ns#" xmlns:svg="http://www.w3.org/2000/svg" inkscape:version="0.47pre4 " sodipodi:docname="TO-18, 3 leads, plain can (unshaded).svg"
	 xmlns="&ns_svg;" xmlns:xlink="&ns_xlink;" width="150" height="300" viewBox="0 0 150 300"
	 overflow="visible" enable-background="new 0 0 150 300" xml:space="preserve">
<defs>
	
	
		<inkscape:perspective  inkscape:persp3d-origin="372.04724 : 350.78739 : 1" inkscape:vp_x="0 : 526.18109 : 1" inkscape:vp_z="744.09448 : 526.18109 : 1" inkscape:vp_y="0 : 1000 : 0" sodipodi:type="inkscape:persp3d" id="perspective3538">
		</inkscape:perspective>
	
		<inkscape:perspective  inkscape:persp3d-origin="0.5 : 0.33333333 : 1" inkscape:vp_x="0 : 0.5 : 1" inkscape:vp_z="1 : 0.5 : 1" inkscape:vp_y="0 : 1000 : 0" sodipodi:type="inkscape:persp3d" id="perspective3548">
		</inkscape:perspective>
	
		<inkscape:perspective  inkscape:persp3d-origin="0.5 : 0.33333333 : 1" inkscape:vp_x="0 : 0.5 : 1" inkscape:vp_z="1 : 0.5 : 1" inkscape:vp_y="0 : 1000 : 0" sodipodi:type="inkscape:persp3d" id="perspective3694">
		</inkscape:perspective>
</defs>
<sodipodi:namedview  borderopacity="1.0" inkscape:cy="162.1331" inkscape:document-units="px" bordercolor="#666666" inkscape:window-maximized="1" pagecolor="#ffffff" inkscape:zoom="0.92285715" inkscape:cx="-74.270123" showgrid="false" id="base" inkscape:pageopacity="0.0" inkscape:pageshadow="2" inkscape:current-layer="layer1" inkscape:window-width="1395" inkscape:window-height="874" inkscape:window-x="41" inkscape:window-y="-4">
	</sodipodi:namedview>
<g id="layer1" transform="translate(0,-1294.2522)" inkscape:label="Layer 1" inkscape:groupmode="layer">
	<g id="g3550" transform="matrix(0,1.25,1.25,0,-369.00839,34.685397)" inkscape:label="TO-18 3-lead, plain can">
	</g>
	<g id="XMLID_1_" transform="translate(-2.8979911,1286.9349)">
		<g id="g13">
			<path id="path15" fill="#BABDB6" d="M104.298,129.418v159.979c-0.28,3.041-7.68,3.051-7.95,0V132.428l-0.011-0.03
				C99.068,131.578,101.728,130.588,104.298,129.418L104.298,129.418z"/>
			<path id="path17" fill="#BABDB6" d="M74.968,135.518v143.379c-0.23,2.99-7.61,3.031-7.95,0V135.198v-0.01
				C69.647,135.429,72.308,135.549,74.968,135.518z"/>
			<path id="path19" fill="#BABDB6" d="M52.248,132.449v161.38c-0.24,3.1-7.72,3.1-7.95,0v-164.39
				C46.938,130.679,49.647,131.679,52.248,132.449z"/>
			<path id="path21" fill="#D3D7CF" d="M106.768,128.179v0.05c-0.81,0.42-1.63,0.81-2.47,1.19c-2.57,1.17-5.23,2.16-7.961,2.98
				c-6.859,2.08-14.129,3.09-21.37,3.12c-2.66,0.03-5.32-0.09-7.95-0.33c-3.44-0.31-6.83-0.83-10.12-1.56
				c-1.48-0.31-3.05-0.7-4.65-1.18c-2.6-0.77-5.31-1.77-7.95-3.01c-9.25-4.3-17.64-11.42-17.85-21.54v-7.2
				c0.02,8.77,7.43,16.73,17.47,21.3c18.23,8.72,44.951,8.47,62.85-1.05V128.179z"/>
			<polygon id="polygon23" fill="#D3D7CF" points="118.798,126.108 129.348,117.878 129.348,125.148 118.848,133.268 
				118.848,126.128 			"/>
			<polygon id="polygon25" fill="#D3D7CF" points="118.798,133.308 106.768,128.179 106.768,120.949 106.778,120.918 
				118.798,126.108 118.848,126.128 118.848,133.268 			"/>
			<path id="path27" fill="#D3D7CF" d="M106.778,120.918l-0.01,0.03c-17.899,9.52-44.62,9.77-62.85,1.05
				c-10.04-4.57-17.45-12.53-17.47-21.3c-0.01-4.72,2.12-9.68,7.12-14.47v14.47c0.76,17.82,28.22,24.34,42.45,23.48
				c13.54,0.06,38.319-6.66,39-23.48v-14.47c4.62,4.34,7.101,9.33,7.101,14.45c0,4.03-1.541,8.15-4.771,12.1l3.521,1.5l8.479,3.6
				l-10.55,8.23L106.778,120.918z"/>
			<path id="path29" fill="#D3D7CF" d="M115.018,86.228v14.47c-0.681,16.82-25.46,23.54-39,23.48
				c-14.23,0.86-41.69-5.66-42.45-23.48v-14.47v-36.45h1.13c10.93,23.98,68.08,24,79.2,0.07h1.12V86.228z"/>
			<path id="path31" fill="#D3D7CF" d="M74.598,18.498c15.28-0.22,39.899,7.21,40.42,25.73c0,0.02,0,0.05,0,0.07v5.55h-1.12
				c-11.12,23.93-68.27,23.91-79.2-0.07h-1.13v-5.48C33.998,25.558,59.218,18.069,74.598,18.498z"/>
		</g>
		<g id="g33">
			
				<polyline id="polyline35" fill="none" stroke="#000000" stroke-width="2" stroke-linecap="round" stroke-linejoin="round" stroke-miterlimit="10" points="
				118.848,126.128 118.848,133.268 118.848,133.328 			"/>
			
				<polyline id="polyline37" fill="none" stroke="#000000" stroke-width="2" stroke-linecap="round" stroke-linejoin="round" stroke-miterlimit="10" points="
				122.147,107.898 122.147,100.679 122.147,100.628 			"/>
			
				<line id="line39" fill="none" stroke="#000000" stroke-width="2" stroke-linecap="round" stroke-linejoin="round" stroke-miterlimit="10" x1="129.348" y1="117.878" x2="129.348" y2="125.148"/>
			
				<path id="path41" fill="none" stroke="#000000" stroke-width="2" stroke-linecap="round" stroke-linejoin="round" stroke-miterlimit="10" d="
				M115.018,100.699c-0.681,16.82-25.46,23.54-39,23.48c-14.23,0.86-41.69-5.66-42.45-23.48"/>
			
				<path id="path43" fill="none" stroke="#000000" stroke-width="2" stroke-linecap="round" stroke-linejoin="round" stroke-miterlimit="10" d="
				M106.768,128.228c-0.81,0.42-1.63,0.81-2.47,1.19c-2.57,1.17-5.23,2.16-7.961,2.98c-6.859,2.08-14.129,3.09-21.37,3.12
				c-2.66,0.03-5.32-0.09-7.95-0.33c-3.44-0.31-6.83-0.83-10.12-1.56c-1.48-0.31-3.05-0.7-4.65-1.18c-2.6-0.77-5.31-1.77-7.95-3.01
				c-9.25-4.3-17.64-11.42-17.85-21.54"/>
			
				<polyline id="polyline45" fill="none" stroke="#000000" stroke-width="2" stroke-linecap="round" stroke-linejoin="round" stroke-miterlimit="10" points="
				122.147,107.898 121.998,110.078 121.548,112.179 120.869,114.279 			"/>
			
				<line id="line47" fill="none" stroke="#000000" stroke-width="2" stroke-linecap="round" stroke-linejoin="round" stroke-miterlimit="10" x1="26.448" y1="100.699" x2="26.448" y2="107.898"/>
			
				<line id="line49" fill="none" stroke="#000000" stroke-width="2" stroke-linecap="round" stroke-linejoin="round" stroke-miterlimit="10" x1="96.348" y1="132.429" x2="96.348" y2="289.397"/>
			
				<polyline id="polyline51" fill="none" stroke="#000000" stroke-width="2" stroke-linecap="round" stroke-linejoin="round" stroke-miterlimit="10" points="
				115.018,100.699 115.018,86.228 115.018,49.848 115.018,44.299 			"/>
			
				<path id="path53" fill="none" stroke="#000000" stroke-width="2" stroke-linecap="round" stroke-linejoin="round" stroke-miterlimit="10" d="
				M104.298,289.397c-0.28,3.041-7.68,3.051-7.95,0"/>
			
				<polyline id="polyline55" fill="none" stroke="#000000" stroke-width="2" stroke-linecap="round" stroke-linejoin="round" stroke-miterlimit="10" points="
				106.768,120.949 106.768,128.179 106.768,128.228 			"/>
			
				<path id="path57" fill="none" stroke="#000000" stroke-width="2" stroke-linecap="round" stroke-linejoin="round" stroke-miterlimit="10" d="
				M67.018,278.897c0.34,3.031,7.72,2.99,7.95,0"/>
			<path id="path59" fill="none" stroke="#000000" stroke-linecap="round" stroke-linejoin="round" stroke-miterlimit="10" d="
				M40.167,34.478c5.85-11.93,25.47-15.72,37.43-14.93c11.49,0.49,31.57,6.24,32.1,20.4c-0.57,14.07-20.66,20.05-32.1,20.33
				c-12.02,0.92-31.57-2.95-37.43-14.93"/>
			<path id="path61" fill="none" stroke="#000000" stroke-linecap="round" stroke-linejoin="round" stroke-miterlimit="10" d="
				M113.897,49.848c-11.12,23.93-68.27,23.91-79.2-0.07"/>
			
				<line id="line63" fill="none" stroke="#000000" stroke-linecap="round" stroke-linejoin="round" stroke-miterlimit="10" x1="115.018" y1="44.299" x2="115.098" y2="44.378"/>
			
				<line id="line65" fill="none" stroke="#000000" stroke-width="2" stroke-linecap="round" stroke-linejoin="round" stroke-miterlimit="10" x1="67.018" y1="135.199" x2="67.018" y2="278.897"/>
			
				<path id="path67" fill="none" stroke="#000000" stroke-width="2" stroke-linecap="round" stroke-linejoin="round" stroke-miterlimit="10" d="
				M52.248,293.828c-0.24,3.101-7.72,3.101-7.95,0"/>
			
				<polyline id="polyline69" fill="none" stroke="#000000" stroke-width="2" stroke-linecap="round" stroke-linejoin="round" stroke-miterlimit="10" points="
				117.348,112.779 120.869,114.279 129.348,117.878 			"/>
			
				<polyline id="polyline71" fill="none" stroke="#000000" stroke-width="2" stroke-linecap="round" stroke-linejoin="round" stroke-miterlimit="10" points="
				104.298,289.397 104.298,129.418 104.298,129.348 			"/>
			
				<polyline id="polyline73" fill="none" stroke="#000000" stroke-width="2" stroke-linecap="round" stroke-linejoin="round" stroke-miterlimit="10" points="
				44.298,129.429 44.298,129.438 44.298,293.828 			"/>
			
				<polyline id="polyline75" fill="none" stroke="#000000" stroke-width="2" stroke-linecap="round" stroke-linejoin="round" stroke-miterlimit="10" points="
				129.348,117.878 118.798,126.108 118.768,126.128 			"/>
			
				<polyline id="polyline77" fill="none" stroke="#000000" stroke-width="2" stroke-linecap="round" stroke-linejoin="round" stroke-miterlimit="10" points="
				33.568,44.299 33.568,49.779 33.568,86.228 33.568,100.699 			"/>
			
				<polyline id="polyline79" fill="none" stroke="#000000" stroke-width="2" stroke-linecap="round" stroke-linejoin="round" stroke-miterlimit="10" points="
				118.848,126.128 118.798,126.108 106.778,120.918 106.698,120.878 			"/>
			
				<path id="path81" fill="none" stroke="#000000" stroke-width="2" stroke-linecap="round" stroke-linejoin="round" stroke-miterlimit="10" d="
				M115.018,44.299c0-0.02,0-0.05,0-0.07c-0.521-18.52-25.14-25.95-40.42-25.73c-15.38-0.43-40.6,7.06-41.03,25.8"/>
			
				<polyline id="polyline83" fill="none" stroke="#000000" stroke-width="2" stroke-linecap="round" stroke-linejoin="round" stroke-miterlimit="10" points="
				74.968,278.897 74.968,135.518 74.968,135.429 			"/>
			
				<polyline id="polyline85" fill="none" stroke="#000000" stroke-width="2" stroke-linecap="round" stroke-linejoin="round" stroke-miterlimit="10" points="
				118.848,133.328 118.798,133.308 106.768,128.179 106.698,128.148 			"/>
			
				<path id="path87" fill="none" stroke="#000000" stroke-width="2" stroke-linecap="round" stroke-linejoin="round" stroke-miterlimit="10" d="
				M106.768,120.949c-17.899,9.52-44.62,9.77-62.85,1.05c-10.04-4.57-17.45-12.53-17.47-21.3c-0.01-4.72,2.12-9.68,7.12-14.47"/>
			
				<path id="path89" fill="none" stroke="#000000" stroke-width="2" stroke-linecap="round" stroke-linejoin="round" stroke-miterlimit="10" d="
				M115.018,86.228c4.62,4.34,7.101,9.33,7.101,14.45c0,4.03-1.541,8.15-4.771,12.1"/>
			
				<polyline id="polyline91" fill="none" stroke="#000000" stroke-width="2" stroke-linecap="round" stroke-linejoin="round" stroke-miterlimit="10" points="
				52.248,293.828 52.248,132.449 52.248,132.348 			"/>
			
				<polyline id="polyline93" fill="none" stroke="#000000" stroke-width="2" stroke-linecap="round" stroke-linejoin="round" stroke-miterlimit="10" points="
				129.348,125.148 118.848,133.268 118.798,133.308 118.768,133.328 			"/>
		</g>
	</g>
</g>
<text transform="matrix(1 0 0 1 -97.167 58.8336)" font-family="'DejaVuSans'" font-size="12">ZN414</text>
<g>
	<g>
		<g enable-background="new    ">
			<g enable-background="new    ">
				<defs>
					<path id="XMLID_12_" enable-background="new    " d="M-22.706,112.524c16.256,9.386,16.342,24.657,0.191,34.043
						c-16.15,9.386-42.516,9.386-58.772,0s-16.342-24.657-0.192-34.043C-65.328,103.139-38.962,103.138-22.706,112.524z
						 M-80.582,146.158c15.866,9.161,41.596,9.161,57.358,0c15.762-9.16,15.678-24.064-0.187-33.224
						c-15.866-9.16-41.596-9.16-57.358,0C-96.531,122.094-96.447,136.998-80.582,146.158"/>
				</defs>
				<clipPath id="XMLID_28_">
					<use xlink:href="#XMLID_12_" />
				</clipPath>
				<path clip-path="url(#XMLID_28_)" fill="none" stroke="#000000" stroke-width="0.25" d="M-22.706,112.524
					c16.256,9.386,16.342,24.657,0.191,34.043c-16.15,9.386-42.516,9.386-58.772,0s-16.342-24.657-0.192-34.043
					C-65.328,103.139-38.962,103.138-22.706,112.524z M-80.582,146.158c15.866,9.161,41.596,9.161,57.358,0
					c15.762-9.16,15.678-24.064-0.187-33.224c-15.866-9.16-41.596-9.16-57.358,0C-96.531,122.094-96.447,136.998-80.582,146.158"/>
			</g>
			<g enable-background="new    ">
				<defs>
					<path id="XMLID_14_" enable-background="new    " d="M-22.59,71.766c16.256,9.385,16.342,24.657,0.191,34.043
						s-42.516,9.386-58.772,0c-16.257-9.386-16.343-24.657-0.192-34.043S-38.847,62.38-22.59,71.766z M-80.466,105.4
						c15.865,9.16,41.596,9.16,57.358,0s15.679-24.064-0.187-33.224c-15.865-9.16-41.596-9.16-57.358,0
						C-96.416,81.336-96.332,96.24-80.466,105.4"/>
				</defs>
				<clipPath id="XMLID_29_">
					<use xlink:href="#XMLID_14_" />
				</clipPath>
				<path clip-path="url(#XMLID_29_)" fill="none" stroke="#000000" stroke-width="0.25" d="M-22.59,71.766
					c16.256,9.385,16.342,24.657,0.191,34.043s-42.516,9.386-58.772,0c-16.257-9.386-16.343-24.657-0.192-34.043
					S-38.847,62.38-22.59,71.766z M-80.466,105.4c15.865,9.16,41.596,9.16,57.358,0s15.679-24.064-0.187-33.224
					c-15.865-9.16-41.596-9.16-57.358,0C-96.416,81.336-96.332,96.24-80.466,105.4"/>
			</g>
			<g enable-background="new    ">
				<defs>
					<path id="XMLID_16_" enable-background="new    " d="M-10.342,88.906c-0.038,13.586-0.077,27.172-0.116,40.758
						c-0.017,6.125-4.034,12.24-12.057,16.902c-16.15,9.386-42.516,9.386-58.772,0c-8.181-4.723-12.266-10.937-12.249-17.141
						l0.115-40.758c-0.018,6.204,4.068,12.418,12.249,17.141c16.256,9.386,42.621,9.386,58.772,0
						C-14.375,101.146-10.359,95.031-10.342,88.906z"/>
				</defs>
				<clipPath id="XMLID_30_">
					<use xlink:href="#XMLID_16_" />
				</clipPath>
				<g clip-path="url(#XMLID_30_)" enable-background="new    ">
					<g>
						<path fill="none" stroke="#000000" stroke-width="0.25" d="M-22.59,71.766l-0.116,40.758
							c16.256,9.386,16.342,24.657,0.191,34.043l0.116-40.758C-6.248,96.423-6.334,81.151-22.59,71.766z"/>
						<line fill="none" stroke="#000000" stroke-width="0.25" x1="-11.658" y1="94.897" x2="-11.773" y2="135.655"/>
					</g>
					<g>
						<path fill="none" stroke="#000000" stroke-width="0.25" d="M-22.399,105.809l-0.116,40.758
							c-16.15,9.386-42.516,9.386-58.772,0l0.116-40.758C-64.915,115.195-38.55,115.195-22.399,105.809z"/>
						<line fill="none" stroke="#000000" stroke-width="0.25" x1="-41.202" y1="112.066" x2="-41.317" y2="152.824"/>
						<line fill="none" stroke="#000000" stroke-width="0.25" x1="-62.298" y1="112.067" x2="-62.414" y2="152.824"/>
					</g>
					<g>
						<path fill="none" stroke="#000000" stroke-width="0.25" d="M-81.171,105.809l-0.116,40.758
							c-16.256-9.386-16.342-24.657-0.192-34.043l0.116-40.758C-97.514,81.152-97.428,96.423-81.171,105.809z"/>
						<line fill="none" stroke="#000000" stroke-width="0.25" x1="-92.035" y1="94.898" x2="-92.15" y2="135.656"/>
					</g>
				</g>
				<path clip-path="url(#XMLID_30_)" fill="none" stroke="#000000" stroke-width="0.25" d="M-10.342,88.906
					c-0.038,13.586-0.077,27.172-0.116,40.758c-0.017,6.125-4.034,12.24-12.057,16.902c-16.15,9.386-42.516,9.386-58.772,0
					c-8.181-4.723-12.266-10.937-12.249-17.141l0.115-40.758c-0.018,6.204,4.068,12.418,12.249,17.141
					c16.256,9.386,42.621,9.386,58.772,0C-14.375,101.146-10.359,95.031-10.342,88.906z"/>
				<g clip-path="url(#XMLID_30_)">
					<g>
						<g>
							<path fill="none" stroke="#000000" stroke-width="0.25" d="M-66.307,119.327c-2.918-0.627-5.739-1.45-8.402-2.468
								l-0.003,1.078c2.091,0.799,4.28,1.479,6.538,2.037c-2.246,1.815-3.771,3.042-6.715,5.294l-0.003,0.972
								c2.758,1.065,5.687,1.918,8.719,2.562l0.003-1.078c-2.405-0.51-4.745-1.153-6.986-1.928c2.304-1.801,4.025-3.156,6.847-5.497
								L-66.307,119.327"/>
							<path fill="none" stroke="#000000" stroke-width="0.25" d="M-55.186,120.755c-0.513-0.024-1.026-0.054-1.538-0.089
								l-0.022,7.897c-1.501-2.423-2.918-4.711-5.106-8.44c-0.695-0.1-1.387-0.21-2.074-0.331c-0.009,3.147-0.018,6.294-0.027,9.441
								c0.493,0.086,0.988,0.168,1.485,0.244l0.022-7.896c1.705,2.902,2.863,4.865,5.107,8.484c0.707,0.055,1.416,0.099,2.125,0.132
								L-55.186,120.755"/>
							<path fill="none" stroke="#000000" stroke-width="0.25" d="M-51.563,126.984c1.688-2.147,2.142-2.724,4-5.163l-0.015,5.041
								C-48.902,126.939-50.232,126.98-51.563,126.984 M-45.99,120.604c-0.658,0.053-1.317,0.097-1.979,0.132
								c-1.632,2.072-2.711,3.44-4.884,6.075l-0.003,1.234c1.761,0.026,3.523-0.012,5.276-0.115l-0.006,2.224
								c0.524-0.031,1.048-0.067,1.57-0.109l0.006-2.224c0.554-0.045,1.107-0.096,1.658-0.154l0.003-1.069
								c-0.551,0.058-1.104,0.109-1.658,0.154L-45.99,120.604"/>
							<path fill="none" stroke="#000000" stroke-width="0.25" d="M-37.477,119.376c-0.504,0.106-1.011,0.208-1.52,0.302
								l-2.709,0.903l-0.003,1.156l2.721-0.896l-0.02,7.197c-0.83,0.155-1.666,0.294-2.508,0.418l-0.003,1.078
								c2.197-0.323,4.356-0.751,6.454-1.285l0.003-1.078c-0.804,0.205-1.617,0.394-2.438,0.567L-37.477,119.376"/>
							<path fill="none" stroke="#000000" stroke-width="0.25" d="M-31.814,124.031c1.543-2.682,1.91-3.319,3.527-6.295
								l-0.014,5.041C-29.442,123.232-30.615,123.65-31.814,124.031 M-26.946,116.072c-0.555,0.241-1.118,0.472-1.689,0.694
								c-1.377,2.454-2.373,4.226-4.334,7.453l-0.004,1.234c1.603-0.472,3.164-1.008,4.67-1.608l-0.006,2.224
								c0.451-0.18,0.896-0.365,1.337-0.556l0.006-2.224c0.467-0.203,0.929-0.412,1.384-0.627l0.003-1.069
								c-0.456,0.216-0.917,0.425-1.385,0.627L-26.946,116.072"/>
						</g>
					</g>
				</g>
			</g>
			<g enable-background="new    ">
				<defs>
					<path id="XMLID_18_" enable-background="new    " d="M-10.458,129.665c0.018-6.204-4.068-12.417-12.249-17.141l0.116-40.758
						c8.18,4.723,12.266,10.937,12.249,17.14C-10.38,102.493-10.419,116.078-10.458,129.665z"/>
				</defs>
				<clipPath id="XMLID_31_">
					<use xlink:href="#XMLID_18_" />
				</clipPath>
				<g clip-path="url(#XMLID_31_)" enable-background="new    ">
					<g>
						<path fill="none" stroke="#000000" stroke-width="0.25" d="M-22.59,71.766l-0.116,40.758
							c16.256,9.386,16.342,24.657,0.191,34.043l0.116-40.758C-6.248,96.423-6.334,81.151-22.59,71.766z"/>
						<line fill="none" stroke="#000000" stroke-width="0.25" x1="-11.727" y1="82.678" x2="-11.842" y2="123.436"/>
					</g>
				</g>
				<path clip-path="url(#XMLID_31_)" fill="none" stroke="#000000" stroke-width="0.25" d="M-10.458,129.665
					c0.018-6.204-4.068-12.417-12.249-17.141l0.116-40.758c8.18,4.723,12.266,10.937,12.249,17.14
					C-10.38,102.493-10.419,116.078-10.458,129.665z"/>
			</g>
			<g enable-background="new    ">
				<defs>
					<path id="XMLID_20_" enable-background="new    " d="M-93.42,88.669c0.018-6.125,4.034-12.24,12.057-16.902
						c16.151-9.386,42.516-9.386,58.772,0l-0.116,40.758c-16.256-9.386-42.622-9.385-58.772,0
						c-8.023,4.663-12.04,10.778-12.057,16.902C-93.5,117.199-93.455,100.896-93.42,88.669z"/>
				</defs>
				<clipPath id="XMLID_32_">
					<use xlink:href="#XMLID_20_" />
				</clipPath>
				<g clip-path="url(#XMLID_32_)" enable-background="new    ">
					<g>
						<path fill="none" stroke="#000000" stroke-width="0.25" d="M-81.171,105.809l-0.116,40.758
							c-16.256-9.386-16.342-24.657-0.192-34.043l0.116-40.758C-97.514,81.152-97.428,96.423-81.171,105.809z"/>
						<line fill="none" stroke="#000000" stroke-width="0.25" x1="-92.104" y1="82.678" x2="-92.219" y2="123.436"/>
					</g>
					<g>
						<path fill="none" stroke="#000000" stroke-width="0.25" d="M-81.363,71.766l-0.116,40.758c16.151-9.386,42.516-9.386,58.772,0
							l0.116-40.758C-38.847,62.38-65.212,62.38-81.363,71.766z"/>
						<line fill="none" stroke="#000000" stroke-width="0.25" x1="-62.56" y1="65.509" x2="-62.675" y2="106.267"/>
						<line fill="none" stroke="#000000" stroke-width="0.25" x1="-41.464" y1="65.509" x2="-41.579" y2="106.267"/>
					</g>
				</g>
				<path clip-path="url(#XMLID_32_)" fill="none" stroke="#000000" stroke-width="0.25" d="M-93.42,88.669
					c0.018-6.125,4.034-12.24,12.057-16.902c16.151-9.386,42.516-9.386,58.772,0l-0.116,40.758c-16.256-9.386-42.622-9.385-58.772,0
					c-8.023,4.663-12.04,10.778-12.057,16.902C-93.5,117.199-93.455,100.896-93.42,88.669z"/>
			</g>
			<g enable-background="new    ">
				<defs>
					<path id="XMLID_22_" enable-background="new    " d="M-11.341,88.904l-0.116,40.758c0.018-6.055-3.97-12.119-11.954-16.728
						c-15.866-9.16-41.596-9.16-57.358,0c-7.83,4.55-11.75,10.519-11.767,16.496l0.116-40.758
						c0.017-5.977,3.937-11.945,11.767-16.496c15.762-9.16,41.493-9.16,57.358,0C-15.312,76.785-11.324,82.849-11.341,88.904z"/>
				</defs>
				<clipPath id="XMLID_33_">
					<use xlink:href="#XMLID_22_" />
				</clipPath>
				<g clip-path="url(#XMLID_33_)" enable-background="new    ">
					<g>
						<path fill="none" stroke="#000000" stroke-width="0.25" d="M-23.108,105.4l-0.115,40.758
							c15.762-9.16,15.678-24.064-0.187-33.224l0.115-40.758C-7.43,81.336-7.346,96.239-23.108,105.4z"/>
						<line fill="none" stroke="#000000" stroke-width="0.25" x1="-12.693" y1="82.825" x2="-12.809" y2="123.583"/>
					</g>
					<g>
						<path fill="none" stroke="#000000" stroke-width="0.25" d="M-23.295,72.175l-0.115,40.758c-15.866-9.16-41.596-9.16-57.358,0
							l0.116-40.758C-64.891,63.016-39.161,63.016-23.295,72.175z"/>
						<line fill="none" stroke="#000000" stroke-width="0.25" x1="-41.714" y1="66.069" x2="-41.83" y2="106.827"/>
						<line fill="none" stroke="#000000" stroke-width="0.25" x1="-62.303" y1="66.069" x2="-62.418" y2="106.827"/>
					</g>
					<g>
						<path fill="none" stroke="#000000" stroke-width="0.25" d="M-80.653,72.176l-0.116,40.758
							c-15.762,9.16-15.678,24.064,0.187,33.224l0.116-40.758C-96.332,96.24-96.416,81.336-80.653,72.176z"/>
						<line fill="none" stroke="#000000" stroke-width="0.25" x1="-91.136" y1="82.825" x2="-91.251" y2="123.583"/>
					</g>
				</g>
				<path clip-path="url(#XMLID_33_)" fill="none" stroke="#000000" stroke-width="0.25" d="M-11.341,88.904l-0.116,40.758
					c0.018-6.055-3.97-12.119-11.954-16.728c-15.866-9.16-41.596-9.16-57.358,0c-7.83,4.55-11.75,10.519-11.767,16.496l0.116-40.758
					c0.017-5.977,3.937-11.945,11.767-16.496c15.762-9.16,41.493-9.16,57.358,0C-15.312,76.785-11.324,82.849-11.341,88.904z"/>
			</g>
			<g enable-background="new    ">
				<defs>
					<path id="XMLID_24_" enable-background="new    " d="M-11.457,129.662c-0.017,5.977-3.937,11.945-11.767,16.496
						c-15.762,9.161-41.493,9.161-57.358,0l0.116-40.758c15.865,9.16,41.596,9.16,57.358,0c7.831-4.55,11.75-10.519,11.767-16.496
						C-11.376,101.131-11.422,117.434-11.457,129.662z"/>
				</defs>
				<clipPath id="XMLID_34_">
					<use xlink:href="#XMLID_24_" />
				</clipPath>
				<g clip-path="url(#XMLID_34_)" enable-background="new    ">
					<g>
						<path fill="none" stroke="#000000" stroke-width="0.25" d="M-80.466,105.4l-0.116,40.758c15.866,9.161,41.596,9.161,57.358,0
							l0.115-40.758C-38.871,114.56-64.601,114.56-80.466,105.4z"/>
						<line fill="none" stroke="#000000" stroke-width="0.25" x1="-62.047" y1="111.506" x2="-62.163" y2="152.264"/>
						<line fill="none" stroke="#000000" stroke-width="0.25" x1="-41.458" y1="111.506" x2="-41.574" y2="152.264"/>
					</g>
					<g>
						<path fill="none" stroke="#000000" stroke-width="0.25" d="M-23.108,105.4l-0.115,40.758
							c15.762-9.16,15.678-24.064-0.187-33.224l0.115-40.758C-7.43,81.336-7.346,96.239-23.108,105.4z"/>
						<line fill="none" stroke="#000000" stroke-width="0.25" x1="-12.625" y1="94.75" x2="-12.741" y2="135.508"/>
					</g>
				</g>
				<path clip-path="url(#XMLID_34_)" fill="none" stroke="#000000" stroke-width="0.25" d="M-11.457,129.662
					c-0.017,5.977-3.937,11.945-11.767,16.496c-15.762,9.161-41.493,9.161-57.358,0l0.116-40.758c15.865,9.16,41.596,9.16,57.358,0
					c7.831-4.55,11.75-10.519,11.767-16.496C-11.376,101.131-11.422,117.434-11.457,129.662z"/>
			</g>
			<g enable-background="new    ">
				<defs>
					<path id="XMLID_26_" enable-background="new    " d="M-92.42,88.672c-0.017,6.055,3.97,12.119,11.954,16.729l-0.116,40.758
						c-7.983-4.609-11.971-10.673-11.954-16.728C-92.501,117.202-92.455,100.899-92.42,88.672z"/>
				</defs>
				<clipPath id="XMLID_35_">
					<use xlink:href="#XMLID_26_" />
				</clipPath>
				<g clip-path="url(#XMLID_35_)" enable-background="new    ">
					<g>
						<path fill="none" stroke="#000000" stroke-width="0.25" d="M-80.653,72.176l-0.116,40.758
							c-15.762,9.16-15.678,24.064,0.187,33.224l0.116-40.758C-96.332,96.24-96.416,81.336-80.653,72.176z"/>
						<line fill="none" stroke="#000000" stroke-width="0.25" x1="-91.069" y1="94.751" x2="-91.185" y2="135.509"/>
					</g>
				</g>
				<path clip-path="url(#XMLID_35_)" fill="none" stroke="#000000" stroke-width="0.25" d="M-92.42,88.672
					c-0.017,6.055,3.97,12.119,11.954,16.729l-0.116,40.758c-7.983-4.609-11.971-10.673-11.954-16.728
					C-92.501,117.202-92.455,100.899-92.42,88.672z"/>
			</g>
		</g>
	</g>
</g>
</svg>
