<?xml version="1.0" encoding="UTF-8" standalone="no"?>
<!-- Created with Inkscape (http://www.inkscape.org/) -->
<svg
   xmlns:dc="http://purl.org/dc/elements/1.1/"
   xmlns:cc="http://web.resource.org/cc/"
   xmlns:rdf="http://www.w3.org/1999/02/22-rdf-syntax-ns#"
   xmlns:svg="http://www.w3.org/2000/svg"
   xmlns="http://www.w3.org/2000/svg"
   xmlns:sodipodi="http://sodipodi.sourceforge.net/DTD/sodipodi-0.dtd"
   xmlns:inkscape="http://www.inkscape.org/namespaces/inkscape"
   width="250"
   height="180"
   id="svg2457"
   sodipodi:version="0.32"
   inkscape:version="0.45.1"
   version="1.0"
   sodipodi:docbase="C:\Documents and Settings\JJB\My Documents"
   sodipodi:docname="TO-263 Back Top.svg"
   inkscape:output_extension="org.inkscape.output.svg.inkscape">
  <defs
     id="defs2459" />
  <sodipodi:namedview
     id="base"
     pagecolor="#ffffff"
     bordercolor="#666666"
     borderopacity="1.0"
     gridtolerance="10000"
     guidetolerance="10"
     objecttolerance="10"
     inkscape:pageopacity="0.0"
     inkscape:pageshadow="2"
     inkscape:zoom="1.4"
     inkscape:cx="203.37069"
     inkscape:cy="-16.538097"
     inkscape:document-units="px"
     inkscape:current-layer="g8871"
     width="250px"
     height="180px"
     inkscape:window-width="1605"
     inkscape:window-height="1024"
     inkscape:window-x="1511"
     inkscape:window-y="-4" />
  <metadata
     id="metadata2462">
    <rdf:RDF>
      <cc:Work
         rdf:about="">
        <dc:format>image/svg+xml</dc:format>
        <dc:type
           rdf:resource="http://purl.org/dc/dcmitype/StillImage" />
      </cc:Work>
    </rdf:RDF>
  </metadata>
  <g
     inkscape:label="Layer 1"
     inkscape:groupmode="layer"
     id="layer1">
    <g
       id="XMLID_2_"
       transform="translate(9.457206,4.82)">
	
	
<g
   id="XMLID_3_"
   transform="translate(0.342794,-4.28)">
	<g
   id="g8871">
		<polygon
   id="polygon8873"
   points="229.56,88.68 229.68,103.92 222.66,107.91 222.66,107.88 222.42,92.76 222.42,92.73 229.56,88.68 "
   style="fill:#efeeef;fill-opacity:1" />

		<polygon
   id="polygon8875"
   points="222.42,92.73 220.52,77.771 220.9,77.99 229.56,88.68 222.42,92.73 "
   style="fill:#efeeef;fill-opacity:1" />

		<polygon
   id="polygon8877"
   points="220.52,77.771 222.42,92.73 222.42,92.76 222.66,107.88 133.08,159.66 130.02,131.94 129.96,126.18 129.96,126.121 131.52,107.581 131.52,107.55 217.98,57.72 220.52,77.771 "
   style="fill:#424242;fill-opacity:1" />

		<path
   id="path8879"
   d="M 63.91,52.97 C 66.69,56.61 77.1,56.03 77.46,51.24 C 76.96,45.82 63.74,45.82 63.24,51.24 C 63.29,51.89 63.53,52.47 63.91,52.97 z M 131.52,107.55 L 131.49,107.56 L 32.88,50.64 L 32.86,50.61 L 119.28,0.72 L 217.98,57.72 L 131.52,107.55 z "
   style="fill:#424242;fill-opacity:1" />

		<path
   id="path8881"
   d="M 130.02,131.94 L 133.08,159.66 L 93.36,136.68 L 93.34,136.67 L 93.59,135.72 L 93.6,135.72 C 94.42,133.09 95.89,130.59 98.34,129.18 L 111.72,121.38 L 111.72,121.44 L 130.02,132 L 130.02,131.94 z "
   style="fill:#424242;fill-opacity:1" />

		<polygon
   id="polygon8883"
   points="61.44,86.581 61.39,86.61 49,79.45 30.78,68.94 32.88,50.64 131.49,107.561 131.52,107.581 129.96,126.121 129.96,126.18 111.72,115.65 111.72,115.621 111.69,115.64 99.3,108.48 86.58,101.14 86.58,101.101 86.54,101.121 74.15,93.97 61.44,86.63 61.44,86.581 "
   style="fill:#424242;fill-opacity:1" />

		<polygon
   id="polygon8885"
   points="130.02,131.94 130.02,132 111.72,121.44 111.72,121.38 111.72,115.65 129.96,126.18 130.02,131.94 "
   style="fill:#424242;fill-opacity:1" />

		<path
   id="path8887"
   d="M 93.59,135.72 L 93.34,136.67 L 91.92,142.14 L 91.76,142.16 L 87.18,142.85 L 87.2,142.8 L 88.92,136.44 C 90.27,131.39 93.79,126.05 98.34,123.36 L 98.33,123.33 L 111.69,115.64 L 111.72,115.65 L 111.72,121.38 L 98.34,129.18 C 95.89,130.59 94.42,133.09 93.6,135.72 L 93.59,135.72 z "
   style="fill:#efeeef;fill-opacity:1" />

		<path
   id="path8889"
   d="M 98.33,123.331 L 98.34,123.361 C 93.79,126.051 90.27,131.391 88.92,136.441 L 87.2,142.801 L 87.18,142.801 L 83.37,144.891 L 83.33,144.891 L 80.52,155.461 C 79.75,158.321 78.33,160.341 75.87,161.981 L 75.84,161.941 L 74.93,162.471 L 74.1,161.041 L 70.74,159.061 L 69.12,158.161 C 71.56,156.511 73.02,154.461 73.8,151.621 L 76.68,141 L 74.76,135.72 L 76.5,129.24 C 76.68,128.6 76.88,127.96 77.12,127.33 C 78.79,122.82 81.79,118.71 85.92,116.22 L 85.91,116.19 L 94.31,111.35 L 99.3,108.48 L 111.69,115.64 L 98.33,123.331 z "
   style="fill:#efeeef;fill-opacity:1" />

		<polygon
   id="polygon8891"
   points="99.3,108.48 94.31,111.351 86.58,106.92 86.58,106.86 86.58,101.14 99.3,108.48 "
   style="fill:#424242;fill-opacity:1" />

		<path
   id="path8893"
   d="M 85.91,116.19 L 85.92,116.22 C 81.79,118.71 78.79,122.82 77.12,127.33 L 77.1,127.32 L 68.22,122.16 L 68.2,122.15 L 68.45,121.2 L 68.46,121.2 C 69.13,118.69 70.9,115.95 73.2,114.66 L 86.58,106.86 L 86.58,106.92 L 94.31,111.35 L 85.91,116.19 z "
   style="fill:#424242;fill-opacity:1" />

		<path
   id="path8895"
   d="M 75.87,161.98 C 78.33,160.34 79.75,158.32 80.52,155.46 L 83.33,144.89 L 83.37,144.89 L 88.06,144.12 L 85.26,154.74 C 83.89,159.78 80.39,165.12 75.84,167.82 L 57.78,178.17 L 57.78,172.44 L 74.93,162.47 L 75.84,161.94 L 75.87,161.98 z "
   style="fill:#efeeef;fill-opacity:1" />

		<path
   id="path8897"
   d="M 66.62,127.64 L 62.04,128.33 L 62.06,128.28 L 63.78,121.92 C 65.13,116.89 68.61,111.48 73.2,108.84 L 73.19,108.81 L 86.54,101.12 L 86.58,101.14 L 86.58,106.86 L 73.2,114.66 C 70.9,115.95 69.13,118.69 68.46,121.2 L 68.45,121.2 L 68.2,122.15 L 66.78,127.62 L 66.62,127.64 z "
   style="fill:#efeeef;fill-opacity:1" />

		<path
   id="path8899"
   d="M 58.19,130.371 L 55.38,140.941 C 54.79,143.461 52.93,146.091 50.73,147.461 L 50.7,147.421 L 49.82,147.931 L 48.96,146.461 L 45.6,144.541 L 43.98,143.641 C 46.02,142.371 48.15,139.461 48.66,137.101 L 51.48,126.481 L 49.62,121.141 L 51.36,114.721 C 51.54,114.081 51.74,113.441 51.98,112.811 C 53.62,108.301 56.61,104.241 60.72,101.701 L 60.71,101.671 L 69.12,96.851 L 74.15,93.971 L 86.54,101.121 L 73.19,108.811 L 73.2,108.841 C 68.61,111.481 65.13,116.891 63.78,121.921 L 62.06,128.281 L 62.04,128.281 L 58.23,130.371 L 58.19,130.371 L 58.19,130.371 z "
   style="fill:#efeeef;fill-opacity:1" />

		<polygon
   id="polygon8901"
   points="57.78,172.44 51.07,168.521 51.05,168.51 69.12,158.16 70.74,159.061 74.1,161.041 74.93,162.47 57.78,172.44 "
   style="fill:#efeeef;fill-opacity:1" />

		<polygon
   id="polygon8903"
   points="74.15,93.97 69.12,96.851 69.12,96.84 61.44,92.4 61.44,92.34 61.44,86.63 74.15,93.97 "
   style="fill:#424242;fill-opacity:1" />

		<path
   id="path8905"
   d="M 63.91,52.97 C 63.53,52.47 63.29,51.89 63.24,51.24 C 63.74,45.82 76.96,45.82 77.46,51.24 C 77.1,56.03 66.69,56.61 63.91,52.97 z "
   style="fill:#424242;fill-opacity:1" />

		<path
   id="path8907"
   d="M 43.33,106.621 C 43.94,104.101 45.81,101.501 48,100.141 L 61.44,92.341 L 61.44,92.401 L 69.12,96.841 L 69.12,96.851 L 60.71,101.671 L 60.72,101.701 C 56.61,104.241 53.62,108.301 51.98,112.811 L 51.96,112.801 L 43.04,107.651 L 43.32,106.621 L 43.33,106.621 L 43.33,106.621 z "
   style="fill:#424242;fill-opacity:1" />

		<path
   id="path8909"
   d="M 50.73,147.46 C 52.93,146.09 54.79,143.46 55.38,140.94 L 58.19,130.37 L 58.23,130.37 L 62.92,129.6 L 60.12,140.22 C 58.52,145.43 55.43,150.4 50.7,153.3 L 32.64,163.65 L 32.64,157.92 L 49.82,147.93 L 50.7,147.42 L 50.73,147.46 z "
   style="fill:#efeeef;fill-opacity:1" />

		<path
   id="path8911"
   d="M 43.04,107.65 L 41.58,113.1 L 41.42,113.12 L 36.9,113.81 L 36.91,113.76 L 38.58,107.4 C 40.13,102.12 43.26,97.26 48,94.32 L 47.99,94.29 L 61.39,86.61 L 61.44,86.63 L 61.44,92.34 L 48,100.14 C 45.81,101.5 43.94,104.1 43.33,106.62 L 43.32,106.62 L 43.04,107.65 z "
   style="fill:#efeeef;fill-opacity:1" />

		<path
   id="path8913"
   d="M 33.05,115.851 L 30.24,126.421 C 29.58,128.911 27.82,131.651 25.53,132.941 L 25.5,132.901 L 24.66,133.391 L 23.82,131.941 L 20.4,130.021 L 18.78,129.061 C 20.94,128.021 22.92,124.841 23.52,122.581 L 26.34,111.961 L 24.48,106.621 L 26.16,100.201 C 27.15,96.551 29.19,92.881 31.95,90.091 C 33.05,88.951 34.27,87.971 35.58,87.181 L 35.57,87.151 L 43.98,82.331 L 49,79.45 L 61.39,86.61 L 47.99,94.29 L 48,94.32 C 43.26,97.26 40.13,102.12 38.58,107.4 L 36.91,113.76 L 36.9,113.76 L 33.09,115.85 L 33.05,115.85 L 33.05,115.851 z "
   style="fill:#efeeef;fill-opacity:1" />

		<polygon
   id="polygon8915"
   points="57.78,172.44 57.78,178.17 57.75,178.18 51.06,174.331 51.06,168.541 51.07,168.521 57.78,172.44 "
   style="fill:#efeeef;fill-opacity:1" />

		<polygon
   id="polygon8917"
   points="32.64,157.92 25.93,154 25.91,153.99 43.98,143.64 45.6,144.541 48.96,146.46 49.82,147.93 32.64,157.92 "
   style="fill:#efeeef;fill-opacity:1" />

		<polygon
   id="polygon8919"
   points="49,79.45 43.98,82.331 43.98,82.32 30.72,74.64 30.78,68.94 49,79.45 "
   style="fill:#424242;fill-opacity:1" />

		<path
   id="path8921"
   d="M 35.57,87.15 L 35.58,87.18 C 34.27,87.97 33.05,88.95 31.95,90.09 L 31.92,90.06 L 30.72,74.64 L 43.98,82.32 L 43.98,82.33 L 35.57,87.15 z "
   style="fill:#424242;fill-opacity:1" />

		<polygon
   id="polygon8923"
   points="36.9,113.811 41.42,113.121 37.74,115.081 37.73,115.081 37.72,115.081 33.09,115.851 36.9,113.76 36.91,113.76 36.9,113.811 "
   style="fill:#efeeef;fill-opacity:1" />

		<path
   id="path8925"
   d="M 25.53,132.94 C 27.82,131.65 29.58,128.91 30.24,126.42 L 33.05,115.85 L 33.09,115.85 L 37.72,115.08 L 34.92,125.7 C 33.58,130.75 30.07,136.11 25.5,138.78 L 7.5,149.13 L 7.5,143.4 L 24.66,133.39 L 25.5,132.9 L 25.53,132.94 z "
   style="fill:#efeeef;fill-opacity:1" />

		<polygon
   id="polygon8927"
   points="32.64,157.92 32.64,163.65 32.61,163.66 25.92,159.76 25.92,154.021 25.93,154 32.64,157.92 "
   style="fill:#efeeef;fill-opacity:1" />

		<polygon
   id="polygon8929"
   points="7.5,143.4 0.79,139.48 0.77,139.47 18.78,129.061 20.4,130.021 23.82,131.94 24.66,133.39 7.5,143.4 "
   style="fill:#efeeef;fill-opacity:1" />

		<polygon
   id="polygon8931"
   points="7.5,143.4 7.5,149.13 7.47,149.14 0.78,145.24 0.78,139.5 0.79,139.48 7.5,143.4 "
   style="fill:#efeeef;fill-opacity:1" />

	</g>

	<g
   id="g8933"
   style="fill:none;fill-opacity:1">
		
			<line
   id="line8935"
   y2="93.900002"
   x2="74.099998"
   y1="101.101"
   x1="86.580002"
   stroke-miterlimit="10"
   style="fill:none;stroke:#000000;stroke-width:1.44000006;stroke-linecap:round;stroke-linejoin:round;stroke-miterlimit:10;fill-opacity:1" />

		
			<polyline
   id="polyline8937"
   points="    62.92,129.601 58.23,130.371 58.19,130.371 58.14,130.38   "
   stroke-miterlimit="10"
   style="fill:none;stroke:#000000;stroke-width:1.44000006;stroke-linecap:round;stroke-linejoin:round;stroke-miterlimit:10;fill-opacity:1" />

		
			<line
   id="line8939"
   y2="129.601"
   x2="62.93"
   y1="129.601"
   x1="62.939999"
   stroke-miterlimit="10"
   style="fill:none;stroke:#000000;stroke-width:1.44000006;stroke-linecap:round;stroke-linejoin:round;stroke-miterlimit:10;fill-opacity:1" />

		
			<line
   id="line8941"
   y2="121.14"
   x2="49.619999"
   y1="114.72"
   x1="51.360001"
   stroke-miterlimit="10"
   style="fill:none;stroke:#000000;stroke-width:1.44000006;stroke-linecap:round;stroke-linejoin:round;stroke-miterlimit:10;fill-opacity:1" />

		
			<polyline
   id="polyline8943"
   points="    60.12,140.22 62.92,129.601 62.93,129.601 62.94,129.541   "
   stroke-miterlimit="10"
   style="fill:none;stroke:#000000;stroke-width:1.44000006;stroke-linecap:round;stroke-linejoin:round;stroke-miterlimit:10;fill-opacity:1" />

		
			<polyline
   id="polyline8945"
   points="    62.94,129.601 66.62,127.64 66.78,127.561   "
   stroke-miterlimit="10"
   style="fill:none;stroke:#000000;stroke-width:1.44000006;stroke-linecap:round;stroke-linejoin:round;stroke-miterlimit:10;fill-opacity:1" />

		
			<polyline
   id="polyline8947"
   points="    66.78,127.621 68.2,122.15 68.45,121.2 68.46,121.14   "
   stroke-miterlimit="10"
   style="fill:none;stroke:#000000;stroke-width:1.44000006;stroke-linecap:round;stroke-linejoin:round;stroke-miterlimit:10;fill-opacity:1" />

		
			<path
   id="path8949"
   d="M 60.72,101.7 C 56.61,104.24 53.62,108.3 51.98,112.81 C 51.74,113.44 51.54,114.08 51.36,114.72"
   stroke-miterlimit="10"
   style="fill:none;stroke:#000000;stroke-width:1.44000006;stroke-linecap:round;stroke-linejoin:round;stroke-miterlimit:10;fill-opacity:1" />

		
			<polyline
   id="polyline8951"
   points="    74.16,93.96 74.15,93.97 69.12,96.851 60.71,101.67 60.66,101.7   "
   stroke-miterlimit="10"
   style="fill:none;stroke:#000000;stroke-width:1.44000006;stroke-linecap:round;stroke-linejoin:round;stroke-miterlimit:10;fill-opacity:1" />

		
			<path
   id="path8953"
   d="M 73.2,108.84 C 68.61,111.48 65.13,116.89 63.78,121.92"
   stroke-miterlimit="10"
   style="fill:none;stroke:#000000;stroke-width:1.44000006;stroke-linecap:round;stroke-linejoin:round;stroke-miterlimit:10;fill-opacity:1" />

		
			<polyline
   id="polyline8955"
   points="    86.58,101.101 86.54,101.121 73.19,108.811 73.14,108.84   "
   stroke-miterlimit="10"
   style="fill:none;stroke:#000000;stroke-width:1.44000006;stroke-linecap:round;stroke-linejoin:round;stroke-miterlimit:10;fill-opacity:1" />

		
			<polyline
   id="polyline8957"
   points="    86.58,106.92 86.58,106.86 86.58,101.14 86.58,101.101 86.58,101.041   "
   stroke-miterlimit="10"
   style="fill:none;stroke:#000000;stroke-width:1.44000006;stroke-linecap:round;stroke-linejoin:round;stroke-miterlimit:10;fill-opacity:1" />

		
			<polyline
   id="polyline8959"
   points="    66.78,127.621 66.62,127.64 62.04,128.331 61.98,128.34   "
   stroke-miterlimit="10"
   style="fill:none;stroke:#000000;stroke-width:1.44000006;stroke-linecap:round;stroke-linejoin:round;stroke-miterlimit:10;fill-opacity:1" />

		
			<line
   id="line8961"
   y2="106.86"
   x2="86.580002"
   y1="114.66"
   x1="73.199997"
   stroke-miterlimit="10"
   style="fill:none;stroke:#000000;stroke-width:1.44000006;stroke-linecap:round;stroke-linejoin:round;stroke-miterlimit:10;fill-opacity:1" />

		
			<path
   id="path8963"
   d="M 68.46,121.2 C 69.13,118.69 70.9,115.95 73.2,114.66"
   stroke-miterlimit="10"
   style="fill:none;stroke:#000000;stroke-width:1.44000006;stroke-linecap:round;stroke-linejoin:round;stroke-miterlimit:10;fill-opacity:1" />

		
			<path
   id="path8965"
   d="M 63.24,51.24 C 63.74,45.82 76.96,45.82 77.46,51.24 C 77.1,56.03 66.69,56.61 63.91,52.97 C 63.53,52.47 63.29,51.89 63.24,51.24"
   stroke-miterlimit="10"
   style="fill:none;stroke:#000000;stroke-width:1.44000006;stroke-linecap:round;stroke-linejoin:round;stroke-miterlimit:10;fill-opacity:1" />

		
			<path
   id="path8967"
   d="M 63.9,52.98 L 63.91,52.97 C 66.5,49.87 74.2,49.83 76.74,52.98"
   stroke-miterlimit="10"
   style="fill:none;stroke:#000000;stroke-width:1.44000006;stroke-linecap:round;stroke-linejoin:round;stroke-miterlimit:10;fill-opacity:1" />

		
			<polyline
   id="polyline8969"
   points="    217.98,57.72 220.52,77.771 222.42,92.73   "
   stroke-miterlimit="10"
   style="fill:none;stroke:#000000;stroke-width:1.44000006;stroke-linecap:round;stroke-linejoin:round;stroke-miterlimit:10;fill-opacity:1" />

		
			<polyline
   id="polyline8971"
   points="    222.42,92.76 222.42,92.73 222.42,92.7   "
   stroke-miterlimit="10"
   style="fill:none;stroke:#000000;stroke-width:1.44000006;stroke-linecap:round;stroke-linejoin:round;stroke-miterlimit:10;fill-opacity:1" />

		
			<line
   id="line8973"
   y2="131.94"
   x2="130.02"
   y1="159.66"
   x1="133.08"
   stroke-miterlimit="10"
   style="fill:none;stroke:#000000;stroke-width:1.44000006;stroke-linecap:round;stroke-linejoin:round;stroke-miterlimit:10;fill-opacity:1" />

		
			<polyline
   id="polyline8975"
   points="    217.98,57.72 131.52,107.55 131.49,107.561 131.46,107.581   "
   stroke-miterlimit="10"
   style="fill:none;stroke:#000000;stroke-width:1.44000006;stroke-linecap:round;stroke-linejoin:round;stroke-miterlimit:10;fill-opacity:1" />

		
			<line
   id="line8977"
   y2="107.88"
   x2="222.66"
   y1="159.66"
   x1="133.08"
   stroke-miterlimit="10"
   style="fill:none;stroke:#000000;stroke-width:1.44000006;stroke-linecap:round;stroke-linejoin:round;stroke-miterlimit:10;fill-opacity:1" />

		
			<line
   id="line8979"
   y2="159.66"
   x2="133.08"
   y1="136.67999"
   x1="93.360001"
   stroke-miterlimit="10"
   style="fill:none;stroke:#000000;stroke-width:1.44000006;stroke-linecap:round;stroke-linejoin:round;stroke-miterlimit:10;fill-opacity:1" />

		
			<line
   id="line8981"
   y2="127.32"
   x2="77.099998"
   y1="122.16"
   x1="68.220001"
   stroke-miterlimit="10"
   style="fill:none;stroke:#000000;stroke-width:1.44000006;stroke-linecap:round;stroke-linejoin:round;stroke-miterlimit:10;fill-opacity:1" />

		
			<polyline
   id="polyline8983"
   points="    43.02,107.64 43.04,107.65 51.96,112.8   "
   stroke-miterlimit="10"
   style="fill:none;stroke:#000000;stroke-width:1.44000006;stroke-linecap:round;stroke-linejoin:round;stroke-miterlimit:10;fill-opacity:1" />

		
			<polyline
   id="polyline8985"
   points="    130.02,132 130.02,131.94 129.96,126.18   "
   stroke-miterlimit="10"
   style="fill:none;stroke:#000000;stroke-width:1.44000006;stroke-linecap:round;stroke-linejoin:round;stroke-miterlimit:10;fill-opacity:1" />

		
			<polyline
   id="polyline8987"
   points="    129.96,126.18 129.96,126.121 131.52,107.581 131.52,107.55 131.52,107.521   "
   stroke-miterlimit="10"
   style="fill:none;stroke:#000000;stroke-width:1.44000006;stroke-linecap:round;stroke-linejoin:round;stroke-miterlimit:10;fill-opacity:1" />

		
			<line
   id="line8989"
   y2="57.720001"
   x2="217.98"
   y1="0.72000003"
   x1="119.28"
   stroke-miterlimit="10"
   style="fill:none;stroke:#000000;stroke-width:1.44000006;stroke-linecap:round;stroke-linejoin:round;stroke-miterlimit:10;fill-opacity:1" />

		
			<line
   id="line8991"
   y2="132"
   x2="130.02"
   y1="121.44"
   x1="111.72"
   stroke-miterlimit="10"
   style="fill:none;stroke:#000000;stroke-width:1.44000006;stroke-linecap:round;stroke-linejoin:round;stroke-miterlimit:10;fill-opacity:1" />

		
			<polyline
   id="polyline8993"
   points="    86.58,106.92 94.31,111.351 94.32,111.36   "
   stroke-miterlimit="10"
   style="fill:none;stroke:#000000;stroke-width:1.44000006;stroke-linecap:round;stroke-linejoin:round;stroke-miterlimit:10;fill-opacity:1" />

		
			<line
   id="line8995"
   y2="96.839996"
   x2="69.120003"
   y1="92.400002"
   x1="61.439999"
   stroke-miterlimit="10"
   style="fill:none;stroke:#000000;stroke-width:1.44000006;stroke-linecap:round;stroke-linejoin:round;stroke-miterlimit:10;fill-opacity:1" />

		
			<line
   id="line8997"
   y2="82.32"
   x2="43.98"
   y1="74.639999"
   x1="30.719999"
   stroke-miterlimit="10"
   style="fill:none;stroke:#000000;stroke-width:1.44000006;stroke-linecap:round;stroke-linejoin:round;stroke-miterlimit:10;fill-opacity:1" />

		
			<polyline
   id="polyline8999"
   points="    30.78,68.94 49,79.45 61.39,86.61 61.44,86.63 74.15,93.97 86.54,101.121 86.58,101.14 99.3,108.48 111.69,115.64 111.72,115.65     129.96,126.18   "
   stroke-miterlimit="10"
   style="fill:none;stroke:#000000;stroke-width:1.44000006;stroke-linecap:round;stroke-linejoin:round;stroke-miterlimit:10;fill-opacity:1" />

		
			<polyline
   id="polyline9001"
   points="    32.88,50.64 131.49,107.561 131.52,107.581   "
   stroke-miterlimit="10"
   style="fill:none;stroke:#000000;stroke-width:1.44000006;stroke-linecap:round;stroke-linejoin:round;stroke-miterlimit:10;fill-opacity:1" />

		
			<line
   id="line9003"
   y2="68.940002"
   x2="30.780001"
   y1="50.639999"
   x1="32.880001"
   stroke-miterlimit="10"
   style="fill:none;stroke:#000000;stroke-width:1.44000006;stroke-linecap:round;stroke-linejoin:round;stroke-miterlimit:10;fill-opacity:1" />

		
			<line
   id="line9005"
   y2="90.060997"
   x2="31.92"
   y1="74.639999"
   x1="30.719999"
   stroke-miterlimit="10"
   style="fill:none;stroke:#000000;stroke-width:1.44000006;stroke-linecap:round;stroke-linejoin:round;stroke-miterlimit:10;fill-opacity:1" />

		
			<polyline
   id="polyline9007"
   points="    119.28,0.72 32.86,50.61 32.82,50.64   "
   stroke-miterlimit="10"
   style="fill:none;stroke:#000000;stroke-width:1.44000006;stroke-linecap:round;stroke-linejoin:round;stroke-miterlimit:10;fill-opacity:1" />

		
			<line
   id="line9009"
   y2="74.639999"
   x2="30.719999"
   y1="68.940002"
   x1="30.780001"
   stroke-miterlimit="10"
   style="fill:none;stroke:#000000;stroke-width:1.44000006;stroke-linecap:round;stroke-linejoin:round;stroke-miterlimit:10;fill-opacity:1" />

		
			<polyline
   id="polyline9011"
   points="    229.56,88.68 220.9,77.99 220.86,77.94   "
   stroke-miterlimit="10"
   style="fill:none;stroke:#000000;stroke-width:1.44000006;stroke-linecap:round;stroke-linejoin:round;stroke-miterlimit:10;fill-opacity:1" />

		
			<polyline
   id="polyline9013"
   points="    220.5,77.76 220.52,77.771 220.9,77.99 220.92,78   "
   stroke-miterlimit="10"
   style="fill:none;stroke:#000000;stroke-width:1.44000006;stroke-linecap:round;stroke-linejoin:round;stroke-miterlimit:10;fill-opacity:1" />

		
			<polyline
   id="polyline9015"
   points="    229.56,88.68 222.42,92.73 222.36,92.76   "
   stroke-miterlimit="10"
   style="fill:none;stroke:#000000;stroke-width:1.44000006;stroke-linecap:round;stroke-linejoin:round;stroke-miterlimit:10;fill-opacity:1" />

		
			<polyline
   id="polyline9017"
   points="    222.42,92.76 222.66,107.88 222.66,107.91 222.66,107.94   "
   stroke-miterlimit="10"
   style="fill:none;stroke:#000000;stroke-width:1.44000006;stroke-linecap:round;stroke-linejoin:round;stroke-miterlimit:10;fill-opacity:1" />

		
			<polyline
   id="polyline9019"
   points="    229.68,103.92 222.66,107.91 222.6,107.94   "
   stroke-miterlimit="10"
   style="fill:none;stroke:#000000;stroke-width:1.44000006;stroke-linecap:round;stroke-linejoin:round;stroke-miterlimit:10;fill-opacity:1" />

		
			<polyline
   id="polyline9021"
   points="    229.68,103.92 229.56,88.68 229.56,88.621   "
   stroke-miterlimit="10"
   style="fill:none;stroke:#000000;stroke-width:1.44000006;stroke-linecap:round;stroke-linejoin:round;stroke-miterlimit:10;fill-opacity:1" />

		
			<line
   id="line9023"
   y2="116.46"
   x2="54.360001"
   y1="120.121"
   x1="60.599998"
   stroke-miterlimit="10"
   style="fill:none;stroke:#000000;stroke-width:0.72000003;stroke-linecap:round;stroke-linejoin:round;stroke-miterlimit:10;fill-opacity:1" />

		
			<line
   id="line9025"
   y2="103.44"
   x2="63.779999"
   y1="107.041"
   x1="70.019997"
   stroke-miterlimit="10"
   style="fill:none;stroke:#000000;stroke-width:0.72000003;stroke-linecap:round;stroke-linejoin:round;stroke-miterlimit:10;fill-opacity:1" />

		
			<polyline
   id="polyline9027"
   points="    32.64,157.92 25.93,154 25.91,153.99 25.86,153.96   "
   stroke-miterlimit="10"
   style="fill:none;stroke:#000000;stroke-width:1.44000006;stroke-linecap:round;stroke-linejoin:round;stroke-miterlimit:10;fill-opacity:1" />

		
			<path
   id="path9029"
   d="M 50.7,147.48 C 50.71,147.47 50.72,147.47 50.73,147.46 C 52.93,146.09 54.79,143.46 55.38,140.94"
   stroke-miterlimit="10"
   style="fill:none;stroke:#000000;stroke-width:1.44000006;stroke-linecap:round;stroke-linejoin:round;stroke-miterlimit:10;fill-opacity:1" />

		
			<path
   id="path9031"
   d="M 60.12,140.22 C 58.52,145.43 55.43,150.4 50.7,153.3"
   stroke-miterlimit="10"
   style="fill:none;stroke:#000000;stroke-width:1.44000006;stroke-linecap:round;stroke-linejoin:round;stroke-miterlimit:10;fill-opacity:1" />

		
			<polyline
   id="polyline9033"
   points="    32.64,163.68 32.64,163.65 32.64,157.92 32.64,157.86   "
   stroke-miterlimit="10"
   style="fill:none;stroke:#000000;stroke-width:1.44000006;stroke-linecap:round;stroke-linejoin:round;stroke-miterlimit:10;fill-opacity:1" />

		
			<polyline
   id="polyline9035"
   points="    32.64,157.92 49.82,147.93 50.7,147.42   "
   stroke-miterlimit="10"
   style="fill:none;stroke:#000000;stroke-width:1.44000006;stroke-linecap:round;stroke-linejoin:round;stroke-miterlimit:10;fill-opacity:1" />

		
			<polyline
   id="polyline9037"
   points="    50.7,153.3 32.64,163.65 32.61,163.66 32.58,163.68   "
   stroke-miterlimit="10"
   style="fill:none;stroke:#000000;stroke-width:1.44000006;stroke-linecap:round;stroke-linejoin:round;stroke-miterlimit:10;fill-opacity:1" />

		
			<polyline
   id="polyline9039"
   points="    32.64,163.68 32.61,163.66 25.92,159.76 25.86,159.72   "
   stroke-miterlimit="10"
   style="fill:none;stroke:#000000;stroke-width:1.44000006;stroke-linecap:round;stroke-linejoin:round;stroke-miterlimit:10;fill-opacity:1" />

		
			<line
   id="line9041"
   y2="137.101"
   x2="48.66"
   y1="126.48"
   x1="51.48"
   stroke-miterlimit="10"
   style="fill:none;stroke:#000000;stroke-width:1.44000006;stroke-linecap:round;stroke-linejoin:round;stroke-miterlimit:10;fill-opacity:1" />

		
			<line
   id="line9043"
   y2="126.48"
   x2="51.48"
   y1="121.14"
   x1="49.619999"
   stroke-miterlimit="10"
   style="fill:none;stroke:#000000;stroke-width:1.44000006;stroke-linecap:round;stroke-linejoin:round;stroke-miterlimit:10;fill-opacity:1" />

		
			<line
   id="line9045"
   y2="138"
   x2="50.279999"
   y1="139.98"
   x1="53.639999"
   stroke-miterlimit="10"
   style="fill:none;stroke:#000000;stroke-width:0.72000003;stroke-linecap:round;stroke-linejoin:round;stroke-miterlimit:10;fill-opacity:1" />

		
			<line
   id="line9047"
   y2="144.541"
   x2="45.599998"
   y1="146.46001"
   x1="48.959999"
   stroke-miterlimit="10"
   style="fill:none;stroke:#000000;stroke-width:0.72000003;stroke-linecap:round;stroke-linejoin:round;stroke-miterlimit:10;fill-opacity:1" />

		
			<line
   id="line9049"
   y2="79.379997"
   x2="48.959999"
   y1="86.581001"
   x1="61.439999"
   stroke-miterlimit="10"
   style="fill:none;stroke:#000000;stroke-width:1.44000006;stroke-linecap:round;stroke-linejoin:round;stroke-miterlimit:10;fill-opacity:1" />

		
			<polyline
   id="polyline9051"
   points="    37.72,115.081 33.09,115.851 33.05,115.851 33,115.86   "
   stroke-miterlimit="10"
   style="fill:none;stroke:#000000;stroke-width:1.44000006;stroke-linecap:round;stroke-linejoin:round;stroke-miterlimit:10;fill-opacity:1" />

		
			<line
   id="line9053"
   y2="115.081"
   x2="37.73"
   y1="115.081"
   x1="37.740002"
   stroke-miterlimit="10"
   style="fill:none;stroke:#000000;stroke-width:1.44000006;stroke-linecap:round;stroke-linejoin:round;stroke-miterlimit:10;fill-opacity:1" />

		
			<line
   id="line9055"
   y2="106.621"
   x2="24.48"
   y1="100.2"
   x1="26.16"
   stroke-miterlimit="10"
   style="fill:none;stroke:#000000;stroke-width:1.44000006;stroke-linecap:round;stroke-linejoin:round;stroke-miterlimit:10;fill-opacity:1" />

		
			<polyline
   id="polyline9057"
   points="    34.92,125.7 37.72,115.081 37.73,115.081 37.74,115.021   "
   stroke-miterlimit="10"
   style="fill:none;stroke:#000000;stroke-width:1.44000006;stroke-linecap:round;stroke-linejoin:round;stroke-miterlimit:10;fill-opacity:1" />

		
			<polyline
   id="polyline9059"
   points="    37.74,115.081 41.42,113.121 41.58,113.041   "
   stroke-miterlimit="10"
   style="fill:none;stroke:#000000;stroke-width:1.44000006;stroke-linecap:round;stroke-linejoin:round;stroke-miterlimit:10;fill-opacity:1" />

		
			<polyline
   id="polyline9061"
   points="    41.58,113.101 43.04,107.65 43.32,106.621   "
   stroke-miterlimit="10"
   style="fill:none;stroke:#000000;stroke-width:1.44000006;stroke-linecap:round;stroke-linejoin:round;stroke-miterlimit:10;fill-opacity:1" />

		
			<path
   id="path9063"
   d="M 35.58,87.18 C 34.27,87.97 33.05,88.95 31.95,90.09 C 29.19,92.88 27.15,96.55 26.16,100.2"
   stroke-miterlimit="10"
   style="fill:none;stroke:#000000;stroke-width:1.44000006;stroke-linecap:round;stroke-linejoin:round;stroke-miterlimit:10;fill-opacity:1" />

		
			<polyline
   id="polyline9065"
   points="    49.02,79.44 49,79.45 43.98,82.331 35.57,87.15 35.52,87.18   "
   stroke-miterlimit="10"
   style="fill:none;stroke:#000000;stroke-width:1.44000006;stroke-linecap:round;stroke-linejoin:round;stroke-miterlimit:10;fill-opacity:1" />

		
			<path
   id="path9067"
   d="M 48,94.32 C 43.26,97.26 40.13,102.12 38.58,107.4"
   stroke-miterlimit="10"
   style="fill:none;stroke:#000000;stroke-width:1.44000006;stroke-linecap:round;stroke-linejoin:round;stroke-miterlimit:10;fill-opacity:1" />

		
			<polyline
   id="polyline9069"
   points="    61.44,86.581 61.39,86.61 47.99,94.291 47.94,94.32   "
   stroke-miterlimit="10"
   style="fill:none;stroke:#000000;stroke-width:1.44000006;stroke-linecap:round;stroke-linejoin:round;stroke-miterlimit:10;fill-opacity:1" />

		
			<polyline
   id="polyline9071"
   points="    61.44,92.4 61.44,92.34 61.44,86.63 61.44,86.581 61.44,86.521   "
   stroke-miterlimit="10"
   style="fill:none;stroke:#000000;stroke-width:1.44000006;stroke-linecap:round;stroke-linejoin:round;stroke-miterlimit:10;fill-opacity:1" />

		
			<polyline
   id="polyline9073"
   points="    41.58,113.101 41.42,113.121 36.9,113.811 36.84,113.82   "
   stroke-miterlimit="10"
   style="fill:none;stroke:#000000;stroke-width:1.44000006;stroke-linecap:round;stroke-linejoin:round;stroke-miterlimit:10;fill-opacity:1" />

		
			<line
   id="line9075"
   y2="92.339996"
   x2="61.439999"
   y1="100.14"
   x1="48"
   stroke-miterlimit="10"
   style="fill:none;stroke:#000000;stroke-width:1.44000006;stroke-linecap:round;stroke-linejoin:round;stroke-miterlimit:10;fill-opacity:1" />

		
			<path
   id="path9077"
   d="M 43.32,106.68 C 43.32,106.66 43.33,106.64 43.33,106.62 C 43.94,104.1 45.81,101.5 48,100.14"
   stroke-miterlimit="10"
   style="fill:none;stroke:#000000;stroke-width:1.44000006;stroke-linecap:round;stroke-linejoin:round;stroke-miterlimit:10;fill-opacity:1" />

		
			<polyline
   id="polyline9079"
   points="    43.98,143.64 25.91,153.99 25.86,154.021   "
   stroke-miterlimit="10"
   style="fill:none;stroke:#000000;stroke-width:1.44000006;stroke-linecap:round;stroke-linejoin:round;stroke-miterlimit:10;fill-opacity:1" />

		
			<path
   id="path9081"
   d="M 48.66,137.101 C 48.15,139.461 46.02,142.371 43.98,143.641"
   stroke-miterlimit="10"
   style="fill:none;stroke:#000000;stroke-width:1.44000006;stroke-linecap:round;stroke-linejoin:round;stroke-miterlimit:10;fill-opacity:1" />

		
			<polyline
   id="polyline9083"
   points="    55.38,140.94 58.19,130.371 58.2,130.32   "
   stroke-miterlimit="10"
   style="fill:none;stroke:#000000;stroke-width:1.44000006;stroke-linecap:round;stroke-linejoin:round;stroke-miterlimit:10;fill-opacity:1" />

		
			<polyline
   id="polyline9085"
   points="    25.92,154.021 25.92,159.76 25.92,159.78   "
   stroke-miterlimit="10"
   style="fill:none;stroke:#000000;stroke-width:1.44000006;stroke-linecap:round;stroke-linejoin:round;stroke-miterlimit:10;fill-opacity:1" />

		
			<polyline
   id="polyline9087"
   points="    63.78,121.92 62.06,128.28 62.04,128.331 62.04,128.34   "
   stroke-miterlimit="10"
   style="fill:none;stroke:#000000;stroke-width:1.44000006;stroke-linecap:round;stroke-linejoin:round;stroke-miterlimit:10;fill-opacity:1" />

		
			<polyline
   id="polyline9089"
   points="    58.2,130.38 58.23,130.371 62.04,128.28   "
   stroke-miterlimit="10"
   style="fill:none;stroke:#000000;stroke-width:1.44000006;stroke-linecap:round;stroke-linejoin:round;stroke-miterlimit:10;fill-opacity:1" />

		
			<line
   id="line9091"
   y2="101.94"
   x2="29.219999"
   y1="105.541"
   x1="35.459999"
   stroke-miterlimit="10"
   style="fill:none;stroke:#000000;stroke-width:0.72000003;stroke-linecap:round;stroke-linejoin:round;stroke-miterlimit:10;fill-opacity:1" />

		
			<line
   id="line9093"
   y2="88.919998"
   x2="38.639999"
   y1="92.521004"
   x1="44.880001"
   stroke-miterlimit="10"
   style="fill:none;stroke:#000000;stroke-width:0.72000003;stroke-linecap:round;stroke-linejoin:round;stroke-miterlimit:10;fill-opacity:1" />

		
			<polyline
   id="polyline9095"
   points="    7.5,143.4 0.79,139.48 0.77,139.47 0.72,139.44   "
   stroke-miterlimit="10"
   style="fill:none;stroke:#000000;stroke-width:1.44000006;stroke-linecap:round;stroke-linejoin:round;stroke-miterlimit:10;fill-opacity:1" />

		
			<path
   id="path9097"
   d="M 25.5,132.96 C 25.51,132.95 25.52,132.95 25.53,132.94 C 27.82,131.65 29.58,128.91 30.24,126.42"
   stroke-miterlimit="10"
   style="fill:none;stroke:#000000;stroke-width:1.44000006;stroke-linecap:round;stroke-linejoin:round;stroke-miterlimit:10;fill-opacity:1" />

		
			<path
   id="path9099"
   d="M 34.92,125.7 C 33.58,130.75 30.07,136.11 25.5,138.78"
   stroke-miterlimit="10"
   style="fill:none;stroke:#000000;stroke-width:1.44000006;stroke-linecap:round;stroke-linejoin:round;stroke-miterlimit:10;fill-opacity:1" />

		
			<polyline
   id="polyline9101"
   points="    7.5,149.16 7.5,149.13 7.5,143.4 7.5,143.34   "
   stroke-miterlimit="10"
   style="fill:none;stroke:#000000;stroke-width:1.44000006;stroke-linecap:round;stroke-linejoin:round;stroke-miterlimit:10;fill-opacity:1" />

		
			<polyline
   id="polyline9103"
   points="    7.5,143.4 24.66,133.39 25.5,132.9   "
   stroke-miterlimit="10"
   style="fill:none;stroke:#000000;stroke-width:1.44000006;stroke-linecap:round;stroke-linejoin:round;stroke-miterlimit:10;fill-opacity:1" />

		
			<polyline
   id="polyline9105"
   points="    25.5,138.78 7.5,149.13 7.47,149.14 7.44,149.16   "
   stroke-miterlimit="10"
   style="fill:none;stroke:#000000;stroke-width:1.44000006;stroke-linecap:round;stroke-linejoin:round;stroke-miterlimit:10;fill-opacity:1" />

		
			<polyline
   id="polyline9107"
   points="    7.5,149.16 7.47,149.14 0.78,145.24 0.72,145.2   "
   stroke-miterlimit="10"
   style="fill:none;stroke:#000000;stroke-width:1.44000006;stroke-linecap:round;stroke-linejoin:round;stroke-miterlimit:10;fill-opacity:1" />

		
			<line
   id="line9109"
   y2="122.581"
   x2="23.52"
   y1="111.96"
   x1="26.34"
   stroke-miterlimit="10"
   style="fill:none;stroke:#000000;stroke-width:1.44000006;stroke-linecap:round;stroke-linejoin:round;stroke-miterlimit:10;fill-opacity:1" />

		
			<line
   id="line9111"
   y2="111.96"
   x2="26.34"
   y1="106.621"
   x1="24.48"
   stroke-miterlimit="10"
   style="fill:none;stroke:#000000;stroke-width:1.44000006;stroke-linecap:round;stroke-linejoin:round;stroke-miterlimit:10;fill-opacity:1" />

		
			<line
   id="line9113"
   y2="123.48"
   x2="25.139999"
   y1="125.46"
   x1="28.5"
   stroke-miterlimit="10"
   style="fill:none;stroke:#000000;stroke-width:0.72000003;stroke-linecap:round;stroke-linejoin:round;stroke-miterlimit:10;fill-opacity:1" />

		
			<line
   id="line9115"
   y2="130.021"
   x2="20.4"
   y1="131.94"
   x1="23.82"
   stroke-miterlimit="10"
   style="fill:none;stroke:#000000;stroke-width:0.72000003;stroke-linecap:round;stroke-linejoin:round;stroke-miterlimit:10;fill-opacity:1" />

		
			<line
   id="line9117"
   y2="108.42"
   x2="99.239998"
   y1="115.621"
   x1="111.72"
   stroke-miterlimit="10"
   style="fill:none;stroke:#000000;stroke-width:1.44000006;stroke-linecap:round;stroke-linejoin:round;stroke-miterlimit:10;fill-opacity:1" />

		
			<polyline
   id="polyline9119"
   points="    88.06,144.121 83.37,144.89 83.33,144.89 83.28,144.9   "
   stroke-miterlimit="10"
   style="fill:none;stroke:#000000;stroke-width:1.44000006;stroke-linecap:round;stroke-linejoin:round;stroke-miterlimit:10;fill-opacity:1" />

		
			<line
   id="line9121"
   y2="144.121"
   x2="88.07"
   y1="144.121"
   x1="88.080002"
   stroke-miterlimit="10"
   style="fill:none;stroke:#000000;stroke-width:1.44000006;stroke-linecap:round;stroke-linejoin:round;stroke-miterlimit:10;fill-opacity:1" />

		
			<line
   id="line9123"
   y2="135.72"
   x2="74.760002"
   y1="129.24001"
   x1="76.5"
   stroke-miterlimit="10"
   style="fill:none;stroke:#000000;stroke-width:1.44000006;stroke-linecap:round;stroke-linejoin:round;stroke-miterlimit:10;fill-opacity:1" />

		
			<polyline
   id="polyline9125"
   points="    85.26,154.74 88.06,144.121 88.07,144.121 88.08,144.061   "
   stroke-miterlimit="10"
   style="fill:none;stroke:#000000;stroke-width:1.44000006;stroke-linecap:round;stroke-linejoin:round;stroke-miterlimit:10;fill-opacity:1" />

		
			<polyline
   id="polyline9127"
   points="    88.08,144.121 91.76,142.16 91.92,142.081   "
   stroke-miterlimit="10"
   style="fill:none;stroke:#000000;stroke-width:1.44000006;stroke-linecap:round;stroke-linejoin:round;stroke-miterlimit:10;fill-opacity:1" />

		
			<polyline
   id="polyline9129"
   points="    91.92,142.14 93.34,136.67 93.59,135.72 93.6,135.66   "
   stroke-miterlimit="10"
   style="fill:none;stroke:#000000;stroke-width:1.44000006;stroke-linecap:round;stroke-linejoin:round;stroke-miterlimit:10;fill-opacity:1" />

		
			<path
   id="path9131"
   d="M 85.92,116.22 C 81.79,118.71 78.79,122.82 77.12,127.33 C 76.88,127.96 76.68,128.6 76.5,129.24"
   stroke-miterlimit="10"
   style="fill:none;stroke:#000000;stroke-width:1.44000006;stroke-linecap:round;stroke-linejoin:round;stroke-miterlimit:10;fill-opacity:1" />

		
			<polyline
   id="polyline9133"
   points="    99.3,108.48 94.31,111.351 85.91,116.19 85.86,116.22   "
   stroke-miterlimit="10"
   style="fill:none;stroke:#000000;stroke-width:1.44000006;stroke-linecap:round;stroke-linejoin:round;stroke-miterlimit:10;fill-opacity:1" />

		
			<path
   id="path9135"
   d="M 98.34,123.36 C 93.79,126.05 90.27,131.39 88.92,136.44"
   stroke-miterlimit="10"
   style="fill:none;stroke:#000000;stroke-width:1.44000006;stroke-linecap:round;stroke-linejoin:round;stroke-miterlimit:10;fill-opacity:1" />

		
			<polyline
   id="polyline9137"
   points="    111.72,115.621 111.69,115.64 98.33,123.331 98.28,123.36   "
   stroke-miterlimit="10"
   style="fill:none;stroke:#000000;stroke-width:1.44000006;stroke-linecap:round;stroke-linejoin:round;stroke-miterlimit:10;fill-opacity:1" />

		
			<polyline
   id="polyline9139"
   points="    111.72,121.44 111.72,121.38 111.72,115.65 111.72,115.621 111.72,115.561   "
   stroke-miterlimit="10"
   style="fill:none;stroke:#000000;stroke-width:1.44000006;stroke-linecap:round;stroke-linejoin:round;stroke-miterlimit:10;fill-opacity:1" />

		
			<polyline
   id="polyline9141"
   points="    91.92,142.14 91.76,142.16 87.18,142.851 87.12,142.86   "
   stroke-miterlimit="10"
   style="fill:none;stroke:#000000;stroke-width:1.44000006;stroke-linecap:round;stroke-linejoin:round;stroke-miterlimit:10;fill-opacity:1" />

		
			<line
   id="line9143"
   y2="121.38"
   x2="111.72"
   y1="129.17999"
   x1="98.339996"
   stroke-miterlimit="10"
   style="fill:none;stroke:#000000;stroke-width:1.44000006;stroke-linecap:round;stroke-linejoin:round;stroke-miterlimit:10;fill-opacity:1" />

		
			<path
   id="path9145"
   d="M 93.6,135.72 C 94.42,133.09 95.89,130.59 98.34,129.18"
   stroke-miterlimit="10"
   style="fill:none;stroke:#000000;stroke-width:1.44000006;stroke-linecap:round;stroke-linejoin:round;stroke-miterlimit:10;fill-opacity:1" />

		
			<polyline
   id="polyline9147"
   points="    18.78,129.061 0.77,139.47 0.72,139.5   "
   stroke-miterlimit="10"
   style="fill:none;stroke:#000000;stroke-width:1.44000006;stroke-linecap:round;stroke-linejoin:round;stroke-miterlimit:10;fill-opacity:1" />

		
			<path
   id="path9149"
   d="M 23.52,122.581 C 22.92,124.841 20.94,128.021 18.78,129.061"
   stroke-miterlimit="10"
   style="fill:none;stroke:#000000;stroke-width:1.44000006;stroke-linecap:round;stroke-linejoin:round;stroke-miterlimit:10;fill-opacity:1" />

		
			<polyline
   id="polyline9151"
   points="    30.24,126.42 33.05,115.851 33.06,115.8   "
   stroke-miterlimit="10"
   style="fill:none;stroke:#000000;stroke-width:1.44000006;stroke-linecap:round;stroke-linejoin:round;stroke-miterlimit:10;fill-opacity:1" />

		
			<polyline
   id="polyline9153"
   points="    0.78,139.5 0.78,145.24 0.78,145.26   "
   stroke-miterlimit="10"
   style="fill:none;stroke:#000000;stroke-width:1.44000006;stroke-linecap:round;stroke-linejoin:round;stroke-miterlimit:10;fill-opacity:1" />

		
			<polyline
   id="polyline9155"
   points="    38.58,107.4 36.91,113.76 36.9,113.811 36.9,113.82   "
   stroke-miterlimit="10"
   style="fill:none;stroke:#000000;stroke-width:1.44000006;stroke-linecap:round;stroke-linejoin:round;stroke-miterlimit:10;fill-opacity:1" />

		
			<polyline
   id="polyline9157"
   points="    33.06,115.86 33.09,115.851 36.9,113.76   "
   stroke-miterlimit="10"
   style="fill:none;stroke:#000000;stroke-width:1.44000006;stroke-linecap:round;stroke-linejoin:round;stroke-miterlimit:10;fill-opacity:1" />

		
			<line
   id="line9159"
   y2="130.98"
   x2="79.559998"
   y1="134.64"
   x1="85.739998"
   stroke-miterlimit="10"
   style="fill:none;stroke:#000000;stroke-width:0.72000003;stroke-linecap:round;stroke-linejoin:round;stroke-miterlimit:10;fill-opacity:1" />

		
			<line
   id="line9161"
   y2="117.96"
   x2="88.980003"
   y1="121.561"
   x1="95.160004"
   stroke-miterlimit="10"
   style="fill:none;stroke:#000000;stroke-width:0.72000003;stroke-linecap:round;stroke-linejoin:round;stroke-miterlimit:10;fill-opacity:1" />

		
			<polyline
   id="polyline9163"
   points="    57.78,172.44 51.07,168.521 51.05,168.51 51,168.48   "
   stroke-miterlimit="10"
   style="fill:none;stroke:#000000;stroke-width:1.44000006;stroke-linecap:round;stroke-linejoin:round;stroke-miterlimit:10;fill-opacity:1" />

		
			<path
   id="path9165"
   d="M 75.84,162 C 75.85,161.99 75.86,161.99 75.87,161.98 C 78.33,160.34 79.75,158.32 80.52,155.46"
   stroke-miterlimit="10"
   style="fill:none;stroke:#000000;stroke-width:1.44000006;stroke-linecap:round;stroke-linejoin:round;stroke-miterlimit:10;fill-opacity:1" />

		
			<path
   id="path9167"
   d="M 85.26,154.74 C 83.89,159.78 80.39,165.12 75.84,167.82"
   stroke-miterlimit="10"
   style="fill:none;stroke:#000000;stroke-width:1.44000006;stroke-linecap:round;stroke-linejoin:round;stroke-miterlimit:10;fill-opacity:1" />

		
			<polyline
   id="polyline9169"
   points="    57.78,178.2 57.78,178.17 57.78,172.44 57.78,172.38   "
   stroke-miterlimit="10"
   style="fill:none;stroke:#000000;stroke-width:1.44000006;stroke-linecap:round;stroke-linejoin:round;stroke-miterlimit:10;fill-opacity:1" />

		
			<polyline
   id="polyline9171"
   points="    57.78,172.44 74.93,162.47 75.84,161.94   "
   stroke-miterlimit="10"
   style="fill:none;stroke:#000000;stroke-width:1.44000006;stroke-linecap:round;stroke-linejoin:round;stroke-miterlimit:10;fill-opacity:1" />

		
			<polyline
   id="polyline9173"
   points="    75.84,167.82 57.78,178.17 57.75,178.18 57.72,178.2   "
   stroke-miterlimit="10"
   style="fill:none;stroke:#000000;stroke-width:1.44000006;stroke-linecap:round;stroke-linejoin:round;stroke-miterlimit:10;fill-opacity:1" />

		
			<polyline
   id="polyline9175"
   points="    57.78,178.2 57.75,178.18 51.06,174.331 51,174.3   "
   stroke-miterlimit="10"
   style="fill:none;stroke:#000000;stroke-width:1.44000006;stroke-linecap:round;stroke-linejoin:round;stroke-miterlimit:10;fill-opacity:1" />

		
			<line
   id="line9177"
   y2="151.621"
   x2="73.800003"
   y1="141"
   x1="76.68"
   stroke-miterlimit="10"
   style="fill:none;stroke:#000000;stroke-width:1.44000006;stroke-linecap:round;stroke-linejoin:round;stroke-miterlimit:10;fill-opacity:1" />

		
			<line
   id="line9179"
   y2="141"
   x2="76.68"
   y1="135.72"
   x1="74.760002"
   stroke-miterlimit="10"
   style="fill:none;stroke:#000000;stroke-width:1.44000006;stroke-linecap:round;stroke-linejoin:round;stroke-miterlimit:10;fill-opacity:1" />

		
			<line
   id="line9181"
   y2="152.521"
   x2="75.419998"
   y1="154.5"
   x1="78.779999"
   stroke-miterlimit="10"
   style="fill:none;stroke:#000000;stroke-width:0.72000003;stroke-linecap:round;stroke-linejoin:round;stroke-miterlimit:10;fill-opacity:1" />

		
			<line
   id="line9183"
   y2="159.061"
   x2="70.739998"
   y1="161.041"
   x1="74.099998"
   stroke-miterlimit="10"
   style="fill:none;stroke:#000000;stroke-width:0.72000003;stroke-linecap:round;stroke-linejoin:round;stroke-miterlimit:10;fill-opacity:1" />

		
			<polyline
   id="polyline9185"
   points="    69.12,158.16 51.05,168.51 51,168.541   "
   stroke-miterlimit="10"
   style="fill:none;stroke:#000000;stroke-width:1.44000006;stroke-linecap:round;stroke-linejoin:round;stroke-miterlimit:10;fill-opacity:1" />

		
			<path
   id="path9187"
   d="M 73.8,151.621 C 73.02,154.461 71.56,156.511 69.12,158.161"
   stroke-miterlimit="10"
   style="fill:none;stroke:#000000;stroke-width:1.44000006;stroke-linecap:round;stroke-linejoin:round;stroke-miterlimit:10;fill-opacity:1" />

		
			<polyline
   id="polyline9189"
   points="    80.52,155.46 83.33,144.89 83.34,144.84   "
   stroke-miterlimit="10"
   style="fill:none;stroke:#000000;stroke-width:1.44000006;stroke-linecap:round;stroke-linejoin:round;stroke-miterlimit:10;fill-opacity:1" />

		
			<polyline
   id="polyline9191"
   points="    51.06,168.541 51.06,174.331 51.06,174.36   "
   stroke-miterlimit="10"
   style="fill:none;stroke:#000000;stroke-width:1.44000006;stroke-linecap:round;stroke-linejoin:round;stroke-miterlimit:10;fill-opacity:1" />

		
			<polyline
   id="polyline9193"
   points="    88.92,136.44 87.2,142.8 87.18,142.851 87.18,142.86   "
   stroke-miterlimit="10"
   style="fill:none;stroke:#000000;stroke-width:1.44000006;stroke-linecap:round;stroke-linejoin:round;stroke-miterlimit:10;fill-opacity:1" />

		
			<polyline
   id="polyline9195"
   points="    83.34,144.9 83.37,144.89 87.18,142.8   "
   stroke-miterlimit="10"
   style="fill:none;stroke:#000000;stroke-width:1.44000006;stroke-linecap:round;stroke-linejoin:round;stroke-miterlimit:10;fill-opacity:1" />

	</g>

</g>
</g>
  </g>
</svg>
