<?xml version="1.0" encoding="UTF-8" standalone="no"?>
<!-- Generator: Adobe Illustrator 12.0.0, SVG Export Plug-In . SVG Version: 6.00 Build 51448)  -->
<svg
   xmlns:dc="http://purl.org/dc/elements/1.1/"
   xmlns:cc="http://web.resource.org/cc/"
   xmlns:rdf="http://www.w3.org/1999/02/22-rdf-syntax-ns#"
   xmlns:svg="http://www.w3.org/2000/svg"
   xmlns="http://www.w3.org/2000/svg"
   xmlns:sodipodi="http://sodipodi.sourceforge.net/DTD/sodipodi-0.dtd"
   xmlns:inkscape="http://www.inkscape.org/namespaces/inkscape"
   version="1.0"
   id="Layer_1"
   width="550"
   height="300"
   viewBox="0 0 529.76 286.22"
   overflow="visible"
   enable-background="new 0 0 529.76 286.22"
   xml:space="preserve"
   sodipodi:version="0.32"
   inkscape:version="0.45"
   sodipodi:docname="TO-220 Front Coloured.svg"
   inkscape:output_extension="org.inkscape.output.svg.inkscape"
   sodipodi:docbase="C:\Documents and Settings\JJB\My Documents\My Pictures\Electronics\Illustrations\Packages\Transistors\TO-220"
   sodipodi:modified="true"><metadata
   id="metadata6745"><rdf:RDF><cc:Work
       rdf:about=""><dc:format>image/svg+xml</dc:format><dc:type
         rdf:resource="http://purl.org/dc/dcmitype/StillImage" /></cc:Work></rdf:RDF></metadata><defs
   id="defs6743" /><sodipodi:namedview
   inkscape:window-height="874"
   inkscape:window-width="1360"
   inkscape:pageshadow="2"
   inkscape:pageopacity="0.0"
   guidetolerance="10.0"
   gridtolerance="10.0"
   objecttolerance="10.0"
   borderopacity="1.0"
   bordercolor="#666666"
   pagecolor="#ffffff"
   id="base"
   height="300px"
   width="550px"
   inkscape:zoom="1.2760495"
   inkscape:cx="264.88"
   inkscape:cy="143.11"
   inkscape:window-x="76"
   inkscape:window-y="-4"
   inkscape:current-layer="Layer_1" />

<g
   transform="matrix(0.9632,0,0,0.9632,9.7475793,5.2664474)"
   id="XMLID_5_">
	<g
   id="g6430">
		<polygon
   points="171.7,191.62 167.44,189.16 167.44,189.1 54.04,254.62 45.58,254.62 45.58,254.56 42.7,256.3 37.06,253 37.06,252.97 39.88,251.38 39.88,246.459 39.87,246.43 149.02,183.459 153.28,181 149.02,178.54 149.02,178.51 194.62,152.2 226.96,133.54 234.04,129.46 256.67,142.51 171.7,191.62 "
   id="polygon6432"
   style="fill:#d2d2d2" />
		<polygon
   points="18.04,233.86 18.04,242.02 9.58,242.02 9.58,241.959 9.58,233.86 18.04,233.86 "
   id="polygon6434"
   style="fill:#d2d2d2" />
		<polygon
   points="230.59,173 262.92,154.33 270.04,150.22 292.61,163.33 207.64,212.44 203.44,209.98 203.44,209.919 90.04,275.44 81.52,275.44 81.52,275.38 78.7,277.06 73.06,273.76 73.06,273.73 75.88,272.14 75.88,267.22 75.87,267.19 185.02,204.18 189.22,201.76 185.02,199.36 185.02,199.33 230.59,173 "
   id="polygon6436"
   style="fill:#d2d2d2" />
		<polygon
   points="256.69,150.72 224.38,169.39 171.7,199.84 171.7,191.62 256.67,142.51 256.72,142.54 256.72,150.7 256.69,150.72 "
   id="polygon6438"
   style="fill:#d2d2d2" />
		<polygon
   points="207.64,212.44 207.64,220.6 203.44,218.14 203.44,218.08 203.44,209.98 207.64,212.44 "
   id="polygon6440"
   style="fill:#d2d2d2" />
		<polygon
   points="220.69,129.9 188.38,148.57 135.7,179.02 135.7,170.86 220.67,121.75 220.72,121.78 220.72,129.88 220.69,129.9 "
   id="polygon6442"
   style="fill:#d2d2d2" />
		<polygon
   points="9.58,233.86 9.58,241.959 6.7,243.7 6.7,235.48 9.58,233.8 9.58,233.86 "
   id="polygon6444"
   style="fill:#d2d2d2" />
		<polygon
   points="90.04,275.44 90.04,283.6 81.52,283.6 81.52,283.54 81.52,275.44 90.04,275.44 "
   id="polygon6446"
   style="fill:#d2d2d2" />
		<polygon
   points="131.44,168.4 131.44,176.5 18.04,242.02 18.04,233.86 131.44,168.34 131.44,168.4 "
   id="polygon6448"
   style="fill:#d2d2d2" />
		<polygon
   points="171.7,191.62 171.7,199.84 167.44,197.38 167.44,197.32 167.44,189.16 171.7,191.62 "
   id="polygon6450"
   style="fill:#d2d2d2" />
		<polygon
   points="135.7,170.86 135.7,179.02 131.44,176.56 131.44,176.5 131.44,168.4 135.7,170.86 "
   id="polygon6452"
   style="fill:#d2d2d2" />
		<polygon
   points="78.7,277.06 78.7,285.22 73.06,281.98 73.06,273.76 78.7,277.06 "
   id="polygon6454"
   style="fill:#d2d2d2" />
		<polygon
   points="81.52,275.44 81.52,283.54 78.7,285.22 78.7,277.06 81.52,275.38 81.52,275.44 "
   id="polygon6456"
   style="fill:#d2d2d2" />
		<polygon
   points="45.58,254.62 45.58,262.78 42.7,264.459 42.7,256.3 45.58,254.56 45.58,254.62 "
   id="polygon6458"
   style="fill:#d2d2d2" />
		<polygon
   points="203.44,209.98 203.44,218.08 90.04,283.6 90.04,275.44 203.44,209.919 203.44,209.98 "
   id="polygon6460"
   style="fill:#d2d2d2" />
		<polygon
   points="135.7,170.86 131.44,168.4 131.44,168.34 18.04,233.86 9.58,233.86 9.58,233.8 6.7,235.48 1.06,232.24 1.06,232.209 3.88,230.56 3.88,225.7 3.87,225.669 113.02,162.7 117.28,160.24 113.02,157.78 113.02,157.75 176.08,121.37 190.96,112.78 198.04,108.7 220.67,121.75 135.7,170.86 "
   id="polygon6462"
   style="fill:#d2d2d2" />
		<polygon
   points="167.44,189.16 167.44,197.32 54.04,262.84 54.04,254.62 167.44,189.1 167.44,189.16 "
   id="polygon6464"
   style="fill:#d2d2d2" />
		<polygon
   points="42.7,256.3 42.7,264.459 37.06,261.16 37.06,253 42.7,256.3 "
   id="polygon6466"
   style="fill:#d2d2d2" />
		<polygon
   points="54.04,254.62 54.04,262.84 45.58,262.84 45.58,262.78 45.58,254.62 54.04,254.62 "
   id="polygon6468"
   style="fill:#d2d2d2" />
		<polygon
   points="6.7,235.48 6.7,243.7 1.06,240.4 1.06,232.24 6.7,235.48 "
   id="polygon6470"
   style="fill:#d2d2d2" />
		<polygon
   points="260.35,190.14 207.64,220.6 207.64,212.44 292.61,163.33 292.66,163.36 292.66,171.459 292.63,171.48 260.35,190.14 "
   id="polygon6472"
   style="fill:#d2d2d2" />
		<polygon
   points="528.76,66.46 528.76,86.86 503.98,117.58 503.98,97.12 528.73,66.44 528.76,66.46 "
   id="polygon6474"
   style="fill:#d2d2d2" />
		<polygon
   points="503.98,97.12 503.98,117.58 443.74,152.35 443.74,152.32 443.74,131.92 443.74,131.89 503.98,97.12 "
   id="polygon6476"
   style="fill:#d2d2d2" />
		<path
   d="M 453.94,46.24 C 461.43,51.02 466.87,59.29 462.34,68.08 C 461.68,69.4 460.84,70.63 459.86,71.78 C 447.381,57.87 420.291,56.2 403.59,62.06 L 387.06,52.52 C 400.35,35.31 436.88,34.72 453.94,46.24 z "
   id="path6478"
   style="fill:#d2d2d2" />
		<path
   d="M 503.98,97.12 L 443.74,131.89 L 443.74,131.86 L 443.73,131.87 L 434.85,83.79 C 443.13,82.59 454.01,78.7 459.86,71.78 C 460.84,70.63 461.68,69.4 462.34,68.08 C 466.869,59.29 461.43,51.02 453.94,46.24 C 436.88,34.72 400.35,35.31 387.06,52.52 L 342.48,26.79 L 362.251,15.32 L 362.261,15.34 L 415.42,1 L 528.73,66.44 L 503.98,97.12 z "
   id="path6480"
   style="fill:#d2d2d2" />
		<polygon
   points="176.08,104.2 176.08,104.18 190.96,112.78 176.08,121.37 176.08,121.36 176.08,104.2 "
   id="polygon6482"
   style="fill:#333333" />
		<polygon
   points="198.04,108.7 190.96,112.78 176.08,104.18 176.68,96.34 198.04,108.7 "
   id="polygon6484"
   style="fill:#333333" />
		<polygon
   points="234.04,129.46 226.96,133.54 220.72,129.91 220.72,129.88 220.72,121.78 234.04,129.46 "
   id="polygon6486"
   style="fill:#333333" />
		<polygon
   points="220.72,129.91 226.96,133.54 194.62,152.2 188.38,148.57 220.69,129.9 220.72,129.91 "
   id="polygon6488"
   style="fill:#333333" />
		<polygon
   points="256.72,150.73 262.92,154.33 230.59,173 224.38,169.39 256.69,150.72 256.72,150.73 "
   id="polygon6490"
   style="fill:#333333" />
		<polygon
   points="270.04,150.22 262.92,154.33 256.72,150.73 256.72,150.7 256.72,142.54 270.04,150.22 "
   id="polygon6492"
   style="fill:#333333" />
		<polygon
   points="314.02,175.66 314.68,184.18 292.66,171.49 292.66,171.459 292.66,163.36 314.02,175.66 "
   id="polygon6494"
   style="fill:#333333" />
		<polygon
   points="292.66,171.49 314.68,184.18 317.74,204.64 319.3,224.2 260.35,190.14 292.63,171.48 292.66,171.49 "
   id="polygon6496"
   style="fill:#333333" />
		<polygon
   points="317.74,204.64 443.73,131.87 443.73,131.89 443.74,131.89 443.74,131.92 443.74,152.32 319.3,224.2 317.74,204.64 "
   id="polygon6498"
   style="fill:#333333" />
		<polygon
   points="434.85,83.79 443.73,131.87 317.74,204.64 314.68,184.18 314.02,175.66 314.02,175.6 314.02,148.96 314.02,148.93 434.08,79.66 434.09,79.66 434.85,83.79 "
   id="polygon6500"
   style="fill:#333333" />
		<polygon
   points="256.72,142.54 256.67,142.51 234.04,129.46 220.72,121.78 220.67,121.75 198.04,108.7 176.68,96.34 180.39,71.8 180.4,71.8 313.99,148.94 314.02,148.96 314.02,175.6 314.02,175.66 292.66,163.36 292.61,163.33 270.04,150.22 256.72,142.54 "
   id="polygon6502"
   style="fill:#333333" />
		<polygon
   points="180.4,71.8 180.39,71.8 180.39,71.77 180.4,71.77 300.4,2.5 342.48,26.79 387.06,52.52 403.59,62.06 434.08,79.66 314.02,148.93 313.99,148.94 180.4,71.8 "
   id="polygon6504"
   style="fill:#333333" />
	</g>
	<g
   id="g6506">
		
			<polyline
   stroke-miterlimit="10"
   points="    18.04,242.02 18.04,233.86 18.04,233.8   "
   id="polyline6508"
   style="fill:none;stroke:#000000;stroke-width:2;stroke-linecap:round;stroke-linejoin:round;stroke-miterlimit:10" />
		
			<polyline
   stroke-miterlimit="10"
   points="    9.58,242.02 9.58,241.959 9.58,233.86 9.58,233.8   "
   id="polyline6510"
   style="fill:none;stroke:#000000;stroke-width:2;stroke-linecap:round;stroke-linejoin:round;stroke-miterlimit:10" />
		
			<line
   stroke-miterlimit="10"
   x1="18.040001"
   y1="242.02"
   x2="131.44"
   y2="176.5"
   id="line6512"
   style="fill:none;stroke:#000000;stroke-width:2;stroke-linecap:round;stroke-linejoin:round;stroke-miterlimit:10" />
		
			<line
   stroke-miterlimit="10"
   x1="131.44"
   y1="176.56"
   x2="135.7"
   y2="179.02"
   id="line6514"
   style="fill:none;stroke:#000000;stroke-width:2;stroke-linecap:round;stroke-linejoin:round;stroke-miterlimit:10" />
		
			<line
   stroke-miterlimit="10"
   x1="131.44"
   y1="168.39999"
   x2="135.7"
   y2="170.86"
   id="line6516"
   style="fill:none;stroke:#000000;stroke-width:2;stroke-linecap:round;stroke-linejoin:round;stroke-miterlimit:10" />
		
			<line
   stroke-miterlimit="10"
   x1="9.5799999"
   y1="242.02"
   x2="18.040001"
   y2="242.02"
   id="line6518"
   style="fill:none;stroke:#000000;stroke-width:2;stroke-linecap:round;stroke-linejoin:round;stroke-miterlimit:10" />
		
			<line
   stroke-miterlimit="10"
   x1="6.6999998"
   y1="243.7"
   x2="9.5799999"
   y2="241.959"
   id="line6520"
   style="fill:none;stroke:#000000;stroke-width:2;stroke-linecap:round;stroke-linejoin:round;stroke-miterlimit:10" />
		
			<line
   stroke-miterlimit="10"
   x1="1.0599999"
   y1="240.39999"
   x2="6.6999998"
   y2="243.7"
   id="line6522"
   style="fill:none;stroke:#000000;stroke-width:2;stroke-linecap:round;stroke-linejoin:round;stroke-miterlimit:10" />
		
			<polyline
   stroke-miterlimit="10"
   points="    135.7,179.02 188.38,148.57 220.69,129.9 220.72,129.88   "
   id="polyline6524"
   style="fill:none;stroke:#000000;stroke-width:2;stroke-linecap:round;stroke-linejoin:round;stroke-miterlimit:10" />
		
			<line
   stroke-miterlimit="10"
   x1="18.040001"
   y1="233.86"
   x2="131.44"
   y2="168.34"
   id="line6526"
   style="fill:none;stroke:#000000;stroke-width:2;stroke-linecap:round;stroke-linejoin:round;stroke-miterlimit:10" />
		
			<line
   stroke-miterlimit="10"
   x1="9.5799999"
   y1="233.86"
   x2="18.040001"
   y2="233.86"
   id="line6528"
   style="fill:none;stroke:#000000;stroke-width:2;stroke-linecap:round;stroke-linejoin:round;stroke-miterlimit:10" />
		
			<line
   stroke-miterlimit="10"
   x1="6.6999998"
   y1="235.48"
   x2="9.5799999"
   y2="233.8"
   id="line6530"
   style="fill:none;stroke:#000000;stroke-width:2;stroke-linecap:round;stroke-linejoin:round;stroke-miterlimit:10" />
		
			<polyline
   stroke-miterlimit="10"
   points="    1.06,240.4 1.06,232.24 1.06,232.209 1.06,232.18   "
   id="polyline6532"
   style="fill:none;stroke:#000000;stroke-width:2;stroke-linecap:round;stroke-linejoin:round;stroke-miterlimit:10" />
		
			<polyline
   stroke-miterlimit="10"
   points="    3.88,230.56 1.06,232.209 1,232.24   "
   id="polyline6534"
   style="fill:none;stroke:#000000;stroke-width:2;stroke-linecap:round;stroke-linejoin:round;stroke-miterlimit:10" />
		
			<line
   stroke-miterlimit="10"
   x1="3.8800001"
   y1="225.7"
   x2="3.8800001"
   y2="230.56"
   id="line6536"
   style="fill:none;stroke:#000000;stroke-width:2;stroke-linecap:round;stroke-linejoin:round;stroke-miterlimit:10" />
		
			<polyline
   stroke-miterlimit="10"
   points="    117.28,160.24 113.02,162.7 3.87,225.669 3.82,225.7   "
   id="polyline6538"
   style="fill:none;stroke:#000000;stroke-width:2;stroke-linecap:round;stroke-linejoin:round;stroke-miterlimit:10" />
		
			<line
   stroke-miterlimit="10"
   x1="113.02"
   y1="157.78"
   x2="117.28"
   y2="160.24001"
   id="line6540"
   style="fill:none;stroke:#000000;stroke-width:2;stroke-linecap:round;stroke-linejoin:round;stroke-miterlimit:10" />
		
			<polyline
   stroke-miterlimit="10"
   points="    113.02,162.7 113.02,157.78 113.02,157.75 113.02,157.72   "
   id="polyline6542"
   style="fill:none;stroke:#000000;stroke-width:2;stroke-linecap:round;stroke-linejoin:round;stroke-miterlimit:10" />
		
			<line
   stroke-miterlimit="10"
   x1="1.0599999"
   y1="232.24001"
   x2="6.6999998"
   y2="235.48"
   id="line6544"
   style="fill:none;stroke:#000000;stroke-width:2;stroke-linecap:round;stroke-linejoin:round;stroke-miterlimit:10" />
		
			<polyline
   stroke-miterlimit="10"
   points="    198.04,108.7 190.96,112.78 176.08,121.37 113.02,157.75 112.96,157.78   "
   id="polyline6546"
   style="fill:none;stroke:#000000;stroke-width:2;stroke-linecap:round;stroke-linejoin:round;stroke-miterlimit:10" />
		
			<polyline
   stroke-miterlimit="10"
   points="    135.7,170.86 220.67,121.75 220.72,121.72   "
   id="polyline6548"
   style="fill:none;stroke:#000000;stroke-width:2;stroke-linecap:round;stroke-linejoin:round;stroke-miterlimit:10" />
		
			<polyline
   stroke-miterlimit="10"
   points="    131.44,176.56 131.44,176.5 131.44,168.4 131.44,168.34   "
   id="polyline6550"
   style="fill:none;stroke:#000000;stroke-width:2;stroke-linecap:round;stroke-linejoin:round;stroke-miterlimit:10" />
		
			<polyline
   stroke-miterlimit="10"
   points="    135.7,179.02 135.7,170.86 135.7,170.8   "
   id="polyline6552"
   style="fill:none;stroke:#000000;stroke-width:2;stroke-linecap:round;stroke-linejoin:round;stroke-miterlimit:10" />
		
			<polyline
   stroke-miterlimit="10"
   points="    6.7,243.7 6.7,235.48 6.7,235.419   "
   id="polyline6554"
   style="fill:none;stroke:#000000;stroke-width:2;stroke-linecap:round;stroke-linejoin:round;stroke-miterlimit:10" />
		
			<polyline
   stroke-miterlimit="10"
   points="    54.04,262.84 54.04,254.62 54.04,254.56   "
   id="polyline6556"
   style="fill:none;stroke:#000000;stroke-width:2;stroke-linecap:round;stroke-linejoin:round;stroke-miterlimit:10" />
		
			<polyline
   stroke-miterlimit="10"
   points="    45.58,262.84 45.58,262.78 45.58,254.62 45.58,254.56   "
   id="polyline6558"
   style="fill:none;stroke:#000000;stroke-width:2;stroke-linecap:round;stroke-linejoin:round;stroke-miterlimit:10" />
		
			<line
   stroke-miterlimit="10"
   x1="54.040001"
   y1="262.84"
   x2="167.44"
   y2="197.32001"
   id="line6560"
   style="fill:none;stroke:#000000;stroke-width:2;stroke-linecap:round;stroke-linejoin:round;stroke-miterlimit:10" />
		
			<line
   stroke-miterlimit="10"
   x1="167.44"
   y1="197.38"
   x2="171.7"
   y2="199.84"
   id="line6562"
   style="fill:none;stroke:#000000;stroke-width:2;stroke-linecap:round;stroke-linejoin:round;stroke-miterlimit:10" />
		
			<line
   stroke-miterlimit="10"
   x1="167.44"
   y1="189.16"
   x2="171.7"
   y2="191.62"
   id="line6564"
   style="fill:none;stroke:#000000;stroke-width:2;stroke-linecap:round;stroke-linejoin:round;stroke-miterlimit:10" />
		
			<line
   stroke-miterlimit="10"
   x1="45.580002"
   y1="262.84"
   x2="54.040001"
   y2="262.84"
   id="line6566"
   style="fill:none;stroke:#000000;stroke-width:2;stroke-linecap:round;stroke-linejoin:round;stroke-miterlimit:10" />
		
			<line
   stroke-miterlimit="10"
   x1="37.060001"
   y1="261.16"
   x2="42.700001"
   y2="264.45901"
   id="line6568"
   style="fill:none;stroke:#000000;stroke-width:2;stroke-linecap:round;stroke-linejoin:round;stroke-miterlimit:10" />
		
			<line
   stroke-miterlimit="10"
   x1="42.700001"
   y1="264.45901"
   x2="45.580002"
   y2="262.78"
   id="line6570"
   style="fill:none;stroke:#000000;stroke-width:2;stroke-linecap:round;stroke-linejoin:round;stroke-miterlimit:10" />
		
			<polyline
   stroke-miterlimit="10"
   points="    171.7,199.84 224.38,169.39 256.69,150.72 256.72,150.7   "
   id="polyline6572"
   style="fill:none;stroke:#000000;stroke-width:2;stroke-linecap:round;stroke-linejoin:round;stroke-miterlimit:10" />
		
			<line
   stroke-miterlimit="10"
   x1="54.040001"
   y1="254.62"
   x2="167.44"
   y2="189.10001"
   id="line6574"
   style="fill:none;stroke:#000000;stroke-width:2;stroke-linecap:round;stroke-linejoin:round;stroke-miterlimit:10" />
		
			<line
   stroke-miterlimit="10"
   x1="45.580002"
   y1="254.62"
   x2="54.040001"
   y2="254.62"
   id="line6576"
   style="fill:none;stroke:#000000;stroke-width:2;stroke-linecap:round;stroke-linejoin:round;stroke-miterlimit:10" />
		
			<line
   stroke-miterlimit="10"
   x1="42.700001"
   y1="256.29999"
   x2="45.580002"
   y2="254.56"
   id="line6578"
   style="fill:none;stroke:#000000;stroke-width:2;stroke-linecap:round;stroke-linejoin:round;stroke-miterlimit:10" />
		
			<polyline
   stroke-miterlimit="10"
   points="    37.06,261.16 37.06,253 37.06,252.97 37.06,252.94   "
   id="polyline6580"
   style="fill:none;stroke:#000000;stroke-width:2;stroke-linecap:round;stroke-linejoin:round;stroke-miterlimit:10" />
		
			<polyline
   stroke-miterlimit="10"
   points="    39.88,251.38 37.06,252.97 37,253   "
   id="polyline6582"
   style="fill:none;stroke:#000000;stroke-width:2;stroke-linecap:round;stroke-linejoin:round;stroke-miterlimit:10" />
		
			<line
   stroke-miterlimit="10"
   x1="39.880001"
   y1="246.459"
   x2="39.880001"
   y2="251.38"
   id="line6584"
   style="fill:none;stroke:#000000;stroke-width:2;stroke-linecap:round;stroke-linejoin:round;stroke-miterlimit:10" />
		
			<polyline
   stroke-miterlimit="10"
   points="    153.28,181 149.02,183.459 39.87,246.43 39.82,246.459   "
   id="polyline6586"
   style="fill:none;stroke:#000000;stroke-width:2;stroke-linecap:round;stroke-linejoin:round;stroke-miterlimit:10" />
		
			<line
   stroke-miterlimit="10"
   x1="149.02"
   y1="178.53999"
   x2="153.28"
   y2="181"
   id="line6588"
   style="fill:none;stroke:#000000;stroke-width:2;stroke-linecap:round;stroke-linejoin:round;stroke-miterlimit:10" />
		
			<polyline
   stroke-miterlimit="10"
   points="    149.02,183.459 149.02,178.54 149.02,178.51 149.02,178.48   "
   id="polyline6590"
   style="fill:none;stroke:#000000;stroke-width:2;stroke-linecap:round;stroke-linejoin:round;stroke-miterlimit:10" />
		
			<line
   stroke-miterlimit="10"
   x1="37.060001"
   y1="253"
   x2="42.700001"
   y2="256.29999"
   id="line6592"
   style="fill:none;stroke:#000000;stroke-width:2;stroke-linecap:round;stroke-linejoin:round;stroke-miterlimit:10" />
		
			<polyline
   stroke-miterlimit="10"
   points="    234.04,129.46 226.96,133.54 194.62,152.2 149.02,178.51 148.96,178.54   "
   id="polyline6594"
   style="fill:none;stroke:#000000;stroke-width:2;stroke-linecap:round;stroke-linejoin:round;stroke-miterlimit:10" />
		
			<polyline
   stroke-miterlimit="10"
   points="    171.7,191.62 256.67,142.51 256.72,142.48   "
   id="polyline6596"
   style="fill:none;stroke:#000000;stroke-width:2;stroke-linecap:round;stroke-linejoin:round;stroke-miterlimit:10" />
		
			<polyline
   stroke-miterlimit="10"
   points="    167.44,197.38 167.44,197.32 167.44,189.16 167.44,189.1   "
   id="polyline6598"
   style="fill:none;stroke:#000000;stroke-width:2;stroke-linecap:round;stroke-linejoin:round;stroke-miterlimit:10" />
		
			<polyline
   stroke-miterlimit="10"
   points="    171.7,199.84 171.7,191.62 171.7,191.56   "
   id="polyline6600"
   style="fill:none;stroke:#000000;stroke-width:2;stroke-linecap:round;stroke-linejoin:round;stroke-miterlimit:10" />
		
			<polyline
   stroke-miterlimit="10"
   points="    42.7,264.459 42.7,256.3 42.7,256.24   "
   id="polyline6602"
   style="fill:none;stroke:#000000;stroke-width:2;stroke-linecap:round;stroke-linejoin:round;stroke-miterlimit:10" />
		
			<polyline
   stroke-miterlimit="10"
   points="    90.04,283.6 90.04,275.44 90.04,275.38   "
   id="polyline6604"
   style="fill:none;stroke:#000000;stroke-width:2;stroke-linecap:round;stroke-linejoin:round;stroke-miterlimit:10" />
		
			<polyline
   stroke-miterlimit="10"
   points="    81.52,283.6 81.52,283.54 81.52,275.44 81.52,275.38   "
   id="polyline6606"
   style="fill:none;stroke:#000000;stroke-width:2;stroke-linecap:round;stroke-linejoin:round;stroke-miterlimit:10" />
		
			<line
   stroke-miterlimit="10"
   x1="90.040001"
   y1="283.60001"
   x2="203.44"
   y2="218.08"
   id="line6608"
   style="fill:none;stroke:#000000;stroke-width:2;stroke-linecap:round;stroke-linejoin:round;stroke-miterlimit:10" />
		
			<line
   stroke-miterlimit="10"
   x1="203.44"
   y1="218.14"
   x2="207.64"
   y2="220.60001"
   id="line6610"
   style="fill:none;stroke:#000000;stroke-width:2;stroke-linecap:round;stroke-linejoin:round;stroke-miterlimit:10" />
		
			<line
   stroke-miterlimit="10"
   x1="203.44"
   y1="209.98"
   x2="207.64"
   y2="212.44"
   id="line6612"
   style="fill:none;stroke:#000000;stroke-width:2;stroke-linecap:round;stroke-linejoin:round;stroke-miterlimit:10" />
		
			<line
   stroke-miterlimit="10"
   x1="81.519997"
   y1="283.60001"
   x2="90.040001"
   y2="283.60001"
   id="line6614"
   style="fill:none;stroke:#000000;stroke-width:2;stroke-linecap:round;stroke-linejoin:round;stroke-miterlimit:10" />
		
			<line
   stroke-miterlimit="10"
   x1="78.699997"
   y1="285.22"
   x2="81.519997"
   y2="283.54001"
   id="line6616"
   style="fill:none;stroke:#000000;stroke-width:2;stroke-linecap:round;stroke-linejoin:round;stroke-miterlimit:10" />
		
			<line
   stroke-miterlimit="10"
   x1="73.059998"
   y1="281.98001"
   x2="78.699997"
   y2="285.22"
   id="line6618"
   style="fill:none;stroke:#000000;stroke-width:2;stroke-linecap:round;stroke-linejoin:round;stroke-miterlimit:10" />
		
			<polyline
   stroke-miterlimit="10"
   points="    207.64,220.6 260.35,190.14 292.63,171.48 292.66,171.459   "
   id="polyline6620"
   style="fill:none;stroke:#000000;stroke-width:2;stroke-linecap:round;stroke-linejoin:round;stroke-miterlimit:10" />
		
			<line
   stroke-miterlimit="10"
   x1="90.040001"
   y1="275.44"
   x2="203.44"
   y2="209.91901"
   id="line6622"
   style="fill:none;stroke:#000000;stroke-width:2;stroke-linecap:round;stroke-linejoin:round;stroke-miterlimit:10" />
		
			<line
   stroke-miterlimit="10"
   x1="81.519997"
   y1="275.44"
   x2="90.040001"
   y2="275.44"
   id="line6624"
   style="fill:none;stroke:#000000;stroke-width:2;stroke-linecap:round;stroke-linejoin:round;stroke-miterlimit:10" />
		
			<line
   stroke-miterlimit="10"
   x1="78.699997"
   y1="277.06"
   x2="81.519997"
   y2="275.38"
   id="line6626"
   style="fill:none;stroke:#000000;stroke-width:2;stroke-linecap:round;stroke-linejoin:round;stroke-miterlimit:10" />
		
			<polyline
   stroke-miterlimit="10"
   points="    73.06,281.98 73.06,273.76 73.06,273.73 73.06,273.7   "
   id="polyline6628"
   style="fill:none;stroke:#000000;stroke-width:2;stroke-linecap:round;stroke-linejoin:round;stroke-miterlimit:10" />
		
			<polyline
   stroke-miterlimit="10"
   points="    75.88,272.14 73.06,273.73 73,273.76   "
   id="polyline6630"
   style="fill:none;stroke:#000000;stroke-width:2;stroke-linecap:round;stroke-linejoin:round;stroke-miterlimit:10" />
		
			<line
   stroke-miterlimit="10"
   x1="75.879997"
   y1="267.22"
   x2="75.879997"
   y2="272.14001"
   id="line6632"
   style="fill:none;stroke:#000000;stroke-width:2;stroke-linecap:round;stroke-linejoin:round;stroke-miterlimit:10" />
		
			<polyline
   stroke-miterlimit="10"
   points="    189.22,201.76 185.02,204.18 75.87,267.19 75.82,267.22   "
   id="polyline6634"
   style="fill:none;stroke:#000000;stroke-width:2;stroke-linecap:round;stroke-linejoin:round;stroke-miterlimit:10" />
		
			<line
   stroke-miterlimit="10"
   x1="185.02"
   y1="199.36"
   x2="189.22"
   y2="201.75999"
   id="line6636"
   style="fill:none;stroke:#000000;stroke-width:2;stroke-linecap:round;stroke-linejoin:round;stroke-miterlimit:10" />
		
			<polyline
   stroke-miterlimit="10"
   points="    185.02,204.22 185.02,204.18 185.02,199.36 185.02,199.33 185.02,199.3   "
   id="polyline6638"
   style="fill:none;stroke:#000000;stroke-width:2;stroke-linecap:round;stroke-linejoin:round;stroke-miterlimit:10" />
		
			<line
   stroke-miterlimit="10"
   x1="73.059998"
   y1="273.76001"
   x2="78.699997"
   y2="277.06"
   id="line6640"
   style="fill:none;stroke:#000000;stroke-width:2;stroke-linecap:round;stroke-linejoin:round;stroke-miterlimit:10" />
		
			<polyline
   stroke-miterlimit="10"
   points="    270.04,150.22 262.92,154.33 230.59,173 185.02,199.33 184.96,199.36   "
   id="polyline6642"
   style="fill:none;stroke:#000000;stroke-width:2;stroke-linecap:round;stroke-linejoin:round;stroke-miterlimit:10" />
		
			<polyline
   stroke-miterlimit="10"
   points="    207.64,212.44 292.61,163.33 292.66,163.3   "
   id="polyline6644"
   style="fill:none;stroke:#000000;stroke-width:2;stroke-linecap:round;stroke-linejoin:round;stroke-miterlimit:10" />
		
			<polyline
   stroke-miterlimit="10"
   points="    203.44,218.14 203.44,218.08 203.44,209.98 203.44,209.919   "
   id="polyline6646"
   style="fill:none;stroke:#000000;stroke-width:2;stroke-linecap:round;stroke-linejoin:round;stroke-miterlimit:10" />
		
			<polyline
   stroke-miterlimit="10"
   points="    207.64,220.6 207.64,212.44 207.64,212.38   "
   id="polyline6648"
   style="fill:none;stroke:#000000;stroke-width:2;stroke-linecap:round;stroke-linejoin:round;stroke-miterlimit:10" />
		
			<polyline
   stroke-miterlimit="10"
   points="    78.7,285.22 78.7,277.06 78.7,277   "
   id="polyline6650"
   style="fill:none;stroke:#000000;stroke-width:2;stroke-linecap:round;stroke-linejoin:round;stroke-miterlimit:10" />
		
			<polyline
   stroke-miterlimit="10"
   points="    342.46,26.8 342.48,26.79 362.25,15.32 362.32,15.28   "
   id="polyline6652"
   style="fill:none;stroke:#000000;stroke-width:2;stroke-linecap:round;stroke-linejoin:round;stroke-miterlimit:10" />
		
			<polyline
   stroke-miterlimit="10"
   points="    415.42,1 528.73,66.44 528.76,66.46   "
   id="polyline6654"
   style="fill:none;stroke:#000000;stroke-width:2;stroke-linecap:round;stroke-linejoin:round;stroke-miterlimit:10" />
		
			<line
   stroke-miterlimit="10"
   x1="443.73001"
   y1="131.89"
   x2="443.67999"
   y2="131.92"
   id="line6656"
   style="fill:none;stroke:#000000;stroke-width:2;stroke-linecap:round;stroke-linejoin:round;stroke-miterlimit:10" />
		
			<line
   stroke-miterlimit="10"
   x1="503.98001"
   y1="97.120003"
   x2="443.73999"
   y2="131.89"
   id="line6658"
   style="fill:none;stroke:#000000;stroke-width:2;stroke-linecap:round;stroke-linejoin:round;stroke-miterlimit:10" />
		
			<polyline
   stroke-miterlimit="10"
   points="    503.98,117.58 443.74,152.35 443.68,152.38   "
   id="polyline6660"
   style="fill:none;stroke:#000000;stroke-width:2;stroke-linecap:round;stroke-linejoin:round;stroke-miterlimit:10" />
		
			<polyline
   stroke-miterlimit="10"
   points="    503.98,97.12 528.73,66.44 528.76,66.4   "
   id="polyline6662"
   style="fill:none;stroke:#000000;stroke-width:2;stroke-linecap:round;stroke-linejoin:round;stroke-miterlimit:10" />
		
			<polyline
   stroke-miterlimit="10"
   points="    528.76,86.92 528.76,86.86 528.76,66.46 528.76,66.4   "
   id="polyline6664"
   style="fill:none;stroke:#000000;stroke-width:2;stroke-linecap:round;stroke-linejoin:round;stroke-miterlimit:10" />
		
			<polyline
   stroke-miterlimit="10"
   points="    503.98,117.58 503.98,97.12 503.98,97.06   "
   id="polyline6666"
   style="fill:none;stroke:#000000;stroke-width:2;stroke-linecap:round;stroke-linejoin:round;stroke-miterlimit:10" />
		<path
   stroke-miterlimit="10"
   d="M 434.8,83.8 C 434.82,83.8 434.829,83.8 434.85,83.79 C 443.13,82.59 454.01,78.7 459.86,71.78 C 460.84,70.63 461.68,69.4 462.34,68.08 C 466.869,59.29 461.43,51.02 453.94,46.24 C 436.88,34.72 400.35,35.31 387.06,52.52 C 387.05,52.53 387.05,52.53 387.04,52.54"
   id="path6668"
   style="fill:none;stroke:#000000;stroke-width:2;stroke-linecap:round;stroke-linejoin:round;stroke-miterlimit:10" />
		
			<line
   stroke-miterlimit="10"
   x1="415.42001"
   y1="1"
   x2="362.26001"
   y2="15.34"
   id="line6670"
   style="fill:none;stroke:#000000;stroke-width:2;stroke-linecap:round;stroke-linejoin:round;stroke-miterlimit:10" />
		
			<line
   stroke-miterlimit="10"
   x1="503.98001"
   y1="117.58"
   x2="528.76001"
   y2="86.860001"
   id="line6672"
   style="fill:none;stroke:#000000;stroke-width:2;stroke-linecap:round;stroke-linejoin:round;stroke-miterlimit:10" />
		<path
   stroke-miterlimit="10"
   d="M 459.88,71.8 C 459.869,71.79 459.869,71.79 459.859,71.78 C 447.38,57.87 420.29,56.2 403.589,62.06 C 403.568,62.07 403.559,62.07 403.539,62.08"
   id="path6674"
   style="fill:none;stroke:#000000;stroke-width:2;stroke-linecap:round;stroke-linejoin:round;stroke-miterlimit:10" />
		
			<line
   stroke-miterlimit="10"
   x1="314.67999"
   y1="184.17999"
   x2="314.01999"
   y2="175.66"
   id="line6676"
   style="fill:none;stroke:#000000;stroke-width:2;stroke-linecap:round;stroke-linejoin:round;stroke-miterlimit:10" />
		
			<polyline
   stroke-miterlimit="10"
   points="    314.02,175.66 314.02,175.6 314.02,148.96 314.02,148.93 314.02,148.9   "
   id="polyline6678"
   style="fill:none;stroke:#000000;stroke-width:2;stroke-linecap:round;stroke-linejoin:round;stroke-miterlimit:10" />
		
			<line
   stroke-miterlimit="10"
   x1="314.67999"
   y1="184.17999"
   x2="317.73999"
   y2="204.64"
   id="line6680"
   style="fill:none;stroke:#000000;stroke-width:2;stroke-linecap:round;stroke-linejoin:round;stroke-miterlimit:10" />
		
			<polyline
   stroke-miterlimit="10"
   points="    319.3,224.2 317.74,204.64 317.74,204.58   "
   id="polyline6682"
   style="fill:none;stroke:#000000;stroke-width:2;stroke-linecap:round;stroke-linejoin:round;stroke-miterlimit:10" />
		
			<polyline
   stroke-miterlimit="10"
   points="    234.04,129.46 256.67,142.51 256.72,142.54   "
   id="polyline6684"
   style="fill:none;stroke:#000000;stroke-width:2;stroke-linecap:round;stroke-linejoin:round;stroke-miterlimit:10" />
		
			<polyline
   stroke-miterlimit="10"
   points="    198.04,108.7 220.67,121.75 220.72,121.78   "
   id="polyline6686"
   style="fill:none;stroke:#000000;stroke-width:2;stroke-linecap:round;stroke-linejoin:round;stroke-miterlimit:10" />
		
			<polyline
   stroke-miterlimit="10"
   points="    270.04,150.22 292.61,163.33 292.66,163.36   "
   id="polyline6688"
   style="fill:none;stroke:#000000;stroke-width:2;stroke-linecap:round;stroke-linejoin:round;stroke-miterlimit:10" />
		
			<polyline
   stroke-miterlimit="10"
   points="    190.96,112.78 176.08,104.18 176.02,104.14   "
   id="polyline6690"
   style="fill:none;stroke:#000000;stroke-width:2;stroke-linecap:round;stroke-linejoin:round;stroke-miterlimit:10" />
		
			<polyline
   stroke-miterlimit="10"
   points="    226.96,133.54 220.72,129.91 220.69,129.9 220.66,129.88   "
   id="polyline6692"
   style="fill:none;stroke:#000000;stroke-width:2;stroke-linecap:round;stroke-linejoin:round;stroke-miterlimit:10" />
		
			<polyline
   stroke-miterlimit="10"
   points="    262.96,154.36 262.92,154.33 256.72,150.73 256.69,150.72 256.66,150.7   "
   id="polyline6694"
   style="fill:none;stroke:#000000;stroke-width:2;stroke-linecap:round;stroke-linejoin:round;stroke-miterlimit:10" />
		
			<polyline
   stroke-miterlimit="10"
   points="    256.72,142.54 256.72,150.7 256.72,150.73 256.72,150.76   "
   id="polyline6696"
   style="fill:none;stroke:#000000;stroke-width:2;stroke-linecap:round;stroke-linejoin:round;stroke-miterlimit:10" />
		
			<polyline
   stroke-miterlimit="10"
   points="    220.72,121.78 220.72,129.88 220.72,129.91 220.72,129.94   "
   id="polyline6698"
   style="fill:none;stroke:#000000;stroke-width:2;stroke-linecap:round;stroke-linejoin:round;stroke-miterlimit:10" />
		
			<polyline
   stroke-miterlimit="10"
   points="    314.68,184.18 292.66,171.49 292.63,171.48 292.6,171.459   "
   id="polyline6700"
   style="fill:none;stroke:#000000;stroke-width:2;stroke-linecap:round;stroke-linejoin:round;stroke-miterlimit:10" />
		
			<polyline
   stroke-miterlimit="10"
   points="    292.66,163.36 292.66,171.459 292.66,171.49 292.66,171.52   "
   id="polyline6702"
   style="fill:none;stroke:#000000;stroke-width:2;stroke-linecap:round;stroke-linejoin:round;stroke-miterlimit:10" />
		
			<polyline
   stroke-miterlimit="10"
   points="    180.4,71.8 313.99,148.94 314.02,148.96   "
   id="polyline6704"
   style="fill:none;stroke:#000000;stroke-width:2;stroke-linecap:round;stroke-linejoin:round;stroke-miterlimit:10" />
		
			<line
   stroke-miterlimit="10"
   x1="180.39"
   y1="71.769997"
   x2="180.34"
   y2="71.800003"
   id="line6706"
   style="fill:none;stroke:#000000;stroke-width:2;stroke-linecap:round;stroke-linejoin:round;stroke-miterlimit:10" />
		
			<line
   stroke-miterlimit="10"
   x1="300.39999"
   y1="2.5"
   x2="180.39999"
   y2="71.769997"
   id="line6708"
   style="fill:none;stroke:#000000;stroke-width:2;stroke-linecap:round;stroke-linejoin:round;stroke-miterlimit:10" />
		
			<polyline
   stroke-miterlimit="10"
   points="    300.4,2.5 342.48,26.79 387.06,52.52 403.59,62.06 434.08,79.66   "
   id="polyline6710"
   style="fill:none;stroke:#000000;stroke-width:2;stroke-linecap:round;stroke-linejoin:round;stroke-miterlimit:10" />
		
			<line
   stroke-miterlimit="10"
   x1="176.08"
   y1="104.2"
   x2="176.08"
   y2="121.36"
   id="line6712"
   style="fill:none;stroke:#000000;stroke-width:2;stroke-linecap:round;stroke-linejoin:round;stroke-miterlimit:10" />
		
			<polyline
   stroke-miterlimit="10"
   points="    194.62,152.2 188.38,148.57 188.32,148.54   "
   id="polyline6714"
   style="fill:none;stroke:#000000;stroke-width:2;stroke-linecap:round;stroke-linejoin:round;stroke-miterlimit:10" />
		
			<polyline
   stroke-miterlimit="10"
   points="    230.62,173.02 230.59,173 224.38,169.39 224.32,169.36   "
   id="polyline6716"
   style="fill:none;stroke:#000000;stroke-width:2;stroke-linecap:round;stroke-linejoin:round;stroke-miterlimit:10" />
		
			<polyline
   stroke-miterlimit="10"
   points="    319.3,224.2 260.35,190.14 260.32,190.12   "
   id="polyline6718"
   style="fill:none;stroke:#000000;stroke-width:2;stroke-linecap:round;stroke-linejoin:round;stroke-miterlimit:10" />
		
			<polyline
   stroke-miterlimit="10"
   points="    176.08,104.2 176.08,104.18 176.68,96.34 176.68,96.28   "
   id="polyline6720"
   style="fill:none;stroke:#000000;stroke-width:2;stroke-linecap:round;stroke-linejoin:round;stroke-miterlimit:10" />
		
			<polyline
   stroke-miterlimit="10"
   points="    443.74,131.89 443.73,131.89 443.73,131.87 434.85,83.79 434.09,79.66 434.08,79.6   "
   id="polyline6722"
   style="fill:none;stroke:#000000;stroke-width:2;stroke-linecap:round;stroke-linejoin:round;stroke-miterlimit:10" />
		
			<polyline
   stroke-miterlimit="10"
   points="    176.68,96.34 180.39,71.8 180.39,71.77 180.4,71.77 180.4,71.74   "
   id="polyline6724"
   style="fill:none;stroke:#000000;stroke-width:2;stroke-linecap:round;stroke-linejoin:round;stroke-miterlimit:10" />
		
			<line
   stroke-miterlimit="10"
   x1="292.66"
   y1="163.36"
   x2="314.01999"
   y2="175.66"
   id="line6726"
   style="fill:none;stroke:#000000;stroke-width:2;stroke-linecap:round;stroke-linejoin:round;stroke-miterlimit:10" />
		
			<line
   stroke-miterlimit="10"
   x1="256.72"
   y1="142.53999"
   x2="270.04001"
   y2="150.22"
   id="line6728"
   style="fill:none;stroke:#000000;stroke-width:2;stroke-linecap:round;stroke-linejoin:round;stroke-miterlimit:10" />
		
			<line
   stroke-miterlimit="10"
   x1="220.72"
   y1="121.78"
   x2="234.03999"
   y2="129.46001"
   id="line6730"
   style="fill:none;stroke:#000000;stroke-width:2;stroke-linecap:round;stroke-linejoin:round;stroke-miterlimit:10" />
		
			<line
   stroke-miterlimit="10"
   x1="176.67999"
   y1="96.339996"
   x2="198.03999"
   y2="108.7"
   id="line6732"
   style="fill:none;stroke:#000000;stroke-width:2;stroke-linecap:round;stroke-linejoin:round;stroke-miterlimit:10" />
		
			<polyline
   stroke-miterlimit="10"
   points="    434.08,79.66 314.02,148.93 313.99,148.94 313.96,148.96   "
   id="polyline6734"
   style="fill:none;stroke:#000000;stroke-width:2;stroke-linecap:round;stroke-linejoin:round;stroke-miterlimit:10" />
		
			<polyline
   stroke-miterlimit="10"
   points="    317.74,204.64 443.73,131.87 443.74,131.86   "
   id="polyline6736"
   style="fill:none;stroke:#000000;stroke-width:2;stroke-linecap:round;stroke-linejoin:round;stroke-miterlimit:10" />
		
			<polyline
   stroke-miterlimit="10"
   points="    443.74,152.38 443.74,152.35 443.74,152.32 443.74,131.92 443.74,131.89 443.74,131.86   "
   id="polyline6738"
   style="fill:none;stroke:#000000;stroke-width:2;stroke-linecap:round;stroke-linejoin:round;stroke-miterlimit:10" />
		
			<line
   stroke-miterlimit="10"
   x1="319.29999"
   y1="224.2"
   x2="443.73999"
   y2="152.32001"
   id="line6740"
   style="fill:none;stroke:#000000;stroke-width:2;stroke-linecap:round;stroke-linejoin:round;stroke-miterlimit:10" />
	</g>
</g></svg>