<?xml version="1.0" encoding="UTF-8" standalone="no"?>
<!-- Created with Inkscape (http://www.inkscape.org/) -->
<svg
   xmlns:dc="http://purl.org/dc/elements/1.1/"
   xmlns:cc="http://web.resource.org/cc/"
   xmlns:rdf="http://www.w3.org/1999/02/22-rdf-syntax-ns#"
   xmlns:svg="http://www.w3.org/2000/svg"
   xmlns="http://www.w3.org/2000/svg"
   xmlns:sodipodi="http://sodipodi.sourceforge.net/DTD/sodipodi-0.dtd"
   xmlns:inkscape="http://www.inkscape.org/namespaces/inkscape"
   width="275"
   height="175"
   id="svg2457"
   sodipodi:version="0.32"
   inkscape:version="0.45.1"
   version="1.0"
   sodipodi:docbase="C:\Documents and Settings\JJB\My Documents"
   sodipodi:docname="TO-226 Front.svg"
   inkscape:output_extension="org.inkscape.output.svg.inkscape">
  <defs
     id="defs2459" />
  <sodipodi:namedview
     id="base"
     pagecolor="#ffffff"
     bordercolor="#666666"
     borderopacity="1.0"
     gridtolerance="10000"
     guidetolerance="10"
     objecttolerance="10"
     inkscape:pageopacity="0.0"
     inkscape:pageshadow="2"
     inkscape:zoom="3.959798"
     inkscape:cx="128.38682"
     inkscape:cy="72.266007"
     inkscape:document-units="px"
     inkscape:current-layer="g5738"
     width="175px"
     height="175px"
     inkscape:window-width="1605"
     inkscape:window-height="1024"
     inkscape:window-x="1511"
     inkscape:window-y="-4" />
  <metadata
     id="metadata2462">
    <rdf:RDF>
      <cc:Work
         rdf:about="">
        <dc:format>image/svg+xml</dc:format>
        <dc:type
           rdf:resource="http://purl.org/dc/dcmitype/StillImage" />
      </cc:Work>
    </rdf:RDF>
  </metadata>
  <g
     inkscape:label="Layer 1"
     inkscape:groupmode="layer"
     id="layer1">
    <g
       id="XMLID_2_"
       transform="translate(9.457206,4.82)">
	<g
   id="g5738">
		<polygon
   id="polygon5740"
   points="176.28,65.54 176.25,65.56 138.17,43.53 212.34,0.78 212.351,0.76 250.44,22.74 176.28,65.54 "
   style="fill:#424242;fill-opacity:1" />

		<polygon
   id="polygon5742"
   points="5.4,144.9 5.4,150 0.78,147.331 0.78,142.26 5.4,144.9 "
   style="fill:#efeeef;fill-opacity:1" />

		<polygon
   id="polygon5744"
   points="18.12,152.22 18.12,157.32 13.5,154.65 13.5,149.581 18.12,152.22 "
   style="fill:#efeeef;fill-opacity:1" />

		<polygon
   id="polygon5746"
   points="30.84,159.6 30.84,164.64 26.22,161.97 26.22,156.9 30.84,159.6 "
   style="fill:#efeeef;fill-opacity:1" />

		<polygon
   id="polygon5748"
   points="122.64,77.22 122.64,82.26 5.4,150 5.4,144.9 122.64,77.16 122.64,77.22 "
   style="fill:#efeeef;fill-opacity:1" />

		<polygon
   id="polygon5750"
   points="123.84,77.94 123.84,82.98 122.64,82.32 122.64,82.26 122.64,77.22 123.84,77.94 "
   style="fill:#efeeef;fill-opacity:1" />

		<polygon
   id="polygon5752"
   points="134.271,65.18 141.061,61.24 145.66,63.89 130.7,72.59 131.83,73.23 123.84,77.94 122.64,77.22 122.64,77.16 5.4,144.9 0.78,142.26 116.82,75.21 117.97,74.55 116.82,73.86 116.82,73.83 124.86,69.24 124.87,69.22 126.061,69.96 134.271,65.18 "
   style="fill:#efeeef;fill-opacity:1" />

		<polygon
   id="polygon5754"
   points="135.36,84.54 135.36,89.58 18.12,157.32 18.12,152.22 135.36,84.48 135.36,84.54 "
   style="fill:#efeeef;fill-opacity:1" />

		<polygon
   id="polygon5756"
   points="131.88,76.98 131.88,78.3 123.84,82.98 123.84,77.94 131.83,73.23 131.88,73.26 131.88,76.98 "
   style="fill:#efeeef;fill-opacity:1" />

		<polygon
   id="polygon5758"
   points="130.69,81.87 129.541,82.53 129.541,81.18 130.69,81.87 "
   style="fill:#efeeef;fill-opacity:1" />

		<polygon
   id="polygon5760"
   points="137.181,73.9 131.88,76.98 131.88,73.26 131.88,73.2 131.83,73.23 130.7,72.59 145.66,63.89 145.74,63.94 145.74,68.94 137.181,73.9 "
   style="fill:#efeeef;fill-opacity:1" />

		<polygon
   id="polygon5762"
   points="143.36,79.91 144.49,80.61 136.561,85.26 135.36,84.54 135.36,84.48 18.12,152.22 13.5,149.581 129.541,82.53 130.69,81.87 129.541,81.18 129.541,81.15 137.58,76.56 137.59,76.54 138.78,77.28 138.811,77.26 153.761,68.57 158.33,71.2 143.36,79.91 "
   style="fill:#efeeef;fill-opacity:1" />

		<polygon
   id="polygon5764"
   points="133.2,56.7 141.061,61.24 134.271,65.18 133.8,63 133.44,60.84 133.26,58.74 133.2,56.7 "
   style="fill:#424242;fill-opacity:1" />

		<polygon
   id="polygon5766"
   points="144.54,80.58 144.49,80.61 143.36,79.91 158.33,71.2 158.4,71.25 158.4,76.26 144.54,84.36 144.54,80.64 144.54,80.58 "
   style="fill:#efeeef;fill-opacity:1" />

		<polygon
   id="polygon5768"
   points="144.54,84.36 144.54,85.68 144.351,85.79 136.561,90.36 136.561,85.26 144.49,80.61 144.54,80.64 144.54,84.36 "
   style="fill:#efeeef;fill-opacity:1" />

		<polygon
   id="polygon5770"
   points="150.24,83.94 145.21,86.83 145.2,86.82 144.351,85.79 144.54,85.68 144.54,84.36 158.4,76.26 158.4,71.25 166.431,75.88 151.44,84.6 150.25,83.92 150.24,83.94 "
   style="fill:#424242;fill-opacity:1" />

		<polygon
   id="polygon5772"
   points="148.08,91.92 148.08,96.9 30.84,164.64 30.84,159.6 148.08,91.86 148.08,91.92 "
   style="fill:#efeeef;fill-opacity:1" />

		<polygon
   id="polygon5774"
   points="143.41,89.19 142.261,88.56 142.261,88.53 145.21,86.83 150.24,83.94 150.25,83.92 151.44,84.6 166.431,75.88 166.44,75.88 169.78,77.81 170.19,78.05 171.07,78.57 156.08,87.23 157.21,87.93 149.221,92.58 148.08,91.92 148.08,91.86 30.84,159.6 26.22,156.9 142.261,89.85 143.41,89.19 "
   style="fill:#efeeef;fill-opacity:1" />

		<polygon
   id="polygon5776"
   points="145.74,68.94 145.74,63.94 153.761,68.57 138.811,77.26 138.78,77.22 137.181,73.9 145.74,68.94 "
   style="fill:#424242;fill-opacity:1" />

		<polygon
   id="polygon5778"
   points="157.261,87.9 157.21,87.93 156.08,87.23 171.07,78.57 171.12,78.6 171.12,83.58 157.261,91.68 157.261,87.96 157.261,87.9 "
   style="fill:#efeeef;fill-opacity:1" />

		<polygon
   id="polygon5780"
   points="157.261,91.68 157.261,93 153.891,94.96 149.221,97.68 149.221,92.58 157.21,87.93 157.261,87.96 157.261,91.68 "
   style="fill:#efeeef;fill-opacity:1" />

		<path
   id="path5782"
   d="M 179.011,83.14 L 179.04,83.16 C 178.96,90.59 176.42,95.51 172.48,97.86 C 167.7,100.7 160.879,99.78 153.9,94.98 L 153.89,94.96 L 157.26,93 L 157.26,91.68 L 171.119,83.58 L 171.119,78.6 L 171.069,78.57 L 171.079,78.56 L 171.1,78.57 L 179.011,83.14 z "
   style="fill:#424242;fill-opacity:1" />

		<path
   id="path5784"
   d="M 255.36,39.06 C 255.48,44.42 253.68,50.98 248.73,53.86 L 248.7,53.82 L 172.49,97.88 L 172.48,97.86 C 176.419,95.51 178.959,90.59 179.04,83.16 L 179.04,83.13 L 255.36,39.06 z "
   style="fill:#424242;fill-opacity:1" />

		<polygon
   id="polygon5786"
   points="250.46,22.74 255.36,39.06 179.04,83.13 176.28,65.54 250.44,22.74 250.46,22.74 "
   style="fill:#424242;fill-opacity:1" />

		<polygon
   id="polygon5788"
   points="145.74,63.9 145.69,63.87 141.09,61.22 141.08,61.23 133.21,56.68 138.17,43.53 176.25,65.56 176.28,65.54 179.04,83.13 179.011,83.14 171.101,78.57 171.09,78.56 171.08,78.56 170.19,78.05 169.78,77.81 166.471,75.86 166.44,75.88 166.431,75.88 158.4,71.23 158.4,71.22 158.351,71.19 153.811,68.54 153.771,68.56 145.74,63.92 145.74,63.9 "
   style="fill:#424242;fill-opacity:1" />

	</g>

	<g
   id="g5790">
		
			<polyline
   id="polyline5792"
   points="    166.44,75.88 166.471,75.86 166.5,75.84   "
   stroke-miterlimit="10"
   style="fill:none;stroke:#000000;stroke-width:1.44000006;stroke-linecap:round;stroke-linejoin:round;stroke-miterlimit:10" />

		
			<line
   id="line5794"
   y2="75.879997"
   x2="166.431"
   y1="84.599998"
   x1="151.44"
   stroke-miterlimit="10"
   style="fill:none;stroke:#000000;stroke-width:1.44000006;stroke-linecap:round;stroke-linejoin:round;stroke-miterlimit:10" />

		
			<line
   id="line5796"
   y2="96.900002"
   x2="148.08"
   y1="164.64"
   x1="30.84"
   stroke-miterlimit="10"
   style="fill:none;stroke:#000000;stroke-width:1.44000006;stroke-linecap:round;stroke-linejoin:round;stroke-miterlimit:10" />

		
			<polyline
   id="polyline5798"
   points="    30.84,164.64 26.22,161.97 26.16,161.94   "
   stroke-miterlimit="10"
   style="fill:none;stroke:#000000;stroke-width:1.44000006;stroke-linecap:round;stroke-linejoin:round;stroke-miterlimit:10" />

		
			<polyline
   id="polyline5800"
   points="    26.22,162 26.22,161.97 26.22,156.9 26.22,156.84   "
   stroke-miterlimit="10"
   style="fill:none;stroke:#000000;stroke-width:1.44000006;stroke-linecap:round;stroke-linejoin:round;stroke-miterlimit:10" />

		
			<polyline
   id="polyline5802"
   points="    142.261,89.94 142.261,89.85 142.261,88.56 142.261,88.53 142.261,88.5   "
   stroke-miterlimit="10"
   style="fill:none;stroke:#000000;stroke-width:1.44000006;stroke-linecap:round;stroke-linejoin:round;stroke-miterlimit:10" />

		
			<polyline
   id="polyline5804"
   points="    26.22,156.9 142.261,89.85 143.41,89.19 143.46,89.16   "
   stroke-miterlimit="10"
   style="fill:none;stroke:#000000;stroke-width:1.44000006;stroke-linecap:round;stroke-linejoin:round;stroke-miterlimit:10" />

		
			<polyline
   id="polyline5806"
   points="    142.261,88.56 143.41,89.19 143.46,89.22   "
   stroke-miterlimit="10"
   style="fill:none;stroke:#000000;stroke-width:1.44000006;stroke-linecap:round;stroke-linejoin:round;stroke-miterlimit:10" />

		
			<polyline
   id="polyline5808"
   points="    150.24,83.94 145.21,86.83 142.261,88.53 142.2,88.56   "
   stroke-miterlimit="10"
   style="fill:none;stroke:#000000;stroke-width:1.44000006;stroke-linecap:round;stroke-linejoin:round;stroke-miterlimit:10" />

		
			<line
   id="line5810"
   y2="164.64"
   x2="30.84"
   y1="159.60001"
   x1="30.84"
   stroke-miterlimit="10"
   style="fill:none;stroke:#000000;stroke-width:1.44000006;stroke-linecap:round;stroke-linejoin:round;stroke-miterlimit:10" />

		
			<polyline
   id="polyline5812"
   points="    148.08,96.96 148.08,96.9 148.08,91.92 148.08,91.86   "
   stroke-miterlimit="10"
   style="fill:none;stroke:#000000;stroke-width:1.44000006;stroke-linecap:round;stroke-linejoin:round;stroke-miterlimit:10" />

		
			<polyline
   id="polyline5814"
   points="    149.221,92.58 157.21,87.93 157.261,87.9   "
   stroke-miterlimit="10"
   style="fill:none;stroke:#000000;stroke-width:1.44000006;stroke-linecap:round;stroke-linejoin:round;stroke-miterlimit:10" />

		
			<line
   id="line5816"
   y2="159.60001"
   x2="30.84"
   y1="156.89999"
   x1="26.219999"
   stroke-miterlimit="10"
   style="fill:none;stroke:#000000;stroke-width:1.44000006;stroke-linecap:round;stroke-linejoin:round;stroke-miterlimit:10" />

		
			<line
   id="line5818"
   y2="92.580002"
   x2="149.22099"
   y1="91.919998"
   x1="148.08"
   stroke-miterlimit="10"
   style="fill:none;stroke:#000000;stroke-width:1.44000006;stroke-linecap:round;stroke-linejoin:round;stroke-miterlimit:10" />

		
			<polyline
   id="polyline5820"
   points="    149.221,97.68 149.221,92.58 149.221,92.52   "
   stroke-miterlimit="10"
   style="fill:none;stroke:#000000;stroke-width:1.44000006;stroke-linecap:round;stroke-linejoin:round;stroke-miterlimit:10" />

		
			<line
   id="line5822"
   y2="97.68"
   x2="149.22099"
   y1="96.959999"
   x1="148.08"
   stroke-miterlimit="10"
   style="fill:none;stroke:#000000;stroke-width:1.44000006;stroke-linecap:round;stroke-linejoin:round;stroke-miterlimit:10" />

		
			<polyline
   id="polyline5824"
   points="    144.54,80.64 144.49,80.61 143.36,79.91 143.28,79.86   "
   stroke-miterlimit="10"
   style="fill:none;stroke:#000000;stroke-width:1.44000006;stroke-linecap:round;stroke-linejoin:round;stroke-miterlimit:10" />

		
			<polyline
   id="polyline5826"
   points="    136.561,85.26 144.49,80.61 144.54,80.58   "
   stroke-miterlimit="10"
   style="fill:none;stroke:#000000;stroke-width:1.44000006;stroke-linecap:round;stroke-linejoin:round;stroke-miterlimit:10" />

		
			<polyline
   id="polyline5828"
   points="    144.54,85.74 144.54,85.68 144.54,84.36 144.54,80.64 144.54,80.58   "
   stroke-miterlimit="10"
   style="fill:none;stroke:#000000;stroke-width:1.44000006;stroke-linecap:round;stroke-linejoin:round;stroke-miterlimit:10" />

		
			<polyline
   id="polyline5830"
   points="    136.561,90.36 136.561,85.26 136.561,85.2   "
   stroke-miterlimit="10"
   style="fill:none;stroke:#000000;stroke-width:1.44000006;stroke-linecap:round;stroke-linejoin:round;stroke-miterlimit:10" />

		
			<polyline
   id="polyline5832"
   points="    136.561,90.36 144.351,85.79 144.54,85.68   "
   stroke-miterlimit="10"
   style="fill:none;stroke:#000000;stroke-width:1.44000006;stroke-linecap:round;stroke-linejoin:round;stroke-miterlimit:10" />

		
			<line
   id="line5834"
   y2="90.360001"
   x2="136.561"
   y1="89.639999"
   x1="135.36"
   stroke-miterlimit="10"
   style="fill:none;stroke:#000000;stroke-width:1.44000006;stroke-linecap:round;stroke-linejoin:round;stroke-miterlimit:10" />

		
			<polyline
   id="polyline5836"
   points="    137.58,76.56 129.541,81.15 129.48,81.18   "
   stroke-miterlimit="10"
   style="fill:none;stroke:#000000;stroke-width:1.44000006;stroke-linecap:round;stroke-linejoin:round;stroke-miterlimit:10" />

		
			<polyline
   id="polyline5838"
   points="    138.78,77.28 137.59,76.54 137.521,76.5   "
   stroke-miterlimit="10"
   style="fill:none;stroke:#000000;stroke-width:1.44000006;stroke-linecap:round;stroke-linejoin:round;stroke-miterlimit:10" />

		
			<polyline
   id="polyline5840"
   points="    129.541,82.56 129.541,82.53 129.541,81.18 129.541,81.15 129.541,81.12   "
   stroke-miterlimit="10"
   style="fill:none;stroke:#000000;stroke-width:1.44000006;stroke-linecap:round;stroke-linejoin:round;stroke-miterlimit:10" />

		
			<polyline
   id="polyline5842"
   points="    129.541,81.18 130.69,81.87 130.74,81.9   "
   stroke-miterlimit="10"
   style="fill:none;stroke:#000000;stroke-width:1.44000006;stroke-linecap:round;stroke-linejoin:round;stroke-miterlimit:10" />

		
			<polyline
   id="polyline5844"
   points="    135.36,89.64 135.36,89.58 135.36,84.54 135.36,84.48   "
   stroke-miterlimit="10"
   style="fill:none;stroke:#000000;stroke-width:1.44000006;stroke-linecap:round;stroke-linejoin:round;stroke-miterlimit:10" />

		
			<polyline
   id="polyline5846"
   points="    158.4,71.22 158.4,71.23 158.4,71.25 158.4,76.26 158.4,76.32   "
   stroke-miterlimit="10"
   style="fill:none;stroke:#000000;stroke-width:1.44000006;stroke-linecap:round;stroke-linejoin:round;stroke-miterlimit:10" />

		
			<line
   id="line5848"
   y2="85.260002"
   x2="136.561"
   y1="84.540001"
   x1="135.36"
   stroke-miterlimit="10"
   style="fill:none;stroke:#000000;stroke-width:1.44000006;stroke-linecap:round;stroke-linejoin:round;stroke-miterlimit:10" />

		
			<line
   id="line5850"
   y2="152.22"
   x2="18.120001"
   y1="149.58099"
   x1="13.5"
   stroke-miterlimit="10"
   style="fill:none;stroke:#000000;stroke-width:1.44000006;stroke-linecap:round;stroke-linejoin:round;stroke-miterlimit:10" />

		
			<polyline
   id="polyline5852"
   points="    158.34,71.2 158.351,71.19 158.4,71.16   "
   stroke-miterlimit="10"
   style="fill:none;stroke:#000000;stroke-width:1.44000006;stroke-linecap:round;stroke-linejoin:round;stroke-miterlimit:10" />

		
			<polyline
   id="polyline5854"
   points="    143.34,79.92 143.36,79.91 158.33,71.2   "
   stroke-miterlimit="10"
   style="fill:none;stroke:#000000;stroke-width:1.44000006;stroke-linecap:round;stroke-linejoin:round;stroke-miterlimit:10" />

		
			<line
   id="line5856"
   y2="157.32001"
   x2="18.120001"
   y1="152.22"
   x1="18.120001"
   stroke-miterlimit="10"
   style="fill:none;stroke:#000000;stroke-width:1.44000006;stroke-linecap:round;stroke-linejoin:round;stroke-miterlimit:10" />

		
			<polyline
   id="polyline5858"
   points="    18.12,157.32 13.5,154.65 13.44,154.621   "
   stroke-miterlimit="10"
   style="fill:none;stroke:#000000;stroke-width:1.44000006;stroke-linecap:round;stroke-linejoin:round;stroke-miterlimit:10" />

		
			<line
   id="line5860"
   y2="89.580002"
   x2="135.36"
   y1="157.32001"
   x1="18.120001"
   stroke-miterlimit="10"
   style="fill:none;stroke:#000000;stroke-width:1.44000006;stroke-linecap:round;stroke-linejoin:round;stroke-miterlimit:10" />

		
			<line
   id="line5862"
   y2="76.260002"
   x2="158.39999"
   y1="84.360001"
   x1="144.53999"
   stroke-miterlimit="10"
   style="fill:none;stroke:#000000;stroke-width:1.44000006;stroke-linecap:round;stroke-linejoin:round;stroke-miterlimit:10" />

		
			<line
   id="line5864"
   y2="84.480003"
   x2="135.36"
   y1="152.22"
   x1="18.120001"
   stroke-miterlimit="10"
   style="fill:none;stroke:#000000;stroke-width:1.44000006;stroke-linecap:round;stroke-linejoin:round;stroke-miterlimit:10" />

		
			<polyline
   id="polyline5866"
   points="    13.5,149.581 129.541,82.53 130.69,81.87 130.74,81.84   "
   stroke-miterlimit="10"
   style="fill:none;stroke:#000000;stroke-width:1.44000006;stroke-linecap:round;stroke-linejoin:round;stroke-miterlimit:10" />

		
			<polyline
   id="polyline5868"
   points="    138.78,77.28 138.811,77.26 153.761,68.57 153.771,68.56 153.811,68.54 153.84,68.52   "
   stroke-miterlimit="10"
   style="fill:none;stroke:#000000;stroke-width:1.44000006;stroke-linecap:round;stroke-linejoin:round;stroke-miterlimit:10" />

		
			<polyline
   id="polyline5870"
   points="    13.5,154.68 13.5,154.65 13.5,149.581 13.5,149.52   "
   stroke-miterlimit="10"
   style="fill:none;stroke:#000000;stroke-width:1.44000006;stroke-linecap:round;stroke-linejoin:round;stroke-miterlimit:10" />

		
			<polyline
   id="polyline5872"
   points="    149.221,97.68 153.891,94.96 157.261,93   "
   stroke-miterlimit="10"
   style="fill:none;stroke:#000000;stroke-width:1.44000006;stroke-linecap:round;stroke-linejoin:round;stroke-miterlimit:10" />

		
			<polyline
   id="polyline5874"
   points="    157.261,87.96 157.21,87.93 156.08,87.23 156,87.18   "
   stroke-miterlimit="10"
   style="fill:none;stroke:#000000;stroke-width:1.44000006;stroke-linecap:round;stroke-linejoin:round;stroke-miterlimit:10" />

		
			<line
   id="line5876"
   y2="91.860001"
   x2="148.08"
   y1="159.60001"
   x1="30.84"
   stroke-miterlimit="10"
   style="fill:none;stroke:#000000;stroke-width:1.44000006;stroke-linecap:round;stroke-linejoin:round;stroke-miterlimit:10" />

		
			<polyline
   id="polyline5878"
   points="    157.261,93.06 157.261,93 157.261,91.68 157.261,87.96 157.261,87.9   "
   stroke-miterlimit="10"
   style="fill:none;stroke:#000000;stroke-width:1.44000006;stroke-linecap:round;stroke-linejoin:round;stroke-miterlimit:10" />

		
			<line
   id="line5880"
   y2="83.580002"
   x2="171.12"
   y1="91.68"
   x1="157.261"
   stroke-miterlimit="10"
   style="fill:none;stroke:#000000;stroke-width:1.44000006;stroke-linecap:round;stroke-linejoin:round;stroke-miterlimit:10" />

		
			<polyline
   id="polyline5882"
   points="    151.44,84.6 150.25,83.92 150.181,83.88   "
   stroke-miterlimit="10"
   style="fill:none;stroke:#000000;stroke-width:1.44000006;stroke-linecap:round;stroke-linejoin:round;stroke-miterlimit:10" />

		
			<line
   id="line5884"
   y2="78.540001"
   x2="171.12"
   y1="78.559998"
   x1="171.09"
   stroke-miterlimit="10"
   style="fill:none;stroke:#000000;stroke-width:1.44000006;stroke-linecap:round;stroke-linejoin:round;stroke-miterlimit:10" />

		
			<polyline
   id="polyline5886"
   points="    156.061,87.24 156.08,87.23 171.07,78.57 171.08,78.56   "
   stroke-miterlimit="10"
   style="fill:none;stroke:#000000;stroke-width:1.44000006;stroke-linecap:round;stroke-linejoin:round;stroke-miterlimit:10" />

		
			<polyline
   id="polyline5888"
   points="    171.12,78.6 171.12,83.58 171.12,83.64   "
   stroke-miterlimit="10"
   style="fill:none;stroke:#000000;stroke-width:1.44000006;stroke-linecap:round;stroke-linejoin:round;stroke-miterlimit:10" />

		
			<polyline
   id="polyline5890"
   points="    169.78,77.81 166.471,75.86 166.44,75.84   "
   stroke-miterlimit="10"
   style="fill:none;stroke:#000000;stroke-width:1.44000006;stroke-linecap:round;stroke-linejoin:round;stroke-miterlimit:10" />

		
			<polyline
   id="polyline5892"
   points="    171.12,78.6 171.07,78.57 170.19,78.05   "
   stroke-miterlimit="10"
   style="fill:none;stroke:#000000;stroke-width:1.44000006;stroke-linecap:round;stroke-linejoin:round;stroke-miterlimit:10" />

		
			<polyline
   id="polyline5894"
   points="    131.88,78.36 131.88,78.3 131.88,76.98 131.88,73.26 131.88,73.2   "
   stroke-miterlimit="10"
   style="fill:none;stroke:#000000;stroke-width:1.44000006;stroke-linecap:round;stroke-linejoin:round;stroke-miterlimit:10" />

		
			<polyline
   id="polyline5896"
   points="    123.84,82.98 123.84,77.94 123.84,77.88   "
   stroke-miterlimit="10"
   style="fill:none;stroke:#000000;stroke-width:1.44000006;stroke-linecap:round;stroke-linejoin:round;stroke-miterlimit:10" />

		
			<line
   id="line5898"
   y2="78.300003"
   x2="131.88"
   y1="82.980003"
   x1="123.84"
   stroke-miterlimit="10"
   style="fill:none;stroke:#000000;stroke-width:1.44000006;stroke-linecap:round;stroke-linejoin:round;stroke-miterlimit:10" />

		
			<line
   id="line5900"
   y2="82.980003"
   x2="123.84"
   y1="82.32"
   x1="122.64"
   stroke-miterlimit="10"
   style="fill:none;stroke:#000000;stroke-width:1.44000006;stroke-linecap:round;stroke-linejoin:round;stroke-miterlimit:10" />

		
			<polyline
   id="polyline5902"
   points="    158.4,71.22 158.351,71.19 153.811,68.54 153.78,68.52   "
   stroke-miterlimit="10"
   style="fill:none;stroke:#000000;stroke-width:1.44000006;stroke-linecap:round;stroke-linejoin:round;stroke-miterlimit:10" />

		
			<polyline
   id="polyline5904"
   points="    116.82,75.24 116.82,75.21 116.82,73.86 116.82,73.83 116.82,73.8   "
   stroke-miterlimit="10"
   style="fill:none;stroke:#000000;stroke-width:1.44000006;stroke-linecap:round;stroke-linejoin:round;stroke-miterlimit:10" />

		
			<line
   id="line5906"
   y2="82.260002"
   x2="122.64"
   y1="150"
   x1="5.4000001"
   stroke-miterlimit="10"
   style="fill:none;stroke:#000000;stroke-width:1.44000006;stroke-linecap:round;stroke-linejoin:round;stroke-miterlimit:10" />

		
			<line
   id="line5908"
   y2="150"
   x2="5.4000001"
   y1="144.89999"
   x1="5.4000001"
   stroke-miterlimit="10"
   style="fill:none;stroke:#000000;stroke-width:1.44000006;stroke-linecap:round;stroke-linejoin:round;stroke-miterlimit:10" />

		
			<polyline
   id="polyline5910"
   points="    122.64,82.32 122.64,82.26 122.64,77.22 122.64,77.16   "
   stroke-miterlimit="10"
   style="fill:none;stroke:#000000;stroke-width:1.44000006;stroke-linecap:round;stroke-linejoin:round;stroke-miterlimit:10" />

		
			<polyline
   id="polyline5912"
   points="    5.4,150 0.78,147.331 0.72,147.3   "
   stroke-miterlimit="10"
   style="fill:none;stroke:#000000;stroke-width:1.44000006;stroke-linecap:round;stroke-linejoin:round;stroke-miterlimit:10" />

		
			<polyline
   id="polyline5914"
   points="    123.84,77.94 131.83,73.23 131.88,73.2   "
   stroke-miterlimit="10"
   style="fill:none;stroke:#000000;stroke-width:1.44000006;stroke-linecap:round;stroke-linejoin:round;stroke-miterlimit:10" />

		
			<polyline
   id="polyline5916"
   points="    0.78,142.26 116.82,75.21 117.97,74.55 118.021,74.52   "
   stroke-miterlimit="10"
   style="fill:none;stroke:#000000;stroke-width:1.44000006;stroke-linecap:round;stroke-linejoin:round;stroke-miterlimit:10" />

		
			<polyline
   id="polyline5918"
   points="    116.82,73.86 117.97,74.55 118.021,74.58   "
   stroke-miterlimit="10"
   style="fill:none;stroke:#000000;stroke-width:1.44000006;stroke-linecap:round;stroke-linejoin:round;stroke-miterlimit:10" />

		
			<polyline
   id="polyline5920"
   points="    124.86,69.24 116.82,73.83 116.76,73.86   "
   stroke-miterlimit="10"
   style="fill:none;stroke:#000000;stroke-width:1.44000006;stroke-linecap:round;stroke-linejoin:round;stroke-miterlimit:10" />

		
			<polyline
   id="polyline5922"
   points="    0.78,147.36 0.78,147.331 0.78,142.26 0.78,142.201   "
   stroke-miterlimit="10"
   style="fill:none;stroke:#000000;stroke-width:1.44000006;stroke-linecap:round;stroke-linejoin:round;stroke-miterlimit:10" />

		
			<polyline
   id="polyline5924"
   points="    131.88,73.26 131.83,73.23 130.7,72.59 130.62,72.54   "
   stroke-miterlimit="10"
   style="fill:none;stroke:#000000;stroke-width:1.44000006;stroke-linecap:round;stroke-linejoin:round;stroke-miterlimit:10" />

		
			<line
   id="line5926"
   y2="77.940002"
   x2="123.84"
   y1="77.220001"
   x1="122.64"
   stroke-miterlimit="10"
   style="fill:none;stroke:#000000;stroke-width:1.44000006;stroke-linecap:round;stroke-linejoin:round;stroke-miterlimit:10" />

		
			<line
   id="line5928"
   y2="77.160004"
   x2="122.64"
   y1="144.89999"
   x1="5.4000001"
   stroke-miterlimit="10"
   style="fill:none;stroke:#000000;stroke-width:1.44000006;stroke-linecap:round;stroke-linejoin:round;stroke-miterlimit:10" />

		
			<line
   id="line5930"
   y2="144.89999"
   x2="5.4000001"
   y1="142.25999"
   x1="0.77999997"
   stroke-miterlimit="10"
   style="fill:none;stroke:#000000;stroke-width:1.44000006;stroke-linecap:round;stroke-linejoin:round;stroke-miterlimit:10" />

		
			<polyline
   id="polyline5932"
   points="    126.061,69.96 124.87,69.22 124.8,69.18   "
   stroke-miterlimit="10"
   style="fill:none;stroke:#000000;stroke-width:1.44000006;stroke-linecap:round;stroke-linejoin:round;stroke-miterlimit:10" />

		
			<polyline
   id="polyline5934"
   points="    126.061,69.96 134.271,65.18 141.061,61.24 141.08,61.23 141.09,61.22 141.12,61.2   "
   stroke-miterlimit="10"
   style="fill:none;stroke:#000000;stroke-width:1.44000006;stroke-linecap:round;stroke-linejoin:round;stroke-miterlimit:10" />

		
			<polyline
   id="polyline5936"
   points="    145.74,63.9 145.69,63.87 141.09,61.22 141.061,61.2   "
   stroke-miterlimit="10"
   style="fill:none;stroke:#000000;stroke-width:1.44000006;stroke-linecap:round;stroke-linejoin:round;stroke-miterlimit:10" />

		
			<polyline
   id="polyline5938"
   points="    130.68,72.6 130.7,72.59 145.66,63.89 145.67,63.88 145.69,63.87 145.74,63.84   "
   stroke-miterlimit="10"
   style="fill:none;stroke:#000000;stroke-width:1.44000006;stroke-linecap:round;stroke-linejoin:round;stroke-miterlimit:10" />

		
			<polyline
   id="polyline5940"
   points="    131.88,76.98 137.181,73.9 145.74,68.94   "
   stroke-miterlimit="10"
   style="fill:none;stroke:#000000;stroke-width:1.44000006;stroke-linecap:round;stroke-linejoin:round;stroke-miterlimit:10" />

		
			<polyline
   id="polyline5942"
   points="    145.74,63.9 145.74,63.92 145.74,63.94 145.74,68.94 145.74,69   "
   stroke-miterlimit="10"
   style="fill:none;stroke:#000000;stroke-width:1.44000006;stroke-linecap:round;stroke-linejoin:round;stroke-miterlimit:10" />

		
			<polyline
   id="polyline5944"
   points="    212.34,0.78 138.17,43.53 138.12,43.56   "
   stroke-miterlimit="10"
   style="fill:none;stroke:#000000;stroke-width:1.44000006;stroke-linecap:round;stroke-linejoin:round;stroke-miterlimit:10" />

		
			<polyline
   id="polyline5946"
   points="    133.2,56.7 133.21,56.68 138.17,43.53 138.181,43.5   "
   stroke-miterlimit="10"
   style="fill:none;stroke:#000000;stroke-width:1.44000006;stroke-linecap:round;stroke-linejoin:round;stroke-miterlimit:10" />

		
			<polyline
   id="polyline5948"
   points="    176.28,65.58 176.25,65.56 138.17,43.53 138.12,43.5   "
   stroke-miterlimit="10"
   style="fill:none;stroke:#000000;stroke-width:1.44000006;stroke-linecap:round;stroke-linejoin:round;stroke-miterlimit:10" />

		
			<polyline
   id="polyline5950"
   points="    255.36,39.06 250.46,22.74 250.44,22.68   "
   stroke-miterlimit="10"
   style="fill:none;stroke:#000000;stroke-width:1.44000006;stroke-linecap:round;stroke-linejoin:round;stroke-miterlimit:10" />

		
			<polyline
   id="polyline5952"
   points="    166.431,75.88 158.4,71.23 158.34,71.2 158.33,71.2 153.771,68.56 145.74,63.92 145.67,63.88 141.08,61.23 133.21,56.68     133.14,56.64   "
   stroke-miterlimit="10"
   style="fill:none;stroke:#000000;stroke-width:1.44000006;stroke-linecap:round;stroke-linejoin:round;stroke-miterlimit:10" />

		
			<polyline
   id="polyline5954"
   points="    171.101,78.57 171.09,78.56 171.08,78.56   "
   stroke-miterlimit="10"
   style="fill:none;stroke:#000000;stroke-width:1.44000006;stroke-linecap:round;stroke-linejoin:round;stroke-miterlimit:10" />

		
			<polyline
   id="polyline5956"
   points="    179.04,83.16 179.04,83.13 176.28,65.54 176.28,65.52   "
   stroke-miterlimit="10"
   style="fill:none;stroke:#000000;stroke-width:1.44000006;stroke-linecap:round;stroke-linejoin:round;stroke-miterlimit:10" />

		
			<polyline
   id="polyline5958"
   points="    250.44,22.74 212.351,0.76 212.28,0.72   "
   stroke-miterlimit="10"
   style="fill:none;stroke:#000000;stroke-width:1.44000006;stroke-linecap:round;stroke-linejoin:round;stroke-miterlimit:10" />

		
			<polyline
   id="polyline5960"
   points="    250.44,22.74 176.28,65.54 176.25,65.56 176.221,65.58   "
   stroke-miterlimit="10"
   style="fill:none;stroke:#000000;stroke-width:1.44000006;stroke-linecap:round;stroke-linejoin:round;stroke-miterlimit:10" />

		
			<polyline
   id="polyline5962"
   points="    255.36,39.06 179.04,83.13 179.011,83.14 178.98,83.16   "
   stroke-miterlimit="10"
   style="fill:none;stroke:#000000;stroke-width:1.44000006;stroke-linecap:round;stroke-linejoin:round;stroke-miterlimit:10" />

		
			<polyline
   id="polyline5964"
   points="    133.2,56.7 141.061,61.24 145.66,63.89 145.74,63.94 153.761,68.57 158.33,71.2 158.4,71.25 166.431,75.88 166.44,75.88     169.78,77.81 170.19,78.05 171.08,78.56 171.101,78.57 179.011,83.14 179.04,83.16   "
   stroke-miterlimit="10"
   style="fill:none;stroke:#000000;stroke-width:1.44000006;stroke-linecap:round;stroke-linejoin:round;stroke-miterlimit:10" />

		
			<path
   id="path5966"
   d="M 255.36,39.06 C 255.48,44.42 253.68,50.98 248.73,53.86 C 248.72,53.87 248.709,53.87 248.7,53.88"
   stroke-miterlimit="10"
   style="fill:none;stroke:#000000;stroke-width:1.44000006;stroke-linecap:round;stroke-linejoin:round;stroke-miterlimit:10" />

		
			<polyline
   id="polyline5968"
   points="    134.28,65.22 134.271,65.18 133.8,63 133.44,60.84 133.26,58.74 133.2,56.7   "
   stroke-miterlimit="10"
   style="fill:none;stroke:#000000;stroke-width:1.44000006;stroke-linecap:round;stroke-linejoin:round;stroke-miterlimit:10" />

		
			<polyline
   id="polyline5970"
   points="    138.78,77.22 137.181,73.9 137.16,73.86   "
   stroke-miterlimit="10"
   style="fill:none;stroke:#000000;stroke-width:1.44000006;stroke-linecap:round;stroke-linejoin:round;stroke-miterlimit:10" />

		
			<polyline
   id="polyline5972"
   points="    145.2,86.82 144.351,85.79 144.301,85.74   "
   stroke-miterlimit="10"
   style="fill:none;stroke:#000000;stroke-width:1.44000006;stroke-linecap:round;stroke-linejoin:round;stroke-miterlimit:10" />

		
			<path
   id="path5974"
   d="M 179.04,83.16 C 178.96,90.59 176.42,95.51 172.48,97.86 C 167.7,100.7 160.879,99.78 153.9,94.98"
   stroke-miterlimit="10"
   style="fill:none;stroke:#000000;stroke-width:1.44000006;stroke-linecap:round;stroke-linejoin:round;stroke-miterlimit:10" />

		
			<polyline
   id="polyline5976"
   points="    172.32,97.98 172.49,97.88 248.7,53.82   "
   stroke-miterlimit="10"
   style="fill:none;stroke:#000000;stroke-width:1.44000006;stroke-linecap:round;stroke-linejoin:round;stroke-miterlimit:10" />

	</g>

</g>
  </g>
</svg>
