<?xml version="1.0" encoding="utf-8"?>
<!-- Generator: Adobe Illustrator 12.0.0, SVG Export Plug-In . SVG Version: 6.00 Build 51448)  -->
<!DOCTYPE svg PUBLIC "-//W3C//DTD SVG 1.0//EN" "http://www.w3.org/TR/2001/REC-SVG-20010904/DTD/svg10.dtd" [
	<!ENTITY ns_svg "http://www.w3.org/2000/svg">
	<!ENTITY ns_xlink "http://www.w3.org/1999/xlink">
]>
<svg  version="1.0" id="Layer_1" xmlns="&ns_svg;" xmlns:xlink="&ns_xlink;" width="175" height="120"
	 viewBox="-5.235 -6.141 175 120" overflow="visible" enable-background="new -5.235 -6.141 175 120" xml:space="preserve">
<g id="XMLID_1_">
	<g>
		<g id="XMLID_5_">
			<g>
				<polygon fill="#EFEEEF" points="111.707,56.51 106.656,59.43 106.007,59.81 106.007,56.209 111.656,52.939 111.707,52.969 
					111.707,55.609 				"/>
				<polygon fill="#EFEEEF" points="13.307,98.39 96.227,50.509 96.227,50.569 96.227,54.109 13.307,101.989 				"/>
				<polygon fill="#EFEEEF" points="92.087,49.08 92.877,48.619 92.087,48.169 92.087,48.129 96.517,45.649 96.517,45.639 
					97.786,44.929 97.797,44.909 98.627,45.409 109.177,39.209 112.486,41.129 101.887,47.259 102.656,47.719 97.066,51.049 
					96.227,50.569 96.227,50.509 13.307,98.39 10.066,96.529 				"/>
				<polygon fill="#EFEEEF" points="19.066,101.689 101.087,54.3 101.877,53.839 101.087,53.389 101.087,53.359 106.727,50.089 
					106.736,50.069 107.627,50.569 118.187,44.419 118.196,44.419 121.116,46.109 121.417,46.29 110.887,52.479 111.656,52.939 
					106.007,56.209 105.167,55.729 105.167,55.669 22.307,103.609 				"/>
				<polygon fill="#EFEEEF" points="92.887,42.1 103.467,35.909 103.477,35.909 103.547,35.959 103.547,39.469 95.807,44.029 
					93.767,45.229 93.767,42.589 93.767,42.529 93.717,42.56 				"/>
				<polygon fill="#424242" points="93.227,29.989 100.247,34.049 93.877,37.729 93.467,35.75 93.227,33.77 93.167,31.85 				"/>
				<polygon fill="#EFEEEF" points="112.547,44.689 102.707,50.389 102.707,47.75 102.707,47.689 102.656,47.719 101.887,47.259 
					112.486,41.129 112.547,41.159 				"/>
				<polygon fill="#EFEEEF" points="121.486,49.85 111.707,55.609 111.707,52.969 111.707,52.909 111.656,52.939 110.887,52.479 
					121.417,46.29 121.427,46.29 121.486,46.33 				"/>
				<polygon fill="#EFEEEF" points="10.066,100.1 10.066,96.529 13.307,98.39 13.307,101.989 				"/>
				<polygon fill="#EFEEEF" points="1.066,91.369 4.367,93.229 4.367,96.829 1.066,94.939 				"/>
				<path fill="#424242" d="M125.057,37.889l35.43-20.44c1.851,3.92,3.09,8.15,3.48,12.48l-35.46,20.42
					c-0.21-4.24-1.7-8.6-3.42-12.44L125.057,37.889z"/>
				<polygon fill="#EFEEEF" points="88.066,45.889 93.717,42.56 93.767,42.589 93.767,45.229 93.767,46.129 88.066,49.489 				"/>
				<polygon fill="#EFEEEF" points="83.146,42.979 88.786,39.709 88.797,39.689 89.627,40.189 93.877,37.729 100.247,34.049 
					103.467,35.909 92.887,42.1 93.717,42.56 88.066,45.889 87.227,45.35 87.227,45.29 4.367,93.229 1.066,91.369 83.146,43.919 
					83.937,43.459 83.146,43.009 				"/>
				<polygon fill="#424242" points="96.696,21.5 132.167,1.069 132.177,1.049 160.486,17.449 125.057,37.889 96.717,21.509 				"/>
				<path fill="#424242" d="M93.227,29.969c0.271-3.06,1.24-6.23,3.48-8.44l0.01-0.02l28.34,16.38l0.03,0.02
					c1.72,3.84,3.21,8.2,3.42,12.44l-0.03,0.02l-6.99-4.04v-0.02l-0.05-0.03l-3.22-1.87l-0.021,0.01h-0.01l-0.43-0.25l-5.21-3.02
					l-0.05-0.03l-0.431-0.25l-2.85-1.68l-0.03,0.01l-5.64-3.26v-0.01l-0.021-0.01l-0.029-0.02h-0.011l-0.43-0.25l-2.78-1.62
					l-0.02,0.01L93.227,29.969z"/>
				<path fill="#424242" d="M106.656,59.43l5.051-2.92v-0.9l9.779-5.76v-3.52l6.99,4.04l0.03,0.02c0.46,6.89-1.61,11.27-4.99,13.24
					c-4.34,2.53-10.84,1.07-16.85-4.18L106.656,59.43z"/>
				<polygon fill="#EFEEEF" points="4.367,93.229 87.227,45.29 87.227,45.35 87.227,48.889 4.367,96.829 				"/>
				<polygon fill="#424242" points="95.807,44.029 103.547,39.469 103.547,35.959 109.177,39.209 98.627,45.409 97.797,44.909 
					97.786,44.929 96.517,45.639 				"/>
				<path fill="#424242" d="M123.517,63.629c3.38-1.97,5.45-6.35,4.99-13.24c0-0.01,0-0.03,0-0.04l35.46-20.42
					c0.3,4.87-0.57,10.52-5.07,13.3l-0.03-0.04l-35.34,20.45L123.517,63.629z"/>
				<polygon fill="#EFEEEF" points="22.307,107.209 22.307,103.609 105.167,55.669 105.167,55.729 105.167,59.27 				"/>
				<polygon fill="#EFEEEF" points="102.707,51.29 100.536,52.589 97.066,54.649 97.066,51.049 102.656,47.719 102.707,47.75 
					102.707,50.389 				"/>
				<polygon fill="#424242" points="101.087,53.359 101.066,53.359 100.547,52.609 100.536,52.589 102.707,51.29 102.707,50.389 
					112.547,44.689 112.547,41.159 117.757,44.169 118.187,44.419 107.627,50.569 106.736,50.069 106.727,50.089 				"/>
			</g>
			<g>
				
					<polyline fill="none" stroke="#000000" stroke-width="1.02" stroke-linecap="round" stroke-linejoin="round" stroke-miterlimit="10" points="
					102.707,47.75 102.656,47.719 101.887,47.259 101.807,47.209 				"/>
				
					<polyline fill="none" stroke="#000000" stroke-width="1.02" stroke-linecap="round" stroke-linejoin="round" stroke-miterlimit="10" points="
					97.066,51.049 102.656,47.719 102.707,47.689 				"/>
				
					<polyline fill="none" stroke="#000000" stroke-width="1.02" stroke-linecap="round" stroke-linejoin="round" stroke-miterlimit="10" points="
					102.707,51.35 102.707,51.29 102.707,50.389 102.707,47.75 102.707,47.689 				"/>
				
					<polyline fill="none" stroke="#000000" stroke-width="1.02" stroke-linecap="round" stroke-linejoin="round" stroke-miterlimit="10" points="
					97.066,54.649 97.066,51.049 97.066,50.989 				"/>
				
					<polyline fill="none" stroke="#000000" stroke-width="1.02" stroke-linecap="round" stroke-linejoin="round" stroke-miterlimit="10" points="
					97.066,54.649 100.536,52.589 102.707,51.29 				"/>
				
					<line fill="none" stroke="#000000" stroke-width="1.02" stroke-linecap="round" stroke-linejoin="round" stroke-miterlimit="10" x1="96.227" y1="54.169" x2="97.066" y2="54.649"/>
				
					<polyline fill="none" stroke="#000000" stroke-width="1.02" stroke-linecap="round" stroke-linejoin="round" stroke-miterlimit="10" points="
					96.517,45.649 92.087,48.129 92.017,48.169 				"/>
				
					<line fill="none" stroke="#000000" stroke-width="1.02" stroke-linecap="round" stroke-linejoin="round" stroke-miterlimit="10" x1="97.786" y1="44.929" x2="96.517" y2="45.639"/>
				
					<polyline fill="none" stroke="#000000" stroke-width="1.02" stroke-linecap="round" stroke-linejoin="round" stroke-miterlimit="10" points="
					98.627,45.409 97.797,44.909 97.727,44.869 				"/>
				
					<polyline fill="none" stroke="#000000" stroke-width="1.02" stroke-linecap="round" stroke-linejoin="round" stroke-miterlimit="10" points="
					92.087,49.189 92.087,49.08 92.087,48.169 92.087,48.129 92.087,48.109 				"/>
				
					<polyline fill="none" stroke="#000000" stroke-width="1.02" stroke-linecap="round" stroke-linejoin="round" stroke-miterlimit="10" points="
					92.087,48.169 92.877,48.619 92.927,48.649 				"/>
				
					<polyline fill="none" stroke="#000000" stroke-width="1.02" stroke-linecap="round" stroke-linejoin="round" stroke-miterlimit="10" points="
					96.227,54.169 96.227,54.109 96.227,50.569 96.227,50.509 				"/>
				
					<polyline fill="none" stroke="#000000" stroke-width="1.02" stroke-linecap="round" stroke-linejoin="round" stroke-miterlimit="10" points="
					112.547,41.149 112.547,41.159 112.547,44.689 112.547,44.75 				"/>
				
					<line fill="none" stroke="#000000" stroke-width="1.02" stroke-linecap="round" stroke-linejoin="round" stroke-miterlimit="10" x1="10.066" y1="96.529" x2="13.307" y2="98.39"/>
				
					<polyline fill="none" stroke="#000000" stroke-width="1.02" stroke-linecap="round" stroke-linejoin="round" stroke-miterlimit="10" points="
					101.866,47.27 101.887,47.259 112.486,41.129 112.497,41.119 112.547,41.089 				"/>
				
					<line fill="none" stroke="#000000" stroke-width="1.02" stroke-linecap="round" stroke-linejoin="round" stroke-miterlimit="10" x1="13.307" y1="98.39" x2="13.307" y2="101.989"/>
				
					<polyline fill="none" stroke="#000000" stroke-width="1.02" stroke-linecap="round" stroke-linejoin="round" stroke-miterlimit="10" points="
					13.307,101.989 10.066,100.1 10.007,100.069 				"/>
				
					<line fill="none" stroke="#000000" stroke-width="1.02" stroke-linecap="round" stroke-linejoin="round" stroke-miterlimit="10" x1="13.307" y1="101.989" x2="96.227" y2="54.109"/>
				
					<line fill="none" stroke="#000000" stroke-width="1.02" stroke-linecap="round" stroke-linejoin="round" stroke-miterlimit="10" x1="102.707" y1="50.389" x2="112.547" y2="44.689"/>
				
					<line fill="none" stroke="#000000" stroke-width="1.02" stroke-linecap="round" stroke-linejoin="round" stroke-miterlimit="10" x1="96.227" y1="50.569" x2="97.066" y2="51.049"/>
				
					<line fill="none" stroke="#000000" stroke-width="1.02" stroke-linecap="round" stroke-linejoin="round" stroke-miterlimit="10" x1="13.307" y1="98.39" x2="96.227" y2="50.509"/>
				
					<polyline fill="none" stroke="#000000" stroke-width="1.02" stroke-linecap="round" stroke-linejoin="round" stroke-miterlimit="10" points="
					10.066,96.529 92.087,49.08 92.877,48.619 92.927,48.589 				"/>
				
					<polyline fill="none" stroke="#000000" stroke-width="1.02" stroke-linecap="round" stroke-linejoin="round" stroke-miterlimit="10" points="
					98.627,45.409 109.177,39.209 109.187,39.199 109.217,39.189 109.247,39.169 				"/>
				
					<polyline fill="none" stroke="#000000" stroke-width="1.02" stroke-linecap="round" stroke-linejoin="round" stroke-miterlimit="10" points="
					10.066,100.129 10.066,100.1 10.066,96.529 10.066,96.47 				"/>
				
					<polyline fill="none" stroke="#000000" stroke-width="1.02" stroke-linecap="round" stroke-linejoin="round" stroke-miterlimit="10" points="
					106.007,59.81 106.656,59.43 111.707,56.51 				"/>
				
					<polyline fill="none" stroke="#000000" stroke-width="1.02" stroke-linecap="round" stroke-linejoin="round" stroke-miterlimit="10" points="
					111.707,52.969 111.656,52.939 110.887,52.479 110.807,52.429 				"/>
				
					<line fill="none" stroke="#000000" stroke-width="1.02" stroke-linecap="round" stroke-linejoin="round" stroke-miterlimit="10" x1="22.307" y1="103.609" x2="105.167" y2="55.669"/>
				
					<polyline fill="none" stroke="#000000" stroke-width="1.02" stroke-linecap="round" stroke-linejoin="round" stroke-miterlimit="10" points="
					111.707,56.569 111.707,56.51 111.707,55.609 111.707,52.969 111.707,52.909 				"/>
				
					<line fill="none" stroke="#000000" stroke-width="1.02" stroke-linecap="round" stroke-linejoin="round" stroke-miterlimit="10" x1="111.707" y1="55.609" x2="121.486" y2="49.85"/>
				
					<polyline fill="none" stroke="#000000" stroke-width="1.02" stroke-linecap="round" stroke-linejoin="round" stroke-miterlimit="10" points="
					107.627,50.569 106.736,50.069 106.667,50.029 				"/>
				
					<polyline fill="none" stroke="#000000" stroke-width="1.02" stroke-linecap="round" stroke-linejoin="round" stroke-miterlimit="10" points="
					121.427,46.29 121.437,46.279 121.486,46.25 				"/>
				
					<polyline fill="none" stroke="#000000" stroke-width="1.02" stroke-linecap="round" stroke-linejoin="round" stroke-miterlimit="10" points="
					110.866,52.489 110.887,52.479 121.417,46.29 				"/>
				
					<polyline fill="none" stroke="#000000" stroke-width="1.02" stroke-linecap="round" stroke-linejoin="round" stroke-miterlimit="10" points="
					121.486,46.31 121.486,46.33 121.486,49.85 121.486,49.909 				"/>
				
					<polyline fill="none" stroke="#000000" stroke-width="1.02" stroke-linecap="round" stroke-linejoin="round" stroke-miterlimit="10" points="
					121.486,46.31 121.437,46.279 118.217,44.409 118.177,44.389 				"/>
				
					<polyline fill="none" stroke="#000000" stroke-width="1.02" stroke-linecap="round" stroke-linejoin="round" stroke-miterlimit="10" points="
					93.767,46.189 93.767,46.129 93.767,45.229 93.767,42.589 93.767,42.529 				"/>
				
					<polyline fill="none" stroke="#000000" stroke-width="1.02" stroke-linecap="round" stroke-linejoin="round" stroke-miterlimit="10" points="
					88.066,49.489 88.066,45.889 88.066,45.83 				"/>
				
					<line fill="none" stroke="#000000" stroke-width="1.02" stroke-linecap="round" stroke-linejoin="round" stroke-miterlimit="10" x1="88.066" y1="49.489" x2="93.767" y2="46.129"/>
				
					<line fill="none" stroke="#000000" stroke-width="1.02" stroke-linecap="round" stroke-linejoin="round" stroke-miterlimit="10" x1="87.227" y1="48.949" x2="88.066" y2="49.489"/>
				
					<polyline fill="none" stroke="#000000" stroke-width="1.02" stroke-linecap="round" stroke-linejoin="round" stroke-miterlimit="10" points="
					112.066,40.869 109.217,39.189 109.177,39.169 				"/>
				
					<polyline fill="none" stroke="#000000" stroke-width="1.02" stroke-linecap="round" stroke-linejoin="round" stroke-miterlimit="10" points="
					83.146,43.969 83.146,43.919 83.146,43.009 83.146,42.979 83.146,42.949 				"/>
				
					<line fill="none" stroke="#000000" stroke-width="1.02" stroke-linecap="round" stroke-linejoin="round" stroke-miterlimit="10" x1="4.367" y1="96.829" x2="87.227" y2="48.889"/>
				
					<line fill="none" stroke="#000000" stroke-width="1.02" stroke-linecap="round" stroke-linejoin="round" stroke-miterlimit="10" x1="4.367" y1="93.229" x2="4.367" y2="96.829"/>
				
					<polyline fill="none" stroke="#000000" stroke-width="1.02" stroke-linecap="round" stroke-linejoin="round" stroke-miterlimit="10" points="
					87.227,48.949 87.227,48.889 87.227,45.35 87.227,45.29 				"/>
				
					<polyline fill="none" stroke="#000000" stroke-width="1.02" stroke-linecap="round" stroke-linejoin="round" stroke-miterlimit="10" points="
					4.367,96.829 1.066,94.939 1.007,94.909 				"/>
				
					<polyline fill="none" stroke="#000000" stroke-width="1.02" stroke-linecap="round" stroke-linejoin="round" stroke-miterlimit="10" points="
					1.066,91.369 83.146,43.919 83.937,43.459 83.986,43.429 				"/>
				
					<polyline fill="none" stroke="#000000" stroke-width="1.02" stroke-linecap="round" stroke-linejoin="round" stroke-miterlimit="10" points="
					83.146,43.009 83.937,43.459 83.986,43.489 				"/>
				
					<polyline fill="none" stroke="#000000" stroke-width="1.02" stroke-linecap="round" stroke-linejoin="round" stroke-miterlimit="10" points="
					88.786,39.709 83.146,42.979 83.087,43.009 				"/>
				
					<polyline fill="none" stroke="#000000" stroke-width="1.02" stroke-linecap="round" stroke-linejoin="round" stroke-miterlimit="10" points="
					1.066,94.97 1.066,94.939 1.066,91.369 1.066,91.31 				"/>
				
					<polyline fill="none" stroke="#000000" stroke-width="1.02" stroke-linecap="round" stroke-linejoin="round" stroke-miterlimit="10" points="
					93.767,42.589 93.717,42.56 92.887,42.1 92.807,42.049 				"/>
				
					<polyline fill="none" stroke="#000000" stroke-width="1.02" stroke-linecap="round" stroke-linejoin="round" stroke-miterlimit="10" points="
					88.066,45.889 93.717,42.56 93.767,42.529 				"/>
				
					<line fill="none" stroke="#000000" stroke-width="1.02" stroke-linecap="round" stroke-linejoin="round" stroke-miterlimit="10" x1="87.227" y1="45.35" x2="88.066" y2="45.889"/>
				
					<line fill="none" stroke="#000000" stroke-width="1.02" stroke-linecap="round" stroke-linejoin="round" stroke-miterlimit="10" x1="4.367" y1="93.229" x2="87.227" y2="45.29"/>
				
					<line fill="none" stroke="#000000" stroke-width="1.02" stroke-linecap="round" stroke-linejoin="round" stroke-miterlimit="10" x1="1.066" y1="91.369" x2="4.367" y2="93.229"/>
				
					<polyline fill="none" stroke="#000000" stroke-width="1.02" stroke-linecap="round" stroke-linejoin="round" stroke-miterlimit="10" points="
					89.627,40.189 88.797,39.689 88.727,39.649 				"/>
				
					<polyline fill="none" stroke="#000000" stroke-width="1.02" stroke-linecap="round" stroke-linejoin="round" stroke-miterlimit="10" points="
					89.627,40.189 93.877,37.729 100.247,34.049 100.257,34.04 100.276,34.029 100.307,34.009 				"/>
				
					<line fill="none" stroke="#000000" stroke-width="1.02" stroke-linecap="round" stroke-linejoin="round" stroke-miterlimit="10" x1="103.497" y1="35.899" x2="103.547" y2="35.869"/>
				
					<line fill="none" stroke="#000000" stroke-width="1.02" stroke-linecap="round" stroke-linejoin="round" stroke-miterlimit="10" x1="103.477" y1="35.909" x2="103.486" y2="35.899"/>
				
					<polyline fill="none" stroke="#000000" stroke-width="1.02" stroke-linecap="round" stroke-linejoin="round" stroke-miterlimit="10" points="
					92.866,42.109 92.887,42.1 103.467,35.909 				"/>
				
					<polyline fill="none" stroke="#000000" stroke-width="1.02" stroke-linecap="round" stroke-linejoin="round" stroke-miterlimit="10" points="
					93.767,45.229 95.807,44.029 103.547,39.469 				"/>
				
					<polyline fill="none" stroke="#000000" stroke-width="1.02" stroke-linecap="round" stroke-linejoin="round" stroke-miterlimit="10" points="
					103.057,35.649 100.276,34.029 100.247,34.009 				"/>
				
					<line fill="none" stroke="#000000" stroke-width="1.02" stroke-linecap="round" stroke-linejoin="round" stroke-miterlimit="10" x1="103.547" y1="35.929" x2="103.526" y2="35.919"/>
				
					<polyline fill="none" stroke="#000000" stroke-width="1.02" stroke-linecap="round" stroke-linejoin="round" stroke-miterlimit="10" points="
					103.547,35.929 103.547,35.939 103.547,35.959 103.547,39.469 103.547,39.529 				"/>
				
					<polyline fill="none" stroke="#000000" stroke-width="1.02" stroke-linecap="round" stroke-linejoin="round" stroke-miterlimit="10" points="
					118.196,44.419 118.217,44.409 118.247,44.389 				"/>
				
					<line fill="none" stroke="#000000" stroke-width="1.02" stroke-linecap="round" stroke-linejoin="round" stroke-miterlimit="10" x1="107.627" y1="50.569" x2="118.187" y2="44.419"/>
				
					<line fill="none" stroke="#000000" stroke-width="1.02" stroke-linecap="round" stroke-linejoin="round" stroke-miterlimit="10" x1="22.307" y1="107.209" x2="105.167" y2="59.27"/>
				
					<polyline fill="none" stroke="#000000" stroke-width="1.02" stroke-linecap="round" stroke-linejoin="round" stroke-miterlimit="10" points="
					22.307,107.209 19.066,105.27 19.007,105.229 				"/>
				
					<polyline fill="none" stroke="#000000" stroke-width="1.02" stroke-linecap="round" stroke-linejoin="round" stroke-miterlimit="10" points="
					19.066,105.289 19.066,105.27 19.066,101.689 19.066,101.629 				"/>
				
					<polyline fill="none" stroke="#000000" stroke-width="1.02" stroke-linecap="round" stroke-linejoin="round" stroke-miterlimit="10" points="
					101.087,54.35 101.087,54.3 101.087,53.389 101.087,53.359 101.087,53.33 				"/>
				
					<polyline fill="none" stroke="#000000" stroke-width="1.02" stroke-linecap="round" stroke-linejoin="round" stroke-miterlimit="10" points="
					19.066,101.689 101.087,54.3 101.877,53.839 101.927,53.81 				"/>
				
					<polyline fill="none" stroke="#000000" stroke-width="1.02" stroke-linecap="round" stroke-linejoin="round" stroke-miterlimit="10" points="
					101.087,53.389 101.877,53.839 101.927,53.869 				"/>
				
					<line fill="none" stroke="#000000" stroke-width="1.02" stroke-linecap="round" stroke-linejoin="round" stroke-miterlimit="10" x1="101.066" y1="53.369" x2="101.026" y2="53.389"/>
				
					<polyline fill="none" stroke="#000000" stroke-width="1.02" stroke-linecap="round" stroke-linejoin="round" stroke-miterlimit="10" points="
					106.727,50.089 101.087,53.359 101.066,53.359 				"/>
				
					<line fill="none" stroke="#000000" stroke-width="1.02" stroke-linecap="round" stroke-linejoin="round" stroke-miterlimit="10" x1="22.307" y1="103.609" x2="22.307" y2="107.209"/>
				
					<polyline fill="none" stroke="#000000" stroke-width="1.02" stroke-linecap="round" stroke-linejoin="round" stroke-miterlimit="10" points="
					105.167,59.329 105.167,59.27 105.167,55.729 105.167,55.669 				"/>
				
					<polyline fill="none" stroke="#000000" stroke-width="1.02" stroke-linecap="round" stroke-linejoin="round" stroke-miterlimit="10" points="
					106.007,56.209 111.656,52.939 111.707,52.909 				"/>
				
					<line fill="none" stroke="#000000" stroke-width="1.02" stroke-linecap="round" stroke-linejoin="round" stroke-miterlimit="10" x1="19.066" y1="101.689" x2="22.307" y2="103.609"/>
				
					<line fill="none" stroke="#000000" stroke-width="1.02" stroke-linecap="round" stroke-linejoin="round" stroke-miterlimit="10" x1="105.167" y1="55.729" x2="106.007" y2="56.209"/>
				
					<polyline fill="none" stroke="#000000" stroke-width="1.02" stroke-linecap="round" stroke-linejoin="round" stroke-miterlimit="10" points="
					106.007,59.81 106.007,56.209 106.007,56.149 				"/>
				
					<line fill="none" stroke="#000000" stroke-width="1.02" stroke-linecap="round" stroke-linejoin="round" stroke-miterlimit="10" x1="105.167" y1="59.329" x2="106.007" y2="59.81"/>
				
					<polyline fill="none" stroke="#000000" stroke-width="1.02" stroke-linecap="round" stroke-linejoin="round" stroke-miterlimit="10" points="
					123.406,63.709 123.526,63.64 158.866,43.189 				"/>
				
					<path fill="none" stroke="#000000" stroke-width="1.02" stroke-linecap="round" stroke-linejoin="round" stroke-miterlimit="10" d="
					M106.667,59.449c6.01,5.25,12.51,6.71,16.85,4.18c3.38-1.97,5.45-6.35,4.99-13.24"/>
				
					<polyline fill="none" stroke="#000000" stroke-width="1.02" stroke-linecap="round" stroke-linejoin="round" stroke-miterlimit="10" points="
					100.547,52.609 101.066,53.359 101.066,53.369 101.087,53.389 				"/>
				
					<polyline fill="none" stroke="#000000" stroke-width="1.02" stroke-linecap="round" stroke-linejoin="round" stroke-miterlimit="10" points="
					95.807,44.029 96.517,45.639 96.517,45.649 				"/>
				
					<polyline fill="none" stroke="#000000" stroke-width="1.02" stroke-linecap="round" stroke-linejoin="round" stroke-miterlimit="10" points="
					93.227,29.989 93.167,31.85 93.227,33.77 93.467,35.75 93.877,37.729 93.887,37.79 				"/>
				
					<path fill="none" stroke="#000000" stroke-width="1.02" stroke-linecap="round" stroke-linejoin="round" stroke-miterlimit="10" d="
					M158.866,43.25c0.011-0.01,0.021-0.01,0.03-0.02c4.5-2.78,5.37-8.43,5.07-13.3"/>
				
					<polyline fill="none" stroke="#000000" stroke-width="1.02" stroke-linecap="round" stroke-linejoin="round" stroke-miterlimit="10" points="
					117.757,44.169 112.547,41.149 112.497,41.119 112.066,40.869 109.187,39.199 103.547,35.939 103.526,35.919 103.497,35.899 
					103.486,35.899 103.057,35.649 100.257,34.04 93.227,29.969 93.167,29.929 				"/>
				
					<polyline fill="none" stroke="#000000" stroke-width="1.02" stroke-linecap="round" stroke-linejoin="round" stroke-miterlimit="10" points="
					160.486,17.449 132.177,1.049 132.106,1.009 				"/>
				
					<path fill="none" stroke="#000000" stroke-width="1.02" stroke-linecap="round" stroke-linejoin="round" stroke-miterlimit="10" d="
					M96.707,21.529c-2.24,2.21-3.21,5.38-3.48,8.44c0,0.01,0,0.01,0,0.02"/>
				
					<polyline fill="none" stroke="#000000" stroke-width="1.02" stroke-linecap="round" stroke-linejoin="round" stroke-miterlimit="10" points="
					125.087,37.909 125.057,37.889 96.717,21.509 96.696,21.5 96.646,21.469 				"/>
				
					<path fill="none" stroke="#000000" stroke-width="1.02" stroke-linecap="round" stroke-linejoin="round" stroke-miterlimit="10" d="
					M128.507,50.389c0-0.01,0-0.03,0-0.04c-0.21-4.24-1.7-8.6-3.42-12.44"/>
				
					<polyline fill="none" stroke="#000000" stroke-width="1.02" stroke-linecap="round" stroke-linejoin="round" stroke-miterlimit="10" points="
					163.967,29.929 128.507,50.35 128.477,50.369 128.437,50.389 				"/>
				
					<path fill="none" stroke="#000000" stroke-width="1.02" stroke-linecap="round" stroke-linejoin="round" stroke-miterlimit="10" d="
					M163.967,29.929c-0.391-4.33-1.63-8.56-3.48-12.48"/>
				
					<polyline fill="none" stroke="#000000" stroke-width="1.02" stroke-linecap="round" stroke-linejoin="round" stroke-miterlimit="10" points="
					132.167,1.069 96.696,21.5 96.646,21.529 				"/>
				
					<polyline fill="none" stroke="#000000" stroke-width="1.02" stroke-linecap="round" stroke-linejoin="round" stroke-miterlimit="10" points="
					93.227,29.989 100.247,34.049 103.467,35.909 103.477,35.909 103.547,35.959 109.177,39.209 112.486,41.129 112.547,41.159 
					117.757,44.169 118.187,44.419 118.196,44.419 121.116,46.109 121.417,46.29 121.427,46.29 121.486,46.33 128.477,50.369 
					128.507,50.389 				"/>
				
					<polyline fill="none" stroke="#000000" stroke-width="1.02" stroke-linecap="round" stroke-linejoin="round" stroke-miterlimit="10" points="
					160.486,17.449 125.057,37.889 125.026,37.909 				"/>
			</g>
		</g>
	</g>
</g>
<rect x="0.249" y="0.25" fill="none" width="164.033" height="107.219"/>
<rect x="-5.235" y="-6.141" fill="none" width="175" height="120"/>
</svg>
