<?xml version="1.0" encoding="UTF-8" standalone="no"?>
<svg
   xmlns:dc="http://purl.org/dc/elements/1.1/"
   xmlns:cc="http://creativecommons.org/ns#"
   xmlns:rdf="http://www.w3.org/1999/02/22-rdf-syntax-ns#"
   xmlns:svg="http://www.w3.org/2000/svg"
   xmlns="http://www.w3.org/2000/svg"
   xmlns:sodipodi="http://sodipodi.sourceforge.net/DTD/sodipodi-0.dtd"
   xmlns:inkscape="http://www.inkscape.org/namespaces/inkscape"
   sodipodi:docname="tqfp.svg"
   inkscape:version="1.0beta2 (2b71d25, 2019-12-03)"
   id="svg753"
   version="1.1"
   viewBox="0 0 165.08209 120.03688"
   height="120.03688mm"
   width="165.08209mm">
  <defs
     id="defs747" />
  <sodipodi:namedview
     inkscape:window-maximized="0"
     inkscape:window-y="117"
     inkscape:window-x="0"
     inkscape:window-height="811"
     inkscape:window-width="1440"
     fit-margin-bottom="20"
     fit-margin-right="20"
     fit-margin-left="20"
     lock-margins="true"
     fit-margin-top="20"
     showgrid="false"
     inkscape:document-rotation="0"
     inkscape:current-layer="layer1"
     inkscape:document-units="mm"
     inkscape:cy="294.40621"
     inkscape:cx="210.53759"
     inkscape:zoom="0.35"
     inkscape:pageshadow="2"
     inkscape:pageopacity="0.0"
     borderopacity="1.0"
     bordercolor="#666666"
     pagecolor="#ffffff"
     id="base" />
  <metadata
     id="metadata750">
    <rdf:RDF>
      <cc:Work
         rdf:about="">
        <dc:format>image/svg+xml</dc:format>
        <dc:type
           rdf:resource="http://purl.org/dc/dcmitype/StillImage" />
        <dc:title></dc:title>
      </cc:Work>
    </rdf:RDF>
  </metadata>
  <g
     transform="translate(-50.128597,-70.271689)"
     id="layer1"
     inkscape:groupmode="layer"
     inkscape:label="Calque 1">
    <path
       d="m 129.90316,168.28166 h 4.51984 l 58.13805,-33.97859 V 123.78289 L 135.12408,90.505379 h -3.97411 L 73.09028,124.32863 v 11.37798 z"
       style="fill:#000000;fill-opacity:1;fill-rule:evenodd;stroke:#000000;stroke-width:0.467379;stroke-linecap:round;stroke-linejoin:round;stroke-miterlimit:10;stroke-dasharray:none;stroke-opacity:1"
       id="path54"
       inkscape:connector-curvature="0" />
    <path
       d="m 77.06439,124.87437 0.31212,0.15532 h 0.38889 m 0.4674,-2.10459 0.23497,0.15672 h 0.31056 m 0.4674,1.71419 -1.55749,0.23368 m -4.28755,-2.88401 1.79257,-1.0901 3.11771,1.94788 m 1.01309,1.16845 -1.40213,0.23368 m -0.0783,0.0784 h -0.38889 l -0.31212,-0.15532 -3.74183,-2.18294 v 0.54573 l 3.74183,2.18295 m 3.1163,-2.02624 -1.40213,0.23368 m 7.63754,-8.49533 1.79258,-1.09147 3.1177,1.94925 m -1.24821,1.40214 -3.66207,-2.25992 v 0.54574 l 3.66207,2.25992 m -12.3911,2.33828 1.79258,-1.09147 3.1177,1.94788 m -1.16845,1.32516 -3.74183,-2.18157 v 0.54573 l 3.74183,2.25993 m 0.85641,-5.37763 1.79253,-1.01312 3.11771,1.94788 m -1.16985,1.32516 -3.74039,-2.25992 v 0.54574 l 3.74039,2.25992 m 18.47118,-15.35346 1.79253,-1.0901 3.11635,1.94788 m -1.24681,1.32516 -3.66207,-2.25992 v 0.62271 l 3.66207,2.18295 m -13.24886,2.41526 1.79253,-1.09148 3.11771,1.94926 m -1.24681,1.32516 -3.66343,-2.18294 v 0.54573 l 3.66343,2.18157 m 1.24681,-5.37625 1.79253,-1.09147 3.1177,1.94788 m -1.24681,1.32516 -3.66342,-2.18157 V 107.65 l 3.66342,2.2613 m -12.70313,2.41526 1.71421,-1.09147 3.1177,1.94925 m -1.16985,1.32378 -3.66206,-2.25992 v 0.62409 l 3.66206,2.18157 m 19.24923,-15.819461 1.79253,-1.09148 3.11771,1.947881 m -1.24681,1.32516 -3.66343,-2.181561 v 0.54436 l 3.66343,2.261291 m -8.33862,-0.15672 1.79253,-1.09147 3.11634,1.94925 m -1.24681,1.32516 -3.66206,-2.18294 v 0.54574 l 3.66206,2.18157 m 8.65067,-5.376261 0.3904,0.15532 h 0.31213 m 0.4674,-2.10458 0.31056,0.15672 0.23497,0.077 m 0.54436,1.6372 -1.55749,0.23369 m -4.28756,-2.88402 1.79258,-1.09009 3.1177,1.94787 m 0.93477,1.24681 -1.32381,0.23368 m -0.15664,0 h -0.31212 l -0.38889,-0.15532 -3.66343,-2.18294 v 0.54574 l 3.66343,2.25992 m 3.11771,-2.10322 -1.40354,0.23368 m -0.93472,-3.35139 1.79253,-1.09147 3.11771,1.94788 m -1.16982,1.32516 -3.74038,-2.25992 v 0.62409 l 3.74038,2.18156 m 61.87848,26.965131 -0.38888,0.15532 h -0.31212 m -0.46737,-2.10322 -0.31212,0.15532 -0.2338,0.0784 m -0.54576,1.63583 1.55885,0.23368 m 4.28619,-2.88264 -1.79253,-1.09147 -3.11634,1.94788 m -0.93613,1.16982 1.32513,0.23369 m 0.15548,0.077 h 0.3121 l 0.3904,-0.15532"
       style="fill:none;stroke:#000000;stroke-width:0.155336;stroke-linecap:round;stroke-linejoin:round;stroke-miterlimit:10;stroke-dasharray:none;stroke-opacity:1"
       id="path56"
       inkscape:connector-curvature="0" />
    <path
       d="m 187.80753,123.23716 3.66207,-2.18157 v 0.54436 l -3.66207,2.18294 m -3.1177,-2.02623 1.40213,0.23368 m -7.63618,-8.49533 -1.79253,-1.0901 -3.11771,2.02624 m 1.24681,1.32378 3.66343,-2.25992 v 0.54573 l -3.66343,2.25993 m 12.31273,2.33828 -1.79117,-1.09147 -3.1177,1.94925 m 1.24681,1.40214 3.66206,-2.25992 v 0.54573 l -3.66206,2.25993 m -0.93477,-5.29928 -1.79253,-1.09147 -3.11771,1.94925 m 1.24681,1.32379 3.66343,-2.25992 v 0.54573 l -3.66343,2.25993 m -18.54814,-15.35209 -1.79258,-1.09147 -3.1177,1.94788 m 1.24821,1.32516 3.66207,-2.25992 v 0.62409 l -3.66207,2.18157 m 13.2475,2.41525 -1.79257,-1.09009 -3.11631,1.94788 m 1.24681,1.32516 3.66207,-2.18295 v 0.54574 l -3.66207,2.18294 m -1.24681,-5.37762 -1.71557,-1.09148 -3.11634,1.94788 m 1.16845,1.40352 3.74042,-2.25992 v 0.54573 l -3.74042,2.25993 m 12.7815,2.41526 -1.79254,-1.0901 -3.1177,1.94788 m 1.24681,1.32516 3.66343,-2.25993 v 0.62272 l -3.66343,2.18294 m -19.24923,-15.820841 -1.79254,-1.09147 -3.1177,1.94788 m 1.24681,1.325161 3.66343,-2.181571 v 0.54574 l -3.66343,2.259921 m 8.33998,-0.15672 -1.79253,-1.090101 -3.1177,1.947881 m 1.2468,1.32516 3.66343,-2.18294 v 0.54574 l -3.66343,2.18294 m -8.72902,-5.377631 -0.31057,0.15532 h -0.3904 m -0.46737,-2.10321 -0.23379,0.15532 -0.31213,0.0784 m -0.4674,1.63583 1.48049,0.23368 m 4.28616,-2.88264 -1.71418,-1.09147 -3.1177,1.94788 m -1.01313,1.24681 1.40353,0.23368 m 0.0772,0.0784 0.3904,-0.0784 0.31212,-0.15532 3.74043,-2.18157 v 0.54436 l -3.74043,2.2613 m -3.1177,-2.10459 1.40213,0.23368 m 0.93613,-3.35139 -1.79254,-1.09147 -3.1177,1.94925 m 1.24681,1.32516 3.66343,-2.26129 v 0.62409 l -3.66343,2.18157"
       style="fill:none;stroke:#000000;stroke-width:0.155336;stroke-linecap:round;stroke-linejoin:round;stroke-miterlimit:10;stroke-dasharray:none;stroke-opacity:1"
       id="path58"
       inkscape:connector-curvature="0" />
    <path
       d="m 129.90316,159.63239 v 8.64927 m 4.51984,-8.72763 v 8.72763 m -4.51984,-8.64927 4.51984,-0.0783 m -4.51984,0.0783 -56.81288,-32.65481 m 61.33272,32.57645 58.13805,-32.41974 m -60.03642,22.92779 c 2.29567,0.14573 4.0621,1.51622 4.0181,3.1177 -0.0468,1.65919 -2.02076,2.95136 -4.40578,2.88539 -2.38502,-0.0674 -4.28338,-1.46814 -4.23803,-3.12733 0.0468,-1.65919 2.02073,-2.9514 4.40574,-2.88539 0.0729,0.003 0.1473,0.004 0.21978,0.008"
       style="fill:none;stroke:#ffffff;stroke-width:0.467379;stroke-linecap:round;stroke-linejoin:round;stroke-miterlimit:10;stroke-dasharray:none;stroke-opacity:1"
       id="path60"
       inkscape:connector-curvature="0" />
    <path
       d="m 143.85311,170.15255 1.63581,-1.01309 v -0.31212 l -1.63581,-1.09012 -0.31212,-0.31212 -0.15548,-0.31212 v -2.33826 l -0.15664,-0.46737 -0.2338,-0.38888 -3.50675,-2.3383 -1.71417,1.01313 v 0.54572 l 3.19466,2.18158 0.15665,0.15664 0.0771,0.2338 v 2.41526 l 0.15665,0.3904 0.31056,0.2338"
       style="fill:#ffffff;fill-opacity:1;fill-rule:evenodd;stroke:none;stroke-width:1.37465"
       id="path62"
       inkscape:connector-curvature="0" />
    <path
       d="m 143.85311,170.15255 1.63581,-1.01309 v -0.31212 l -1.63581,-1.09012 -0.31212,-0.31212 -0.15548,-0.31212 v -2.33826 l -0.15664,-0.46737 -0.2338,-0.38888 -3.50675,-2.3383 -1.71417,1.01313 v 0.54572 l 3.19466,2.18158 0.15665,0.15664 0.0771,0.2338 v 2.41526 l 0.15665,0.3904 0.31056,0.2338 z"
       style="fill:none;stroke:#000000;stroke-width:0.312046;stroke-linecap:round;stroke-linejoin:round;stroke-miterlimit:10;stroke-dasharray:none;stroke-opacity:1"
       id="path64"
       inkscape:connector-curvature="0" />
    <path
       d="m 152.89282,164.93163 1.71554,-1.01308 v -0.39041 l -1.63722,-1.09009 -0.31212,-0.23496 -0.2338,-0.38889 v -2.25994 l -0.15547,-0.4674 -0.2338,-0.39036 -3.42975,-2.41526 -1.71417,1.01309 -0.0783,0.62272 3.19607,2.18294 0.15548,0.15548 0.0783,0.23379 v 2.41666 l 0.15547,0.31057 0.31213,0.31212"
       style="fill:#ffffff;fill-opacity:1;fill-rule:evenodd;stroke:none;stroke-width:1.37465"
       id="path66"
       inkscape:connector-curvature="0" />
    <path
       d="m 152.89282,164.93163 1.71554,-1.01308 v -0.39041 l -1.63722,-1.09009 -0.31212,-0.23496 -0.2338,-0.38889 v -2.25994 l -0.15547,-0.4674 -0.2338,-0.39036 -3.42975,-2.41526 -1.71417,1.01309 -0.0783,0.62272 3.19607,2.18294 0.15548,0.15548 0.0783,0.23379 v 2.41666 l 0.15547,0.31057 0.31213,0.31212 z"
       style="fill:none;stroke:#000000;stroke-width:0.312046;stroke-linecap:round;stroke-linejoin:round;stroke-miterlimit:10;stroke-dasharray:none;stroke-opacity:1"
       id="path68"
       inkscape:connector-curvature="0" />
    <path
       d="m 157.41265,162.35969 1.63722,-1.01312 v -0.39041 l -1.63722,-1.09009 -0.31056,-0.23379 -0.15664,-0.39041 v -2.25994 l -0.15548,-0.46736 -0.2338,-0.3904 -3.50674,-2.41526 -1.71554,1.01313 v 0.54572 l 3.19603,2.18158 0.15547,0.23379 0.0783,0.2338 v 2.41662 l 0.15548,0.31213 0.2338,0.23379"
       style="fill:#ffffff;fill-opacity:1;fill-rule:evenodd;stroke:none;stroke-width:1.37465"
       id="path70"
       inkscape:connector-curvature="0" />
    <path
       d="m 157.41265,162.35969 1.63722,-1.01312 v -0.39041 l -1.63722,-1.09009 -0.31056,-0.23379 -0.15664,-0.39041 v -2.25994 l -0.15548,-0.46736 -0.2338,-0.3904 -3.50674,-2.41526 -1.71554,1.01313 v 0.54572 l 3.19603,2.18158 0.15547,0.23379 0.0783,0.2338 v 2.41662 l 0.15548,0.31213 0.2338,0.23379 z"
       style="fill:none;stroke:#000000;stroke-width:0.312046;stroke-linecap:round;stroke-linejoin:round;stroke-miterlimit:10;stroke-dasharray:none;stroke-opacity:1"
       id="path72"
       inkscape:connector-curvature="0" />
    <path
       d="m 161.85553,159.78771 1.63581,-1.01313 v -0.38888 l -1.63581,-1.09145 -0.31212,-0.2338 -0.2338,-0.3904 v -2.25994 l -0.15548,-0.46736 -0.23379,-0.38889 -3.42975,-2.41666 -1.71422,1.01313 v 0.62408 l 3.19471,2.18158 0.0783,0.15548 0.0783,0.2338 v 2.41662 l 0.46737,0.62412"
       style="fill:#ffffff;fill-opacity:1;fill-rule:evenodd;stroke:none;stroke-width:1.37465"
       id="path74"
       inkscape:connector-curvature="0" />
    <path
       d="m 161.85553,159.78771 1.63581,-1.01313 v -0.38888 l -1.63581,-1.09145 -0.31212,-0.2338 -0.2338,-0.3904 v -2.25994 l -0.15548,-0.46736 -0.23379,-0.38889 -3.42975,-2.41666 -1.71422,1.01313 v 0.62408 l 3.19471,2.18158 0.0783,0.15548 0.0783,0.2338 v 2.41662 l 0.46737,0.62412 z"
       style="fill:none;stroke:#000000;stroke-width:0.312046;stroke-linecap:round;stroke-linejoin:round;stroke-miterlimit:10;stroke-dasharray:none;stroke-opacity:1"
       id="path76"
       inkscape:connector-curvature="0" />
    <path
       d="m 166.297,157.21573 1.71558,-1.01309 v -0.38888 l -1.63722,-1.09149 -0.31212,-0.2338 -0.2338,-0.3904 v -2.2599 l -0.15547,-0.4674 -0.2338,-0.38889 -3.50675,-2.41662 -1.71553,1.01309 v 0.54576 l 3.19606,2.2599 0.15548,0.15665 0.0783,0.23379 v 2.4153 l 0.15548,0.31212 0.31212,0.2338"
       style="fill:#ffffff;fill-opacity:1;fill-rule:evenodd;stroke:none;stroke-width:1.37465"
       id="path78"
       inkscape:connector-curvature="0" />
    <path
       d="m 166.297,157.21573 1.71558,-1.01309 v -0.38888 l -1.63722,-1.09149 -0.31212,-0.2338 -0.2338,-0.3904 v -2.2599 l -0.15547,-0.4674 -0.2338,-0.38889 -3.50675,-2.41662 -1.71553,1.01309 v 0.54576 l 3.19606,2.2599 0.15548,0.15665 0.0783,0.23379 v 2.4153 l 0.15548,0.31212 0.31212,0.2338 z"
       style="fill:none;stroke:#000000;stroke-width:0.312046;stroke-linecap:round;stroke-linejoin:round;stroke-miterlimit:10;stroke-dasharray:none;stroke-opacity:1"
       id="path80"
       inkscape:connector-curvature="0" />
    <path
       d="m 148.5283,167.50361 1.63718,-1.01312 v -0.39037 l -1.63718,-1.09149 -0.31056,-0.2338 -0.2338,-0.38888 v -2.25994 l -0.15664,-0.46736 -0.2338,-0.39041 -3.42839,-2.41525 -1.71557,1.01312 v 0.54573 l 3.19607,2.18157 0.15547,0.46737 v 2.41666 l 0.2338,0.31056 0.2338,0.2338"
       style="fill:#ffffff;fill-opacity:1;fill-rule:evenodd;stroke:none;stroke-width:1.37465"
       id="path82"
       inkscape:connector-curvature="0" />
    <path
       d="m 148.5283,167.50361 1.63718,-1.01312 v -0.39037 l -1.63718,-1.09149 -0.31056,-0.2338 -0.2338,-0.38888 v -2.25994 l -0.15664,-0.46736 -0.2338,-0.39041 -3.42839,-2.41525 -1.71557,1.01312 v 0.54573 l 3.19607,2.18157 0.15547,0.46737 v 2.41666 l 0.2338,0.31056 0.2338,0.2338 z"
       style="fill:none;stroke:#000000;stroke-width:0.312046;stroke-linecap:round;stroke-linejoin:round;stroke-miterlimit:10;stroke-dasharray:none;stroke-opacity:1"
       id="path84"
       inkscape:connector-curvature="0" />
    <path
       d="m 170.8952,154.56679 1.63721,-1.01312 v -0.39041 l -1.63721,-1.09145 -0.31056,-0.2338 -0.15665,-0.38888 v -2.25994 l -0.15547,-0.46736 -0.2338,-0.39041 -3.50671,-2.41526 -1.71558,1.01309 v 0.54577 l 3.19607,2.2599 0.15548,0.15547 0.0783,0.2338 v 2.41666 l 0.15548,0.31056 0.31212,0.2338"
       style="fill:#ffffff;fill-opacity:1;fill-rule:evenodd;stroke:none;stroke-width:1.37465"
       id="path86"
       inkscape:connector-curvature="0" />
    <path
       d="m 170.8952,154.56679 1.63721,-1.01312 v -0.39041 l -1.63721,-1.09145 -0.31056,-0.2338 -0.15665,-0.38888 v -2.25994 l -0.15547,-0.46736 -0.2338,-0.39041 -3.50671,-2.41526 -1.71558,1.01309 v 0.54577 l 3.19607,2.2599 0.15548,0.15547 0.0783,0.2338 v 2.41666 l 0.15548,0.31056 0.31212,0.2338 z"
       style="fill:none;stroke:#000000;stroke-width:0.312046;stroke-linecap:round;stroke-linejoin:round;stroke-miterlimit:10;stroke-dasharray:none;stroke-opacity:1"
       id="path88"
       inkscape:connector-curvature="0" />
    <path
       d="m 179.93627,149.26615 1.71421,-0.93477 v -0.38888 l -1.63721,-1.09149 -0.31056,-0.2338 -0.2338,-0.39037 v -2.33693 l -0.15665,-0.46873 -0.2338,-0.31056 -3.42838,-2.41666 -1.71558,1.01313 -0.0772,0.54572 3.1947,2.18158 0.15548,0.23497 0.0783,0.15547 v 2.41526 l 0.15665,0.3904 0.31056,0.2338"
       style="fill:#ffffff;fill-opacity:1;fill-rule:evenodd;stroke:none;stroke-width:1.37465"
       id="path90"
       inkscape:connector-curvature="0" />
    <path
       d="m 179.93627,149.26615 1.71421,-0.93477 v -0.38888 l -1.63721,-1.09149 -0.31056,-0.2338 -0.2338,-0.39037 v -2.33693 l -0.15665,-0.46873 -0.2338,-0.31056 -3.42838,-2.41666 -1.71558,1.01313 -0.0772,0.54572 3.1947,2.18158 0.15548,0.23497 0.0783,0.15547 v 2.41526 l 0.15665,0.3904 0.31056,0.2338 z"
       style="fill:none;stroke:#000000;stroke-width:0.312046;stroke-linecap:round;stroke-linejoin:round;stroke-miterlimit:10;stroke-dasharray:none;stroke-opacity:1"
       id="path92"
       inkscape:connector-curvature="0" />
    <path
       d="m 184.45615,146.69553 1.63581,-0.93613 v -0.38888 l -1.63581,-1.09145 -0.31213,-0.31212 -0.15547,-0.31057 v -2.33826 l -0.15665,-0.4674 -0.2338,-0.3904 -3.50674,-2.33826 -1.71417,1.01313 v 0.54572 l 3.19466,2.18294 0.15664,0.15548 0.0772,0.23379 v 2.41663 l 0.15664,0.38888 0.31057,0.2338"
       style="fill:#ffffff;fill-opacity:1;fill-rule:evenodd;stroke:none;stroke-width:1.37465"
       id="path94"
       inkscape:connector-curvature="0" />
    <path
       d="m 184.45615,146.69553 1.63581,-0.93613 v -0.38888 l -1.63581,-1.09145 -0.31213,-0.31212 -0.15547,-0.31057 v -2.33826 l -0.15665,-0.4674 -0.2338,-0.3904 -3.50674,-2.33826 -1.71417,1.01313 v 0.54572 l 3.19466,2.18294 0.15664,0.15548 0.0772,0.23379 v 2.41663 l 0.15664,0.38888 0.31057,0.2338 z"
       style="fill:none;stroke:#000000;stroke-width:0.312046;stroke-linecap:round;stroke-linejoin:round;stroke-miterlimit:10;stroke-dasharray:none;stroke-opacity:1"
       id="path96"
       inkscape:connector-curvature="0" />
    <path
       d="m 188.89762,144.12359 1.63721,-0.93613 v -0.38888 l -1.63721,-1.09149 -0.31056,-0.2338 -0.15665,-0.38889 v -2.33826 l -0.2338,-0.4674 -0.2338,-0.31212 -3.42838,-2.41662 -1.71554,1.01449 v 0.54436 l 3.19607,2.18294 0.0771,0.2338 0.0783,0.15548 v 2.41662 l 0.23379,0.38888 0.2338,0.2338"
       style="fill:#ffffff;fill-opacity:1;fill-rule:evenodd;stroke:none;stroke-width:1.37465"
       id="path98"
       inkscape:connector-curvature="0" />
    <path
       d="m 188.89762,144.12359 1.63721,-0.93613 v -0.38888 l -1.63721,-1.09149 -0.31056,-0.2338 -0.15665,-0.38889 v -2.33826 l -0.2338,-0.4674 -0.2338,-0.31212 -3.42838,-2.41662 -1.71554,1.01449 v 0.54436 l 3.19607,2.18294 0.0771,0.2338 0.0783,0.15548 v 2.41662 l 0.23379,0.38888 0.2338,0.2338 z"
       style="fill:none;stroke:#000000;stroke-width:0.312046;stroke-linecap:round;stroke-linejoin:round;stroke-miterlimit:10;stroke-dasharray:none;stroke-opacity:1"
       id="path100"
       inkscape:connector-curvature="0" />
    <path
       d="m 193.34049,141.55161 1.71418,-0.93476 v -0.39041 l -1.63581,-1.09145 -0.31213,-0.2338 -0.23379,-0.38888 v -2.3383 l -0.15665,-0.46737 -0.2338,-0.31212 -3.50674,-2.41525 -1.71418,1.01309 v 0.54576 l 3.19467,2.18157 0.15664,0.15548 0.0772,0.2338 v 2.41662 l 0.15664,0.38889 0.31056,0.23379"
       style="fill:#ffffff;fill-opacity:1;fill-rule:evenodd;stroke:none;stroke-width:1.37465"
       id="path102"
       inkscape:connector-curvature="0" />
    <path
       d="m 193.34049,141.55161 1.71418,-0.93476 v -0.39041 l -1.63581,-1.09145 -0.31213,-0.2338 -0.23379,-0.38888 v -2.3383 l -0.15665,-0.46737 -0.2338,-0.31212 -3.50674,-2.41525 -1.71418,1.01309 v 0.54576 l 3.19467,2.18157 0.15664,0.15548 0.0772,0.2338 v 2.41662 l 0.15664,0.38889 0.31056,0.23379 z"
       style="fill:none;stroke:#000000;stroke-width:0.312046;stroke-linecap:round;stroke-linejoin:round;stroke-miterlimit:10;stroke-dasharray:none;stroke-opacity:1"
       id="path104"
       inkscape:connector-curvature="0" />
    <path
       d="m 175.57176,151.83813 1.63585,-0.93477 v -0.38888 l -1.63585,-1.09149 -0.31212,-0.31212 -0.15548,-0.31212 v -2.33826 l -0.2338,-0.46741 -0.2338,-0.38888 -3.42975,-2.33826 -1.71417,1.01309 v 0.54576 l 3.19467,2.18158 0.0783,0.15664 0.0783,0.2338 v 2.41526 l 0.2338,0.39036 0.2338,0.2338"
       style="fill:#ffffff;fill-opacity:1;fill-rule:evenodd;stroke:none;stroke-width:1.37465"
       id="path106"
       inkscape:connector-curvature="0" />
    <path
       d="m 175.57176,151.83813 1.63585,-0.93477 v -0.38888 l -1.63585,-1.09149 -0.31212,-0.31212 -0.15548,-0.31212 v -2.33826 l -0.2338,-0.46741 -0.2338,-0.38888 -3.42975,-2.33826 -1.71417,1.01309 v 0.54576 l 3.19467,2.18158 0.0783,0.15664 0.0783,0.2338 v 2.41526 l 0.2338,0.39036 0.2338,0.2338 z"
       style="fill:none;stroke:#000000;stroke-width:0.312046;stroke-linecap:round;stroke-linejoin:round;stroke-miterlimit:10;stroke-dasharray:none;stroke-opacity:1"
       id="path108"
       inkscape:connector-curvature="0" />
    <path
       d="m 121.48618,169.21783 -1.71418,-0.93617 v -0.38889 l 1.63582,-1.09145 0.31212,-0.31056 0.2338,-0.31212 v -2.3383 l 0.15664,-0.46736 0.2338,-0.39041 3.50674,-2.33689 1.71418,1.01312 v 0.54436 l -3.19467,2.18294 -0.15664,0.15548 -0.0772,0.2338 v 2.41662 l -0.15665,0.38888 -0.31212,0.2338"
       style="fill:#ffffff;fill-opacity:1;fill-rule:evenodd;stroke:none;stroke-width:1.37465"
       id="path110"
       inkscape:connector-curvature="0" />
    <path
       d="m 121.48618,169.21783 -1.71418,-0.93617 v -0.38889 l 1.63582,-1.09145 0.31212,-0.31056 0.2338,-0.31212 v -2.3383 l 0.15664,-0.46736 0.2338,-0.39041 3.50674,-2.33689 1.71418,1.01312 v 0.54436 l -3.19467,2.18294 -0.15664,0.15548 -0.0772,0.2338 v 2.41662 l -0.15665,0.38888 -0.31212,0.2338 z"
       style="fill:none;stroke:#000000;stroke-width:0.312046;stroke-linecap:round;stroke-linejoin:round;stroke-miterlimit:10;stroke-dasharray:none;stroke-opacity:1"
       id="path112"
       inkscape:connector-curvature="0" />
    <path
       d="m 112.36815,163.9955 -1.63722,-1.01308 v -0.38889 l 1.63722,-1.09149 0.31212,-0.2338 0.2338,-0.31212 v -2.33689 l 0.15547,-0.46877 0.2338,-0.38889 3.42975,-2.33826 1.71417,1.01309 v 0.54577 l -3.19466,2.18153 -0.0783,0.15665 -0.0783,0.2338 v 2.41529 l -0.4674,0.62409"
       style="fill:#ffffff;fill-opacity:1;fill-rule:evenodd;stroke:none;stroke-width:1.37465"
       id="path114"
       inkscape:connector-curvature="0" />
    <path
       d="m 112.36815,163.9955 -1.63722,-1.01308 v -0.38889 l 1.63722,-1.09149 0.31212,-0.2338 0.2338,-0.31212 v -2.33689 l 0.15547,-0.46877 0.2338,-0.38889 3.42975,-2.33826 1.71417,1.01309 v 0.54577 l -3.19466,2.18153 -0.0783,0.15665 -0.0783,0.2338 v 2.41529 l -0.4674,0.62409 z"
       style="fill:none;stroke:#000000;stroke-width:0.312046;stroke-linecap:round;stroke-linejoin:round;stroke-miterlimit:10;stroke-dasharray:none;stroke-opacity:1"
       id="path116"
       inkscape:connector-curvature="0" />
    <path
       d="m 107.92527,161.42356 -1.71421,-1.01176 v -0.39041 l 1.63721,-1.09145 0.31212,-0.23379 0.2338,-0.38889 v -2.25994 l 0.15548,-0.46736 0.2338,-0.3904 3.50674,-2.41526 1.71418,1.01309 v 0.62272 l -3.19467,2.18294 -0.15547,0.15547 -0.0783,0.2338 v 2.41666 l -0.15547,0.31057 -0.31212,0.31212"
       style="fill:#ffffff;fill-opacity:1;fill-rule:evenodd;stroke:none;stroke-width:1.37465"
       id="path118"
       inkscape:connector-curvature="0" />
    <path
       d="m 107.92527,161.42356 -1.71421,-1.01176 v -0.39041 l 1.63721,-1.09145 0.31212,-0.23379 0.2338,-0.38889 v -2.25994 l 0.15548,-0.46736 0.2338,-0.3904 3.50674,-2.41526 1.71418,1.01309 v 0.62272 l -3.19467,2.18294 -0.15547,0.15547 -0.0783,0.2338 v 2.41666 l -0.15547,0.31057 -0.31212,0.31212 z"
       style="fill:none;stroke:#000000;stroke-width:0.312046;stroke-linecap:round;stroke-linejoin:round;stroke-miterlimit:10;stroke-dasharray:none;stroke-opacity:1"
       id="path120"
       inkscape:connector-curvature="0" />
    <path
       d="m 103.48376,158.85295 -1.63718,-1.01313 v -0.31212 l 1.63718,-1.09145 0.31212,-0.31212 0.15547,-0.31057 v -2.33829 l 0.15665,-0.46737 0.2338,-0.3904 3.50671,-2.33826 1.71421,1.01309 v 0.54576 l -3.19471,2.18294 -0.15664,0.15548 -0.0772,0.23379 v 2.41663 l -0.15665,0.31056 -0.31212,0.31212"
       style="fill:#ffffff;fill-opacity:1;fill-rule:evenodd;stroke:none;stroke-width:1.37465"
       id="path122"
       inkscape:connector-curvature="0" />
    <path
       d="m 103.48376,158.85295 -1.63718,-1.01313 v -0.31212 l 1.63718,-1.09145 0.31212,-0.31212 0.15547,-0.31057 v -2.33829 l 0.15665,-0.46737 0.2338,-0.3904 3.50671,-2.33826 1.71421,1.01309 v 0.54576 l -3.19471,2.18294 -0.15664,0.15548 -0.0772,0.23379 v 2.41663 l -0.15665,0.31056 -0.31212,0.31212 z"
       style="fill:none;stroke:#000000;stroke-width:0.312046;stroke-linecap:round;stroke-linejoin:round;stroke-miterlimit:10;stroke-dasharray:none;stroke-opacity:1"
       id="path124"
       inkscape:connector-curvature="0" />
    <path
       d="m 99.04092,156.28097 -1.71421,-1.01309 v -0.39041 l 1.63721,-1.09008 0.31212,-0.2338 0.2338,-0.39041 v -2.25993 l 0.15548,-0.46737 0.2338,-0.3904 3.42975,-2.41526 1.71417,1.01309 0.0771,0.62272 -3.1947,2.18294 -0.15548,0.15548 -0.0783,0.2338 v 2.41666 l -0.15548,0.31212 -0.31212,0.31056"
       style="fill:#ffffff;fill-opacity:1;fill-rule:evenodd;stroke:none;stroke-width:1.37465"
       id="path126"
       inkscape:connector-curvature="0" />
    <path
       d="m 99.04092,156.28097 -1.71421,-1.01309 v -0.39041 l 1.63721,-1.09008 0.31212,-0.2338 0.2338,-0.39041 v -2.25993 l 0.15548,-0.46737 0.2338,-0.3904 3.42975,-2.41526 1.71417,1.01309 0.0771,0.62272 -3.1947,2.18294 -0.15548,0.15548 -0.0783,0.2338 v 2.41666 l -0.15548,0.31212 -0.31212,0.31056 z"
       style="fill:none;stroke:#000000;stroke-width:0.312046;stroke-linecap:round;stroke-linejoin:round;stroke-miterlimit:10;stroke-dasharray:none;stroke-opacity:1"
       id="path128"
       inkscape:connector-curvature="0" />
    <path
       d="m 116.80962,166.56748 -1.63581,-1.01312 v -0.38889 l 1.63581,-1.09145 0.31212,-0.2338 0.15665,-0.38888 v -2.2613 l 0.15547,-0.46741 0.2338,-0.38888 3.50675,-2.41662 1.71417,1.01313 v 0.62408 l -3.19466,2.18158 -0.15548,0.15664 -0.0783,0.2338 v 2.41526 l -0.15548,0.31212 -0.2338,0.31212"
       style="fill:#ffffff;fill-opacity:1;fill-rule:evenodd;stroke:none;stroke-width:1.37465"
       id="path130"
       inkscape:connector-curvature="0" />
    <path
       d="m 116.80962,166.56748 -1.63581,-1.01312 v -0.38889 l 1.63581,-1.09145 0.31212,-0.2338 0.15665,-0.38888 v -2.2613 l 0.15547,-0.46741 0.2338,-0.38888 3.50675,-2.41662 1.71417,1.01313 v 0.62408 l -3.19466,2.18158 -0.15548,0.15664 -0.0783,0.2338 v 2.41526 l -0.15548,0.31212 -0.2338,0.31212 z"
       style="fill:none;stroke:#000000;stroke-width:0.312046;stroke-linecap:round;stroke-linejoin:round;stroke-miterlimit:10;stroke-dasharray:none;stroke-opacity:1"
       id="path132"
       inkscape:connector-curvature="0" />
    <path
       d="m 94.44409,153.63066 -1.71558,-1.01312 v -0.38889 l 1.63722,-1.09145 0.31212,-0.2338 0.2338,-0.38888 v -2.2613 l 0.15547,-0.46741 0.2338,-0.38888 3.50671,-2.41662 1.63721,1.01313 0.0783,0.62408 -3.19606,2.18154 -0.15548,0.15664 -0.0783,0.2338 v 2.4153 l -0.15547,0.31212 -0.31212,0.31212"
       style="fill:#ffffff;fill-opacity:1;fill-rule:evenodd;stroke:none;stroke-width:1.37465"
       id="path134"
       inkscape:connector-curvature="0" />
    <path
       d="m 94.44409,153.63066 -1.71558,-1.01312 v -0.38889 l 1.63722,-1.09145 0.31212,-0.2338 0.2338,-0.38888 v -2.2613 l 0.15547,-0.46741 0.2338,-0.38888 3.50671,-2.41662 1.63721,1.01313 0.0783,0.62408 -3.19606,2.18154 -0.15548,0.15664 -0.0783,0.2338 v 2.4153 l -0.15547,0.31212 -0.31212,0.31212 z"
       style="fill:none;stroke:#000000;stroke-width:0.312046;stroke-linecap:round;stroke-linejoin:round;stroke-miterlimit:10;stroke-dasharray:none;stroke-opacity:1"
       id="path136"
       inkscape:connector-curvature="0" />
    <path
       d="m 85.32465,148.40974 -1.63585,-1.01312 v -0.39041 l 1.63585,-1.09008 0.31213,-0.2338 0.15664,-0.39041 v -2.25993 l 0.2338,-0.46737 0.2338,-0.3904 3.42838,-2.41526 1.71558,1.01313 v 0.54572 l -3.19607,2.2599 -0.0783,0.15548 -0.0772,0.2338 v 2.41666 l -0.2338,0.31212 -0.2338,0.2338"
       style="fill:#ffffff;fill-opacity:1;fill-rule:evenodd;stroke:none;stroke-width:1.37465"
       id="path138"
       inkscape:connector-curvature="0" />
    <path
       d="m 85.32465,148.40974 -1.63585,-1.01312 v -0.39041 l 1.63585,-1.09008 0.31213,-0.2338 0.15664,-0.39041 v -2.25993 l 0.2338,-0.46737 0.2338,-0.3904 3.42838,-2.41526 1.71558,1.01313 v 0.54572 l -3.19607,2.2599 -0.0783,0.15548 -0.0772,0.2338 v 2.41666 l -0.2338,0.31212 -0.2338,0.2338 z"
       style="fill:none;stroke:#000000;stroke-width:0.312046;stroke-linecap:round;stroke-linejoin:round;stroke-miterlimit:10;stroke-dasharray:none;stroke-opacity:1"
       id="path140"
       inkscape:connector-curvature="0" />
    <path
       d="m 80.88314,145.7594 -1.71417,-0.93476 v -0.39037 l 1.63585,-1.09012 0.31212,-0.2338 0.2338,-0.39041 v -2.33826 l 0.15664,-0.4674 0.2338,-0.31056 3.50671,-2.41662 1.71421,1.01312 v 0.54573 l -3.1947,2.18157 -0.15665,0.15665 -0.0771,0.2338 v 2.41526 l -0.15664,0.3904 -0.31212,0.2338"
       style="fill:#ffffff;fill-opacity:1;fill-rule:evenodd;stroke:none;stroke-width:1.37465"
       id="path142"
       inkscape:connector-curvature="0" />
    <path
       d="m 80.88314,145.7594 -1.71417,-0.93476 v -0.39037 l 1.63585,-1.09012 0.31212,-0.2338 0.2338,-0.39041 v -2.33826 l 0.15664,-0.4674 0.2338,-0.31056 3.50671,-2.41662 1.71421,1.01312 v 0.54573 l -3.1947,2.18157 -0.15665,0.15665 -0.0771,0.2338 v 2.41526 l -0.15664,0.3904 -0.31212,0.2338 z"
       style="fill:none;stroke:#000000;stroke-width:0.312046;stroke-linecap:round;stroke-linejoin:round;stroke-miterlimit:10;stroke-dasharray:none;stroke-opacity:1"
       id="path144"
       inkscape:connector-curvature="0" />
    <path
       d="m 76.44031,143.26578 -1.63586,-1.01308 v -0.38889 l 1.63586,-1.09149 0.31212,-0.2338 0.15664,-0.3904 v -2.2599 l 0.15548,-0.4674 0.2338,-0.38889 3.50674,-2.41662 1.71554,1.01309 v 0.54576 l -3.19607,2.2599 -0.15547,0.15665 -0.0783,0.2338 v 2.41525 l -0.15548,0.31212 -0.31212,0.2338"
       style="fill:#ffffff;fill-opacity:1;fill-rule:evenodd;stroke:none;stroke-width:1.37465"
       id="path146"
       inkscape:connector-curvature="0" />
    <path
       d="m 76.44031,143.26578 -1.63586,-1.01308 v -0.38889 l 1.63586,-1.09149 0.31212,-0.2338 0.15664,-0.3904 v -2.2599 l 0.15548,-0.4674 0.2338,-0.38889 3.50674,-2.41662 1.71554,1.01309 v 0.54576 l -3.19607,2.2599 -0.15547,0.15665 -0.0783,0.2338 v 2.41525 l -0.15548,0.31212 -0.31212,0.2338 z"
       style="fill:none;stroke:#000000;stroke-width:0.312046;stroke-linecap:round;stroke-linejoin:round;stroke-miterlimit:10;stroke-dasharray:none;stroke-opacity:1"
       id="path148"
       inkscape:connector-curvature="0" />
    <path
       d="m 71.92043,140.61685 -1.63581,-0.93613 v -0.38889 l 1.63581,-1.09149 0.31212,-0.2338 0.2338,-0.39036 v -2.33694 l 0.15665,-0.46736 0.2338,-0.31212 3.42838,-2.41662 1.71421,1.01309 0.0783,0.54576 -3.19466,2.18294 -0.15665,0.15547 -0.0772,0.2338 v 2.41662 l -0.15664,0.38889 -0.31212,0.2338"
       style="fill:#ffffff;fill-opacity:1;fill-rule:evenodd;stroke:none;stroke-width:1.37465"
       id="path150"
       inkscape:connector-curvature="0" />
    <path
       d="m 71.92043,140.61685 -1.63581,-0.93613 v -0.38889 l 1.63581,-1.09149 0.31212,-0.2338 0.2338,-0.39036 v -2.33694 l 0.15665,-0.46736 0.2338,-0.31212 3.42838,-2.41662 1.71421,1.01309 0.0783,0.54576 -3.19466,2.18294 -0.15665,0.15547 -0.0772,0.2338 v 2.41662 l -0.15664,0.38889 -0.31212,0.2338 z"
       style="fill:none;stroke:#000000;stroke-width:0.312046;stroke-linecap:round;stroke-linejoin:round;stroke-miterlimit:10;stroke-dasharray:none;stroke-opacity:1"
       id="path152"
       inkscape:connector-curvature="0" />
    <path
       d="m 89.76753,150.90336 -1.63721,-0.93476 v -0.39041 l 1.63721,-1.09149 0.31212,-0.2338 0.15548,-0.38888 v -2.33826 l 0.15664,-0.46736 0.2338,-0.31212 3.50675,-2.41526 1.71417,1.01309 v 0.54576 l -3.1947,2.18154 -0.15665,0.15547 -0.0771,0.2338 v 2.41666 l -0.15664,0.38889 -0.31212,0.23496"
       style="fill:#ffffff;fill-opacity:1;fill-rule:evenodd;stroke:none;stroke-width:1.37465"
       id="path154"
       inkscape:connector-curvature="0" />
    <path
       d="m 89.76753,150.90336 -1.63721,-0.93476 v -0.39041 l 1.63721,-1.09149 0.31212,-0.2338 0.15548,-0.38888 v -2.33826 l 0.15664,-0.46736 0.2338,-0.31212 3.50675,-2.41526 1.71417,1.01309 v 0.54576 l -3.1947,2.18154 -0.15665,0.15547 -0.0771,0.2338 v 2.41666 l -0.15664,0.38889 -0.31212,0.23496 z"
       style="fill:none;stroke:#000000;stroke-width:0.312046;stroke-linecap:round;stroke-linejoin:round;stroke-miterlimit:10;stroke-dasharray:none;stroke-opacity:1"
       id="path156"
       inkscape:connector-curvature="0" />
  </g>
</svg>
